<svg xmlns="http://www.w3.org/2000/svg" width="250.0" height="250.0">
  <path d="" transform ="translate(0,0)" fill="#000000" />
  <path d="" transform ="translate(0,0)" fill="#000000" />
  <path d="" transform ="translate(0,0)" fill="#000000" />
  <path d="" transform ="translate(0,0)" fill="#000000" />
  <path d="" transform ="translate(0,0)" fill="#000000" />
  <path d="" transform ="translate(0,0)" fill="#000000" />
  <path d="" transform ="translate(0,0)" fill="#000000" />
  <path d="" transform ="translate(0,0)" fill="#000000" />
  <path d="" transform ="translate(0,0)" fill="#000000" />
  <path d="" transform ="translate(0,0)" fill="#000000" />
  <path d="" transform ="translate(0,0)" fill="#000000" />
  <path d="" transform ="translate(0,0)" fill="#000000" />
  <path d="" transform ="translate(0,0)" fill="#000000" />
  <path d="" transform ="translate(0,0)" fill="#000000" />
  <path d="" transform ="translate(0,0)" fill="#000000" />
  <path d="" transform ="translate(0,0)" fill="#000000" />
  <path d="" transform ="translate(0,0)" fill="#000000" />
  <path d="" transform ="translate(0,0)" fill="#000000" />
  <path d="" transform ="translate(0,0)" fill="#000000" />
  <path d="" transform ="translate(0,0)" fill="#000000" />
  <path d="" transform ="translate(0,0)" fill="#000000" />
  <path d="" transform ="translate(0,0)" fill="#000000" />
  <path d="" transform ="translate(0,0)" fill="#000000" />
  <path d="" transform ="translate(0,0)" fill="#000000" />
  <path d="" transform ="translate(0,0)" fill="#000000" />
  <path d="" transform ="translate(0,0)" fill="#000000" />
  <path d="" transform ="translate(0,0)" fill="#000000" />
  <path d="" transform ="translate(0,0)" fill="#000000" />
  <path d="" transform ="translate(0,0)" fill="#000000" />
  <path d="" transform ="translate(0,0)" fill="#000000" />
  <path d="" transform ="translate(0,0)" fill="#000000" />
  <path d="" transform ="translate(0,0)" fill="#000000" />
  <path d="" transform ="translate(0,0)" fill="#000000" />
  <path d="" transform ="translate(0,0)" fill="#000000" />
  <path d="" transform ="translate(0,0)" fill="#000000" />
  <path d="" transform ="translate(0,0)" fill="#000000" />
  <path d="" transform ="translate(0,0)" fill="#000000" />
  <path d="" transform ="translate(0,0)" fill="#000000" />
  <path d="" transform ="translate(0,0)" fill="#000000" />
  <path d="" transform ="translate(0,0)" fill="#000000" />
  <path d="" transform ="translate(0,0)" fill="#000000" />
  <path d="" transform ="translate(0,0)" fill="#000000" />
  <path d="" transform ="translate(0,0)" fill="#000000" />
  <path d="" transform ="translate(0,0)" fill="#000000" />
  <path d="" transform ="translate(0,0)" fill="#000000" />
  <path d="" transform ="translate(0,0)" fill="#000000" />
  <path d="" transform ="translate(0,0)" fill="#000000" />
  <path d="" transform ="translate(0,0)" fill="#000000" />
  <path d="" transform ="translate(0,0)" fill="#000000" />
  <path d="" transform ="translate(0,0)" fill="#000000" />
  <path d="" transform ="translate(0,0)" fill="#000000" />
  <path d="" transform ="translate(0,0)" fill="#000000" />
  <path d="" transform ="translate(0,0)" fill="#000000" />
  <path d="" transform ="translate(0,0)" fill="#000000" />
  <path d="" transform ="translate(0,0)" fill="#000000" />
  <path d="" transform ="translate(0,0)" fill="#000000" />
  <path d="" transform ="translate(0,0)" fill="#000000" />
  <path d="" transform ="translate(0,0)" fill="#000000" />
  <path d="" transform ="translate(0,0)" fill="#000000" />
  <path d="" transform ="translate(0,0)" fill="#000000" />
  <path d="" transform ="translate(0,0)" fill="#000000" />
  <path d="" transform ="translate(0,0)" fill="#000000" />
  <path d="" transform ="translate(0,0)" fill="#000000" />
  <path d="" transform ="translate(0,0)" fill="#000000" />
  <path d="" transform ="translate(0,0)" fill="#000000" />
  <path d="" transform ="translate(0,0)" fill="#000000" />
  <path d="" transform ="translate(0,0)" fill="#000000" />
  <path d="" transform ="translate(0,0)" fill="#000000" />
  <path d="" transform ="translate(0,0)" fill="#000000" />
  <path d="" transform ="translate(0,0)" fill="#000000" />
  <path d="" transform ="translate(0,0)" fill="#000000" />
  <path d="" transform ="translate(0,0)" fill="#000000" />
  <path d="" transform ="translate(0,0)" fill="#000000" />
  <path d="" transform ="translate(0,0)" fill="#000000" />
  <path d="" transform ="translate(0,0)" fill="#000000" />
  <path d="" transform ="translate(0,0)" fill="#000000" />
  <path d="" transform ="translate(0,0)" fill="#000000" />
  <path d="" transform ="translate(0,0)" fill="#000000" />
  <path d="" transform ="translate(0,0)" fill="#000000" />
  <path d="" transform ="translate(0,0)" fill="#000000" />
  <path d="" transform ="translate(0,0)" fill="#000000" />
  <path d="" transform ="translate(0,0)" fill="#000000" />
  <path d="" transform ="translate(0,0)" fill="#000000" />
  <path d="" transform ="translate(0,0)" fill="#000000" />
  <path d="" transform ="translate(0,0)" fill="#000000" />
  <path d="" transform ="translate(0,0)" fill="#000000" />
  <path d="" transform ="translate(0,0)" fill="#000000" />
  <path d="" transform ="translate(0,0)" fill="#000000" />
  <path d="" transform ="translate(0,0)" fill="#000000" />
  <path d="" transform ="translate(0,0)" fill="#000000" />
  <path d="" transform ="translate(0,0)" fill="#000000" />
  <path d="" transform ="translate(0,0)" fill="#000000" />
  <path d="" transform ="translate(0,0)" fill="#000000" />
  <path d="" transform ="translate(0,0)" fill="#000000" />
  <path d="" transform ="translate(0,0)" fill="#000000" />
  <path d="" transform ="translate(0,0)" fill="#000000" />
  <path d="" transform ="translate(0,0)" fill="#000000" />
  <path d="" transform ="translate(0,0)" fill="#000000" />
  <path d="" transform ="translate(0,0)" fill="#000000" />
  <path d="" transform ="translate(0,0)" fill="#000000" />
  <path d="" transform ="translate(0,0)" fill="#000000" />
  <path d="" transform ="translate(0,0)" fill="#000000" />
  <path d="" transform ="translate(0,0)" fill="#000000" />
  <path d="" transform ="translate(0,0)" fill="#000000" />
  <path d="" transform ="translate(0,0)" fill="#000000" />
  <path d="" transform ="translate(0,0)" fill="#000000" />
  <path d="" transform ="translate(0,0)" fill="#000000" />
  <path d="" transform ="translate(0,0)" fill="#000000" />
  <path d="M0 0 C0.99 0.33 1.98 0.66 3 1 C3.56 2.42 3.56 2.42 4.12 3.88 C4.29 4.51 4.45 5.15 4.61 5.81 C4.74 6.53 4.87 7.25 5 8 C5.06 8.77 5.11 9.55 5.17 10.35 C5.22 11.2 5.26 12.06 5.31 12.94 C5.38 13.87 5.45 14.8 5.53 15.76 C5.68 16.83 5.84 17.9 6 19 C6.16 19.65 6.32 20.3 6.48 20.96 C6.67 21.65 6.87 22.34 7.07 23.05 C7.28 23.76 7.49 24.46 7.71 25.19 C7.93 25.89 8.15 26.59 8.38 27.31 C8.58 27.98 8.79 28.65 9.01 29.34 C9.22 29.99 9.43 30.63 9.65 31.3 C9.86 31.92 10.08 32.54 10.3 33.18 C10.53 33.78 10.76 34.38 11 35 C11.27 35.6 11.55 36.2 11.83 36.81 C12.11 37.36 12.38 37.91 12.66 38.48 C13.33 39.73 13.33 39.73 14 41 C13.98 39.9 13.95 38.81 13.93 37.68 C13.92 36.98 13.91 36.28 13.9 35.56 C13.89 34.82 13.88 34.08 13.88 33.31 C13.85 32.23 13.85 32.23 13.82 31.13 C13.82 30.42 13.81 29.72 13.8 28.99 C13.81 28.3 13.82 27.62 13.83 26.91 C13.92 25.97 13.92 25.97 14 25 C14.33 24 14.67 23.01 15.01 21.98 C15.34 21.33 15.66 20.67 16 20 C16.73 20.73 16.73 20.73 17.48 21.47 C17.98 22.3 18.48 23.14 19 24 C19.09 24.59 19.18 25.18 19.27 25.79 C19.29 26.47 19.32 27.15 19.34 27.85 C19.34 28.59 19.34 29.33 19.34 30.09 C19.32 30.88 19.31 31.67 19.29 32.48 C19.29 33.3 19.28 34.12 19.28 34.96 C19.27 35.8 19.27 36.64 19.26 37.5 C19.25 38.36 19.24 39.22 19.23 40.11 C19.21 41.42 19.21 41.42 19.19 42.75 C19.18 44.07 19.18 44.07 19.16 45.41 C19.16 46.28 19.15 47.15 19.15 48.04 C19.14 48.88 19.13 49.72 19.13 50.59 C19.12 51.8 19.12 51.8 19.11 53.05 C19.09 54.24 19.09 54.24 19.08 55.46 C19.07 56.19 19.06 56.92 19.05 57.67 C19.03 58.77 19.02 59.87 19 61 C18.01 61.5 18.01 61.5 17 62 C16.67 61.34 16.34 60.68 16 60 C15.93 59.44 15.86 58.88 15.79 58.3 C15.76 57.64 15.72 56.98 15.68 56.3 C15.64 55.59 15.6 54.87 15.56 54.14 C15.52 53.39 15.48 52.64 15.44 51.88 C15.37 50.74 15.37 50.74 15.31 49.59 C15.27 48.88 15.23 48.16 15.18 47.43 C15.12 46.3 15.06 45.17 15 44 C14.39 43.96 13.79 43.92 13.16 43.88 C12.45 43.59 11.74 43.3 11 43 C10.53 42.12 10.07 41.24 9.59 40.34 C9.38 39.8 9.18 39.25 8.97 38.7 C8.77 38.12 8.58 37.54 8.38 36.94 C8.06 36.05 8.06 36.05 7.73 35.15 C7.52 34.56 7.31 33.97 7.1 33.37 C6.9 32.79 6.71 32.21 6.51 31.61 C6.34 31.08 6.17 30.55 6 30 C5.77 29.2 5.54 28.4 5.31 27.57 C5.14 26.91 4.98 26.25 4.81 25.56 C4.7 25.01 4.58 24.45 4.46 23.88 C4.31 23.26 4.16 22.64 4 22 C3.68 21.11 3.35 20.22 3.02 19.3 C2.51 17.67 2.51 17.67 2 16 C1.88 15.35 1.77 14.69 1.65 14.02 C1.56 13.32 1.46 12.63 1.37 11.91 C1.28 11.21 1.2 10.51 1.11 9.79 C1.03 9.07 0.96 8.36 0.88 7.62 C0.79 6.89 0.7 6.15 0.61 5.39 C0.49 4.35 0.49 4.35 0.37 3.29 C0.25 2.2 0.12 1.12 0 0 Z " transform ="translate(43,63)" fill="#000000" />
  <path d="M0 0 C0.66 0 1.32 0 2 0 C1.34 1.65 0.68 3.3 0 5 C-0.33 4.34 -0.66 3.68 -1 3 C-0.67 2.01 -0.34 1.02 0 0 Z " transform ="translate(44,56)" fill="#000000" />
  <path d="M0 0 C0.66 0.66 1.32 1.32 2 2 C1.69 2.88 1.37 3.76 1.05 4.67 C0.74 5.51 0.74 5.51 0.42 6.38 C0.2 6.97 -0.02 7.57 -0.25 8.19 C-0.45 8.77 -0.66 9.34 -0.87 9.94 C-1.08 10.51 -1.3 11.08 -1.52 11.67 C-1.74 12.23 -1.97 12.79 -2.2 13.37 C-2.46 13.91 -2.73 14.45 -3 15 C-3.35 15.51 -3.7 16.02 -4.06 16.54 C-4.43 17 -4.8 17.46 -5.17 17.93 C-5.78 18.61 -6.38 19.29 -7 20 C-7.66 19.67 -8.32 19.34 -9 19 C-8.69 18.21 -8.37 17.43 -8.05 16.62 C-7.4 15.05 -7.4 15.05 -6.75 13.44 C-6.53 12.89 -6.3 12.35 -6.07 11.78 C-5.73 10.97 -5.73 10.97 -5.38 10.14 C-4.7 8.58 -4.7 8.58 -4 7 C-3.6 6.22 -3.19 5.45 -2.78 4.64 C-2.42 4.02 -2.06 3.39 -1.69 2.75 C-1.13 1.84 -0.57 0.94 0 0 Z " transform ="translate(55,32)" fill="#000000" />
  <path d="M0 0 C0.66 0.33 1.32 0.66 2 1 C1.67 1.66 1.34 2.32 1 3 C0.34 2.67 -0.32 2.34 -1 2 C-0.67 1.34 -0.34 0.68 0 0 Z " transform ="translate(56,39)" fill="#000000" />
  <path d="M0 0 C0.33 0.66 0.66 1.32 1 2 C-1.31 3.65 -3.62 5.3 -6 7 C-5.63 6.1 -5.63 6.1 -5.25 5.19 C-4.84 4.47 -4.42 3.74 -4 3 C-3.3 2.42 -2.6 1.84 -1.88 1.25 C-1.26 0.84 -0.64 0.42 0 0 Z " transform ="translate(64,32)" fill="#000000" />
  <path d="M0 0 C1.65 0 3.3 0 5 0 C5 0.66 5 1.32 5 2 C3.35 1.67 1.7 1.34 0 1 C0 0.67 0 0.34 0 0 Z " transform ="translate(97,4)" fill="#000000" />
  <path d="M0 0 C0.99 0.5 0.99 0.5 2 1 C1.01 1.5 1.01 1.5 0 2 C0 1.34 0 0.68 0 0 Z " transform ="translate(93,3)" fill="#000000" />
  <path d="M0 0 C1.13 0.24 1.13 0.24 2.27 0.48 C3.81 0.83 3.81 0.83 5.38 1.19 C6.46 1.46 7.55 1.73 8.68 2.02 C9.77 2.34 10.87 2.67 12 3 C12.96 3.39 13.93 3.77 14.92 4.17 C15.79 4.59 16.66 5.01 17.56 5.44 C18.35 5.83 19.13 6.22 19.94 6.62 C20.96 7.3 20.96 7.3 22 8 C22.88 9.07 22.88 9.07 23.78 10.16 C24.18 10.77 24.58 11.37 25 12 C25 11.3 25 10.6 25 9.88 C24.67 8.93 24.34 7.98 24 7 C23.09 6.17 23.09 6.17 22.15 5.33 C21.42 4.79 20.69 4.25 19.94 3.69 C19.2 3.18 18.47 2.66 17.71 2.14 C17.15 1.76 16.58 1.39 16 1 C16.99 0.67 17.98 0.34 19 0 C19.53 0.19 20.06 0.38 20.61 0.57 C21.17 0.94 21.73 1.31 22.31 1.69 C22.92 2.14 23.53 2.59 24.16 3.06 C24.76 3.7 25.37 4.34 26 5 C26.57 5.98 27.13 6.96 27.72 7.97 C28.12 8.78 28.12 8.78 28.53 9.6 C28.92 10.42 28.92 10.42 29.31 11.25 C29.68 12.07 29.68 12.07 30.05 12.9 C30.27 13.41 30.5 13.92 30.74 14.45 C31.15 15.29 31.57 16.13 32 17 C32.66 17.33 33.32 17.66 34 18 C33.67 18.66 33.34 19.32 33 20 C32.01 20.33 31.02 20.66 30 21 C29.5 20.32 29 19.64 28.48 18.94 C27.66 18.3 26.84 17.66 26 17 C25.17 16.95 25.17 16.95 24.31 16.91 C23.38 17.03 23.38 17.03 22.43 17.15 C21.76 17.27 21.1 17.39 20.42 17.51 C19.72 17.65 19.03 17.79 18.31 17.94 C17.59 18.05 16.87 18.17 16.13 18.29 C15.42 18.39 14.71 18.49 13.97 18.59 C13.28 18.68 12.59 18.77 11.88 18.86 C11.26 18.91 10.64 18.95 10 19 C9.13 18.89 8.26 18.77 7.37 18.66 C6.67 18.42 5.97 18.18 5.25 17.94 C4.58 17.65 3.91 17.36 3.22 17.06 C2.49 16.71 1.76 16.36 1 16 C-0.01 15.59 -1.02 15.18 -2.07 14.75 C-2.6 14.53 -3.14 14.32 -3.69 14.09 C-4.23 13.88 -4.76 13.66 -5.31 13.44 C-6.3 13.02 -7.28 12.61 -8.3 12.18 C-9.19 11.79 -10.08 11.4 -11 11 C-11.78 10.62 -12.55 10.24 -13.36 9.85 C-13.9 9.57 -14.44 9.29 -15 9 C-13.52 8.66 -13.52 8.66 -12 8.31 C-11.36 8.22 -10.72 8.13 -10.06 8.04 C-9.38 8.03 -8.7 8.01 -8 8 C-7.01 8.23 -7.01 8.23 -6 8.46 C-5.01 8.82 -5.01 8.82 -4 9.19 C-3.33 9.47 -2.66 9.74 -1.97 10.03 C-1.32 10.35 -0.67 10.67 0 11 C0.88 11.54 0.88 11.54 1.78 12.09 C2.63 12.64 2.63 12.64 3.5 13.19 C4.06 13.53 4.62 13.87 5.19 14.21 C5.79 14.47 6.39 14.73 7 15 C7.73 15.08 8.46 15.17 9.21 15.25 C9.95 15.25 10.68 15.25 11.44 15.25 C12.39 15.19 12.39 15.19 13.36 15.12 C13.9 15.08 14.44 15.04 15 15 C13.76 14.06 13.76 14.06 12.49 13.11 C11.94 12.74 11.4 12.38 10.83 12 C10.23 11.67 9.62 11.34 9 11 C8.37 10.8 7.75 10.6 7.1 10.39 C6.45 10.24 5.8 10.1 5.13 9.95 C4.48 9.83 3.82 9.71 3.14 9.58 C2.48 9.47 1.81 9.36 1.12 9.25 C0.44 9.12 -0.25 9 -0.96 8.87 C-1.61 8.75 -2.26 8.64 -2.93 8.52 C-3.94 8.35 -4.96 8.18 -6 8 C-6 7.34 -6 6.68 -6 6 C-4.87 5.94 -3.73 5.88 -2.56 5.81 C-1.83 5.81 -1.1 5.81 -0.34 5.81 C0.43 5.87 1.2 5.94 2 6 C3.1 6.28 3.1 6.28 4.22 6.56 C5.32 6.93 5.32 6.93 6.44 7.31 C7.18 7.58 7.92 7.85 8.68 8.13 C9.45 8.42 10.21 8.71 11 9 C11.85 9.29 12.7 9.57 13.57 9.87 C14.39 10.14 15.22 10.41 16.06 10.69 C16.82 10.94 17.57 11.19 18.35 11.45 C18.89 11.63 19.44 11.81 20 12 C19.34 12.99 18.68 13.98 18 15 C19.32 15 20.64 15 22 15 C22.33 14.34 22.66 13.68 23 13 C22.34 13 21.68 13 21 13 C21 12.01 21 11.02 21 10 C20.43 9.82 19.86 9.64 19.28 9.45 C18.51 9.2 17.73 8.95 16.94 8.69 C16.12 8.41 15.29 8.14 14.45 7.86 C13.64 7.58 12.83 7.29 12 7 C11.36 6.74 10.72 6.47 10.05 6.2 C9.48 5.95 8.9 5.7 8.31 5.44 C7.48 5.07 7.48 5.07 6.64 4.7 C6.1 4.47 5.56 4.24 5 4 C4.42 3.79 3.83 3.58 3.23 3.37 C2.41 3.09 2.41 3.09 1.56 2.81 C0.72 2.54 -0.13 2.28 -1 2 C-0.67 1.34 -0.34 0.68 0 0 Z " transform ="translate(90,7)" fill="#000000" />
  <path d="M0 0 C1.32 0.33 2.64 0.66 4 1 C4 1.99 4 2.98 4 4 C3.34 4 2.68 4 2 4 C1.34 2.68 0.68 1.36 0 0 Z " transform ="translate(84,4)" fill="#000000" />
  <path d="M0 0 C1.07 0.1 2.14 0.21 3.25 0.31 C3.89 0.4 4.52 0.49 5.18 0.59 C6.08 0.79 6.08 0.79 7 1 C7.8 1.47 8.61 1.95 9.44 2.44 C9.95 2.95 10.47 3.47 11 4 C11 4.66 11 5.32 11 6 C10.11 5.75 9.23 5.5 8.31 5.25 C7.77 5.07 7.23 4.89 6.67 4.71 C6.12 4.48 5.57 4.24 5 4 C4.5 3.66 4 3.32 3.49 2.98 C3.04 2.61 2.59 2.25 2.12 1.88 C1.42 1.26 0.72 0.64 0 0 Z " transform ="translate(82,22)" fill="#000000" />
  <path d="M0 0 C1.03 0.14 2.06 0.29 3.12 0.44 C4.07 0.62 5.02 0.81 6 1 C6 1.99 6 2.98 6 4 C5.24 3.69 4.47 3.38 3.69 3.06 C2.8 2.71 1.91 2.36 1 2 C0.01 1.67 -0.98 1.34 -2 1 C-1.34 0.67 -0.68 0.34 0 0 Z " transform ="translate(81,28)" fill="#000000" />
  <path d="M0 0 C0.97 0.01 0.97 0.01 1.96 0.02 C2.59 0.12 3.22 0.21 3.88 0.31 C4.91 0.54 5.94 0.77 7 1 C6.67 1.66 6.34 2.32 6 3 C4.89 3.23 3.77 3.45 2.62 3.69 C1.69 3.93 1.69 3.93 0.73 4.18 C0.16 4.45 -0.41 4.72 -1 5 C-1.58 5.73 -1.58 5.73 -2.16 6.47 C-2.44 7.06 -2.72 7.65 -3 8.25 C-3.21 8.86 -3.43 9.48 -3.64 10.11 C-3.76 10.74 -3.88 11.36 -4 12 C-3.9 13.13 -3.79 14.27 -3.69 15.44 C-3.46 16.28 -3.23 17.13 -3 18 C-4.32 18.33 -5.64 18.66 -7 19 C-7.33 20.65 -7.66 22.3 -8 24 C-10.31 24.66 -12.62 25.32 -15 26 C-15 26.66 -15 27.32 -15 28 C-15.66 28.66 -16.32 29.32 -17 30 C-17.66 30.66 -18.32 31.32 -19 32 C-19.33 31.01 -19.66 30.02 -20 29 C-19.13 27.67 -19.13 27.67 -18.25 26.31 C-17.51 25.55 -16.77 24.79 -16 24 C-15.01 24 -14.02 24 -13 24 C-12.9 23.38 -12.79 22.76 -12.69 22.12 C-12.46 21.42 -12.23 20.72 -12 20 C-11.51 19.73 -11.01 19.46 -10.5 19.19 C-10.01 18.8 -9.51 18.4 -9 18 C-8.81 16.89 -8.63 15.77 -8.44 14.62 C-8.38 14 -8.31 13.38 -8.25 12.74 C-8.17 12.16 -8.09 11.59 -8 11 C-7.65 10.28 -7.3 9.56 -6.94 8.81 C-6.63 8.21 -6.32 7.62 -6 7 C-5.96 6.26 -5.92 5.52 -5.88 4.75 C-5.92 4.17 -5.96 3.59 -6 3 C-5.15 2.48 -4.31 1.97 -3.44 1.44 C-2.9 1.16 -2.36 0.89 -1.8 0.6 C-1.21 0.4 -0.61 0.2 0 0 Z " transform ="translate(73,26)" fill="#000000" />
  <path d="M0 0 C2 1 2 1 2 1 Z " transform ="translate(73,12)" fill="#000000" />
  <path d="M0 0 C2 1 2 1 2 1 Z " transform ="translate(75,11)" fill="#000000" />
  <path d="M0 0 C4 1 4 1 4 1 Z " transform ="translate(77,10)" fill="#000000" />
  <path d="M0 0 C0.66 0 1.32 0 2 0 C1.67 0.99 1.34 1.98 1 3 C0.57 3.35 0.14 3.7 -0.3 4.06 C-1.08 4.53 -1.08 4.53 -1.88 5 C-2.68 5.5 -2.68 5.5 -3.5 6.02 C-3.99 6.34 -4.49 6.67 -5 7 C-5.62 7.58 -6.24 8.16 -6.88 8.75 C-7.43 9.37 -7.43 9.37 -8 10 C-7.67 8.35 -7.34 6.7 -7 5 C-6.01 4.67 -5.02 4.34 -4 4 C-4 3.34 -4 2.68 -4 2 C-3.38 1.67 -2.76 1.34 -2.12 1 C-1.42 0.67 -0.72 0.34 0 0 Z " transform ="translate(65,22)" fill="#000000" />
  <path d="M0 0 C0.99 0.33 1.98 0.66 3 1 C2.01 1.33 1.02 1.66 0 2 C0 1.34 0 0.68 0 0 Z " transform ="translate(68,20)" fill="#000000" />
  <path d="M0 0 C0.91 0.06 0.91 0.06 1.85 0.12 C2.58 0.23 3.31 0.33 4.06 0.44 C4.8 0.54 5.53 0.64 6.29 0.75 C7.13 0.87 7.13 0.87 8 1 C8 1.66 8 2.32 8 3 C7.44 3.19 6.89 3.37 6.31 3.56 C5.17 3.78 5.17 3.78 4 4 C2.64 3.78 2.64 3.78 1.25 3.56 C0.51 3.38 -0.23 3.19 -1 3 C-1 3.66 -1 4.32 -1 5 C-1.66 5 -2.32 5 -3 5 C-2.69 4.36 -2.38 3.72 -2.06 3.06 C-1.71 2.38 -1.36 1.7 -1 1 C-0.67 0.67 -0.34 0.34 0 0 Z " transform ="translate(67,16)" fill="#000000" />
  <path d="M0 0 C0.33 0 0.66 0 1 0 C1 1.65 1 3.3 1 5 C0.01 5.5 0.01 5.5 -1 6 C-1.33 5.01 -1.66 4.02 -2 3 C-1.71 2.44 -1.42 1.89 -1.12 1.31 C-0.75 0.88 -0.38 0.45 0 0 Z " transform ="translate(125,16)" fill="#000000" />
  <path d="M0 0 C0.66 0 1.32 0 2 0 C2 0.66 2 1.32 2 2 C1.34 2 0.68 2 0 2 C0 1.34 0 0.68 0 0 Z " transform ="translate(125,23)" fill="#000000" />
  <path d="M0 0 C0.66 0.33 1.32 0.66 2 1 C1.01 1 0.02 1 -1 1 C-0.67 0.67 -0.34 0.34 0 0 Z " transform ="translate(160,23)" fill="#000000" />
  <path d="M0 0 C2 1 2 1 2 1 Z " transform ="translate(162,22)" fill="#000000" />
  <path d="M0 0 C0.8 0.37 0.8 0.37 1.62 0.75 C2.41 1.16 3.19 1.58 4 2 C4.71 2.47 4.71 2.47 5.43 2.95 C5.92 3.3 6.42 3.64 6.94 4 C7.45 4.35 7.96 4.7 8.48 5.06 C8.98 5.37 9.48 5.68 10 6 C10.91 6.35 11.81 6.7 12.75 7.06 C13.86 7.53 13.86 7.53 15 8 C15.35 8.41 15.69 8.83 16.05 9.25 C16.36 9.83 16.68 10.41 17 11 C17.26 11.76 17.52 12.52 17.78 13.3 C18.02 14.15 18.26 15 18.5 15.88 C18.88 17.2 18.88 17.2 19.27 18.55 C19.51 19.36 19.75 20.17 20 21 C20.39 22.03 20.78 23.06 21.19 24.12 C21.46 24.74 21.72 25.36 22 26 C22.99 22.53 22.99 22.53 24 19 C24.66 19.33 25.32 19.66 26 20 C26.31 21.08 26.31 21.08 26.63 22.18 C26.8 23.07 26.96 23.96 27.12 24.88 C27.29 25.76 27.46 26.64 27.63 27.55 C27.75 28.36 27.88 29.17 28 30 C28 30.99 28 31.98 28 33 C28 33.99 28 34.98 28 36 C29.65 36.33 31.3 36.66 33 37 C33.31 37.95 33.62 38.9 33.94 39.88 C34.29 40.91 34.64 41.94 35 43 C35.33 43.66 35.66 44.32 36 45 C35.42 44.95 34.83 44.89 34.23 44.84 C33.5 44.56 32.76 44.29 32 44 C31.37 43.2 30.73 42.39 30.08 41.57 C29.78 41.08 29.47 40.6 29.16 40.1 C28.86 39.59 28.56 39.09 28.25 38.56 C27.93 38.06 27.62 37.56 27.29 37.04 C27 36.55 26.7 36.07 26.39 35.57 C25.7 34.3 25.7 34.3 25 33 C25 32.34 25 31.68 25 31 C24.01 31.33 23.02 31.66 22 32 C21.5 31.09 21.01 30.19 20.5 29.25 C20.09 28.43 20.09 28.43 19.67 27.6 C19.45 27.07 19.23 26.54 19 26 C18.94 25.22 18.88 24.43 18.81 23.62 C18.87 23.09 18.94 22.55 19 22 C18.34 22 17.68 22 17 22 C16.74 21.19 16.49 20.38 16.22 19.55 C15.84 18.48 15.46 17.41 15.06 16.31 C14.85 15.76 14.63 15.2 14.41 14.63 C14.18 14.09 13.94 13.54 13.7 12.98 C13.14 12 12.58 11.01 12 10 C10.9 9.14 10.9 9.14 9.77 8.27 C8.98 7.87 8.19 7.47 7.38 7.06 C6.6 6.72 5.83 6.38 5.03 6.02 C4.36 5.69 3.69 5.35 3 5 C2.32 4.07 1.64 3.14 0.94 2.19 C0.63 1.47 0.32 0.74 0 0 Z M23 28 C23.33 28.66 23.66 29.32 24 30 C24.33 29.34 24.66 28.68 25 28 C24.34 28 23.68 28 23 28 Z " transform ="translate(170,32)" fill="#000000" />
  <path d="M0 0 C0.66 0.33 1.32 0.66 2 1 C0.35 1.66 -1.3 2.32 -3 3 C-2.01 2.01 -1.02 1.02 0 0 Z " transform ="translate(171,26)" fill="#000000" />
  <path d="M0 0 C0.89 0.1 1.77 0.21 2.69 0.31 C3.45 0.54 4.21 0.77 5 1 C5.33 1.66 5.66 2.32 6 3 C5.18 3.08 4.36 3.17 3.52 3.25 C1.9 3.41 1.9 3.41 0.25 3.56 C-1.35 3.72 -1.35 3.72 -2.98 3.88 C-4.48 3.94 -4.48 3.94 -6 4 C-6.73 3.82 -7.45 3.64 -8.2 3.46 C-8.79 3.31 -9.39 3.16 -10 3 C-11.01 3.35 -12.02 3.7 -13.06 4.06 C-14.52 4.53 -14.52 4.53 -16 5 C-16.62 4.71 -17.24 4.42 -17.88 4.12 C-18.25 3.75 -18.62 3.38 -19 3 C-18.67 2.34 -18.34 1.68 -18 1 C-17.2 1.19 -16.39 1.37 -15.56 1.56 C-14.72 1.71 -13.87 1.85 -13 2 C-12.67 1.67 -12.34 1.34 -12 1 C-11.44 0.98 -10.87 0.96 -10.29 0.94 C-9.6 0.96 -8.9 0.98 -8.19 1 C-7.46 1.01 -6.74 1.02 -5.99 1.04 C-5.33 1.02 -4.68 1.01 -4 1 C-3.28 0.81 -2.56 0.63 -1.81 0.44 C-1.21 0.29 -0.62 0.15 0 0 Z " transform ="translate(164,29)" fill="#000000" />
  <path d="M0 0 C1.49 0.99 1.49 0.99 3 2 C2.67 2.66 2.34 3.32 2 4 C1.34 2.68 0.68 1.36 0 0 Z " transform ="translate(180,17)" fill="#000000" />
  <path d="M0 0 C0.99 0.5 0.99 0.5 2 1 C1.67 1.66 1.34 2.32 1 3 C0.67 2.01 0.34 1.02 0 0 Z " transform ="translate(183,21)" fill="#000000" />
  <path d="M0 0 C0.66 0 1.32 0 2 0 C2 0.99 2 1.98 2 3 C2.78 3.27 3.57 3.54 4.38 3.81 C5.24 4.2 6.11 4.6 7 5 C7.43 5.54 7.87 6.07 8.31 6.62 C8.54 7.08 8.77 7.53 9 8 C6.53 7.01 6.53 7.01 4 6 C4 8.31 4 10.62 4 13 C3.01 12.67 2.02 12.34 1 12 C0.67 8.04 0.34 4.08 0 0 Z " transform ="translate(171,9)" fill="#000000" />
  <path d="M0 0 C0.99 0.33 1.98 0.66 3 1 C3.25 1.64 3.5 2.28 3.75 2.94 C3.87 4.45 3.87 4.45 4 6 C3.79 6.6 3.57 7.19 3.35 7.81 C3.03 8.49 2.71 9.17 2.38 9.88 C1.81 11.03 1.81 11.03 1.24 12.2 C0.83 13.13 0.42 14.05 0 15 C-0.2 15.58 -0.41 16.16 -0.62 16.76 C-0.83 17.39 -1.03 18.02 -1.24 18.67 C-1.45 19.32 -1.66 19.97 -1.87 20.64 C-2.08 21.29 -2.29 21.95 -2.5 22.62 C-2.81 23.6 -2.81 23.6 -3.13 24.6 C-3.44 25.54 -3.44 25.54 -3.76 26.51 C-3.97 27.12 -4.17 27.72 -4.38 28.34 C-4.59 28.89 -4.79 29.44 -5 30 C-5.4 30.83 -5.8 31.66 -6.21 32.52 C-6.57 33.15 -6.94 33.79 -7.31 34.44 C-8.15 35.71 -8.15 35.71 -9 37 C-9.66 36.34 -10.32 35.68 -11 35 C-9.35 31.04 -7.7 27.08 -6 23 C-6.33 22.67 -6.66 22.34 -7 22 C-7.34 22.87 -7.68 23.74 -8.02 24.63 C-8.24 25.19 -8.46 25.75 -8.68 26.33 C-8.91 26.92 -9.14 27.51 -9.38 28.12 C-9.6 28.69 -9.82 29.26 -10.05 29.85 C-10.27 30.42 -10.49 30.99 -10.71 31.57 C-10.93 32.14 -11.14 32.7 -11.37 33.29 C-11.58 33.85 -11.78 34.42 -12 35 C-12.2 35.58 -12.4 36.17 -12.61 36.77 C-12.79 37.32 -12.98 37.86 -13.16 38.43 C-13.44 39.28 -13.72 40.13 -14 41 C-14.66 41 -15.32 41 -16 41 C-15.96 39.95 -15.92 38.9 -15.88 37.81 C-15.79 37.09 -15.7 36.37 -15.61 35.62 C-15.41 34.76 -15.21 33.89 -15 33 C-14.56 31.94 -14.12 30.88 -13.67 29.79 C-13.41 29.22 -13.15 28.66 -12.88 28.08 C-12.61 27.52 -12.34 26.95 -12.06 26.38 C-11.66 25.57 -11.66 25.57 -11.26 24.75 C-11 24.22 -10.74 23.69 -10.47 23.15 C-9.99 22.11 -9.5 21.07 -9 20 C-8.63 18.92 -8.25 17.84 -7.87 16.73 C-7.58 15.83 -7.3 14.93 -7 14 C-6.67 13.34 -6.34 12.68 -6 12 C-5.34 12 -4.68 12 -4 12 C-3.88 11.38 -3.75 10.76 -3.62 10.12 C-3.42 9.42 -3.21 8.72 -3 8 C-2.34 7.34 -1.68 6.68 -1 6 C-0.79 4.97 -0.59 3.94 -0.38 2.88 C-0.25 1.93 -0.13 0.98 0 0 Z " transform ="translate(197,91)" fill="#000000" />
  <path d="M0 0 C1.32 0.33 2.64 0.66 4 1 C3.01 1.33 2.02 1.66 1 2 C0.67 1.34 0.34 0.68 0 0 Z " transform ="translate(200,85)" fill="#000000" />
  <path d="M0 0 C0.33 0 0.66 0 1 0 C1 3.63 1 7.26 1 11 C2.65 11 4.3 11 6 11 C5.67 11.99 5.34 12.98 5 14 C4.01 14.33 3.02 14.66 2 15 C1.81 16.36 1.81 16.36 1.62 17.75 C1.42 18.82 1.21 19.89 1 21 C0.65 21.78 0.3 22.57 -0.06 23.38 C-0.37 23.91 -0.68 24.45 -1 25 C-1.74 23.82 -1.74 23.82 -2.5 22.62 C-3.24 21.33 -3.24 21.33 -4 20 C-4 19.34 -4 18.68 -4 18 C-3.34 18 -2.68 18 -2 18 C-2 17.34 -2 16.68 -2 16 C-2.66 16 -3.32 16 -4 16 C-3.69 15.01 -3.38 14.02 -3.06 13 C-2.88 12.37 -2.7 11.74 -2.51 11.09 C-2.34 10.4 -2.17 9.71 -2 9 C-1.89 8.27 -1.79 7.54 -1.68 6.79 C-1.56 5.72 -1.56 5.72 -1.44 4.62 C-1.37 3.96 -1.31 3.29 -1.25 2.6 C-1.16 2.07 -1.08 1.54 -1 1 C-0.67 0.67 -0.34 0.34 0 0 Z " transform ="translate(191,74)" fill="#000000" />
  <path d="M0 0 C0.33 0.37 0.66 0.74 1 1.12 C1.33 1.74 1.66 2.36 2 3 C2.06 4.58 2.06 4.58 2.12 6.19 C2.08 7.12 2.04 8.04 2 9 C1.67 8.44 1.34 7.89 1 7.31 C0.67 6.55 0.34 5.79 0 5 C-0.04 4.09 -0.08 3.19 -0.12 2.25 C-0.06 1.14 -0.06 1.14 0 0 Z " transform ="translate(187,74)" fill="#000000" />
  <path d="M0 0 C0.33 0 0.66 0 1 0 C1 1.65 1 3.3 1 5 C0.67 5 0.34 5 0 5 C0 3.35 0 1.7 0 0 Z " transform ="translate(187,57)" fill="#000000" />
  <path d="M0 0 C0.66 0 1.32 0 2 0 C2 0.99 2 1.98 2 3 C1.34 3 0.68 3 0 3 C0 2.01 0 1.02 0 0 Z " transform ="translate(201,47)" fill="#000000" />
  <path d="M0 0 C0.99 0.33 1.98 0.66 3 1 C2.67 1.99 2.34 2.98 2 4 C1.34 2.68 0.68 1.36 0 0 Z " transform ="translate(202,51)" fill="#000000" />
  <path d="M0 0 C0.66 0 1.32 0 2 0 C1.67 0.99 1.34 1.98 1 3 C0.67 2.01 0.34 1.02 0 0 Z " transform ="translate(204,56)" fill="#000000" />
  <path d="M0 0 C0.66 0 1.32 0 2 0 C2.29 0.77 2.58 1.54 2.88 2.34 C3.43 3.84 3.43 3.84 4 5.38 C4.56 6.87 4.56 6.87 5.12 8.4 C5.41 9.26 5.7 10.12 6 11 C6 11.66 6 12.32 6 13 C5.01 12.67 4.02 12.34 3 12 C2.69 11.44 2.37 10.87 2.05 10.29 C1.81 9.6 1.56 8.9 1.31 8.19 C1.06 7.5 0.81 6.81 0.55 6.11 C0.37 5.41 0.19 4.72 0 4 C-0.03 3.25 -0.05 2.51 -0.08 1.74 C-0.05 1.16 -0.03 0.59 0 0 Z " transform ="translate(195,33)" fill="#000000" />
  <path d="M0 0 C0.66 0.66 1.32 1.32 2 2 C1.34 2 0.68 2 0 2 C0 1.34 0 0.68 0 0 Z " transform ="translate(194,29)" fill="#000000" />
  <path d="M0 0 C1.98 0.99 1.98 0.99 4 2 C3.67 2.66 3.34 3.32 3 4 C2.01 2.68 1.02 1.36 0 0 Z " transform ="translate(189,24)" fill="#000000" />
  <path d="M0 0 C0.99 0.5 0.99 0.5 2 1 C1.67 1.66 1.34 2.32 1 3 C0.67 2.01 0.34 1.02 0 0 Z " transform ="translate(188,29)" fill="#000000" />
  <path d="M0 0 C1.65 0 3.3 0 5 0 C5 0.33 5 0.66 5 1 C3.35 1 1.7 1 0 1 C0 0.67 0 0.34 0 0 Z " transform ="translate(163,96)" fill="#000000" />
  <path d="M0 0 C2 1 2 1 2 1 Z " transform ="translate(159,96)" fill="#000000" />
  <path d="M0 0 C1.98 0.99 1.98 0.99 4 2 C2.68 1.67 1.36 1.34 0 1 C0 0.67 0 0.34 0 0 Z " transform ="translate(162,102)" fill="#000000" />
  <path d="M0 0 C2 1 2 1 2 1 Z " transform ="translate(174,99)" fill="#000000" />
  <path d="M0 0 C0.71 0.05 1.42 0.1 2.15 0.15 C3.53 0.26 3.53 0.26 4.94 0.38 C5.85 0.44 6.77 0.51 7.71 0.59 C8.85 0.79 8.85 0.79 10 1 C10.33 1.66 10.66 2.32 11 3 C10.48 3.21 9.97 3.41 9.44 3.62 C8.63 3.75 7.83 3.87 7 4 C6.4 3.87 5.8 3.75 5.18 3.62 C4.22 3.34 4.22 3.34 3.25 3.06 C2.18 2.71 1.1 2.36 0 2 C0 1.34 0 0.68 0 0 Z " transform ="translate(141,95)" fill="#000000" />
  <path d="M0 0 C1.98 0 3.96 0 6 0 C6 0.33 6 0.66 6 1 C4.02 1 2.04 1 0 1 C0 0.67 0 0.34 0 0 Z " transform ="translate(138,98)" fill="#000000" />
  <path d="M0 0 C0.66 -0.1 1.32 -0.2 2 -0.3 C2.66 -0.33 3.32 -0.35 4 -0.38 C4.66 -0.35 5.32 -0.33 6 -0.3 C6.99 -0.15 6.99 -0.15 8 0 C9.02 0.34 9.02 0.34 10.06 0.68 C10.7 0.95 11.34 1.22 12 1.5 C12.99 2 13.98 2.49 15 3 C15 3.66 15 4.32 15 5 C16.98 4.67 18.96 4.34 21 4 C21 4.66 21 5.32 21 6 C20.05 6.21 19.1 6.41 18.12 6.62 C17.09 6.75 16.06 6.87 15 7 C14.34 6.34 13.68 5.68 13 5 C12.13 4.79 11.27 4.59 10.38 4.38 C9.2 4.19 9.2 4.19 8 4 C7.34 5.32 6.68 6.64 6 8 C5.09 8.04 4.19 8.08 3.25 8.12 C1.64 8.06 1.64 8.06 0 8 C-1.18 7.5 -1.18 7.5 -2.38 7 C-2.91 6.67 -3.45 6.34 -4 6 C-4.99 7.48 -4.99 7.48 -6 9 C-7.65 8.67 -9.3 8.34 -11 8 C-9.68 7.34 -8.36 6.68 -7 6 C-7 5.01 -7 4.02 -7 3 C-6.01 2.5 -5.02 2.01 -4 1.5 C-3.36 1.23 -2.72 0.96 -2.06 0.68 C-1.38 0.46 -0.7 0.23 0 0 Z M5 2 C4.67 2.99 4.34 3.98 4 5 C4.99 4.67 5.98 4.34 7 4 C7 3.34 7 2.68 7 2 C6.34 2 5.68 2 5 2 Z M-1 4 C-0.01 4.99 0.98 5.98 2 7 C2 6.01 2 5.02 2 4 C1.01 4 0.02 4 -1 4 Z " transform ="translate(148,101)" fill="#000000" />
  <path d="M0 0 C0.66 0.66 1.32 1.32 2 2 C1.34 2 0.68 2 0 2 C0 1.34 0 0.68 0 0 Z " transform ="translate(153,96)" fill="#000000" />
  <path d="M0 0 C0.66 0.66 1.32 1.32 2 2 C1.34 2 0.68 2 0 2 C0 1.34 0 0.68 0 0 Z " transform ="translate(149,112)" fill="#000000" />
  <path d="M0 0 C0.66 0.33 1.32 0.66 2 1 C1.34 2.65 0.68 4.3 0 6 C-0.33 5.01 -0.66 4.02 -1 3 C-0.67 2.01 -0.34 1.02 0 0 Z " transform ="translate(193,126)" fill="#000000" />
  <path d="M0 0 C0.66 0 1.32 0 2 0 C2 0.66 2 1.32 2 2 C1.34 2 0.68 2 0 2 C0 1.34 0 0.68 0 0 Z " transform ="translate(194,123)" fill="#000000" />
  <path d="M0 0 C0.33 0.66 0.66 1.32 1 2 C0.78 3.05 0.78 3.05 0.56 4.12 C0.38 4.74 0.19 5.36 0 6 C-0.66 6 -1.32 6 -2 6 C-1.86 5.2 -1.71 4.39 -1.56 3.56 C-1.38 2.72 -1.19 1.87 -1 1 C-0.67 0.67 -0.34 0.34 0 0 Z " transform ="translate(197,116)" fill="#000000" />
  <path d="M0 0 C0.66 0.33 1.32 0.66 2 1 C1.34 2.32 0.68 3.64 0 5 C-0.33 4.34 -0.66 3.68 -1 3 C-0.67 2.01 -0.34 1.02 0 0 Z " transform ="translate(199,108)" fill="#000000" />
  <path d="M0 0 C0 0.99 0 1.98 0 3 C-0.45 3.89 -0.91 4.77 -1.38 5.69 C-1.91 6.45 -2.45 7.21 -3 8 C-3.66 8 -4.32 8 -5 8 C-5.66 9.65 -6.32 11.3 -7 13 C-7.66 12.67 -8.32 12.34 -9 12 C-9 9.69 -9 7.38 -9 5 C-8.34 6.32 -7.68 7.64 -7 9 C-6.1 7.61 -6.1 7.61 -5.19 6.19 C-4.83 5.64 -4.46 5.1 -4.09 4.54 C-3.73 4.03 -3.37 3.52 -3 3 C-2.42 2.38 -1.84 1.76 -1.25 1.12 C-0.84 0.75 -0.43 0.38 0 0 Z " transform ="translate(190,139)" fill="#000000" />
  <path d="M0 0 C0.33 0 0.66 0 1 0 C1 2.31 1 4.62 1 7 C0.67 7 0.34 7 0 7 C0 4.69 0 2.38 0 0 Z " transform ="translate(182,136)" fill="#000000" />
  <path d="M0 0 C0.33 0.66 0.66 1.32 1 2 C0.69 3.03 0.38 4.06 0.06 5.12 C-0.29 6.07 -0.64 7.02 -1 8 C-1.33 7.01 -1.66 6.02 -2 5 C-1.54 3.67 -1.54 3.67 -1.06 2.31 C-0.71 1.55 -0.36 0.79 0 0 Z " transform ="translate(177,164)" fill="#000000" />
  <path d="M0 0 C0.66 0 1.32 0 2 0 C2 0.66 2 1.32 2 2 C1.34 2 0.68 2 0 2 C0 1.34 0 0.68 0 0 Z " transform ="translate(179,154)" fill="#000000" />
  <path d="M0 0 C0.33 0 0.66 0 1 0 C1.21 1.11 1.41 2.23 1.62 3.38 C1.8 4.01 1.98 4.65 2.16 5.31 C2.43 5.87 2.71 6.42 3 7 C4.55 7.71 4.55 7.71 6.12 8.44 C7.07 8.62 8.02 8.81 9 9 C8.67 9.99 8.34 10.98 8 12 C7.43 11.78 6.87 11.56 6.29 11.34 C5.55 11.02 4.82 10.7 4.06 10.38 C2.97 9.83 2.97 9.83 1.85 9.28 C1.24 8.86 0.63 8.44 0 8 C-0.35 6.97 -0.7 5.94 -1.06 4.88 C-1.04 3.93 -1.02 2.98 -1 2 C-0.67 1.34 -0.34 0.68 0 0 Z " transform ="translate(108,138)" fill="#000000" />
  <path d="M0 0 C0.66 0.33 1.32 0.66 2 1 C0.02 1.99 0.02 1.99 -2 3 C-1.34 2.01 -0.68 1.02 0 0 Z " transform ="translate(99,146)" fill="#000000" />
  <path d="M0 0 C0.99 0 1.98 0 3 0 C3 0.66 3 1.32 3 2 C4.06 2.06 5.12 2.12 6.22 2.18 C7.24 2.24 7.24 2.24 8.28 2.31 C9.38 2.37 9.38 2.37 10.5 2.44 C11.23 2.48 11.97 2.52 12.73 2.57 C13.45 2.62 14.18 2.66 14.93 2.71 C15.99 2.78 15.99 2.78 17.07 2.85 C18.03 2.92 18.03 2.92 19 3 C19.88 3.11 20.76 3.21 21.67 3.32 C22.67 3.47 22.67 3.47 23.69 3.62 C24.78 3.75 25.87 3.87 27 4 C27.85 3.86 28.69 3.71 29.56 3.56 C30.77 3.28 30.77 3.28 32 3 C33.11 2.96 34.23 2.92 35.38 2.88 C35.97 2.88 36.56 2.89 37.17 2.9 C37.78 2.93 38.38 2.97 39 3 C39.6 3.07 40.21 3.15 40.83 3.23 C41.42 3.32 42.01 3.41 42.62 3.5 C44.3 3.75 44.3 3.75 46 4 C47.45 4.03 47.45 4.03 48.94 4.06 C49.62 4.04 50.3 4.02 51 4 C50.67 4.66 50.34 5.32 50 6 C49.42 5.99 48.84 5.99 48.24 5.98 C47.44 5.98 46.63 5.97 45.8 5.96 C44.92 5.96 44.04 5.96 43.13 5.95 C42.2 5.95 41.27 5.94 40.31 5.94 C39.4 5.93 38.49 5.92 37.55 5.91 C36.22 5.91 36.22 5.91 34.86 5.9 C34.05 5.9 33.24 5.89 32.4 5.89 C31.61 5.92 30.82 5.96 30 6 C29.14 6.19 28.28 6.37 27.4 6.56 C26.21 6.78 26.21 6.78 25 7 C23.93 6.69 22.86 6.38 21.75 6.06 C21.16 5.87 20.56 5.67 19.95 5.47 C18.99 5.24 18.99 5.24 18 5 C17.27 4.98 16.55 4.96 15.8 4.93 C14.66 4.97 14.66 4.97 13.5 5 C12.37 5.03 12.37 5.03 11.21 5.05 C10.48 5.03 9.75 5.02 9 5 C7.98 4.84 7.98 4.84 6.94 4.67 C6.32 4.51 5.7 4.35 5.06 4.19 C3.55 3.6 3.55 3.6 2 3 C1.61 2.48 1.21 1.96 0.81 1.43 C0.41 0.72 0.41 0.72 0 0 Z " transform ="translate(96,162)" fill="#000000" />
  <path d="M0 0 C1.98 0 3.96 0 6 0 C6 0.66 6 1.32 6 2 C3.03 1.5 3.03 1.5 0 1 C0 0.67 0 0.34 0 0 Z " transform ="translate(99,161)" fill="#000000" />
  <path d="M0 0 C5.94 0.33 11.88 0.66 18 1 C18 1.33 18 1.66 18 2 C17.12 2.1 16.24 2.19 15.33 2.29 C14.77 2.34 14.2 2.4 13.62 2.45 C12.73 2.54 12.73 2.54 11.81 2.62 C10.66 2.74 9.52 2.86 8.33 2.98 C7.23 2.98 6.13 2.99 5 3 C4.03 2.68 3.07 2.36 2.07 2.02 C1.39 1.69 0.71 1.35 0 1 C0 0.67 0 0.34 0 0 Z " transform ="translate(115,160)" fill="#000000" />
  <path d="M0 0 C2 1 2 1 2 1 Z " transform ="translate(110,160)" fill="#000000" />
  <path d="M0 0 C2.47 0.5 2.47 0.5 5 1 C4.01 1.33 3.02 1.66 2 2 C1.34 1.34 0.68 0.68 0 0 Z " transform ="translate(135,163)" fill="#000000" />
  <path d="M0 0 C2 1 2 1 2 1 Z " transform ="translate(133,162)" fill="#000000" />
  <path d="M0 0 C0.33 0.66 0.66 1.32 1 2 C0.35 2.32 -0.29 2.65 -0.96 2.98 C-1.96 3.32 -2.97 3.65 -4 4 C-4.65 4.07 -5.29 4.14 -5.96 4.21 C-7.02 4.26 -7.02 4.26 -8.1 4.3 C-9.21 4.31 -9.21 4.31 -10.34 4.32 C-11.09 4.32 -11.85 4.32 -12.62 4.31 C-13.39 4.33 -14.15 4.34 -14.94 4.36 C-15.67 4.36 -16.41 4.36 -17.16 4.36 C-17.83 4.37 -18.49 4.37 -19.18 4.37 C-19.78 4.25 -20.38 4.13 -21 4 C-21.57 3.5 -22.15 3 -22.74 2.48 C-23.16 1.99 -23.57 1.5 -24 1 C-23.23 1.06 -23.23 1.06 -22.44 1.12 C-21.37 1.21 -21.37 1.21 -20.27 1.29 C-19.49 1.34 -18.7 1.4 -17.89 1.45 C-17.06 1.51 -16.23 1.57 -15.38 1.62 C-14.57 1.69 -13.76 1.75 -12.93 1.82 C-12.13 1.87 -11.34 1.92 -10.52 1.98 C-9.75 2.01 -8.98 2.04 -8.18 2.07 C-7.46 2.05 -6.74 2.02 -6 2 C-5.36 1.86 -4.73 1.72 -4.08 1.58 C-3.25 1.3 -3.25 1.3 -2.41 1.02 C-1.62 0.69 -0.82 0.35 0 0 Z " transform ="translate(134,169)" fill="#000000" />
  <path d="M0 0 C0.66 0.33 1.32 0.66 2 1 C1.01 2.32 0.02 3.64 -1 5 C-1.99 4.67 -2.98 4.34 -4 4 C-3.01 3.67 -2.02 3.34 -1 3 C-0.67 2.01 -0.34 1.02 0 0 Z " transform ="translate(125,144)" fill="#000000" />
  <path d="M0 0 C0.99 0.33 1.98 0.66 3 1 C2.01 1 1.02 1 0 1 C0 0.67 0 0.34 0 0 Z " transform ="translate(117,150)" fill="#000000" />
  <path d="M0 0 C0.56 0.8 0.56 0.8 1.12 1.62 C1.41 2.41 1.7 3.19 2 4 C1.81 4.97 1.61 5.94 1.41 6.94 C0.95 7.95 0.48 8.96 0 10 C-0.86 10.63 -1.72 11.25 -2.61 11.9 C-3.65 12.39 -4.68 12.87 -5.75 13.38 C-7.29 14.13 -7.29 14.13 -8.86 14.9 C-9.9 15.26 -10.93 15.63 -12 16 C-13.12 16.05 -14.24 16.11 -15.39 16.16 C-16.25 16.11 -17.11 16.06 -18 16 C-17.44 15.59 -17.44 15.59 -16.88 15.16 C-16.26 14.78 -15.64 14.4 -15 14 C-14.07 13.6 -13.14 13.19 -12.19 12.77 C-11.14 12.31 -10.08 11.85 -9 11.38 C-8.46 11.12 -7.92 10.87 -7.36 10.61 C-6.83 10.34 -6.31 10.07 -5.77 9.8 C-4.85 9.2 -3.94 8.61 -3 8 C-2.52 7.28 -2.04 6.57 -1.55 5.83 C-1.28 5.1 -1.02 4.37 -0.75 3.62 C-0.58 2.94 -0.41 2.25 -0.23 1.54 C-0.12 0.78 -0.12 0.78 0 0 Z " transform ="translate(138,137)" fill="#000000" />
  <path d="M0 0 C0.33 0.66 0.66 1.32 1 2 C0.67 2.66 0.34 3.32 0 4 C0.04 4.71 0.08 5.43 0.12 6.16 C0.23 6.98 0.33 7.79 0.44 8.62 C0.54 9.44 0.64 10.26 0.75 11.1 C0.83 11.73 0.91 12.35 1 13 C1.33 10.69 1.66 8.38 2 6 C2.33 6 2.66 6 3 6 C2.95 6.7 2.91 7.41 2.86 8.13 C2.77 9.61 2.77 9.61 2.68 11.12 C2.64 12.22 2.59 13.31 2.54 14.44 C2.52 15.02 2.5 15.6 2.49 16.2 C2.47 16.79 2.45 17.39 2.44 18 C2.42 18.59 2.41 19.18 2.39 19.79 C2.39 20.38 2.38 20.97 2.37 21.58 C2.37 22.17 2.37 22.76 2.37 23.37 C2.38 23.96 2.39 24.55 2.41 25.16 C2.43 25.75 2.45 26.34 2.47 26.94 C2.5 27.52 2.54 28.1 2.58 28.7 C2.72 29.79 2.86 30.88 3 32 C3.29 32.91 3.57 33.83 3.87 34.77 C4.23 35.58 4.59 36.39 4.97 37.22 C5.56 38.32 5.56 38.32 6.17 39.45 C6.8 40.47 6.8 40.47 7.44 41.5 C7.86 42.14 8.28 42.79 8.71 43.45 C9.11 44.04 9.52 44.62 9.93 45.22 C10.62 46.14 11.3 47.05 12 48 C12.33 48.66 12.66 49.32 13 50 C14.48 50.5 14.48 50.5 16 51 C15.91 50.25 15.83 49.5 15.74 48.73 C15.6 47.75 15.46 46.76 15.31 45.75 C15.13 44.75 14.96 43.74 14.77 42.71 C14.39 41.37 14.39 41.37 14 40 C13.6 39.49 13.2 38.98 12.79 38.45 C12.34 38.12 11.9 37.78 11.44 37.44 C10.63 36.96 9.83 36.49 9 36 C8.67 35.34 8.34 34.68 8 34 C7.92 33.19 7.84 32.38 7.75 31.54 C7.69 30.58 7.63 29.62 7.56 28.62 C7.5 27.67 7.44 26.71 7.38 25.73 C7.25 24.83 7.13 23.93 7 23 C6.66 22.22 6.32 21.45 5.96 20.65 C5.65 20.1 5.33 19.56 5 19 C5.8 19.64 6.61 20.28 7.44 20.94 C7.9 21.39 8.35 21.84 8.82 22.3 C9.21 22.86 9.6 23.42 10 24 C10.17 24.72 10.34 25.45 10.52 26.2 C10.6 26.98 10.67 27.76 10.75 28.56 C10.79 29.31 10.82 30.05 10.86 30.82 C10.91 31.54 10.95 32.26 11 33 C11.17 33.75 11.34 34.5 11.52 35.28 C11.68 35.85 11.84 36.41 12 37 C12.66 37 13.32 37 14 37 C13.34 34.36 12.68 31.72 12 29 C12.99 29 13.98 29 15 29 C15.12 29.86 15.12 29.86 15.24 30.74 C15.36 31.54 15.47 32.34 15.59 33.17 C15.71 34.06 15.84 34.95 15.97 35.86 C16.1 36.81 16.24 37.77 16.38 38.75 C16.58 40.19 16.58 40.19 16.79 41.66 C16.99 43.09 16.99 43.09 17.2 44.55 C17.34 45.49 17.47 46.43 17.61 47.4 C17.74 48.26 17.87 49.11 18 50 C18.11 50.68 18.22 51.37 18.34 52.08 C18.44 52.66 18.54 53.25 18.64 53.86 C18.82 54.87 19 55.89 19.19 56.94 C19.43 58.22 19.43 58.22 19.67 59.53 C19.78 60.34 19.89 61.16 20 62 C20.03 63.64 20.03 63.64 20.05 65.32 C20.03 66.2 20.02 67.09 20 68 C19.34 67.34 18.68 66.68 18 66 C17.85 65.02 17.7 64.04 17.54 63.03 C17.45 62.17 17.45 62.17 17.36 61.3 C17.3 60.71 17.25 60.11 17.19 59.5 C17.14 58.91 17.1 58.31 17.05 57.7 C16.96 56.84 16.96 56.84 16.86 55.97 C16.57 54.99 16.29 54.01 16 53 C15.23 52.67 14.45 52.33 13.65 51.99 C12.78 51.66 11.9 51.34 11 51 C10.37 50.04 9.74 49.09 9.09 48.1 C8.8 47.54 8.51 46.98 8.22 46.4 C7.94 45.81 7.66 45.23 7.38 44.62 C7.09 44.05 6.8 43.47 6.51 42.88 C6.22 42.31 5.94 41.75 5.65 41.16 C5.38 40.61 5.1 40.06 4.82 39.49 C4.41 38.75 4.41 38.75 4 38 C3.45 37.33 2.9 36.67 2.33 35.98 C1.89 35.33 1.45 34.67 1 34 C0.84 33.01 0.69 32.03 0.52 31.01 C0.45 29.37 0.45 29.37 0.38 27.69 C0.33 26.82 0.33 26.82 0.28 25.93 C0.24 25.35 0.21 24.78 0.18 24.19 C0.12 23.14 0.06 22.08 0 21 C-0.1 19.95 -0.1 19.95 -0.21 18.88 C-0.28 18.32 -0.36 17.76 -0.44 17.19 C-0.62 16.14 -0.81 15.08 -1 14 C-1.2 13.35 -1.4 12.69 -1.61 12.02 C-1.82 11.33 -2.03 10.64 -2.25 9.94 C-2.43 9.28 -2.61 8.61 -2.79 7.93 C-2.86 7.3 -2.93 6.66 -3 6 C-2.82 5.39 -2.64 4.79 -2.46 4.16 C-2.19 3.61 -1.91 3.06 -1.62 2.5 C-1.09 1.67 -0.55 0.85 0 0 Z " transform ="translate(46,97)" fill="#000000" />
  <path d="M0 0 C1 4 1 4 1 4 Z " transform ="translate(54,113)" fill="#000000" />
  <path d="M0 0 C0.99 0.33 1.98 0.66 3 1 C2.01 1 1.02 1 0 1 C0 0.67 0 0.34 0 0 Z " transform ="translate(103,98)" fill="#000000" />
  <path d="M0 0 C2 1 2 1 2 1 Z " transform ="translate(106,100)" fill="#000000" />
  <path d="M0 0 C2 1 2 1 2 1 Z " transform ="translate(110,102)" fill="#000000" />
  <path d="M0 0 C2 1 2 1 2 1 Z " transform ="translate(83,108)" fill="#000000" />
  <path d="M0 0 C2 1 2 1 2 1 Z " transform ="translate(81,110)" fill="#000000" />
  <path d="M0 0 C0.78 0.14 1.57 0.29 2.38 0.44 C2.91 0.62 3.45 0.81 4 1 C2.64 1.56 2.64 1.56 1.25 2.12 C0.18 2.41 -0.89 2.7 -2 3 C-2.78 2.71 -3.57 2.42 -4.38 2.12 C-4.91 1.75 -5.45 1.38 -6 1 C-4.64 0.72 -4.64 0.72 -3.25 0.44 C-2.18 0.29 -1.11 0.15 0 0 Z " transform ="translate(94,109)" fill="#000000" />
  <path d="M0 0 C1.03 0.14 2.06 0.29 3.12 0.44 C4.07 0.62 5.02 0.81 6 1 C5.39 1.48 5.39 1.48 4.76 1.96 C4.18 2.3 3.6 2.65 3 3 C1.99 3.2 1.99 3.2 0.96 3.41 C0.25 3.48 -0.46 3.55 -1.19 3.62 C-2.26 3.74 -2.26 3.74 -3.36 3.85 C-4.17 3.93 -4.17 3.93 -5 4 C-4.55 3.53 -4.09 3.05 -3.62 2.56 C-3.09 2.05 -2.55 1.53 -2 1 C-1.34 0.67 -0.68 0.34 0 0 Z " transform ="translate(82,90)" fill="#000000" />
  <path d="M0 0 C0.66 0.33 1.32 0.66 2 1 C1.01 1 0.02 1 -1 1 C-0.67 0.67 -0.34 0.34 0 0 Z " transform ="translate(73,92)" fill="#000000" />
  <path d="M0 0 C0.66 0.66 1.32 1.32 2 2 C1.34 2 0.68 2 0 2 C0 1.34 0 0.68 0 0 Z " transform ="translate(92,91)" fill="#000000" />
  <path d="M0 0 C3 1 3 1 3 1 Z " transform ="translate(88,92)" fill="#000000" />
  <path d="M0 0 C0.82 -0.04 1.64 -0.08 2.48 -0.12 C3.21 -0.06 3.94 0 4.69 0.06 C5.39 0.18 6.1 0.29 6.82 0.41 C7.54 0.6 8.26 0.8 9 1 C9.84 1.32 10.69 1.64 11.55 1.97 C12.38 2.33 13.21 2.69 14.06 3.06 C14.82 3.42 15.57 3.79 16.35 4.16 C16.89 4.44 17.44 4.71 18 5 C17.01 5.33 16.02 5.66 15 6 C14.2 5.77 13.39 5.55 12.56 5.31 C11.72 5.21 10.87 5.11 10 5 C9.24 5.64 8.47 6.28 7.69 6.94 C7.13 7.62 6.57 8.3 6 9 C5.34 8.01 4.68 7.02 4 6 C4 6.99 4 7.98 4 9 C3.26 8.69 2.52 8.38 1.75 8.06 C0.84 7.71 -0.06 7.36 -1 7 C-1.72 6.75 -2.44 6.5 -3.19 6.25 C-3.79 6.17 -4.38 6.08 -5 6 C-5.66 6.66 -6.32 7.32 -7 8 C-7.7 7.88 -8.4 7.75 -9.12 7.62 C-9.74 7.42 -10.36 7.21 -11 7 C-10.67 6.34 -10.34 5.68 -10 5 C-10.66 4.34 -11.32 3.68 -12 3 C-11.24 2.77 -10.48 2.54 -9.69 2.31 C-8.66 2.02 -7.63 1.73 -6.56 1.44 C-5.46 1.17 -4.37 0.9 -3.23 0.62 C-2.17 0.41 -1.1 0.21 0 0 Z M2 4 C2 5.32 2 6.64 2 8 C2.33 6.68 2.66 5.36 3 4 C2.67 4 2.34 4 2 4 Z M6 4 C6.33 4.66 6.66 5.32 7 6 C7.33 5.34 7.66 4.68 8 4 C7.34 4 6.68 4 6 4 Z " transform ="translate(86,99)" fill="#000000" />
  <path d="M0 0 C3 1 3 1 3 1 Z " transform ="translate(40,205)" fill="#000000" />
  <path d="M0 0 C2 1 2 1 2 1 Z " transform ="translate(38,206)" fill="#000000" />
  <path d="M0 0 C2 1 2 1 2 1 Z " transform ="translate(34,208)" fill="#000000" />
  <path d="M0 0 C2 1 2 1 2 1 Z " transform ="translate(36,207)" fill="#000000" />
  <path d="M0 0 C0.66 0.33 1.32 0.66 2 1 C1.01 1 0.02 1 -1 1 C-0.67 0.67 -0.34 0.34 0 0 Z " transform ="translate(32,209)" fill="#000000" />
  <path d="M0 0 C0.66 0.33 1.32 0.66 2 1 C0.86 1.53 0.86 1.53 -0.31 2.06 C-1.2 2.37 -2.09 2.68 -3 3 C-3.99 2.67 -4.98 2.34 -6 2 C-5.05 1.65 -4.1 1.3 -3.12 0.94 C-2.09 0.63 -1.06 0.32 0 0 Z " transform ="translate(17,215)" fill="#000000" />
  <path d="M0 0 C3 1 3 1 3 1 Z " transform ="translate(19,214)" fill="#000000" />
  <path d="M0 0 C0.33 0.66 0.66 1.32 1 2 C0.01 1.67 -0.98 1.34 -2 1 C-1.34 0.67 -0.68 0.34 0 0 Z " transform ="translate(25,212)" fill="#000000" />
  <path d="M0 0 C3 1 3 1 3 1 Z " transform ="translate(28,211)" fill="#000000" />
  <path d="M0 0 C0.66 0 1.32 0 2 0 C2 0.66 2 1.32 2 2 C0.02 2.33 -1.96 2.66 -4 3 C-4 2.34 -4 1.68 -4 1 C-3.38 0.84 -2.76 0.67 -2.12 0.5 C-1.42 0.34 -0.72 0.17 0 0 Z " transform ="translate(6,218)" fill="#000000" />
  <path d="M0 0 C0.99 0.5 0.99 0.5 2 1 C2.26 1.48 2.52 1.96 2.79 2.46 C3.04 3.07 3.29 3.68 3.54 4.31 C3.81 4.97 4.08 5.64 4.36 6.32 C4.63 7.02 4.91 7.72 5.19 8.44 C5.47 9.13 5.76 9.83 6.05 10.54 C6.45 11.54 6.45 11.54 6.86 12.56 C7.1 13.17 7.34 13.78 7.59 14.41 C7.73 14.94 7.86 15.46 8 16 C7.67 16.66 7.34 17.32 7 18 C6.75 17.59 6.49 17.18 6.23 16.75 C5.89 16.17 5.54 15.59 5.19 15 C4.83 14.37 4.46 13.73 4.09 13.08 C3.73 12.39 3.37 11.71 3 11 C2.69 10.29 2.38 9.59 2.07 8.86 C1.8 8.16 1.53 7.47 1.25 6.75 C1.01 6.11 0.77 5.46 0.52 4.8 C0.35 4.2 0.18 3.61 0 3 C0 2.01 0 1.02 0 0 Z " transform ="translate(72,201)" fill="#000000" />
  <path d="M0 0 C0.33 0.66 0.66 1.32 1 2 C0.34 1.67 -0.32 1.34 -1 1 C-0.67 0.67 -0.34 0.34 0 0 Z " transform ="translate(72,198)" fill="#000000" />
  <path d="M0 0 C0.87 0.34 0.87 0.34 1.75 0.69 C2.86 1.34 2.86 1.34 4 2 C5.11 3.3 5.11 3.3 6.25 4.62 C6.83 5.41 7.41 6.19 8 7 C7.42 6.73 6.84 6.46 6.25 6.19 C5.51 5.8 4.77 5.4 4 5 C3.26 4.5 2.52 4.01 1.75 3.5 C1.17 3 0.59 2.51 0 2 C0 1.34 0 0.68 0 0 Z " transform ="translate(82,191)" fill="#000000" />
  <path d="M0 0 C0.99 0.33 1.98 0.66 3 1 C2.67 1.66 2.34 2.32 2 3 C1.34 2.67 0.68 2.34 0 2 C0 1.34 0 0.68 0 0 Z " transform ="translate(79,188)" fill="#000000" />
  <path d="M0 0 C0.66 0 1.32 0 2 0 C2 1.65 2 3.3 2 5 C0.68 4.67 -0.64 4.34 -2 4 C-1.34 3.34 -0.68 2.68 0 2 C0 1.34 0 0.68 0 0 Z " transform ="translate(64,187)" fill="#000000" />
  <path d="M0 0 C0.33 0.99 0.66 1.98 1 3 C0.34 2.67 -0.32 2.34 -1 2 C-0.67 1.34 -0.34 0.68 0 0 Z " transform ="translate(66,182)" fill="#000000" />
  <path d="M0 0 C0.66 0.33 1.32 0.66 2 1 C1.22 1.66 0.43 2.32 -0.38 3 C-1.24 3.66 -2.11 4.32 -3 5 C-3.66 5 -4.32 5 -5 5 C-5 4.34 -5 3.68 -5 3 C-4.22 2.44 -3.43 1.89 -2.62 1.31 C-1.76 0.88 -0.89 0.45 0 0 Z " transform ="translate(60,192)" fill="#000000" />
  <path d="M0 0 C0.33 1.32 0.66 2.64 1 4 C0.34 4 -0.32 4 -1 4 C-0.67 2.68 -0.34 1.36 0 0 Z " transform ="translate(65,193)" fill="#000000" />
  <path d="M0 0 C0.66 0.33 1.32 0.66 2 1 C1.67 3.31 1.34 5.62 1 8 C0.34 8 -0.32 8 -1 8 C-0.67 5.36 -0.34 2.72 0 0 Z " transform ="translate(64,198)" fill="#000000" />
  <path d="M0 0 C0.66 0.33 1.32 0.66 2 1 C-1.3 3.31 -4.6 5.62 -8 8 C-8.66 7.67 -9.32 7.34 -10 7 C-6.7 4.69 -3.4 2.38 0 0 Z " transform ="translate(53,197)" fill="#000000" />
  <path d="M0 0 C0.27 0.55 0.54 1.1 0.82 1.66 C1.21 2.43 1.6 3.21 2 4 C2.44 4.85 2.88 5.71 3.33 6.59 C3.82 7.51 4.31 8.43 4.81 9.38 C5.34 10.34 5.86 11.3 6.4 12.29 C7.19 13.63 7.19 13.63 8 15 C8.5 15.68 8.99 16.35 9.5 17.05 C9.96 17.59 10.41 18.13 10.88 18.69 C11.58 19.45 12.28 20.21 13 21 C12.67 21.66 12.34 22.32 12 23 C10.02 20.69 8.04 18.38 6 16 C6.33 21.28 6.66 26.56 7 32 C6.01 32.5 6.01 32.5 5 33 C4.97 32.49 4.95 31.97 4.92 31.45 C4.87 30.68 4.81 29.91 4.75 29.12 C4.62 27.78 4.62 27.78 4.49 26.4 C4.33 25.28 4.17 24.16 4 23 C3.85 22.29 3.71 21.57 3.56 20.84 C3.3 19.68 3.3 19.68 3.04 18.5 C2.77 17.32 2.77 17.32 2.5 16.1 C2.31 15.31 2.13 14.51 1.94 13.69 C1.75 12.91 1.56 12.13 1.37 11.33 C1.2 10.59 1.02 9.84 0.84 9.07 C0.68 8.37 0.52 7.66 0.36 6.94 C0.24 6.3 0.12 5.66 0 5 C-0.04 4 -0.08 2.99 -0.12 1.96 C-0.08 1.31 -0.04 0.67 0 0 Z " transform ="translate(66,165)" fill="#000000" />
  <path d="M0 0 C0.64 0.29 1.28 0.58 1.94 0.88 C2.62 1.25 3.3 1.62 4 2 C4.33 2.66 4.66 3.32 5 4 C4.36 3.71 3.72 3.42 3.06 3.12 C2.38 2.75 1.7 2.38 1 2 C0.67 1.34 0.34 0.68 0 0 Z " transform ="translate(90,198)" fill="#000000" />
  <path d="M0 0 C3.3 0.99 6.6 1.98 10 3 C8.68 3.33 7.36 3.66 6 4 C5.44 3.82 4.88 3.63 4.3 3.44 C3.79 3.15 3.28 2.86 2.75 2.56 C1.84 2.05 0.94 1.53 0 1 C0 0.67 0 0.34 0 0 Z " transform ="translate(96,203)" fill="#000000" />
  <path d="M0 0 C4 1 4 1 4 1 Z " transform ="translate(106,207)" fill="#000000" />
  <path d="M0 0 C0.78 0.74 1.57 1.49 2.38 2.25 C2.83 2.7 3.29 3.15 3.75 3.62 C4.37 4.3 4.37 4.3 5 5 C5.43 5.76 5.87 6.53 6.31 7.31 C6.54 7.87 6.77 8.43 7 9 C6.58 8.69 6.16 8.37 5.72 8.05 C5.17 7.62 4.63 7.19 4.06 6.75 C3.51 6.3 2.97 5.85 2.4 5.38 C1.94 4.92 1.48 4.47 1 4 C0.71 3.24 0.42 2.47 0.12 1.69 C0.08 1.13 0.04 0.57 0 0 Z " transform ="translate(83,224)" fill="#000000" />
  <path d="M0 0 C0.74 0.68 0.74 0.68 1.5 1.38 C2 1.91 2.49 2.45 3 3 C3 3.66 3 4.32 3 5 C2.34 5 1.68 5 1 5 C0.67 3.35 0.34 1.7 0 0 Z " transform ="translate(80,219)" fill="#000000" />
  <path d="M0 0 C0.41 0.35 0.83 0.7 1.25 1.07 C1.83 1.56 2.41 2.05 3 2.56 C3.95 3.38 3.95 3.38 4.92 4.21 C5.61 4.8 6.29 5.39 7 6 C7.72 6.62 8.44 7.25 9.18 7.89 C9.88 8.5 10.59 9.12 11.31 9.75 C11.97 10.32 12.62 10.89 13.3 11.48 C13.86 11.98 14.42 12.48 15 13 C15.66 13.66 16.32 14.32 17 15 C16.42 14.9 15.84 14.8 15.25 14.7 C14.5 14.47 13.76 14.24 13 14 C12.35 13.52 11.7 13.04 11.04 12.55 C10.38 11.95 9.73 11.36 9.06 10.75 C8.37 10.12 7.68 9.49 6.97 8.85 C6.32 8.24 5.67 7.63 5 7 C4.46 6.5 3.92 6.01 3.37 5.5 C2.92 5.06 2.47 4.63 2 4.19 C1.34 3.47 0.68 2.74 0 2 C0 1.34 0 0.68 0 0 Z " transform ="translate(92,235)" fill="#000000" />
  <path d="M0 0 C0.33 0 0.66 0 1 0 C0.95 0.98 0.9 1.95 0.85 2.96 C0.82 3.58 0.78 4.19 0.74 4.83 C0.7 5.48 0.66 6.14 0.62 6.81 C0.59 7.46 0.56 8.1 0.53 8.76 C0.49 9.38 0.45 10 0.41 10.64 C0.28 11.75 0.14 12.86 0 14 C-0.34 14.56 -0.68 15.13 -1.03 15.71 C-1.35 16.14 -1.67 16.56 -2 17 C-1.94 16.28 -1.88 15.55 -1.82 14.8 C-1.73 13.84 -1.65 12.87 -1.56 11.88 C-1.47 10.88 -1.38 9.88 -1.29 8.85 C-1.19 7.91 -1.1 6.97 -1 6 C-0.9 5.32 -0.81 4.64 -0.71 3.93 C-0.58 3.13 -0.58 3.13 -0.44 2.31 C-0.29 1.55 -0.15 0.79 0 0 Z " transform ="translate(58,226)" fill="#000000" />
  <path d="M0 0 C3.3 0.33 6.6 0.66 10 1 C9.34 1.66 8.68 2.32 8 3 C7.44 3.02 6.88 3.03 6.31 3.05 C5.69 2.95 5.07 2.85 4.44 2.75 C3.82 2.66 3.2 2.57 2.56 2.48 C2.04 2.32 1.53 2.16 1 2 C0.67 1.34 0.34 0.68 0 0 Z " transform ="translate(231,198)" fill="#000000" />
  <path d="M0 0 C2 1 2 1 2 1 Z " transform ="translate(225,196)" fill="#000000" />
  <path d="M0 0 C2.31 0 4.62 0 7 0 C7 0.33 7 0.66 7 1 C4.69 1 2.38 1 0 1 C0 0.67 0 0.34 0 0 Z " transform ="translate(241,200)" fill="#000000" />
  <path d="M0 0 C0.99 0.5 0.99 0.5 2 1 C1.67 1.99 1.34 2.98 1 4 C0.67 2.68 0.34 1.36 0 0 Z " transform ="translate(175,182)" fill="#000000" />
  <path d="M0 0 C0 3 0 3 0 3 Z " transform ="translate(170,179)" fill="#000000" />
  <path d="M0 0 C2 1 2 1 2 1 Z " transform ="translate(186,187)" fill="#000000" />
  <path d="M0 0 C2 1 2 1 2 1 Z " transform ="translate(182,184)" fill="#000000" />
  <path d="M0 0 C1.32 1.32 2.64 2.64 4 4 C3.67 4.66 3.34 5.32 3 6 C2.26 5.07 2.26 5.07 1.5 4.12 C0.76 3.07 0.76 3.07 0 2 C0 1.34 0 0.68 0 0 Z " transform ="translate(178,188)" fill="#000000" />
  <path d="M0 0 C0.33 0.66 0.66 1.32 1 2 C0.34 1.67 -0.32 1.34 -1 1 C-0.67 0.67 -0.34 0.34 0 0 Z " transform ="translate(190,188)" fill="#000000" />
  <path d="M0 0 C0.99 0.33 1.98 0.66 3 1 C2.01 1 1.02 1 0 1 C0 0.67 0 0.34 0 0 Z " transform ="translate(191,190)" fill="#000000" />
  <path d="M0 0 C2 1 2 1 2 1 Z " transform ="translate(193,189)" fill="#000000" />
  <path d="M0 0 C2 1 2 1 2 1 Z " transform ="translate(196,190)" fill="#000000" />
  <path d="M0 0 C2 1 2 1 2 1 Z " transform ="translate(201,191)" fill="#000000" />
  <path d="M0 0 C2 1 2 1 2 1 Z " transform ="translate(204,191)" fill="#000000" />
  <path d="M0 0 C3 1 3 1 3 1 Z " transform ="translate(213,193)" fill="#000000" />
  <path d="M0 0 C2 1 2 1 2 1 Z " transform ="translate(209,192)" fill="#000000" />
  <path d="M0 0 C0.66 0.33 1.32 0.66 2 1 C0.68 1.33 -0.64 1.66 -2 2 C-1.34 1.34 -0.68 0.68 0 0 Z " transform ="translate(142,204)" fill="#000000" />
  <path d="M0 0 C0.66 0.33 1.32 0.66 2 1 C1.01 1 0.02 1 -1 1 C-0.67 0.67 -0.34 0.34 0 0 Z " transform ="translate(145,202)" fill="#000000" />
  <path d="M0 0 C0.66 0.33 1.32 0.66 2 1 C1.01 1 0.02 1 -1 1 C-0.67 0.67 -0.34 0.34 0 0 Z " transform ="translate(148,200)" fill="#000000" />
  <path d="M0 0 C0.66 0.33 1.32 0.66 2 1 C0.02 1.99 0.02 1.99 -2 3 C-1.34 2.01 -0.68 1.02 0 0 Z " transform ="translate(154,195)" fill="#000000" />
  <path d="M0 0 C0.19 0.57 0.39 1.14 0.59 1.73 C0.73 2.48 0.86 3.23 1 4 C0.72 5.06 0.72 5.06 0.44 6.14 C0.15 6.84 -0.14 7.53 -0.44 8.25 C-0.72 8.96 -1.01 9.66 -1.31 10.39 C-1.54 10.92 -1.76 11.45 -2 12 C-2.66 11.67 -3.32 11.34 -4 11 C-3.9 10.48 -3.79 9.97 -3.69 9.44 C-3.46 8.63 -3.23 7.83 -3 7 C-2.76 6.4 -2.52 5.8 -2.27 5.18 C-1.99 4.54 -1.72 3.9 -1.44 3.25 C-1.17 2.64 -0.9 2.02 -0.62 1.39 C-0.42 0.93 -0.21 0.47 0 0 Z " transform ="translate(156,213)" fill="#000000" />
  <path d="M0 0 C0.82 -0.01 1.63 -0.02 2.47 -0.03 C3.2 -0.03 3.93 -0.03 4.69 -0.03 C6.33 -0.02 6.33 -0.02 8 0 C7.15 0.48 7.15 0.48 6.29 0.97 C5.15 1.48 5.15 1.48 4 2 C3.27 2.11 2.54 2.22 1.79 2.33 C1 2.37 0.22 2.41 -0.59 2.45 C-1.46 2.49 -2.32 2.54 -3.22 2.58 C-4.11 2.62 -5.01 2.65 -5.94 2.69 C-7.28 2.76 -7.28 2.76 -8.65 2.83 C-9.51 2.87 -10.38 2.91 -11.28 2.95 C-12.1 2.97 -12.93 3 -13.78 3.02 C-14.51 3.01 -15.24 3.01 -16 3 C-17.03 2.84 -18.07 2.68 -19.13 2.52 C-20.06 2.26 -20.06 2.26 -21 2 C-21 1.67 -21 1.34 -21 1 C-20.41 0.97 -19.81 0.94 -19.2 0.91 C-18.37 0.87 -17.54 0.82 -16.69 0.78 C-15.78 0.74 -14.86 0.69 -13.93 0.64 C-12.48 0.57 -12.48 0.57 -11 0.5 C-10.07 0.45 -9.13 0.4 -8.17 0.36 C-6.79 0.29 -6.79 0.29 -5.38 0.22 C-4.02 0.16 -4.02 0.16 -2.63 0.09 C-1.76 0.06 -0.89 0.03 0 0 Z " transform ="translate(131,207)" fill="#000000" />
  <path d="M0 0 C0.33 0 0.66 0 1 0 C1 2.31 1 4.62 1 7 C0.67 7 0.34 7 0 7 C0 4.69 0 2.38 0 0 Z " transform ="translate(184,242)" fill="#000000" />
  <path d="M0 0 C0.33 0.99 0.66 1.98 1 3 C0.34 3 -0.32 3 -1 3 C-0.67 2.01 -0.34 1.02 0 0 Z " transform ="translate(184,237)" fill="#000000" />
  <path d="M0 0 C0.33 0 0.66 0 1 0 C1 1.98 1 3.96 1 6 C0.67 6 0.34 6 0 6 C0 4.02 0 2.04 0 0 Z " transform ="translate(183,230)" fill="#000000" />
  <path d="M0 0 C0.66 0.33 1.32 0.66 2 1 C0.68 2.32 -0.64 3.64 -2 5 C-2.66 4.67 -3.32 4.34 -4 4 C-2.68 2.68 -1.36 1.36 0 0 Z " transform ="translate(132,245)" fill="#000000" />
  <path d="M0 0 C2 1 2 1 2 1 Z " transform ="translate(132,242)" fill="#000000" />
  <path d="M0 0 C0.66 0.33 1.32 0.66 2 1 C1.01 1 0.02 1 -1 1 C-0.67 0.67 -0.34 0.34 0 0 Z " transform ="translate(135,243)" fill="#000000" />
  <path d="M0 0 C2 1 2 1 2 1 Z " transform ="translate(125,247)" fill="#000000" />
  <path d="M0 0 C0.46 0.24 0.92 0.49 1.39 0.74 C1.92 1.16 2.45 1.57 3 2 C3.31 2.64 3.63 3.28 3.95 3.95 C4.19 4.66 4.44 5.38 4.69 6.12 C4.94 6.85 5.19 7.57 5.45 8.32 C5.72 9.15 5.72 9.15 6 10 C5.34 10 4.68 10 4 10 C3.71 9.45 3.42 8.89 3.12 8.32 C2.57 7.23 2.57 7.23 2 6.12 C1.63 5.41 1.26 4.69 0.88 3.95 C0.59 3.3 0.3 2.66 0 2 C0 1.34 0 0.68 0 0 Z " transform ="translate(154,240)" fill="#000000" />
  <path d="M0 0 C0.99 0.33 1.98 0.66 3 1 C2.67 1.99 2.34 2.98 2 4 C1.34 2.68 0.68 1.36 0 0 Z " transform ="translate(151,236)" fill="#000000" />
  <path d="M0 0 C2 1 2 1 2 1 Z " transform ="translate(145,237)" fill="#000000" />
  <path d="M0 0 C2 1 2 1 2 1 Z " transform ="translate(147,236)" fill="#000000" />
  <path d="M0 0 C2 1 2 1 2 1 Z " transform ="translate(141,239)" fill="#000000" />
  <path d="M0 0 C2 1 2 1 2 1 Z " transform ="translate(143,238)" fill="#000000" />
</svg>