<svg xmlns="http://www.w3.org/2000/svg" width="250.0" height="250.0">
  <path d="" transform ="translate(0,0)" fill="#000000" />
  <path d="" transform ="translate(0,0)" fill="#000000" />
  <path d="" transform ="translate(0,0)" fill="#000000" />
  <path d="" transform ="translate(0,0)" fill="#000000" />
  <path d="" transform ="translate(0,0)" fill="#000000" />
  <path d="" transform ="translate(0,0)" fill="#000000" />
  <path d="" transform ="translate(0,0)" fill="#000000" />
  <path d="" transform ="translate(0,0)" fill="#000000" />
  <path d="" transform ="translate(0,0)" fill="#000000" />
  <path d="" transform ="translate(0,0)" fill="#000000" />
  <path d="" transform ="translate(0,0)" fill="#000000" />
  <path d="" transform ="translate(0,0)" fill="#000000" />
  <path d="" transform ="translate(0,0)" fill="#000000" />
  <path d="" transform ="translate(0,0)" fill="#000000" />
  <path d="" transform ="translate(0,0)" fill="#000000" />
  <path d="" transform ="translate(0,0)" fill="#000000" />
  <path d="" transform ="translate(0,0)" fill="#000000" />
  <path d="" transform ="translate(0,0)" fill="#000000" />
  <path d="" transform ="translate(0,0)" fill="#000000" />
  <path d="" transform ="translate(0,0)" fill="#000000" />
  <path d="" transform ="translate(0,0)" fill="#000000" />
  <path d="" transform ="translate(0,0)" fill="#000000" />
  <path d="" transform ="translate(0,0)" fill="#000000" />
  <path d="" transform ="translate(0,0)" fill="#000000" />
  <path d="" transform ="translate(0,0)" fill="#000000" />
  <path d="" transform ="translate(0,0)" fill="#000000" />
  <path d="" transform ="translate(0,0)" fill="#000000" />
  <path d="" transform ="translate(0,0)" fill="#000000" />
  <path d="" transform ="translate(0,0)" fill="#000000" />
  <path d="" transform ="translate(0,0)" fill="#000000" />
  <path d="" transform ="translate(0,0)" fill="#000000" />
  <path d="" transform ="translate(0,0)" fill="#000000" />
  <path d="" transform ="translate(0,0)" fill="#000000" />
  <path d="" transform ="translate(0,0)" fill="#000000" />
  <path d="" transform ="translate(0,0)" fill="#000000" />
  <path d="" transform ="translate(0,0)" fill="#000000" />
  <path d="" transform ="translate(0,0)" fill="#000000" />
  <path d="" transform ="translate(0,0)" fill="#000000" />
  <path d="" transform ="translate(0,0)" fill="#000000" />
  <path d="" transform ="translate(0,0)" fill="#000000" />
  <path d="" transform ="translate(0,0)" fill="#000000" />
  <path d="" transform ="translate(0,0)" fill="#000000" />
  <path d="" transform ="translate(0,0)" fill="#000000" />
  <path d="" transform ="translate(0,0)" fill="#000000" />
  <path d="" transform ="translate(0,0)" fill="#000000" />
  <path d="" transform ="translate(0,0)" fill="#000000" />
  <path d="" transform ="translate(0,0)" fill="#000000" />
  <path d="" transform ="translate(0,0)" fill="#000000" />
  <path d="" transform ="translate(0,0)" fill="#000000" />
  <path d="" transform ="translate(0,0)" fill="#000000" />
  <path d="" transform ="translate(0,0)" fill="#000000" />
  <path d="" transform ="translate(0,0)" fill="#000000" />
  <path d="" transform ="translate(0,0)" fill="#000000" />
  <path d="" transform ="translate(0,0)" fill="#000000" />
  <path d="" transform ="translate(0,0)" fill="#000000" />
  <path d="" transform ="translate(0,0)" fill="#000000" />
  <path d="" transform ="translate(0,0)" fill="#000000" />
  <path d="M0 0 C0.94 0.29 0.94 0.29 1.9 0.59 C2.72 0.85 3.53 1.11 4.38 1.38 C5.19 1.63 6 1.89 6.84 2.15 C7.55 2.43 8.26 2.71 9 3 C9.66 3.66 10.32 4.32 11 5 C10.37 4.87 9.75 4.73 9.1 4.6 C8.28 4.42 7.47 4.24 6.62 4.06 C5.81 3.89 5 3.71 4.16 3.54 C3.45 3.36 2.74 3.18 2 3 C1.34 2.67 0.68 2.34 0 2 C0 1.34 0 0.68 0 0 Z " transform ="translate(145,11)" fill="#000000" />
  <path d="M0 0 C0.99 0.33 1.98 0.66 3 1 C2.01 1.33 1.02 1.66 0 2 C0 1.34 0 0.68 0 0 Z " transform ="translate(140,20)" fill="#000000" />
  <path d="M0 0 C0.93 0.15 0.93 0.15 1.88 0.31 C2.93 0.65 2.93 0.65 4 1 C4.41 1.52 4.82 2.03 5.25 2.56 C5.5 3.04 5.75 3.51 6 4 C5.2 3.71 4.39 3.42 3.56 3.12 C2.72 2.75 1.87 2.38 1 2 C0.67 1.34 0.34 0.68 0 0 Z " transform ="translate(156,16)" fill="#000000" />
  <path d="M0 0 C0.82 0.05 1.64 0.1 2.48 0.15 C4.1 0.26 4.1 0.26 5.75 0.38 C7.35 0.48 7.35 0.48 8.98 0.59 C9.98 0.72 10.97 0.86 12 1 C12.74 1.3 13.48 1.6 14.25 1.91 C14.83 2.27 15.41 2.63 16 3 C16.74 3.7 17.48 4.4 18.25 5.12 C19.12 6.05 19.12 6.05 20 7 C20.72 6.55 21.44 6.09 22.19 5.62 C22.74 5.35 23.29 5.08 23.86 4.8 C24.56 4.54 25.27 4.27 26 4 C27.39 3.68 27.39 3.68 28.8 3.36 C29.86 3.18 30.91 3 32 2.81 C33.13 2.66 34.27 2.51 35.43 2.36 C36.02 2.3 36.61 2.23 37.21 2.17 C38.1 2.09 38.1 2.09 39 2 C39.88 1.92 39.88 1.92 40.77 1.84 C41.64 1.77 41.64 1.77 42.54 1.7 C43.12 1.67 43.7 1.64 44.3 1.61 C44.88 1.6 45.46 1.58 46.06 1.56 C46.64 1.56 47.22 1.56 47.82 1.55 C48.69 1.58 48.69 1.58 49.57 1.61 C51.27 1.8 51.27 1.8 53 2 C54.09 2.32 55.18 2.65 56.3 2.98 C57.34 3.4 58.37 3.82 59.44 4.25 C60.4 4.7 61.36 5.15 62.36 5.62 C63.23 6.08 64.1 6.53 65 7 C65.76 7.4 66.52 7.81 67.3 8.22 C67.94 8.58 68.59 8.94 69.25 9.31 C70.61 10.15 70.61 10.15 72 11 C72 11.66 72 12.32 72 13 C72.71 13.11 73.41 13.22 74.14 13.33 C75.08 13.55 76.03 13.77 77 14 C77.93 14.4 78.87 14.79 79.83 15.2 C80.82 15.69 81.8 16.18 82.81 16.69 C83.33 16.95 83.85 17.22 84.39 17.49 C85.18 17.9 85.18 17.9 85.98 18.31 C86.97 18.87 87.97 19.43 89 20 C89.83 20.54 90.67 21.07 91.52 21.62 C92.59 22.4 92.59 22.4 93.69 23.19 C94.62 23.89 94.62 23.89 95.57 24.61 C96.04 25.07 96.52 25.53 97 26 C97.33 26.99 97.66 27.98 98 29 C98.66 29 99.32 29 100 29 C100 29.66 100 30.32 100 31 C100.66 31 101.32 31 102 31 C102 31.66 102 32.32 102 33 C102.59 33.24 103.19 33.47 103.8 33.72 C104.52 34.14 105.25 34.56 106 35 C106.56 35.69 107.12 36.38 107.7 37.09 C108.21 37.89 108.72 38.68 109.25 39.5 C109.77 40.29 110.29 41.09 110.83 41.91 C111.21 42.6 111.6 43.29 112 44 C112 44.66 112 45.32 112 46 C112.66 46 113.32 46 114 46 C115.65 49.3 117.3 52.6 119 56 C118.01 56.49 118.01 56.49 117 57 C116.67 56.34 116.34 55.68 116 55 C115.01 54.67 114.02 54.34 113 54 C112.67 53.17 112.34 52.35 112 51.5 C111.67 50.67 111.34 49.85 111 49 C110.01 48.67 109.02 48.34 108 48 C108.22 48.99 108.43 49.97 108.66 50.99 C108.79 51.61 108.93 52.24 109.07 52.88 C109.21 53.54 109.35 54.2 109.5 54.88 C109.64 55.53 109.79 56.18 109.93 56.85 C110.07 57.47 110.2 58.1 110.34 58.74 C110.56 59.82 110.78 60.89 111 62 C111 62.66 111 63.32 111 64 C111.99 64.33 112.98 64.66 114 65 C114 66.32 114 67.64 114 69 C113.34 69 112.68 69 112 69 C112 73.62 112 78.24 112 83 C111.34 83 110.68 83 110 83 C109.92 82.36 109.85 81.72 109.77 81.06 C109.67 80.17 109.56 79.28 109.45 78.36 C109.33 77.37 109.21 76.38 109.08 75.36 C108.95 74.31 108.82 73.27 108.69 72.19 C108.51 70.68 108.51 70.68 108.33 69.14 C108.2 68.14 108.08 67.14 107.95 66.11 C107.74 64.59 107.74 64.59 107.52 63.04 C107.35 62.04 107.18 61.03 107 60 C106.77 59.01 106.54 58.02 106.3 57 C106.04 56.05 105.79 55.1 105.52 54.12 C105.26 53.22 105.01 52.33 104.74 51.4 C104.49 50.61 104.25 49.82 104 49 C103.71 48.08 103.71 48.08 103.42 47.14 C103.25 46.63 103.08 46.12 102.9 45.59 C102.58 44.71 102.27 43.84 101.94 42.94 C101.46 41.59 101.46 41.59 100.96 40.21 C100.65 39.48 100.33 38.75 100 38 C99.34 37.34 98.68 36.68 98 36 C97.63 35.18 97.63 35.18 97.25 34.34 C97.03 33.74 96.8 33.13 96.56 32.5 C96.34 31.89 96.11 31.28 95.88 30.66 C95.59 30.11 95.3 29.56 95 29 C94.47 28.64 93.95 28.28 93.4 27.91 C92.71 27.46 92.71 27.46 92 27 C92 26.34 92 25.68 92 25 C91.32 24.75 90.65 24.5 89.95 24.24 C88.98 23.83 88 23.42 87 23 C86.17 22.59 86.17 22.59 85.33 22.17 C84.74 21.86 84.15 21.55 83.55 21.23 C82.93 20.9 82.32 20.57 81.68 20.23 C81.04 19.89 80.41 19.54 79.75 19.19 C79.09 18.83 78.43 18.48 77.75 18.12 C76.77 17.58 76.77 17.58 75.76 17.04 C75.12 16.7 74.48 16.35 73.82 15.99 C73.22 15.66 72.62 15.34 72 15 C71.02 14.46 70.03 13.92 69.02 13.36 C67.8 12.69 67.8 12.69 66.56 12 C65.86 11.61 65.16 11.22 64.44 10.81 C63.97 10.54 63.49 10.28 63 10 C63 9.34 63 8.68 63 8 C59.7 7.01 56.4 6.02 53 5 C54.49 5.82 55.97 6.65 57.5 7.5 C58.41 8.05 59.32 8.59 60.26 9.15 C61.62 10.07 61.62 10.07 63 11 C63.75 11.66 64.5 12.32 65.27 13 C65.94 13.68 66.62 14.36 67.31 15.06 C68.28 16.09 68.28 16.09 69.27 17.13 C69.84 17.75 70.41 18.37 71 19 C71.45 19.43 71.9 19.86 72.36 20.3 C72.95 20.87 72.95 20.87 73.56 21.44 C73.95 21.83 74.34 22.22 74.73 22.62 C75.36 23.31 75.36 23.31 76 24 C76.78 24.9 76.78 24.9 77.58 25.81 C78.15 26.51 78.72 27.21 79.31 27.94 C79.9 28.71 80.49 29.48 81.1 30.28 C82.04 31.63 82.04 31.63 83 33 C83.35 33.54 83.69 34.08 84.05 34.63 C84.4 35.21 84.76 35.79 85.12 36.38 C85.47 36.97 85.83 37.56 86.19 38.17 C86.54 38.78 86.89 39.38 87.25 40 C87.59 40.61 87.94 41.22 88.29 41.85 C88.78 42.74 88.78 42.74 89.28 43.66 C89.59 44.24 89.89 44.82 90.2 45.41 C90.47 45.94 90.73 46.46 91 47 C91.34 47.78 91.68 48.56 92.03 49.37 C92.27 50.05 92.51 50.73 92.75 51.44 C92.95 52.12 93.15 52.81 93.36 53.52 C93.57 54.34 93.78 55.16 94 56 C94.23 56.86 94.23 56.86 94.47 57.74 C94.73 58.7 94.73 58.7 94.99 59.67 C95.17 60.33 95.34 60.99 95.53 61.67 C95.7 62.34 95.88 63 96.06 63.69 C96.23 64.32 96.39 64.95 96.56 65.6 C96.79 66.51 96.79 66.51 97.04 67.45 C97.19 68.04 97.35 68.63 97.51 69.24 C97.67 69.82 97.83 70.4 98 71 C98.19 71.59 98.37 72.18 98.57 72.79 C98.75 73.34 98.93 73.89 99.12 74.46 C99.41 75.3 99.7 76.14 100 77 C99.34 77 98.68 77 98 77 C97.65 76.23 97.3 75.45 96.94 74.66 C96.49 73.61 96.03 72.57 95.56 71.5 C95.33 70.95 95.09 70.41 94.85 69.84 C94.51 69.02 94.51 69.02 94.16 68.18 C93.78 67.13 93.4 66.08 93 65 C92.86 64.21 92.73 63.41 92.59 62.6 C92.54 61.93 92.49 61.25 92.44 60.56 C92.39 59.94 92.34 59.33 92.3 58.69 C92.2 58.13 92.1 57.57 92 57 C91.4 56.03 90.8 55.06 90.19 54.06 C89.47 53.38 88.74 52.7 88 52 C87.29 51.79 86.59 51.58 85.86 51.37 C85.25 51.25 84.63 51.13 84 51 C84.19 51.5 84.39 51.99 84.59 52.5 C84.85 53.18 85.11 53.86 85.38 54.56 C85.65 55.3 85.93 56.03 86.21 56.79 C86.6 57.88 86.6 57.88 87 59 C87.17 59.6 87.33 60.19 87.5 60.81 C87.65 61.37 87.79 61.92 87.94 62.5 C88.09 63.06 88.24 63.62 88.39 64.2 C88.59 64.8 88.79 65.39 89 66 C89.33 66.7 89.67 67.39 90.01 68.11 C90.38 68.82 90.75 69.52 91.12 70.25 C91.65 71.22 91.65 71.22 92.2 72.2 C92.46 72.8 92.73 73.39 93 74 C93 74.99 93 75.98 93 77 C91.35 76.34 89.7 75.68 88 75 C88 73.68 88 72.36 88 71 C87.34 71.66 86.68 72.32 86 73 C85.64 71.35 85.64 71.35 85.27 69.68 C85.02 68.63 85.02 68.63 84.77 67.56 C84.6 66.82 84.43 66.08 84.25 65.31 C84.09 64.59 83.94 63.87 83.77 63.13 C83.61 62.42 83.44 61.72 83.27 60.99 C83.08 60.3 82.9 59.62 82.71 58.91 C82.47 58.28 82.24 57.65 82 57 C81.66 56.46 81.32 55.92 80.97 55.36 C80.6 54.91 80.24 54.45 79.86 53.98 C79.25 53.33 78.63 52.67 78 52 C78.43 53.11 78.43 53.11 78.88 54.25 C79.43 55.83 79.43 55.83 80 57.44 C80.19 58 80.38 58.57 80.57 59.16 C80.75 59.76 80.93 60.36 81.11 60.98 C81.27 61.62 81.44 62.26 81.61 62.92 C81.74 63.61 81.87 64.29 82 65 C82.06 65.75 82.13 66.51 82.19 67.28 C82.21 68.06 82.24 68.84 82.27 69.65 C82.27 70.81 82.27 70.81 82.28 71.99 C82.27 72.76 82.26 73.52 82.25 74.31 C82.23 75.07 82.22 75.83 82.2 76.61 C82.18 77.31 82.16 78.02 82.14 78.74 C82.09 79.81 82.05 80.89 82 82 C81.34 81.34 80.68 80.68 80 80 C79.86 79.02 79.72 78.05 79.58 77.04 C79.53 76.43 79.47 75.83 79.42 75.2 C79.33 74.2 79.33 74.2 79.25 73.19 C79.14 72.15 79.14 72.15 79.03 71.09 C78.94 70.36 78.85 69.62 78.76 68.87 C78.65 68.09 78.55 67.31 78.44 66.51 C78.29 65.68 78.15 64.85 78 64 C77.79 63.1 77.59 62.2 77.37 61.27 C77.01 59.87 77.01 59.87 76.64 58.45 C76.39 57.51 76.13 56.58 75.86 55.61 C75.47 54.23 75.47 54.23 75.06 52.81 C74.81 51.92 74.56 51.02 74.3 50.1 C74.04 49.25 73.79 48.4 73.54 47.52 C73.28 46.72 73.03 45.93 72.77 45.11 C72.52 44.41 72.26 43.72 72 43 C71.48 42.05 70.95 41.09 70.41 40.11 C69.94 39.42 69.48 38.72 69 38 C68.55 37.05 68.55 37.05 68.09 36.09 C67.85 35.52 67.62 34.96 67.38 34.38 C67.14 33.81 66.9 33.24 66.65 32.65 C66.33 31.83 66.33 31.83 66 31 C65.67 30.01 65.34 29.02 65 28 C64.38 27.65 63.76 27.3 63.12 26.94 C62.42 26.63 61.72 26.32 61 26 C60.46 25.65 59.92 25.3 59.37 24.94 C58.92 24.63 58.46 24.32 58 24 C58.39 24.32 58.77 24.63 59.17 24.96 C59.95 25.66 59.95 25.66 60.75 26.38 C61.3 26.92 61.85 27.47 62.42 28.04 C62.94 28.69 63.46 29.33 64 30 C64.37 30.75 64.73 31.5 65.11 32.27 C65.43 33.09 65.74 33.91 66.06 34.75 C66.53 36.05 66.53 36.05 67 37.37 C67.33 38.24 67.66 39.11 68 40 C68.4 40.8 68.8 41.59 69.21 42.41 C69.64 43.2 70.06 44 70.5 44.81 C71.13 46.07 71.13 46.07 71.77 47.34 C72.18 48.22 72.58 49.1 73 50 C73.56 51.38 73.56 51.38 74.14 52.78 C74.48 53.78 74.83 54.78 75.19 55.81 C75.51 56.91 75.83 58.01 76.16 59.14 C76.3 59.74 76.45 60.35 76.6 60.97 C76.73 61.64 76.86 62.31 77 63 C77.11 63.77 77.23 64.54 77.35 65.33 C77.45 66.15 77.55 66.98 77.66 67.83 C77.75 68.69 77.84 69.55 77.93 70.44 C78.02 71.33 78.1 72.21 78.19 73.12 C78.27 74.02 78.34 74.91 78.42 75.83 C78.49 76.72 78.56 77.62 78.64 78.55 C78.7 79.45 78.76 80.35 78.83 81.28 C78.89 82.18 78.94 83.07 79 84 C79.07 85.33 79.07 85.33 79.14 86.69 C79.18 87.56 79.23 88.43 79.27 89.33 C79.31 90.18 79.35 91.03 79.39 91.9 C79.43 92.72 79.46 93.53 79.5 94.38 C79.52 95.14 79.55 95.91 79.57 96.7 C79.6 97.42 79.63 98.15 79.66 98.9 C79.7 99.59 79.74 100.28 79.78 101 C79.85 101.66 79.93 102.32 80 103 C80.13 103.63 80.27 104.27 80.4 104.92 C80.57 105.52 80.73 106.12 80.9 106.74 C81.26 107.81 81.63 108.89 82 110 C82.35 110.85 82.71 111.7 83.07 112.58 C83.59 113.69 83.59 113.69 84.12 114.81 C84.65 115.94 84.65 115.94 85.2 117.08 C85.46 117.71 85.73 118.35 86 119 C86 119.66 86 120.32 86 121 C86.56 121.23 87.11 121.45 87.69 121.69 C88.45 122.12 89.21 122.55 90 123 C91.21 123.96 91.21 123.96 92.44 124.94 C92.86 125.37 93.28 125.8 93.71 126.24 C94.13 126.82 94.56 127.4 95 128 C95.44 128.87 95.87 129.74 96.32 130.63 C96.97 132.08 96.97 132.08 97.62 133.56 C98.01 134.49 98.39 135.42 98.79 136.38 C99.19 137.24 99.59 138.11 100 139 C100.54 139.71 101.08 140.41 101.64 141.14 C102.09 141.75 102.54 142.37 103 143 C103.06 144.07 103.12 145.15 103.19 146.25 C103.13 147.16 103.06 148.06 103 149 C102.34 149 101.68 149 101 149 C100.88 148.2 100.75 147.39 100.62 146.56 C100.42 145.72 100.21 144.87 100 144 C99.34 143.67 98.68 143.34 98 143 C97.88 143.79 97.75 144.58 97.62 145.39 C97.42 146.48 97.21 147.57 97 148.69 C96.88 149.27 96.76 149.85 96.63 150.45 C96.42 151.35 96.42 151.35 96.2 152.27 C96.02 152.89 95.85 153.5 95.67 154.14 C95.45 154.75 95.23 155.37 95 156 C94.7 156.59 94.4 157.17 94.09 157.78 C93.75 158.35 93.41 158.92 93.05 159.51 C92.52 160.36 92.52 160.36 91.98 161.22 C91.61 161.77 91.25 162.31 90.88 162.88 C90.33 163.64 90.33 163.64 89.78 164.42 C89.44 164.92 89.1 165.42 88.74 165.93 C88.43 166.42 88.11 166.91 87.78 167.42 C87.53 167.94 87.27 168.46 87 169 C86.85 169.62 86.69 170.23 86.54 170.87 C86.44 171.49 86.35 172.12 86.26 172.76 C86.17 173.83 86.09 174.9 86 176 C86 176.66 86 177.32 86 178 C85.34 178 84.68 178 84 178 C83.92 177.44 83.83 176.89 83.75 176.31 C83.59 175.17 83.59 175.17 83.44 174 C83.35 173.18 83.26 172.37 83.17 171.52 C83.12 170.69 83.06 169.86 83 169 C83.01 168.25 83.01 167.5 83.02 166.73 C83.07 166.03 83.13 165.34 83.19 164.62 C83.29 163.97 83.39 163.32 83.49 162.64 C83.66 162.1 83.83 161.56 84 161 C84.62 160.44 85.24 159.89 85.88 159.31 C86.58 158.88 87.28 158.45 88 158 C88.52 157.24 89.03 156.47 89.56 155.69 C90.04 154.8 90.51 153.91 91 153 C91.54 152.03 92.07 151.06 92.62 150.06 C93.08 149.05 93.53 148.04 94 147 C94.27 146.03 94.54 145.06 94.81 144.06 C94.87 143.05 94.94 142.04 95 141 C94.93 140.42 94.86 139.84 94.79 139.24 C94.65 138.65 94.51 138.05 94.38 137.44 C94.18 136.85 93.99 136.26 93.8 135.66 C93.53 135.11 93.27 134.56 93 134 C92.22 133.15 91.43 132.31 90.62 131.44 C90.18 131.04 89.74 130.64 89.29 130.23 C88.86 129.82 88.44 129.42 88 129 C87.35 128.1 86.7 127.2 86.03 126.27 C85.69 125.74 85.35 125.21 84.99 124.67 C84.67 124.12 84.34 123.57 84 123 C83.72 122.46 83.44 121.92 83.15 121.36 C82.76 120.54 82.76 120.54 82.37 119.7 C82 118.86 82 118.86 81.62 118 C81.25 117.14 81.25 117.14 80.88 116.25 C80.62 115.64 80.36 115.02 80.09 114.39 C79.84 113.77 79.59 113.15 79.33 112.52 C79.09 111.91 78.86 111.31 78.62 110.69 C78.41 110.13 78.21 109.57 78 109 C77.73 108.13 77.45 107.26 77.17 106.36 C76.99 105.58 76.81 104.8 76.62 104 C76.49 103.2 76.36 102.4 76.22 101.57 C76.15 100.72 76.08 99.87 76 99 C76 98.05 76 97.1 76 96.12 C76.03 94.51 76.03 94.51 76.06 92.88 C76.08 92.02 76.08 92.02 76.1 91.15 C76.1 90.54 76.11 89.93 76.11 89.3 C76.1 88.63 76.1 87.97 76.09 87.28 C76.06 86.53 76.03 85.77 76 85 C75.93 84.1 75.86 83.21 75.79 82.28 C75.7 81.31 75.61 80.33 75.52 79.33 C75.41 78.32 75.3 77.3 75.19 76.26 C75 74.71 75 74.71 74.81 73.12 C74.61 71.57 74.61 71.57 74.41 69.98 C74.27 68.96 74.12 67.93 73.98 66.88 C73.82 65.88 73.67 64.88 73.5 63.85 C73.34 62.91 73.17 61.97 73 61 C72.82 60.17 72.65 59.35 72.46 58.5 C72.18 57.37 72.18 57.37 71.9 56.21 C71.7 55.51 71.51 54.8 71.31 54.08 C71.1 53.41 70.9 52.75 70.69 52.06 C70.48 51.42 70.27 50.78 70.05 50.12 C69.83 49.52 69.61 48.92 69.39 48.29 C69.05 47.45 69.05 47.45 68.71 46.58 C68.48 46.06 68.24 45.54 68 45 C67.5 44.09 67 43.18 66.48 42.24 C65.97 41.46 65.46 40.68 64.94 39.88 C64.43 39.2 63.91 38.52 63.39 37.82 C62.7 36.92 62.7 36.92 62 36 C61.7 35.44 61.39 34.88 61.08 34.3 C60.81 33.79 60.53 33.28 60.25 32.75 C59.95 32.29 59.64 31.82 59.33 31.35 C58.89 30.9 58.45 30.46 58 30 C57.23 29.52 56.46 29.05 55.67 28.56 C54.79 28.11 53.91 27.65 53 27.19 C52.15 26.79 51.31 26.39 50.44 25.98 C49.23 25.5 49.23 25.5 48 25 C47.38 24.79 46.76 24.58 46.12 24.37 C45.42 24.25 44.72 24.13 44 24 C42.4 23.93 42.4 23.93 40.76 23.87 C40.17 23.87 39.57 23.86 38.96 23.86 C38.36 23.87 37.75 23.87 37.12 23.88 C36.53 23.87 35.93 23.87 35.31 23.86 C34.42 23.87 34.42 23.87 33.51 23.87 C32.63 23.88 32.63 23.88 31.74 23.9 C31.17 23.93 30.59 23.97 30 24 C28.86 24.17 27.73 24.34 26.55 24.51 C25.71 24.67 24.87 24.83 24 25 C23.5 23.52 23.5 23.52 23 22 C23.87 21.84 24.73 21.67 25.62 21.5 C26.25 21.41 26.87 21.32 27.51 21.22 C28.33 21.15 29.15 21.08 30 21 C30.56 20.98 31.13 20.97 31.71 20.95 C32.63 20.94 32.63 20.94 33.58 20.93 C34.53 20.93 34.53 20.93 35.5 20.93 C36.46 20.93 36.46 20.93 37.44 20.94 C38.08 20.94 38.72 20.95 39.38 20.95 C40.27 20.96 40.27 20.96 41.18 20.96 C42.58 20.98 42.58 20.98 44 21 C44 20.34 44 19.68 44 19 C45.65 19.66 47.3 20.32 49 21 C48.3 20.38 47.6 19.76 46.88 19.12 C46.41 18.76 45.95 18.4 45.48 18.02 C44.99 17.69 44.5 17.35 44 17 C43.09 16.59 42.19 16.18 41.25 15.75 C40.18 15.5 39.1 15.26 38 15 C36.91 14.91 36.91 14.91 35.79 14.81 C34.63 14.78 34.63 14.78 33.44 14.75 C32.29 14.77 32.29 14.77 31.12 14.8 C30.42 14.86 29.72 14.93 29 15 C27.99 15.33 26.98 15.66 25.94 16 C25.3 16.33 24.66 16.66 24 17 C24 16.34 24 15.68 24 15 C24.99 14.67 25.98 14.34 27 14 C26.41 13.26 26.41 13.26 25.81 12.5 C25.21 12.01 24.62 11.51 24 11 C22.67 10.91 22.67 10.91 21.31 10.81 C20.55 10.87 19.79 10.94 19 11 C19.5 14.46 19.5 14.46 20 18 C18.35 17.34 16.7 16.68 15 16 C15 16.99 15 17.98 15 19 C14.27 19.01 13.55 19.03 12.8 19.04 C11.79 19.09 10.79 19.14 9.75 19.19 C8.66 19.28 7.56 19.37 6.44 19.47 C5.3 19.64 4.17 19.82 3 20 C1.95 20.32 0.9 20.64 -0.19 20.97 C-1.2 21.37 -2.21 21.77 -3.25 22.19 C-4.73 22.87 -4.73 22.87 -6.25 23.56 C-7.15 24.03 -8.06 24.51 -9 25 C-9.75 25.44 -10.51 25.89 -11.29 26.35 C-11.95 26.81 -12.62 27.27 -13.31 27.75 C-13.93 28.24 -14.55 28.73 -15.18 29.24 C-16.08 30.11 -16.08 30.11 -17 31 C-17.65 31.79 -18.3 32.57 -18.97 33.38 C-19.6 34.21 -20.23 35.03 -20.88 35.88 C-21.43 36.66 -21.98 37.44 -22.55 38.24 C-23.03 38.82 -23.51 39.4 -24 40 C-24.66 40 -25.32 40 -26 40 C-26.11 40.7 -26.21 41.4 -26.32 42.12 C-26.54 43.07 -26.77 44.02 -27 45 C-27.43 45.97 -27.86 46.94 -28.3 47.95 C-28.56 48.46 -28.81 48.97 -29.07 49.5 C-29.34 50.04 -29.6 50.57 -29.88 51.12 C-30.28 51.97 -30.28 51.97 -30.69 52.84 C-30.96 53.42 -31.23 53.99 -31.5 54.59 C-31.89 55.45 -31.89 55.45 -32.29 56.32 C-32.52 56.88 -32.76 57.43 -33 58 C-33.34 58.98 -33.68 59.96 -34.03 60.98 C-34.29 61.89 -34.55 62.81 -34.81 63.75 C-35.14 65.07 -35.14 65.07 -35.48 66.41 C-35.65 67.26 -35.82 68.12 -36 69 C-36.13 69.89 -36.26 70.77 -36.4 71.68 C-36.49 72.51 -36.59 73.34 -36.69 74.19 C-36.75 74.92 -36.82 75.66 -36.89 76.42 C-36.92 76.94 -36.96 77.46 -37 78 C-37.99 78 -38.98 78 -40 78 C-40 79.65 -40 81.3 -40 83 C-39.34 83 -38.68 83 -38 83 C-38.33 81.68 -38.66 80.36 -39 79 C-38.34 79 -37.68 79 -37 79 C-36.67 79.66 -36.34 80.32 -36 81 C-35.96 82.11 -35.92 83.23 -35.88 84.38 C-35.88 85 -35.89 85.62 -35.89 86.26 C-35.94 87.12 -35.94 87.12 -36 88 C-36.21 88.72 -36.41 89.44 -36.62 90.19 C-36.75 90.79 -36.87 91.38 -37 92 C-36.67 92.68 -36.34 93.36 -36 94.06 C-35.51 95.02 -35.51 95.02 -35 96 C-35.49 97.48 -35.49 97.48 -36 99 C-35.01 99.33 -34.02 99.66 -33 100 C-32.61 100.83 -32.22 101.66 -31.82 102.52 C-31.45 103.61 -31.07 104.69 -30.69 105.81 C-30.38 106.69 -30.38 106.69 -30.07 107.58 C-29.85 108.18 -29.63 108.78 -29.41 109.39 C-29.19 110 -28.96 110.6 -28.73 111.22 C-28.49 111.81 -28.25 112.4 -28 113 C-27.73 113.53 -27.45 114.05 -27.17 114.6 C-26.89 115.1 -26.6 115.59 -26.31 116.11 C-25.48 117.57 -25.48 117.57 -24.62 119.06 C-24.12 120.03 -23.61 120.99 -23.09 121.99 C-22.73 122.98 -22.37 123.98 -22 125 C-21.95 126.13 -21.9 127.26 -21.84 128.42 C-21.94 129.52 -22.03 130.62 -22.12 131.75 C-22.27 132.76 -22.42 133.76 -22.57 134.8 C-22.71 135.52 -22.85 136.25 -23 137 C-23.99 137.33 -24.98 137.66 -26 138 C-25.75 138.66 -25.5 139.33 -25.25 140.01 C-25.17 141 -25.09 141.98 -25 143 C-25.34 143.88 -25.34 143.88 -25.68 144.78 C-26.01 145.42 -26.35 146.05 -26.69 146.71 C-27.06 147.38 -27.42 148.05 -27.8 148.74 C-28.2 149.42 -28.59 150.11 -29 150.81 C-29.39 151.49 -29.79 152.16 -30.2 152.85 C-30.56 153.53 -30.93 154.2 -31.31 154.89 C-31.64 155.56 -31.98 156.23 -32.32 156.92 C-32.54 157.61 -32.77 158.29 -33 159 C-33.01 159.76 -33.02 160.51 -33.03 161.29 C-32.94 162.03 -32.84 162.76 -32.75 163.51 C-32.62 164.18 -32.49 164.85 -32.36 165.54 C-32.24 166.02 -32.12 166.5 -32 167 C-31.2 167.27 -30.39 167.54 -29.56 167.81 C-28.72 168.2 -27.87 168.6 -27 169 C-26.67 169.99 -26.34 170.98 -26 172 C-26.99 172 -27.98 172 -29 172 C-29 171.34 -29 170.68 -29 170 C-29.99 170 -30.98 170 -32 170 C-31.67 171.98 -31.34 173.96 -31 176 C-30.34 176 -29.68 176 -29 176 C-28.58 176.71 -28.16 177.43 -27.72 178.16 C-27.17 179.12 -26.63 180.08 -26.06 181.06 C-25.52 182 -24.97 182.94 -24.41 183.91 C-23.94 184.93 -23.48 185.95 -23 187 C-22.85 187.56 -22.7 188.12 -22.55 188.7 C-22.45 189.27 -22.35 189.85 -22.24 190.45 C-22.18 191.04 -22.12 191.62 -22.05 192.23 C-22.03 192.81 -22.02 193.4 -22 194 C-22.11 195.11 -22.23 196.22 -22.35 197.36 C-22.58 198.48 -22.82 199.6 -23.06 200.75 C-23.2 201.36 -23.34 201.96 -23.48 202.59 C-23.63 203.2 -23.78 203.82 -23.93 204.45 C-24.1 205.05 -24.27 205.65 -24.44 206.27 C-24.63 206.84 -24.81 207.41 -25 208 C-25.4 208.96 -25.81 209.91 -26.22 210.89 C-26.69 211.77 -27.15 212.66 -27.62 213.56 C-28.39 214.87 -28.39 214.87 -29.16 216.2 C-29.77 217.12 -30.38 218.05 -31 219 C-31.39 219.55 -31.78 220.09 -32.19 220.65 C-32.61 221.23 -33.03 221.8 -33.46 222.39 C-34.09 223.26 -34.09 223.26 -34.73 224.15 C-35.15 224.72 -35.57 225.29 -36 225.88 C-36.42 226.41 -36.84 226.95 -37.28 227.5 C-37.66 228.01 -38.04 228.53 -38.44 229.05 C-39.21 230.51 -39.21 230.51 -40 232 C-39.86 232.89 -39.71 233.78 -39.56 234.7 C-39.05 235.46 -38.53 236.22 -38 237 C-37.29 237.58 -36.58 238.16 -35.85 238.75 C-34.91 239.16 -33.97 239.57 -33 240 C-32.42 240.12 -31.84 240.24 -31.24 240.37 C-30.61 240.45 -29.98 240.54 -29.34 240.62 C-28.69 240.69 -28.04 240.76 -27.38 240.83 C-26.72 240.88 -26.06 240.94 -25.38 241 C-24.71 241.06 -24.04 241.11 -23.35 241.17 C-22.71 241.24 -22.06 241.31 -21.4 241.38 C-20.28 241.58 -19.16 241.79 -18 242 C-17.43 242.51 -16.87 243.02 -16.29 243.54 C-15.65 244.26 -15.65 244.26 -15 245 C-15.51 244.96 -16.02 244.91 -16.54 244.86 C-17.25 244.8 -17.96 244.73 -18.69 244.67 C-19.47 244.59 -20.25 244.51 -21.06 244.44 C-22.3 244.31 -22.3 244.31 -23.56 244.19 C-24.36 244.12 -25.16 244.05 -25.99 243.97 C-27.17 243.85 -27.17 243.85 -28.38 243.73 C-29.16 243.63 -29.93 243.54 -30.73 243.44 C-31.48 243.29 -32.23 243.15 -33 243 C-33.71 242.75 -34.42 242.51 -35.15 242.26 C-35.79 241.98 -36.43 241.71 -37.09 241.43 C-38.05 240.96 -39.01 240.48 -40 240 C-40 239.34 -40 238.68 -40 238 C-41.32 237.34 -42.64 236.68 -44 236 C-44 233.69 -44 231.38 -44 229 C-45.32 229.33 -46.64 229.66 -48 230 C-48 230.66 -48 231.32 -48 232 C-48.66 232 -49.32 232 -50 232 C-50 232.66 -50 233.32 -50 234 C-50.43 234.37 -50.87 234.74 -51.31 235.12 C-52.15 235.56 -52.15 235.56 -53 236 C-53.99 236 -54.98 236 -56 236 C-55.81 236.8 -55.63 237.61 -55.44 238.44 C-55.29 239.28 -55.15 240.13 -55 241 C-55.33 241.33 -55.66 241.66 -56 242 C-55.01 242.99 -55.01 242.99 -54 244 C-55.11 243.85 -55.11 243.85 -56.25 243.69 C-57.16 243.46 -58.06 243.23 -59 243 C-59.66 242.53 -60.32 242.05 -61 241.56 C-61.66 241.05 -62.32 240.53 -63 240 C-63.89 239.65 -64.77 239.3 -65.69 238.94 C-66.45 238.63 -67.21 238.32 -68 238 C-68.5 237.01 -68.5 237.01 -69 236 C-69.76 235.6 -70.51 235.19 -71.29 234.77 C-72.73 234.08 -72.73 234.08 -74.19 233.38 C-75.18 232.84 -76.17 232.31 -77.2 231.77 C-78.12 231.18 -79.05 230.6 -80 230 C-80.99 229.06 -80.99 229.06 -81.99 228.11 C-82.51 227.45 -83.03 226.8 -83.56 226.12 C-84.01 225.45 -84.45 224.77 -84.91 224.08 C-85.27 223.39 -85.63 222.71 -86 222 C-86.28 221.31 -86.55 220.63 -86.84 219.92 C-87.03 219.25 -87.23 218.57 -87.44 217.88 C-87.56 217.22 -87.69 216.56 -87.82 215.88 C-87.88 215.26 -87.94 214.64 -88 214 C-87.91 212.39 -87.91 212.39 -87.81 210.75 C-87.54 209.84 -87.28 208.94 -87 208 C-86.46 207.32 -85.93 206.64 -85.38 205.94 C-84.69 204.98 -84.69 204.98 -84 204 C-84.1 203.09 -84.21 202.19 -84.31 201.25 C-84.54 200.51 -84.77 199.76 -85 199 C-85.66 200.98 -86.32 202.96 -87 205 C-87.66 204.34 -88.32 203.68 -89 203 C-88.34 201.02 -87.68 199.04 -87 197 C-86.01 197 -85.02 197 -84 197 C-83.87 196.45 -83.74 195.9 -83.61 195.34 C-83.41 194.57 -83.21 193.79 -83 193 C-82.74 192.15 -82.47 191.29 -82.2 190.41 C-81.89 189.49 -81.57 188.57 -81.25 187.62 C-80.72 186.18 -80.72 186.18 -80.17 184.7 C-79.59 183.36 -79.59 183.36 -79 182 C-78.59 181.35 -78.19 180.69 -77.77 180.02 C-77.35 179.5 -76.93 178.98 -76.5 178.44 C-75.26 177.23 -75.26 177.23 -74 176 C-73.32 175.65 -72.64 175.3 -71.94 174.94 C-71.3 174.63 -70.66 174.32 -70 174 C-69.26 173.13 -68.52 172.27 -67.75 171.38 C-66.88 170.2 -66.88 170.2 -66 169 C-67.09 169.04 -68.19 169.08 -69.31 169.12 C-69.95 169.13 -70.59 169.13 -71.24 169.13 C-72.11 169.07 -72.11 169.07 -73 169 C-73.64 168.67 -74.28 168.34 -74.94 168 C-75.29 167.67 -75.64 167.34 -76 167 C-75.01 166.67 -74.02 166.34 -73 166 C-71.95 165.9 -70.9 165.79 -69.81 165.69 C-69.21 165.61 -68.61 165.53 -67.98 165.45 C-67.33 165.3 -66.67 165.15 -66 165 C-65.26 164.69 -64.53 164.37 -63.77 164.05 C-63.04 163.68 -62.31 163.31 -61.56 162.94 C-60.88 162.58 -60.2 162.21 -59.5 161.84 C-59.01 161.56 -58.51 161.29 -58 161 C-58.72 161.1 -59.44 161.21 -60.19 161.31 C-61.58 161.65 -61.58 161.65 -63 162 C-64.24 162.8 -64.24 162.8 -65.5 163.62 C-66.33 164.08 -67.15 164.53 -68 165 C-69.39 164.85 -69.39 164.85 -70.81 164.69 C-71.9 164.35 -71.9 164.35 -73 164 C-72.01 163.01 -72.01 163.01 -71 162 C-70.34 161.78 -69.69 161.55 -69.01 161.32 C-67.86 161.01 -67.86 161.01 -66.69 160.69 C-65.89 160.43 -65.08 160.17 -64.26 159.9 C-63.51 159.6 -62.77 159.31 -62 159 C-61.19 158.49 -61.19 158.49 -60.37 157.98 C-59.94 157.59 -59.51 157.21 -59.06 156.81 C-58.04 155.42 -58.04 155.42 -57 154 C-56.76 153.31 -56.51 152.61 -56.26 151.9 C-55.98 150.8 -55.98 150.8 -55.69 149.69 C-55.55 148.99 -55.41 148.29 -55.26 147.57 C-55.18 147.05 -55.09 146.54 -55 146 C-56.09 145.73 -57.19 145.46 -58.31 145.19 C-58.95 145 -59.59 144.82 -60.25 144.62 C-60.83 144.42 -61.41 144.21 -62 144 C-62.58 143.57 -63.16 143.13 -63.75 142.69 C-64.16 142.13 -64.58 141.57 -65 141 C-65.47 140.26 -65.95 139.51 -66.44 138.75 C-66.95 137.84 -67.47 136.94 -68 136 C-68.33 135.45 -68.67 134.9 -69.01 134.33 C-69.36 133.75 -69.7 133.16 -70.06 132.56 C-70.4 131.96 -70.74 131.36 -71.08 130.74 C-71.38 130.17 -71.69 129.59 -72 129 C-72.41 128.07 -72.83 127.14 -73.25 126.19 C-73.5 125.14 -73.75 124.08 -74 123 C-74.08 121.77 -74.08 121.77 -74.15 120.51 C-74.16 119.62 -74.18 118.73 -74.19 117.81 C-74.18 116.55 -74.18 116.55 -74.17 115.27 C-74.11 114.52 -74.06 113.77 -74 113 C-73.67 112.01 -73.34 111.02 -73 110 C-72.97 109.34 -72.93 108.68 -72.89 108 C-72.87 107.2 -72.84 106.39 -72.81 105.56 C-72.73 104.59 -72.65 103.61 -72.56 102.61 C-72.49 102.05 -72.42 101.49 -72.34 100.91 C-72.23 100.28 -72.12 99.65 -72 99 C-71.74 97.9 -71.74 97.9 -71.46 96.79 C-71.25 96 -71.03 95.21 -70.81 94.39 C-70.45 93.15 -70.45 93.15 -70.09 91.89 C-69.83 91.04 -69.58 90.19 -69.31 89.31 C-69.05 88.45 -68.78 87.59 -68.51 86.71 C-68.1 85.42 -68.1 85.42 -67.69 84.1 C-67.41 83.25 -67.13 82.39 -66.84 81.51 C-66.57 80.68 -66.29 79.85 -66 79 C-65.73 78.22 -65.46 77.44 -65.18 76.64 C-64.91 75.9 -64.65 75.16 -64.38 74.4 C-64.11 73.69 -63.85 72.97 -63.58 72.24 C-63.33 71.56 -63.07 70.88 -62.81 70.19 C-62.58 69.56 -62.34 68.93 -62.09 68.29 C-61.86 67.69 -61.63 67.1 -61.39 66.48 C-61.17 65.91 -60.94 65.33 -60.71 64.74 C-60.47 64.17 -60.24 63.59 -60 63 C-59.74 62.38 -59.48 61.77 -59.21 61.13 C-58.95 60.52 -58.69 59.91 -58.42 59.29 C-58.17 58.71 -57.92 58.13 -57.67 57.54 C-57.45 57.03 -57.23 56.52 -57 56 C-56.71 55.3 -56.42 54.61 -56.12 53.89 C-55.9 53.35 -55.67 52.81 -55.44 52.25 C-55.21 51.7 -54.98 51.15 -54.75 50.58 C-54.5 50.06 -54.25 49.54 -54 49 C-53.64 48.44 -53.28 47.88 -52.91 47.3 C-52.61 46.87 -52.31 46.44 -52 46 C-52.33 45.34 -52.66 44.68 -53 44 C-52.34 43.67 -51.68 43.34 -51 43 C-50.77 42.38 -50.53 41.75 -50.29 41.11 C-49.96 39.94 -49.96 39.94 -49.62 38.75 C-49.37 37.93 -49.11 37.12 -48.85 36.27 C-48.57 35.52 -48.29 34.77 -48 34 C-47.36 33.13 -46.72 32.27 -46.06 31.38 C-45.38 30.59 -44.7 29.81 -44 29 C-43.68 28.45 -43.36 27.89 -43.03 27.32 C-42.71 26.72 -42.39 26.12 -42.06 25.5 C-41.73 24.9 -41.39 24.3 -41.05 23.68 C-40.7 23.13 -40.36 22.57 -40 22 C-39.26 21.22 -38.52 20.43 -37.75 19.62 C-37.33 19.24 -36.91 18.85 -36.48 18.45 C-35.99 17.97 -35.5 17.49 -35 17 C-34.39 16.28 -33.78 15.57 -33.15 14.83 C-32.48 14.04 -31.81 13.25 -31.12 12.44 C-30.44 11.66 -29.75 10.89 -29.05 10.09 C-28.37 9.4 -27.7 8.71 -27 8 C-26.39 7.54 -25.77 7.08 -25.14 6.6 C-24.56 6.26 -23.98 5.92 -23.38 5.56 C-22.8 5.28 -22.23 5 -21.64 4.71 C-20.83 4.36 -20.83 4.36 -20 4 C-19.03 3.59 -18.06 3.17 -17.06 2.75 C-16.05 2.5 -15.04 2.25 -14 2 C-13.36 1.97 -12.72 1.95 -12.06 1.92 C-11.38 1.92 -10.7 1.93 -10 1.94 C-9.33 1.96 -8.66 1.98 -7.97 2 C-6.99 2 -6.99 2 -6 2 C-5.39 1.93 -4.78 1.86 -4.16 1.79 C-3.61 1.69 -3.06 1.6 -2.5 1.5 C-1.67 1.33 -0.85 1.17 0 1 C0 0.67 0 0.34 0 0 Z M4 2 C4.45 2.3 4.89 2.61 5.35 2.92 C6.17 3.45 6.17 3.45 7 4 C7.78 4.43 8.57 4.87 9.38 5.31 C10.24 5.87 11.11 6.43 12 7 C12.47 7.43 12.95 7.86 13.43 8.3 C13.89 8.76 14.34 9.22 14.81 9.69 C15.53 10.45 16.26 11.21 17 12 C16.88 10.89 16.88 10.89 16.75 9.75 C16.5 8.84 16.25 7.93 16 7 C15.48 6.26 14.97 5.52 14.44 4.75 C13.63 4.17 12.83 3.59 12 3 C11.33 2.85 10.65 2.69 9.96 2.53 C9.23 2.44 8.5 2.35 7.75 2.25 C7.04 2.19 6.34 2.14 5.61 2.08 C5.08 2.05 4.55 2.03 4 2 Z M2 4 C2 4.66 2 5.32 2 6 C2.53 6.38 3.06 6.76 3.61 7.15 C4.32 7.55 5.02 7.96 5.75 8.38 C6.48 8.81 7.2 9.24 7.95 9.69 C8.63 10.12 9.3 10.56 10 11 C10.83 11.76 11.65 12.53 12.5 13.31 C13 13.87 13.49 14.43 14 15 C13.88 13.89 13.88 13.89 13.75 12.75 C13.5 11.84 13.25 10.93 13 10 C12.46 9.28 11.93 8.56 11.38 7.81 C10.59 7.21 9.81 6.62 9 6 C8.4 5.77 7.8 5.54 7.18 5.31 C6.54 5.12 5.91 4.94 5.25 4.75 C4.18 4.5 3.11 4.25 2 4 Z M35 4 C34.34 4.66 33.68 5.32 33 6 C34.55 6.71 34.55 6.71 36.12 7.44 C37.22 7.99 37.22 7.99 38.33 8.55 C39.21 9.03 40.09 9.51 41 10 C41.78 10.46 41.78 10.46 42.58 10.93 C43.13 11.27 43.69 11.6 44.26 11.95 C44.84 12.31 45.42 12.67 46.01 13.04 C46.9 13.61 46.9 13.61 47.81 14.19 C48.41 14.58 49.02 14.97 49.64 15.37 C50.24 15.77 50.84 16.17 51.46 16.58 C52.05 16.98 52.65 17.38 53.26 17.8 C53.83 18.2 54.41 18.59 55 19 C55.53 19.37 56.06 19.75 56.61 20.13 C57.11 20.5 57.62 20.86 58.14 21.23 C58.62 21.6 59.1 21.96 59.6 22.33 C60.06 22.7 60.52 23.06 61 23.44 C61.88 24.18 62.76 24.93 63.67 25.69 C64.44 26.45 65.21 27.22 66 28 C66.58 28.79 67.17 29.59 67.77 30.4 C68.26 31.22 68.75 32.03 69.25 32.88 C69.69 33.7 70.14 34.52 70.59 35.36 C71.06 36.23 71.52 37.1 72 38 C72.44 38.74 72.44 38.74 72.89 39.5 C73.21 40.01 73.52 40.52 73.84 41.04 C74.32 41.8 74.32 41.8 74.8 42.57 C75.12 43.06 75.43 43.55 75.75 44.06 C76.32 44.98 76.89 45.9 77.48 46.85 C77.98 47.56 78.48 48.27 79 49 C79.99 49.49 79.99 49.49 81 50 C80.94 49.07 80.88 48.14 80.81 47.19 C80.72 46.55 80.62 45.91 80.53 45.25 C80.35 44.51 80.18 43.77 80 43 C79.69 42.15 79.38 41.31 79.07 40.44 C78.48 39.08 78.48 39.08 77.88 37.69 C77.43 36.75 76.99 35.82 76.53 34.85 C76.02 33.91 75.52 32.97 75 32 C74.42 31.08 73.85 30.16 73.25 29.21 C72.65 28.34 72.06 27.46 71.44 26.56 C70.88 25.78 70.32 25 69.75 24.19 C69.17 23.47 68.59 22.75 68 22 C67.27 21.31 66.54 20.62 65.79 19.9 C65.2 19.27 64.61 18.65 64 18 C64 17.01 64 16.02 64 15 C63.55 14.52 63.1 14.03 62.64 13.54 C61.99 13.05 61.35 12.56 60.69 12.06 C59.96 11.54 59.23 11.03 58.47 10.49 C57.66 10 56.84 9.51 56 9 C55.13 8.59 54.26 8.18 53.37 7.76 C52.46 7.4 51.56 7.05 50.62 6.69 C49.7 6.38 48.78 6.07 47.82 5.75 C46.89 5.51 45.96 5.26 45 5 C44.06 4.82 43.12 4.65 42.14 4.46 C40.8 4.3 40.8 4.3 39.44 4.12 C38.23 4.01 38.23 4.01 37 3.88 C36.01 3.94 36.01 3.94 35 4 Z M-4 4 C-4.83 4.04 -5.67 4.07 -6.52 4.11 C-7.46 4.18 -8.41 4.24 -9.38 4.31 C-10.85 4.45 -10.85 4.45 -12.35 4.59 C-13.23 4.73 -14.1 4.86 -15 5 C-15.91 5.45 -16.81 5.91 -17.75 6.38 C-18.49 6.91 -19.23 7.45 -20 8 C-20.53 8.19 -21.06 8.38 -21.6 8.58 C-22.19 8.78 -22.77 8.98 -23.38 9.19 C-23.97 9.43 -24.56 9.67 -25.17 9.92 C-25.77 10.28 -26.38 10.63 -27 11 C-27.61 11.6 -28.23 12.21 -28.86 12.83 C-29.47 13.52 -30.07 14.22 -30.69 14.94 C-31.26 15.64 -31.83 16.35 -32.43 17.07 C-32.95 17.71 -33.46 18.34 -34 19 C-35.18 20.14 -35.18 20.14 -36.38 21.31 C-36.91 21.87 -37.45 22.43 -38 23 C-38.33 23.99 -38.66 24.98 -39 26 C-38.34 26 -37.68 26 -37 26 C-36.32 25.28 -35.64 24.56 -34.94 23.81 C-34.29 23.13 -34.29 23.13 -33.62 22.44 C-33.09 21.97 -32.55 21.49 -32 21 C-31.29 20.53 -30.58 20.07 -29.85 19.59 C-29.07 19.15 -28.3 18.71 -27.5 18.25 C-26.77 17.84 -26.04 17.44 -25.28 17.02 C-24.53 16.68 -23.78 16.35 -23 16 C-22.18 15.85 -21.35 15.7 -20.5 15.55 C-19.68 15.37 -18.85 15.19 -18 15 C-17.26 14.53 -16.51 14.07 -15.75 13.59 C-14.98 13.04 -14.22 12.5 -13.44 11.94 C-12.58 11.4 -11.73 10.86 -10.85 10.3 C-9.91 9.87 -8.97 9.44 -8 9 C-6.36 8.8 -6.36 8.8 -4.68 8.61 C-3.59 8.61 -2.5 8.62 -1.38 8.62 C-0.35 8.68 0.67 8.73 1.73 8.79 C2.85 8.89 2.85 8.89 4 9 C3.24 8.18 2.47 7.35 1.69 6.5 C1.26 6.04 0.83 5.57 0.39 5.09 C-0.3 4.55 -0.3 4.55 -1 4 C-1.99 4 -2.98 4 -4 4 Z M28 9 C28 9.66 28 10.32 28 11 C28.99 10.67 29.98 10.34 31 10 C30.01 9.67 29.02 9.34 28 9 Z M32 9 C32 9.99 32 10.98 32 12 C33.98 12 35.96 12 38 12 C38 11.34 38 10.68 38 10 C35.03 9.5 35.03 9.5 32 9 Z M-4 11 C-5.64 11.53 -5.64 11.53 -7.31 12.06 C-8.17 12.48 -8.17 12.48 -9.05 12.9 C-9.7 13.26 -10.34 13.63 -11 14 C-11.81 14.51 -12.61 15.02 -13.45 15.54 C-14.27 16.08 -15.09 16.63 -15.94 17.19 C-16.71 17.72 -17.48 18.25 -18.28 18.79 C-18.85 19.19 -19.41 19.59 -20 20 C-19.5 20.99 -19.5 20.99 -19 22 C-19.34 22.68 -19.34 22.68 -19.69 23.38 C-20.12 23.91 -20.55 24.45 -21 25 C-22.17 25.43 -22.17 25.43 -23.36 25.86 C-24.23 26.24 -25.1 26.61 -26 27 C-26.91 27.84 -26.91 27.84 -27.84 28.71 C-28.66 29.75 -28.66 29.75 -29.5 30.81 C-30.09 31.61 -30.69 32.4 -31.3 33.22 C-31.86 34.14 -32.42 35.05 -33 36 C-33.37 36.81 -33.37 36.81 -33.75 37.63 C-33.98 38.19 -34.21 38.76 -34.45 39.34 C-34.67 39.92 -34.9 40.49 -35.12 41.08 C-35.43 41.94 -35.43 41.94 -35.75 42.81 C-36.12 43.89 -36.48 44.97 -36.86 46.08 C-37.24 47.04 -37.61 48.01 -38 49 C-38.54 49.79 -39.08 50.58 -39.64 51.39 C-40.09 51.92 -40.54 52.45 -41 53 C-40.92 52.17 -40.84 51.35 -40.75 50.5 C-40.66 49.95 -40.57 49.4 -40.47 48.83 C-40.32 48.23 -40.16 47.62 -40 47 C-39.73 46.39 -39.46 45.77 -39.18 45.14 C-38.85 44.49 -38.53 43.85 -38.19 43.19 C-37.83 42.52 -37.48 41.85 -37.12 41.16 C-36.75 40.45 -36.38 39.73 -36 39 C-35.63 38.19 -35.26 37.39 -34.88 36.56 C-34.53 35.76 -34.18 34.95 -33.81 34.12 C-33.49 33.39 -33.17 32.65 -32.83 31.88 C-32.56 31.26 -32.28 30.64 -32 30 C-31.67 29.34 -31.34 28.68 -31 28 C-32.32 27.67 -33.64 27.34 -35 27 C-35.52 27.92 -35.52 27.92 -36.06 28.86 C-36.51 29.67 -36.97 30.48 -37.44 31.31 C-37.89 32.11 -38.34 32.91 -38.81 33.74 C-39.2 34.48 -39.59 35.23 -40 36 C-40.33 36.99 -40.66 37.98 -41 39 C-41.99 39.33 -42.98 39.66 -44 40 C-44 40.66 -44 41.32 -44 42 C-44.99 42 -45.98 42 -47 42 C-47.45 42.83 -47.91 43.65 -48.38 44.5 C-48.65 45.06 -48.93 45.61 -49.22 46.19 C-49.48 46.79 -49.74 47.38 -50 48 C-50.14 48.56 -50.29 49.11 -50.43 49.69 C-50.62 50.58 -50.62 50.58 -50.81 51.5 C-50.96 52.17 -51.12 52.84 -51.27 53.53 C-51.51 54.35 -51.75 55.16 -52 56 C-52.21 56.53 -52.41 57.05 -52.62 57.6 C-52.86 58.17 -53.1 58.75 -53.35 59.34 C-53.61 59.95 -53.87 60.55 -54.13 61.17 C-54.4 61.77 -54.66 62.38 -54.94 63 C-55.32 63.85 -55.32 63.85 -55.7 64.72 C-55.96 65.29 -56.21 65.86 -56.46 66.44 C-56.72 67.02 -56.97 67.6 -57.24 68.2 C-57.61 69.09 -57.61 69.09 -58 70 C-58.24 70.6 -58.49 71.2 -58.74 71.83 C-58.98 72.46 -59.22 73.09 -59.47 73.74 C-59.72 74.41 -59.97 75.08 -60.22 75.77 C-60.61 76.87 -60.61 76.87 -61 78 C-61.28 78.85 -61.56 79.7 -61.84 80.58 C-62.13 81.5 -62.42 82.41 -62.72 83.36 C-63.01 84.3 -63.3 85.25 -63.6 86.22 C-63.9 87.2 -64.19 88.18 -64.5 89.19 C-64.81 90.21 -65.11 91.22 -65.43 92.27 C-65.73 93.29 -66.03 94.3 -66.34 95.34 C-66.77 96.81 -66.77 96.81 -67.21 98.3 C-67.6 99.64 -67.6 99.64 -68 101 C-68.32 102.07 -68.32 102.07 -68.65 103.15 C-68.92 104.07 -68.92 104.07 -69.19 105 C-69.62 106.61 -69.62 106.61 -70.06 108.25 C-70.27 109.23 -70.49 110.21 -70.7 111.21 C-70.8 112.13 -70.9 113.05 -71 114 C-70.93 114.97 -70.87 115.94 -70.8 116.94 C-70.64 117.89 -70.48 118.84 -70.31 119.81 C-69.99 121.14 -69.99 121.14 -69.67 122.5 C-69.34 123.74 -69.34 123.74 -69 125 C-68.85 125.74 -68.7 126.49 -68.55 127.25 C-68.41 127.93 -68.27 128.61 -68.12 129.31 C-67.87 130.26 -67.87 130.26 -67.61 131.23 C-67.41 131.81 -67.21 132.4 -67 133 C-66.75 133.54 -66.49 134.09 -66.23 134.65 C-65.78 135.41 -65.78 135.41 -65.31 136.19 C-64.8 136.89 -64.8 136.89 -64.29 137.61 C-63.86 138.07 -63.44 138.53 -63 139 C-62.1 139.73 -62.1 139.73 -61.18 140.48 C-60.55 140.94 -59.91 141.4 -59.25 141.88 C-58.64 142.28 -58.02 142.69 -57.39 143.12 C-56.7 143.55 -56.7 143.55 -56 144 C-55.01 143.01 -55.01 143.01 -54 142 C-54.02 141.12 -54.02 141.12 -54.05 140.21 C-54.18 139.51 -54.32 138.81 -54.46 138.09 C-54.6 137.33 -54.74 136.56 -54.89 135.78 C-55.05 134.99 -55.21 134.19 -55.38 133.38 C-55.53 132.57 -55.68 131.77 -55.84 130.95 C-56.05 129.81 -56.05 129.81 -56.27 128.65 C-56.41 127.95 -56.55 127.25 -56.69 126.53 C-56.79 126.02 -56.9 125.52 -57 125 C-56.87 125.54 -56.73 126.09 -56.6 126.64 C-56.42 127.36 -56.24 128.08 -56.06 128.81 C-55.89 129.52 -55.71 130.23 -55.54 130.96 C-55.36 131.63 -55.18 132.31 -55 133 C-54.67 133.99 -54.34 134.98 -54 136 C-53.34 136 -52.68 136 -52 136 C-52 131.71 -52 127.42 -52 123 C-51.75 124.64 -51.75 124.64 -51.5 126.31 C-51.41 126.93 -51.31 127.54 -51.22 128.18 C-51.15 128.78 -51.07 129.38 -51 130 C-51 130.99 -51 131.98 -51 133 C-50.99 134.12 -50.98 135.25 -50.96 136.41 C-50.96 137.06 -50.95 137.72 -50.95 138.4 C-50.95 139.09 -50.94 139.78 -50.94 140.5 C-50.93 141.21 -50.93 141.92 -50.93 142.65 C-50.93 143.73 -50.93 143.73 -50.93 144.82 C-50.93 145.53 -50.94 146.24 -50.94 146.97 C-50.96 147.64 -50.98 148.31 -51 149 C-51.1 150.13 -51.19 151.26 -51.29 152.43 C-51.46 153.89 -51.46 153.89 -51.62 155.38 C-51.74 156.23 -51.86 157.08 -51.98 157.96 C-51.98 158.63 -51.99 159.31 -52 160 C-51.34 160.66 -50.68 161.32 -50 162 C-49.36 161.96 -48.72 161.92 -48.06 161.88 C-47.04 161.44 -47.04 161.44 -46 161 C-45.23 160.12 -45.23 160.12 -44.45 159.22 C-43.97 158.49 -43.49 157.76 -43 157 C-42.74 156.3 -42.47 155.6 -42.2 154.88 C-42.03 154.11 -41.86 153.35 -41.69 152.56 C-41.53 151.68 -41.38 150.81 -41.22 149.9 C-41.15 148.94 -41.08 147.99 -41 147 C-41.06 145.97 -41.12 144.94 -41.18 143.88 C-41.33 142.81 -41.47 141.73 -41.62 140.62 C-41.83 139.52 -42.03 138.41 -42.23 137.27 C-42.49 136.19 -42.74 135.11 -43 134 C-43.29 133.06 -43.59 132.11 -43.89 131.14 C-44.22 130.2 -44.54 129.27 -44.88 128.31 C-45.22 127.35 -45.56 126.39 -45.91 125.4 C-46.09 124.87 -46.27 124.35 -46.45 123.81 C-46.63 123.21 -46.81 122.61 -47 122 C-47.28 120.9 -47.28 120.9 -47.57 119.77 C-47.76 118.97 -47.95 118.17 -48.15 117.35 C-48.33 116.54 -48.52 115.73 -48.71 114.89 C-48.98 113.68 -48.98 113.68 -49.25 112.44 C-49.43 111.65 -49.6 110.86 -49.78 110.05 C-49.94 109.31 -50.1 108.57 -50.27 107.81 C-50.41 107.15 -50.55 106.48 -50.7 105.8 C-50.8 105.21 -50.9 104.61 -51 104 C-51 103.01 -51 102.02 -51 101 C-50.8 101.8 -50.61 102.6 -50.41 103.43 C-50.13 104.54 -49.86 105.66 -49.57 106.81 C-49.35 107.71 -49.35 107.71 -49.12 108.63 C-48.97 109.25 -48.82 109.87 -48.66 110.51 C-48.5 111.16 -48.34 111.8 -48.17 112.47 C-47.93 113.44 -47.93 113.44 -47.69 114.44 C-47.53 115.07 -47.38 115.71 -47.22 116.36 C-47.06 116.98 -46.91 117.61 -46.75 118.26 C-46.6 118.88 -46.45 119.5 -46.29 120.14 C-46.13 120.75 -45.98 121.36 -45.82 122 C-45.67 122.61 -45.52 123.22 -45.36 123.85 C-45.21 124.45 -45.06 125.04 -44.9 125.66 C-44.6 126.76 -44.31 127.86 -44 129 C-43.71 129.89 -43.43 130.79 -43.13 131.71 C-42.87 132.48 -42.6 133.25 -42.33 134.04 C-42.09 134.73 -41.85 135.42 -41.6 136.14 C-41.3 137.06 -41.3 137.06 -41 138 C-40.78 139.04 -40.57 140.08 -40.35 141.15 C-40.25 142.07 -40.16 142.99 -40.06 143.94 C-39.96 145.45 -39.96 145.45 -39.86 146.99 C-39.93 148.48 -39.93 148.48 -40 150 C-40.26 150.95 -40.53 151.9 -40.8 152.88 C-41.16 153.77 -41.51 154.65 -41.88 155.56 C-42.24 156.35 -42.61 157.13 -42.99 157.94 C-43.32 158.62 -43.66 159.3 -44 160 C-44.33 160.99 -44.66 161.98 -45 163 C-45.99 163 -46.98 163 -48 163 C-48 163.66 -48 164.32 -48 165 C-46.89 164.57 -46.89 164.57 -45.75 164.12 C-44.84 163.75 -43.94 163.38 -43 163 C-42.32 162.77 -41.64 162.55 -40.94 162.31 C-40.3 161.88 -39.66 161.45 -39 161 C-38.66 160.53 -38.32 160.05 -37.97 159.56 C-37.63 158.99 -37.29 158.41 -36.94 157.81 C-36.61 157.19 -36.28 156.57 -35.94 155.94 C-35.63 155.3 -35.32 154.66 -35 154 C-34.73 153.38 -34.46 152.76 -34.19 152.12 C-33.94 151.53 -33.69 150.93 -33.44 150.31 C-33.23 149.77 -33.02 149.23 -32.81 148.68 C-32.54 148.12 -32.27 147.57 -32 147 C-31.28 146.15 -31.28 146.15 -30.55 145.28 C-29.79 144.15 -29.79 144.15 -29 143 C-28.79 142.44 -28.57 141.89 -28.35 141.31 C-28.16 140.68 -27.96 140.04 -27.76 139.39 C-27.58 138.72 -27.4 138.04 -27.22 137.35 C-27.04 136.66 -26.87 135.96 -26.69 135.25 C-26.49 134.57 -26.3 133.89 -26.1 133.2 C-25.93 132.52 -25.75 131.84 -25.57 131.14 C-25.38 130.11 -25.38 130.11 -25.17 129.07 C-25.12 128.39 -25.06 127.7 -25 127 C-25.07 126.32 -25.15 125.65 -25.22 124.95 C-25.38 124.28 -25.53 123.61 -25.68 122.93 C-25.88 122.27 -26.08 121.61 -26.29 120.93 C-26.52 120.3 -26.76 119.66 -27 119 C-27.25 118.4 -27.5 117.79 -27.76 117.17 C-28.03 116.59 -28.31 116 -28.59 115.4 C-28.87 114.83 -29.16 114.26 -29.46 113.68 C-29.76 113.1 -30.06 112.53 -30.38 111.94 C-30.69 111.32 -31 110.71 -31.32 110.08 C-31.63 109.48 -31.94 108.87 -32.26 108.25 C-32.56 107.68 -32.86 107.11 -33.17 106.52 C-33.45 106.02 -33.72 105.52 -34 105 C-34.4 104.34 -34.8 103.68 -35.21 103 C-35.69 102.23 -35.69 102.23 -36.19 101.44 C-36.49 100.93 -36.78 100.42 -37.09 99.89 C-37.39 99.27 -37.69 98.64 -38 98 C-38.37 97.01 -38.75 96.03 -39.13 95.01 C-39.32 94.46 -39.5 93.91 -39.7 93.35 C-39.88 92.78 -40.06 92.21 -40.25 91.62 C-40.42 91.06 -40.59 90.49 -40.77 89.9 C-40.93 89.34 -41.08 88.78 -41.24 88.21 C-41.49 87.15 -41.74 86.09 -42 85 C-42.11 84.18 -42.21 83.36 -42.32 82.51 C-42.35 81.42 -42.35 81.42 -42.38 80.31 C-42.33 79.6 -42.29 78.88 -42.25 78.14 C-42.17 77.44 -42.09 76.73 -42 76 C-41.92 75.28 -41.84 74.56 -41.75 73.82 C-41.63 73.06 -41.5 72.29 -41.38 71.5 C-41.19 70.68 -41.01 69.86 -40.82 69.01 C-40.55 68.02 -40.28 67.02 -40 66 C-39.8 65.34 -39.6 64.69 -39.4 64.01 C-39.17 63.29 -38.94 62.57 -38.71 61.83 C-38.34 60.72 -38.34 60.72 -37.96 59.58 C-37.58 58.46 -37.58 58.46 -37.19 57.31 C-36.95 56.6 -36.72 55.89 -36.47 55.15 C-36.23 54.46 -35.98 53.77 -35.73 53.05 C-35.47 52.37 -35.21 51.7 -34.94 51 C-34.63 50.34 -34.32 49.68 -34 49 C-33.59 48.35 -33.17 47.71 -32.75 47.04 C-32.09 46.12 -32.09 46.12 -31.41 45.19 C-31 44.65 -30.59 44.12 -30.16 43.56 C-29.78 43.05 -29.39 42.53 -29 42 C-28.68 41.44 -28.35 40.89 -28.02 40.31 C-27.61 39.51 -27.61 39.51 -27.19 38.69 C-26.8 37.8 -26.4 36.91 -26 36 C-26 35.34 -26 34.68 -26 34 C-25.42 33.75 -24.84 33.49 -24.24 33.23 C-23.5 32.83 -22.76 32.42 -22 32 C-21.4 31.43 -20.79 30.86 -20.17 30.27 C-19.51 29.6 -18.86 28.94 -18.19 28.25 C-17.41 27.54 -16.64 26.83 -15.84 26.11 C-15.4 25.75 -14.96 25.4 -14.51 25.03 C-14.01 24.69 -13.51 24.35 -13 24 C-12.4 23.69 -11.8 23.38 -11.18 23.06 C-10.54 22.77 -9.89 22.48 -9.22 22.18 C-8.55 21.9 -7.89 21.63 -7.21 21.34 C-6.54 21.09 -5.87 20.83 -5.19 20.56 C-4.54 20.32 -3.9 20.07 -3.23 19.82 C-2.3 19.48 -2.3 19.48 -1.36 19.13 C-0.77 18.93 -0.19 18.72 0.41 18.52 C0.93 18.35 1.46 18.18 2 18 C3.21 17.67 3.21 17.67 4.45 17.34 C4.96 17.23 5.47 17.12 6 17 C5.5 15.52 5.5 15.52 5 14 C4.41 13.44 4.41 13.44 3.81 12.88 C3.21 12.59 2.62 12.3 2 12 C0.64 11.6 0.64 11.6 -0.75 11.19 C-1.82 11.13 -2.89 11.06 -4 11 Z M6 13 C7.32 13.99 8.64 14.98 10 16 C9.67 15.01 9.34 14.02 9 13 C8.01 13 7.02 13 6 13 Z M-23 17 C-24.36 17.84 -24.36 17.84 -25.75 18.69 C-26.29 19.05 -26.84 19.41 -27.4 19.78 C-28.19 20.38 -28.19 20.38 -29 21 C-29.43 21.46 -29.85 21.91 -30.29 22.38 C-30.65 22.83 -31.01 23.28 -31.38 23.75 C-31.91 24.49 -32.45 25.23 -33 26 C-31.52 26.99 -31.52 26.99 -30 28 C-29.67 27.6 -29.35 27.2 -29.01 26.79 C-28.57 26.26 -28.14 25.73 -27.69 25.19 C-27.23 24.64 -26.78 24.1 -26.31 23.54 C-25.66 22.78 -25.66 22.78 -25 22 C-24.4 21.38 -23.8 20.76 -23.19 20.12 C-22.8 19.75 -22.4 19.38 -22 19 C-22.33 18.34 -22.66 17.68 -23 17 Z M77 30 C77.23 30.83 77.45 31.65 77.69 32.5 C77.87 33.05 78.05 33.59 78.23 34.16 C78.49 34.76 78.74 35.37 79 36 C79.38 36.65 79.75 37.3 80.14 37.97 C80.78 38.97 80.78 38.97 81.44 40 C81.87 40.67 82.31 41.34 82.76 42.03 C83.37 43.01 83.37 43.01 84 44 C84.33 44.61 84.65 45.22 84.99 45.84 C85.26 46.39 85.53 46.94 85.81 47.5 C86.2 48.33 86.6 49.15 87 50 C87.33 49.01 87.66 48.02 88 47 C87.81 46.44 87.62 45.89 87.43 45.31 C87.11 44.71 86.78 44.11 86.45 43.5 C86.1 42.84 85.75 42.18 85.39 41.5 C85.01 40.82 84.64 40.14 84.25 39.44 C83.89 38.75 83.53 38.07 83.16 37.36 C82.62 36.38 82.62 36.38 82.08 35.37 C81.75 34.77 81.43 34.17 81.09 33.56 C80.73 33.04 80.37 32.53 80 32 C79.46 31.6 78.92 31.2 78.37 30.79 C77.92 30.53 77.47 30.27 77 30 Z M106 37 C105.81 37.58 105.63 38.16 105.44 38.75 C105.29 39.49 105.15 40.23 105 41 C105.14 41.74 105.29 42.48 105.44 43.25 C105.62 43.83 105.81 44.41 106 45 C106.99 45 107.98 45 109 45 C108.34 42.36 107.68 39.72 107 37 C106.67 37 106.34 37 106 37 Z M90 127 C90.33 127.99 90.66 128.98 91 130 C91 129.01 91 128.02 91 127 C90.67 127 90.34 127 90 127 Z M-55 153 C-55.66 154.98 -56.32 156.96 -57 159 C-56.01 158.67 -55.02 158.34 -54 158 C-54 156.35 -54 154.7 -54 153 C-54.33 153 -54.66 153 -55 153 Z M-55 161 C-55.81 161.54 -55.81 161.54 -56.63 162.09 C-57.27 162.56 -57.91 163.02 -58.56 163.5 C-59.2 163.96 -59.84 164.43 -60.5 164.91 C-61 165.27 -61.49 165.63 -62 166 C-61.34 166.66 -60.68 167.32 -60 168 C-59.3 168.02 -58.59 168.03 -57.87 168.05 C-57.07 167.95 -56.26 167.85 -55.44 167.75 C-54.63 167.66 -53.83 167.57 -53 167.48 C-52.34 167.32 -51.68 167.16 -51 167 C-50.67 166.34 -50.34 165.68 -50 165 C-50.64 164.34 -51.28 163.68 -51.94 163 C-52.62 162.34 -53.3 161.68 -54 161 C-54.33 161 -54.66 161 -55 161 Z M-38 162 C-38.6 162.42 -39.21 162.84 -39.83 163.28 C-41.03 164.1 -41.03 164.1 -42.25 164.94 C-43.04 165.48 -43.83 166.03 -44.64 166.59 C-45.42 167.06 -46.2 167.52 -47 168 C-47.63 168.23 -48.26 168.46 -48.9 168.69 C-49.94 168.84 -49.94 168.84 -51 169 C-51.99 169 -52.97 169 -53.99 169 C-55.09 169 -56.18 169 -57.31 169 C-58.46 169.07 -59.61 169.15 -60.8 169.22 C-62.38 169.61 -62.38 169.61 -64 170 C-64.75 170.66 -65.5 171.32 -66.27 172 C-67.16 173.2 -67.16 173.2 -68.06 174.44 C-68.55 175.24 -69.03 176.04 -69.54 176.87 C-70.26 177.92 -70.26 177.92 -71 179 C-71.7 179.38 -72.4 179.76 -73.12 180.16 C-73.74 180.43 -74.36 180.71 -75 181 C-75.31 181.68 -75.62 182.36 -75.94 183.06 C-76.29 184.03 -76.64 185 -77 186 C-77.61 187 -77.61 187 -78.23 188.01 C-78.69 188.75 -79.15 189.49 -79.62 190.25 C-80.07 191.03 -80.51 191.81 -80.97 192.61 C-81.31 193.4 -81.65 194.19 -82 195 C-82.07 195.74 -82.14 196.47 -82.22 197.23 C-82.19 197.96 -82.16 198.69 -82.12 199.44 C-82.07 200.18 -82.02 200.92 -81.96 201.69 C-81.98 202.45 -81.99 203.21 -82 204 C-82.25 204.8 -82.5 205.61 -82.75 206.44 C-83.06 207.26 -83.37 208.09 -83.69 208.94 C-83.96 209.77 -84.23 210.59 -84.52 211.45 C-84.68 212.29 -84.84 213.13 -85 214 C-84.89 214.88 -84.78 215.77 -84.67 216.68 C-84.43 217.55 -84.19 218.42 -83.94 219.31 C-83.64 220.13 -83.34 220.95 -83.03 221.8 C-82.69 222.53 -82.35 223.25 -82 224 C-81.67 224.55 -81.34 225.1 -81 225.67 C-80.67 226.11 -80.34 226.55 -80 227 C-79.34 227.66 -78.68 228.32 -78 229 C-77.48 229.45 -76.97 229.91 -76.44 230.38 C-75.96 230.58 -75.49 230.79 -75 231 C-73.52 230.5 -73.52 230.5 -72 230 C-72.62 229.28 -73.24 228.56 -73.88 227.81 C-74.42 227.01 -74.42 227.01 -74.98 226.2 C-75.31 225.47 -75.65 224.75 -76 224 C-76.23 222.91 -76.47 221.83 -76.71 220.71 C-76.81 220.12 -76.9 219.53 -77 218.93 C-77.08 218.33 -77.16 217.74 -77.25 217.12 C-77.33 216.53 -77.41 215.93 -77.49 215.32 C-77.6 214.48 -77.6 214.48 -77.7 213.63 C-77.85 212.33 -77.85 212.33 -78 211 C-77.44 210.95 -76.88 210.9 -76.3 210.86 C-75.54 210.57 -74.78 210.29 -74 210 C-73.24 209.17 -72.48 208.34 -71.7 207.49 C-71.31 206.98 -70.91 206.47 -70.5 205.95 C-70.09 205.41 -69.67 204.87 -69.25 204.31 C-68.6 203.49 -68.6 203.49 -67.94 202.66 C-67.5 202.12 -67.06 201.58 -66.61 201.03 C-65.95 200.24 -65.95 200.24 -65.29 199.44 C-64.86 198.96 -64.44 198.49 -64 198 C-63.22 197.32 -62.44 196.64 -61.64 195.94 C-60.58 195.17 -60.58 195.17 -59.5 194.38 C-58.87 193.95 -58.24 193.52 -57.59 193.09 C-57.07 192.73 -56.54 192.37 -56 192 C-55.34 191.34 -54.68 190.68 -54 190 C-54.66 190.66 -55.32 191.32 -56 192 C-56.45 192.46 -56.91 192.91 -57.38 193.38 C-57.91 193.92 -58.45 194.45 -59 195 C-59.64 195.62 -60.28 196.23 -60.94 196.87 C-61.62 197.53 -62.3 198.19 -63 198.88 C-63.68 199.56 -64.37 200.25 -65.07 200.95 C-65.71 201.63 -66.34 202.3 -67 203 C-67.77 203.92 -67.77 203.92 -68.55 204.86 C-68.99 205.44 -69.43 206.02 -69.88 206.62 C-70.26 207.2 -70.64 207.77 -71.03 208.36 C-71.51 209.17 -71.51 209.17 -72 210 C-72.45 210.95 -72.91 211.9 -73.38 212.88 C-73.58 213.91 -73.79 214.94 -74 216 C-74.01 216.71 -74.02 217.43 -74.03 218.16 C-73.98 218.93 -73.93 219.71 -73.88 220.5 C-73.76 221.27 -73.65 222.03 -73.54 222.82 C-73.36 223.54 -73.18 224.26 -73 225 C-72.61 225.89 -72.61 225.89 -72.21 226.8 C-71.89 227.32 -71.58 227.84 -71.25 228.38 C-70.51 229.24 -69.77 230.11 -69 231 C-67.76 231.87 -67.76 231.87 -66.5 232.75 C-65.67 233.16 -64.85 233.57 -64 234 C-63.32 234.41 -62.64 234.82 -61.94 235.25 C-60.98 235.62 -60.98 235.62 -60 236 C-59.4 235.96 -58.8 235.92 -58.19 235.88 C-57.47 235.59 -56.74 235.3 -56 235 C-55.12 234.56 -55.12 234.56 -54.23 234.11 C-53.59 233.76 -52.96 233.42 -52.31 233.06 C-51.41 232.55 -51.41 232.55 -50.49 232.04 C-50 231.69 -49.51 231.35 -49 231 C-48.67 230.34 -48.34 229.68 -48 229 C-47.09 228.53 -46.19 228.05 -45.25 227.56 C-44.71 227.3 -44.18 227.04 -43.62 226.77 C-43.09 226.52 -42.55 226.26 -42 226 C-41.09 225.57 -40.19 225.13 -39.25 224.69 C-38.51 224.13 -37.77 223.57 -37 223 C-36.65 221.99 -36.3 220.98 -35.94 219.94 C-35.63 218.97 -35.32 218 -35 217 C-34.38 216.69 -33.76 216.38 -33.12 216.06 C-32.42 215.71 -31.72 215.36 -31 215 C-30.66 214.58 -30.31 214.15 -29.96 213.72 C-29.62 213.17 -29.28 212.63 -28.94 212.06 C-28.45 211.13 -28.45 211.13 -27.95 210.18 C-27.64 209.46 -27.32 208.74 -27 208 C-26.69 207.15 -26.37 206.29 -26.05 205.41 C-25.76 204.49 -25.48 203.57 -25.19 202.62 C-24.95 201.69 -24.71 200.75 -24.47 199.79 C-24.24 198.41 -24.24 198.41 -24 197 C-23.99 196.15 -23.98 195.31 -23.97 194.43 C-24.08 193.26 -24.08 193.26 -24.19 192.06 C-24.28 191.37 -24.38 190.68 -24.48 189.97 C-24.65 189.32 -24.82 188.67 -25 188 C-25.29 187.31 -25.59 186.63 -25.89 185.92 C-26.25 185.29 -26.62 184.65 -27 184 C-27.64 183.27 -27.64 183.27 -28.29 182.52 C-28.73 182.1 -29.17 181.68 -29.62 181.25 C-30.41 180.51 -31.19 179.76 -32 179 C-33.65 181.64 -35.3 184.28 -37 187 C-37 186.01 -37 185.02 -37 184 C-37.72 184.06 -38.44 184.12 -39.19 184.19 C-40.12 184.46 -41.04 184.72 -42 185 C-42.72 185.58 -42.72 185.58 -43.45 186.18 C-43.9 186.64 -44.35 187.09 -44.81 187.56 C-45.53 188.37 -46.26 189.17 -47 190 C-47 189.34 -47 188.68 -47 188 C-47 187.34 -47 186.68 -47 186 C-46.34 186 -45.68 186 -45 186 C-44.6 185.31 -44.6 185.31 -44.2 184.61 C-43.84 184 -43.49 183.38 -43.12 182.75 C-42.76 182.11 -42.39 181.48 -42.02 180.82 C-41.68 180.22 -41.35 179.62 -41 179 C-40.63 178.22 -40.26 177.43 -39.88 176.62 C-39.59 176.09 -39.3 175.55 -39 175 C-38.34 174.67 -37.68 174.34 -37 174 C-36.51 174.99 -36.51 174.99 -36 176 C-36 171.71 -36 167.42 -36 163 C-36.66 162.67 -37.32 162.34 -38 162 Z M-39 177 C-38.67 177.66 -38.34 178.32 -38 179 C-37.67 178.34 -37.34 177.68 -37 177 C-37.66 177 -38.32 177 -39 177 Z M-41 226 C-40 228 -40 228 -40 228 Z " transform ="translate(99,3)" fill="#000000" />
  <path d="M0 0 C0.66 0 1.32 0 2 0 C2.14 0.85 2.29 1.69 2.44 2.56 C2.62 3.7 2.81 4.83 3 6 C3.09 6.59 3.19 7.18 3.28 7.79 C3.37 8.38 3.46 8.97 3.55 9.57 C3.7 10.7 3.85 11.84 4 13 C4.04 13.87 4.09 14.75 4.13 15.64 C4.13 16.36 4.13 17.08 4.12 17.81 C4.08 18.86 4.04 19.92 4 21 C3.34 21 2.68 21 2 21 C1.9 20.51 1.81 20.01 1.71 19.5 C1.58 18.82 1.44 18.13 1.31 17.42 C1.17 16.67 1.03 15.92 0.88 15.15 C0.74 14.36 0.59 13.57 0.44 12.75 C0.29 11.97 0.13 11.2 -0.02 10.39 C-0.23 9.26 -0.23 9.26 -0.44 8.11 C-0.64 7.07 -0.64 7.07 -0.84 6.01 C-0.89 5.35 -0.94 4.68 -1 4 C-0.85 3.26 -0.69 2.51 -0.53 1.74 C-0.36 1.17 -0.18 0.59 0 0 Z " transform ="translate(217,61)" fill="#000000" />
  <path d="M0 0 C0.99 0.33 1.98 0.66 3 1 C2.01 2.48 2.01 2.48 1 4 C0.67 2.68 0.34 1.36 0 0 Z " transform ="translate(221,83)" fill="#000000" />
  <path d="M0 0 C0.99 0.33 1.98 0.66 3 1 C3.43 1.47 3.87 1.94 4.32 2.42 C4.73 3 5.14 3.59 5.56 4.19 C6.2 5.12 6.2 5.12 6.86 6.08 C7.24 6.71 7.61 7.35 8 8 C8.25 8.59 8.51 9.19 8.77 9.8 C8.95 10.34 9.13 10.88 9.31 11.44 C9.65 12.71 9.65 12.71 10 14 C9.34 14 8.68 14 8 14 C7.53 13.32 7.05 12.65 6.56 11.95 C6.05 11.06 5.53 10.17 5 9.25 C4.48 8.37 3.97 7.49 3.44 6.58 C2.96 5.73 2.49 4.88 2 4 C1.41 2.85 1.41 2.85 0.81 1.67 C0.54 1.12 0.28 0.57 0 0 Z " transform ="translate(182,28)" fill="#000000" />
  <path d="M0 0 C0.99 0 1.98 0 3 0 C3.33 1.32 3.66 2.64 4 4 C2.68 2.68 1.36 1.36 0 0 Z " transform ="translate(178,24)" fill="#000000" />
  <path d="M0 0 C0.45 0.55 0.9 1.11 1.36 1.68 C1.9 2.45 2.44 3.21 3 4 C3.39 4.83 3.77 5.66 4.17 6.51 C4.5 7.37 4.84 8.24 5.19 9.12 C5.53 9.99 5.88 10.86 6.23 11.76 C6.48 12.5 6.74 13.24 7 14 C7 14.66 7 15.32 7 16 C6.34 16 5.68 16 5 16 C4.56 15.1 4.11 14.19 3.65 13.26 C3.38 12.69 3.1 12.12 2.82 11.53 C2.53 10.92 2.24 10.31 1.94 9.69 C1.5 8.8 1.5 8.8 1.04 7.88 C0.77 7.31 0.5 6.73 0.21 6.14 C-0.19 5.1 -0.59 4.07 -1 3 C-0.67 2.01 -0.34 1.02 0 0 Z " transform ="translate(192,42)" fill="#000000" />
  <path d="M0 0 C0.33 0.66 0.66 1.32 1 2 C0.67 2.66 0.34 3.32 0 4 C0.66 4 1.32 4 2 4 C2 4.66 2 5.32 2 6 C1.01 5.67 0.02 5.34 -1 5 C-1.23 4.32 -1.45 3.64 -1.69 2.94 C-1.79 2.3 -1.89 1.66 -2 1 C-1.34 0.67 -0.68 0.34 0 0 Z " transform ="translate(199,58)" fill="#000000" />
  <path d="M0 0 C0.33 1.32 0.66 2.64 1 4 C0.34 4 -0.32 4 -1 4 C-1 4.99 -1 5.98 -1 7 C-0.34 7 0.32 7 1 7 C1 8.65 1 10.3 1 12 C0.01 12 -0.98 12 -2 12 C-2.58 11.46 -3.16 10.93 -3.75 10.38 C-4.16 9.59 -4.57 8.81 -5 8 C-4.98 6.97 -4.96 5.94 -4.94 4.88 C-4.63 3.93 -4.32 2.98 -4 2 C-3.32 1.55 -2.64 1.09 -1.94 0.62 C-1.3 0.42 -0.66 0.21 0 0 Z " transform ="translate(36,148)" fill="#000000" />
  <path d="M0 0 C0.33 0.66 0.66 1.32 1 2 C1.66 2 2.32 2 3 2 C3 2.66 3 3.32 3 4 C2.34 4 1.68 4 1 4 C0.67 4.66 0.34 5.32 0 6 C-0.28 4.79 -0.28 4.79 -0.56 3.56 C-0.71 2.72 -0.85 1.87 -1 1 C-0.67 0.67 -0.34 0.34 0 0 Z " transform ="translate(29,146)" fill="#000000" />
  <path d="M0 0 C0.99 1.49 0.99 1.49 2 3 C1.67 3.66 1.34 4.32 1 5 C0.67 3.35 0.34 1.7 0 0 Z " transform ="translate(26,139)" fill="#000000" />
  <path d="M0 0 C0.99 0.33 1.98 0.66 3 1 C2.18 1.43 2.18 1.43 1.35 1.88 C0.22 2.43 0.22 2.43 -0.94 3 C-2.16 3.55 -2.16 3.55 -3.4 4.11 C-4.69 4.55 -4.69 4.55 -6 5 C-6.86 5.09 -7.72 5.18 -8.6 5.27 C-9.82 5.26 -9.82 5.26 -11.06 5.25 C-11.82 5.21 -12.57 5.18 -13.35 5.14 C-13.89 5.09 -14.44 5.05 -15 5 C-15 4.67 -15 4.34 -15 4 C-12.69 4 -10.38 4 -8 4 C-8 3.34 -8 2.68 -8 2 C-7.46 1.84 -6.91 1.69 -6.36 1.53 C-5.64 1.33 -4.92 1.14 -4.19 0.94 C-3.48 0.74 -2.77 0.54 -2.04 0.34 C-1.37 0.23 -0.69 0.12 0 0 Z " transform ="translate(94,109)" fill="#000000" />
  <path d="M0 0 C3 1 3 1 3 1 Z " transform ="translate(97,108)" fill="#000000" />
  <path d="M0 0 C0.33 0.99 0.66 1.98 1 3 C0.67 3.99 0.34 4.98 0 6 C-0.66 6 -1.32 6 -2 6 C-1.34 4.02 -0.68 2.04 0 0 Z " transform ="translate(110,115)" fill="#000000" />
  <path d="M0 0 C0.89 -0.02 1.77 -0.04 2.69 -0.06 C3.45 -0.04 4.21 -0.02 5 0 C4.42 0.35 3.84 0.7 3.25 1.06 C2.51 1.37 1.77 1.68 1 2 C0.26 1.88 -0.48 1.75 -1.25 1.62 C-1.83 1.42 -2.41 1.21 -3 1 C-2.01 0.67 -1.02 0.34 0 0 Z " transform ="translate(86,98)" fill="#000000" />
  <path d="M0 0 C2 1 2 1 2 1 Z " transform ="translate(92,99)" fill="#000000" />
  <path d="M0 0 C1.65 0 3.3 0 5 0 C5 0.66 5 1.32 5 2 C3.35 1.67 1.7 1.34 0 1 C0 0.67 0 0.34 0 0 Z " transform ="translate(88,92)" fill="#000000" />
  <path d="M0 0 C2 1 2 1 2 1 Z " transform ="translate(97,94)" fill="#000000" />
  <path d="M0 0 C0.89 -0.02 1.78 -0.05 2.7 -0.07 C4.18 0.12 4.18 0.12 5.69 0.31 C7.18 0.49 7.18 0.49 8.7 0.68 C9.46 0.78 10.22 0.89 11 1 C10.34 1.66 9.68 2.32 9 3 C8.07 3.06 7.14 3.13 6.18 3.2 C5.09 3.17 4 3.15 2.88 3.12 C1.78 3.11 0.68 3.09 -0.45 3.07 C-1.29 3.05 -2.13 3.02 -3 3 C-2.62 2.5 -2.24 2 -1.86 1.48 C-1.24 0.99 -0.63 0.5 0 0 Z " transform ="translate(77,90)" fill="#000000" />
  <path d="M0 0 C2 1 2 1 2 1 Z " transform ="translate(69,92)" fill="#000000" />
  <path d="M0 0 C0.99 0.33 1.98 0.66 3 1 C3 1.33 3 1.66 3 2 C4.01 1.79 5.02 1.59 6.06 1.38 C7.02 1.24 7.02 1.24 8 1.1 C8.66 1.07 9.32 1.03 10 1 C10.91 1.15 10.91 1.15 11.85 1.31 C12.43 1.47 13.02 1.64 13.62 1.81 C14.2 2 14.77 2.19 15.36 2.39 C15.9 2.59 16.44 2.79 17 3 C17.97 3.37 18.94 3.74 19.94 4.12 C20.62 4.41 21.3 4.7 22 5 C22 5.66 22 6.32 22 7 C19.03 6.34 16.06 5.68 13 5 C12.01 6.32 11.02 7.64 10 9 C9.01 8.67 8.02 8.34 7 8 C7.99 6.68 8.98 5.36 10 4 C9.39 4.2 8.77 4.41 8.14 4.62 C7.33 4.89 6.52 5.16 5.69 5.44 C4.89 5.7 4.09 5.97 3.26 6.25 C2.52 6.49 1.77 6.74 1 7 C0.01 7.33 -0.98 7.66 -2 8 C-2 9.32 -2 10.64 -2 12 C-2.66 11.67 -3.32 11.34 -4 11 C-3.67 10.34 -3.34 9.68 -3 9 C-4.65 9.33 -6.3 9.66 -8 10 C-8.33 8.35 -8.66 6.7 -9 5 C-7.35 4.67 -5.7 4.34 -4 4 C-4 3.34 -4 2.68 -4 2 C-3.4 1.65 -2.8 1.3 -2.19 0.94 C-1.47 0.63 -0.74 0.32 0 0 Z " transform ="translate(79,100)" fill="#000000" />
  <path d="M0 0 C2 1 2 1 2 1 Z " transform ="translate(77,112)" fill="#000000" />
  <path d="M0 0 C0.66 0.66 1.32 1.32 2 2 C2.14 2.57 2.27 3.14 2.41 3.73 C2.48 4.35 2.55 4.98 2.62 5.62 C2.75 6.74 2.87 7.85 3 9 C2.69 8.63 2.38 8.26 2.06 7.88 C1.71 7.26 1.36 6.64 1 6 C0.79 4.95 0.59 3.9 0.38 2.81 C0.25 1.88 0.13 0.96 0 0 Z " transform ="translate(54,106)" fill="#000000" />
  <path d="M0 0 C0.66 1.32 1.32 2.64 2 4 C1.34 3.67 0.68 3.34 0 3 C0 2.01 0 1.02 0 0 Z " transform ="translate(62,109)" fill="#000000" />
  <path d="M0 0 C0.31 0.43 0.61 0.86 0.93 1.3 C1.28 1.86 1.64 2.42 2 3 C2.56 4.58 2.56 4.58 3.12 6.19 C3.29 6.79 3.45 7.39 3.62 8.02 C3.81 9 3.81 9 4 10 C4.06 11.11 4.06 11.11 4.12 12.23 C4.12 12.96 4.12 13.69 4.12 14.44 C4.11 15.12 4.09 15.8 4.07 16.5 C4.04 17.24 4.04 17.24 4 18 C3.67 18 3.34 18 3 18 C2.87 17.37 2.73 16.74 2.6 16.09 C2.42 15.24 2.24 14.38 2.06 13.5 C1.88 12.6 1.7 11.69 1.51 10.76 C1.34 9.85 1.17 8.94 1 8 C0.88 7.19 0.77 6.39 0.64 5.55 C0.56 4.84 0.47 4.12 0.38 3.38 C0.25 2.26 0.13 1.15 0 0 Z " transform ="translate(58,119)" fill="#000000" />
  <path d="M0 0 C0.66 0 1.32 0 2 0 C2 0.99 2 1.98 2 3 C1.34 3 0.68 3 0 3 C0 2.01 0 1.02 0 0 Z " transform ="translate(57,115)" fill="#000000" />
  <path d="M0 0 C0.99 0.5 0.99 0.5 2 1 C1.67 2.32 1.34 3.64 1 5 C0.67 3.35 0.34 1.7 0 0 Z " transform ="translate(66,123)" fill="#000000" />
  <path d="M0 0 C0.66 0 1.32 0 2 0 C1.67 1.32 1.34 2.64 1 4 C0.67 2.68 0.34 1.36 0 0 Z " transform ="translate(64,118)" fill="#000000" />
  <path d="M0 0 C0.33 0 0.66 0 1 0 C1 2.31 1 4.62 1 7 C0.01 7.5 0.01 7.5 -1 8 C-1.02 7.05 -1.04 6.1 -1.06 5.12 C-1.04 4.09 -1.02 3.06 -1 2 C-0.67 1.34 -0.34 0.68 0 0 Z " transform ="translate(43,72)" fill="#000000" />
  <path d="M0 0 C2 1 2 1 2 1 Z " transform ="translate(151,112)" fill="#000000" />
  <path d="M0 0 C3 1 3 1 3 1 Z " transform ="translate(153,111)" fill="#000000" />
  <path d="M0 0 C3 1 3 1 3 1 Z " transform ="translate(159,109)" fill="#000000" />
  <path d="M0 0 C3 1 3 1 3 1 Z " transform ="translate(156,110)" fill="#000000" />
  <path d="M0 0 C2 1 2 1 2 1 Z " transform ="translate(163,105)" fill="#000000" />
  <path d="M0 0 C0.99 0.33 1.98 0.66 3 1 C1.68 1.33 0.36 1.66 -1 2 C-0.67 1.34 -0.34 0.68 0 0 Z " transform ="translate(133,96)" fill="#000000" />
  <path d="M0 0 C3 1 3 1 3 1 Z " transform ="translate(136,95)" fill="#000000" />
  <path d="M0 0 C2 1 2 1 2 1 Z " transform ="translate(129,99)" fill="#000000" />
  <path d="M0 0 C0.99 0.33 1.98 0.66 3 1 C1.68 1.33 0.36 1.66 -1 2 C-0.67 1.34 -0.34 0.68 0 0 Z " transform ="translate(144,91)" fill="#000000" />
  <path d="M0 0 C2 1 2 1 2 1 Z " transform ="translate(141,93)" fill="#000000" />
  <path d="M0 0 C0.66 0 1.32 0 2 0 C2 0.66 2 1.32 2 2 C1.34 2 0.68 2 0 2 C0 1.34 0 0.68 0 0 Z " transform ="translate(148,90)" fill="#000000" />
  <path d="M0 0 C0.69 0.13 1.37 0.27 2.08 0.4 C2.98 0.58 3.88 0.76 4.81 0.94 C6.15 1.2 6.15 1.2 7.52 1.46 C8.34 1.64 9.16 1.82 10 2 C10.99 2.33 11.98 2.66 13 3 C14.49 3.5 14.49 3.5 16 4 C15.67 4.52 15.34 5.03 15 5.56 C14.34 6.04 13.68 6.51 13 7 C12.39 7 11.79 7.01 11.16 7.01 C10.47 6.93 9.78 6.84 9.06 6.75 C8.01 6.57 8.01 6.57 6.94 6.39 C6.3 6.26 5.66 6.13 5 6 C4.18 5.81 3.35 5.63 2.5 5.44 C2 5.29 1.51 5.15 1 5 C0.77 5.8 0.55 6.61 0.31 7.44 C-0.34 8.71 -0.34 8.71 -1 10 C-1.76 10.33 -2.53 10.66 -3.31 11 C-4.2 11 -5.09 11 -6 11 C-7.39 10.29 -7.39 10.29 -8.81 9.56 C-9.53 9.05 -10.26 8.53 -11 8 C-13.47 9.48 -13.47 9.48 -16 11 C-16 10.34 -16 9.68 -16 9 C-16.66 8.67 -17.32 8.34 -18 8 C-17.53 7.65 -17.05 7.3 -16.57 6.94 C-15.91 6.49 -15.24 6.03 -14.56 5.56 C-13.84 5.1 -13.12 4.65 -12.38 4.18 C-11.59 3.79 -10.81 3.4 -10 3 C-9.18 2.83 -8.35 2.66 -7.5 2.48 C-6.7 2.4 -5.89 2.33 -5.06 2.25 C-3.94 2.2 -3.94 2.2 -2.79 2.14 C-1.9 2.07 -1.9 2.07 -1 2 C-0.67 1.67 -0.34 1.34 0 1 C0 0.67 0 0.34 0 0 Z M-3 5 C-2.67 5.66 -2.34 6.32 -2 7 C-1.67 6.34 -1.34 5.68 -1 5 C-1.66 5 -2.32 5 -3 5 Z M-9 6 C-8.34 6.66 -7.68 7.32 -7 8 C-7 7.34 -7 6.68 -7 6 C-7.66 6 -8.32 6 -9 6 Z M-5 7 C-4 9 -4 9 -4 9 Z " transform ="translate(150,98)" fill="#000000" />
  <path d="M0 0 C0.66 0.66 1.32 1.32 2 2 C2.06 3.09 2.12 4.19 2.19 5.31 C2.08 5.93 1.98 6.55 1.88 7.19 C1.44 8.08 1.44 8.08 1 9 C0.36 9.5 -0.28 9.99 -0.94 10.5 C-1.72 10.93 -2.5 11.37 -3.31 11.81 C-4.09 12.19 -4.87 12.57 -5.68 12.96 C-6.83 13.47 -6.83 13.47 -8 14 C-8.68 14.38 -9.36 14.75 -10.06 15.14 C-11.02 15.57 -11.02 15.57 -12 16 C-12.61 16.05 -13.23 16.1 -13.86 16.15 C-14.48 16.08 -15.11 16.01 -15.75 15.94 C-16.78 15.77 -16.78 15.77 -17.83 15.61 C-18.55 15.41 -19.26 15.21 -20 15 C-20.75 14.67 -21.49 14.33 -22.26 13.99 C-22.98 13.58 -23.7 13.17 -24.44 12.75 C-25.1 12.31 -25.75 11.87 -26.43 11.41 C-26.95 10.94 -27.47 10.48 -28 10 C-28.33 9.07 -28.66 8.14 -29 7.19 C-29 6.47 -29 5.74 -29 5 C-27.92 6.14 -27.92 6.14 -26.81 7.31 C-26.12 7.99 -26.12 7.99 -25.41 8.69 C-24.71 9.34 -24.71 9.34 -24 10 C-23.24 10.6 -22.47 11.2 -21.69 11.81 C-20.8 12.2 -19.91 12.6 -19 13 C-18.39 13.11 -17.78 13.21 -17.15 13.32 C-16.15 13.38 -16.15 13.38 -15.12 13.44 C-14.44 13.41 -13.76 13.39 -13.06 13.36 C-12.04 13.18 -12.04 13.18 -11 13 C-10.35 12.74 -9.7 12.47 -9.04 12.2 C-8.43 11.87 -7.82 11.53 -7.19 11.19 C-6.62 10.82 -6.06 10.45 -5.47 10.07 C-4.99 9.71 -4.5 9.36 -4 9 C-3.38 8.55 -2.76 8.09 -2.12 7.62 C-1.75 7.09 -1.38 6.55 -1 6 C-0.77 4.95 -0.55 3.9 -0.31 2.81 C-0.21 1.88 -0.11 0.96 0 0 Z " transform ="translate(135,131)" fill="#000000" />
  <path d="M0 0 C0.33 0.99 0.66 1.98 1 3 C0.74 3.53 0.49 4.06 0.22 4.61 C-0.16 5.13 -0.54 5.65 -0.94 6.19 C-1.62 7.12 -2.3 8.04 -3 9 C-3.33 8.34 -3.66 7.68 -4 7 C-3.74 6.43 -3.49 5.86 -3.22 5.27 C-2.84 4.65 -2.46 4.02 -2.06 3.38 C-1.68 2.74 -1.3 2.11 -0.91 1.46 C-0.61 0.98 -0.31 0.5 0 0 Z " transform ="translate(126,133)" fill="#000000" />
  <path d="M0 0 C0.99 0 1.98 0 3 0 C3 0.66 3 1.32 3 2 C2.39 2.19 1.77 2.39 1.14 2.59 C-0.08 2.98 -0.08 2.98 -1.31 3.38 C-2.51 3.76 -2.51 3.76 -3.74 4.15 C-4.86 4.57 -4.86 4.57 -6 5 C-6.82 5.56 -6.82 5.56 -7.66 6.12 C-8.1 6.41 -8.54 6.7 -9 7 C-9.72 6.88 -10.44 6.75 -11.19 6.62 C-11.79 6.42 -12.38 6.21 -13 6 C-13 5.01 -13 4.02 -13 3 C-12.67 3.66 -12.34 4.32 -12 5 C-10.95 4.55 -9.9 4.09 -8.81 3.62 C-8.17 3.35 -7.54 3.08 -6.88 2.8 C-6.26 2.54 -5.64 2.27 -5 2 C-4.09 1.61 -3.19 1.22 -2.25 0.81 C-1.51 0.54 -0.77 0.28 0 0 Z " transform ="translate(112,162)" fill="#000000" />
  <path d="M0 0 C2 1 2 1 2 1 Z " transform ="translate(109,158)" fill="#000000" />
  <path d="M0 0 C2 1 2 1 2 1 Z " transform ="translate(101,164)" fill="#000000" />
  <path d="M0 0 C0.66 0.33 1.32 0.66 2 1 C1.66 1.48 1.32 1.96 0.97 2.46 C0.48 3.09 -0 3.72 -0.5 4.38 C-1.06 5.01 -1.61 5.65 -2.18 6.3 C-2.78 6.86 -3.38 7.42 -4 8 C-4.57 8.31 -5.14 8.62 -5.72 8.95 C-6.63 9.22 -6.63 9.22 -7.56 9.5 C-8.57 9.67 -8.57 9.67 -9.59 9.85 C-10.39 9.9 -11.18 9.95 -12 10 C-13.56 10.03 -13.56 10.03 -15.16 10.06 C-16.28 10.02 -17.4 9.98 -18.56 9.94 C-19.67 9.83 -20.78 9.73 -21.92 9.62 C-22.94 9.42 -23.95 9.21 -25 9 C-25.79 8.61 -26.58 8.22 -27.39 7.81 C-28.34 7.13 -28.34 7.13 -29.31 6.44 C-29.84 5.98 -30.38 5.53 -30.93 5.06 C-31.28 4.71 -31.63 4.36 -32 4 C-31.01 4 -30.02 4 -29 4 C-28.3 4.5 -27.6 4.99 -26.88 5.5 C-25.45 6.24 -25.45 6.24 -24 7 C-23.34 7.07 -22.67 7.14 -21.99 7.22 C-20.88 7.22 -20.88 7.22 -19.75 7.21 C-18.59 7.16 -18.59 7.16 -17.41 7.1 C-16.61 7.05 -15.82 6.99 -15 6.94 C-14.21 6.91 -13.41 6.88 -12.59 6.85 C-11.43 6.78 -11.43 6.78 -10.25 6.71 C-9.51 6.63 -8.78 6.55 -8.02 6.46 C-7.35 6.31 -6.69 6.16 -6 6 C-5.46 5.71 -4.92 5.42 -4.36 5.12 C-3.69 4.6 -3.69 4.6 -3 4.07 C-2.34 3.38 -1.68 2.7 -1 2 C-0.67 1.34 -0.34 0.68 0 0 Z " transform ="translate(137,170)" fill="#000000" />
  <path d="M0 0 C0.99 0.33 1.98 0.66 3 1 C1.92 1.68 1.92 1.68 0.81 2.38 C-0.12 2.91 -1.04 3.45 -2 4 C-2.76 4.39 -3.53 4.78 -4.31 5.19 C-5.2 5.46 -6.09 5.72 -7 6 C-7.56 6.07 -8.13 6.15 -8.71 6.23 C-9.34 6.25 -9.97 6.28 -10.62 6.31 C-11.3 6.3 -11.97 6.28 -12.66 6.27 C-13.82 6.14 -13.82 6.14 -15 6 C-15.98 5.78 -16.95 5.55 -17.96 5.32 C-19.47 4.92 -19.47 4.92 -21 4.5 C-21.95 4.22 -22.9 3.94 -23.88 3.66 C-24.93 3.33 -24.93 3.33 -26 3 C-25.09 2.74 -25.09 2.74 -24.16 2.47 C-23.45 2.32 -22.73 2.16 -22 2 C-20.73 2.22 -20.73 2.22 -19.44 2.44 C-17.74 2.72 -17.74 2.72 -16 3 C-15.12 3.06 -14.25 3.12 -13.34 3.18 C-11.91 3.21 -11.91 3.21 -10.44 3.25 C-9.49 3.25 -8.54 3.24 -7.56 3.24 C-6.71 3.16 -5.87 3.08 -5 3 C-4.01 2.48 -3.02 1.97 -2 1.44 C-1.34 0.96 -0.68 0.49 0 0 Z " transform ="translate(132,166)" fill="#000000" />
  <path d="M0 0 C1.42 -0.22 1.42 -0.22 2.88 -0.44 C3.79 -0.44 3.79 -0.44 4.71 -0.43 C5.85 -0.22 5.85 -0.22 7 0 C8.55 0.66 8.55 0.66 10.13 1.34 C10.67 1.61 11.22 1.87 11.78 2.15 C12.6 2.57 12.6 2.57 13.44 3 C14.25 3.43 14.25 3.43 15.09 3.87 C15.85 4.27 15.85 4.27 16.62 4.69 C17.41 5.12 18.19 5.55 19 6 C18.34 7.32 17.68 8.64 17 10 C15.55 10.03 15.55 10.03 14.06 10.06 C12.55 10.03 12.55 10.03 11 10 C10.67 9.67 10.34 9.34 10 9 C9.47 8.96 8.95 8.91 8.41 8.87 C7.78 8.87 7.15 8.87 6.5 8.88 C5.56 8.87 5.56 8.87 4.59 8.87 C4.07 8.91 3.54 8.95 3 9 C2.67 9.33 2.34 9.66 2 10 C0.98 10.05 0.98 10.05 -0.07 10.1 C-0.89 10.09 -1.71 10.07 -2.56 10.06 C-3.39 10.05 -4.22 10.04 -5.07 10.04 C-5.7 10.02 -6.34 10.01 -7 10 C-7.33 9.34 -7.66 8.68 -8 8 C-6.95 8.04 -5.9 8.08 -4.81 8.12 C-3.84 8.13 -3.84 8.13 -2.85 8.14 C-2.24 8.09 -1.63 8.05 -1 8 C-0.24 7.65 0.53 7.3 1.31 6.94 C2.2 6.63 3.09 6.32 4 6 C4.84 6.03 5.67 6.06 6.53 6.09 C7.45 6.18 8.37 6.28 9.31 6.38 C10.64 6.54 10.64 6.54 11.99 6.71 C12.98 6.85 12.98 6.85 14 7 C13.57 6.63 13.15 6.25 12.71 5.87 C12.08 5.4 11.46 4.92 10.81 4.44 C10.09 3.98 9.37 3.52 8.62 3.04 C7.76 2.7 6.89 2.35 6 2 C4.93 1.98 3.86 1.95 2.75 1.93 C1.05 2.09 1.05 2.09 -0.69 2.25 C-2.3 2.47 -2.3 2.47 -3.95 2.7 C-4.96 2.8 -5.96 2.9 -7 3 C-7.96 2.85 -8.91 2.7 -9.89 2.55 C-10.59 2.37 -11.28 2.19 -12 2 C-12 1.67 -12 1.34 -12 1 C-10.95 1.02 -10.95 1.02 -9.88 1.04 C-8.97 1.04 -8.06 1.05 -7.12 1.06 C-5.77 1.08 -5.77 1.08 -4.38 1.1 C-3.6 1.07 -2.81 1.03 -2 1 C-1.34 0.67 -0.68 0.34 0 0 Z " transform ="translate(124,156)" fill="#000000" />
  <path d="M0 0 C0.65 0.32 0.65 0.32 1.31 0.66 C1.92 0.96 2.52 1.26 3.15 1.57 C4.16 2.08 4.16 2.08 5.18 2.59 C5.91 2.95 6.63 3.31 7.38 3.69 C8.46 4.23 8.46 4.23 9.57 4.79 C10.66 5.33 10.66 5.33 11.77 5.89 C12.49 6.25 13.21 6.61 13.96 6.98 C14.63 7.32 15.31 7.65 16 8 C16.57 8.29 17.15 8.57 17.74 8.87 C18.25 9.13 18.76 9.38 19.29 9.64 C20.63 10.32 20.63 10.32 22 11 C22.78 11.39 23.57 11.78 24.38 12.19 C24.91 12.46 25.45 12.72 26 13 C25.01 13.33 24.02 13.66 23 14 C22.36 13.81 21.73 13.61 21.07 13.41 C20.36 13.08 19.64 12.76 18.91 12.42 C18.13 12.06 17.34 11.71 16.53 11.34 C15.72 10.96 14.9 10.58 14.06 10.19 C13.25 9.82 12.44 9.45 11.6 9.07 C10.82 8.71 10.03 8.35 9.22 7.98 C8.15 7.48 8.15 7.48 7.06 6.98 C6.38 6.65 5.7 6.33 5 6 C3.9 5.51 3.9 5.51 2.78 5.01 C2.19 4.68 1.61 4.34 1 4 C0.75 3.3 0.51 2.6 0.25 1.88 C0.17 1.26 0.09 0.64 0 0 Z " transform ="translate(8,234)" fill="#000000" />
  <path d="M0 0 C0.66 0 1.32 0 2 0 C2 0.66 2 1.32 2 2 C1.34 2 0.68 2 0 2 C0 1.34 0 0.68 0 0 Z " transform ="translate(10,209)" fill="#000000" />
  <path d="M0 0 C0.66 0 1.32 0 2 0 C1.88 0.78 1.76 1.56 1.63 2.37 C1.47 3.38 1.3 4.39 1.12 5.44 C0.88 6.95 0.88 6.95 0.63 8.5 C0.42 9.32 0.22 10.15 0 11 C-0.99 11.5 -0.99 11.5 -2 12 C-2.04 10.95 -2.08 9.9 -2.12 8.81 C-2.13 8.18 -2.13 7.54 -2.13 6.89 C-2.09 6.27 -2.05 5.64 -2 5 C-1.67 4.03 -1.34 3.06 -1 2.06 C-0.51 1.04 -0.51 1.04 0 0 Z " transform ="translate(35,221)" fill="#000000" />
  <path d="M0 0 C0.33 0.99 0.66 1.98 1 3 C0.67 3.66 0.34 4.32 0 5 C-0.66 5 -1.32 5 -2 5 C-1.34 3.35 -0.68 1.7 0 0 Z " transform ="translate(39,215)" fill="#000000" />
  <path d="M0 0 C2 1 2 1 2 1 Z " transform ="translate(35,249)" fill="#000000" />
  <path d="M0 0 C0.66 0.33 1.32 0.66 2 1 C1.34 2.98 0.68 4.96 0 7 C-0.19 6.4 -0.37 5.8 -0.56 5.19 C-0.71 4.47 -0.85 3.74 -1 3 C-0.67 2.01 -0.34 1.02 0 0 Z " transform ="translate(66,189)" fill="#000000" />
  <path d="M0 0 C0 3 0 3 0 3 Z " transform ="translate(66,203)" fill="#000000" />
  <path d="M0 0 C0 0.99 0 1.98 0 3 C-0.49 3.39 -0.99 3.78 -1.5 4.19 C-1.99 4.46 -2.49 4.72 -3 5 C-2.69 4.36 -2.38 3.72 -2.06 3.06 C-1.71 2.38 -1.36 1.7 -1 1 C-0.67 0.67 -0.34 0.34 0 0 Z " transform ="translate(49,186)" fill="#000000" />
  <path d="M0 0 C0.99 0 1.98 0 3 0 C3.6 0.74 4.21 1.47 4.83 2.23 C5.15 2.7 5.47 3.17 5.8 3.66 C6.14 4.16 6.47 4.67 6.81 5.19 C7.16 5.7 7.52 6.21 7.88 6.73 C8.41 7.49 8.41 7.49 8.95 8.25 C9.63 9.16 10.3 10.07 11 11 C11.53 11.5 12.06 12.01 12.61 12.53 C13.09 12.89 13.57 13.25 14.06 13.62 C14.53 13.97 15 14.32 15.48 14.68 C15.98 15.11 16.48 15.55 17 16 C17.64 16.76 18.27 17.51 18.93 18.29 C19.57 19.12 20.21 19.96 20.88 20.81 C21.47 21.6 22.07 22.39 22.68 23.21 C23.12 23.8 23.55 24.39 24 25 C23.34 25.66 22.68 26.32 22 27 C21.59 26.43 21.18 25.87 20.76 25.29 C20.22 24.55 19.68 23.82 19.12 23.06 C18.59 22.33 18.06 21.6 17.51 20.85 C17.01 20.24 16.51 19.63 16 19 C15.34 18.67 14.68 18.34 14 18 C14.16 18.63 14.31 19.26 14.47 19.91 C14.76 21.19 14.76 21.19 15.06 22.5 C15.33 23.87 15.33 23.87 15.61 25.26 C15.74 26.17 15.87 27.07 16 28 C16.01 28.75 16.01 29.5 16.02 30.27 C15.95 30.94 15.88 31.62 15.81 32.31 C15.74 32.91 15.66 33.5 15.58 34.11 C15.39 34.74 15.2 35.36 15 36 C14.57 36.79 14.15 37.57 13.71 38.38 C13.14 39.24 12.58 40.11 12 41 C11.34 41.92 10.67 42.84 9.99 43.79 C9.65 44.26 9.3 44.72 8.94 45.2 C8.59 45.67 8.24 46.14 7.88 46.62 C7.34 47.34 7.34 47.34 6.79 48.07 C6.44 48.53 6.1 49 5.74 49.48 C5.17 50.31 4.59 51.14 4 52 C3.67 52.99 3.34 53.98 3 55 C2.94 55.64 2.89 56.28 2.83 56.94 C2.83 57.62 2.82 58.3 2.81 59 C2.8 59.68 2.78 60.36 2.77 61.06 C2.85 61.7 2.92 62.34 3 63 C3.35 63.52 3.71 64.03 4.07 64.56 C4.38 65.04 4.69 65.51 5 66 C4.67 66.99 4.34 67.98 4 69 C3.04 67.86 3.04 67.86 2.06 66.69 C1.04 65.36 1.04 65.36 0 64 C-0.5 62.51 -0.5 62.51 -1 61 C-1.11 60.35 -1.23 59.69 -1.34 59.02 C-1.42 57.93 -1.42 57.93 -1.5 56.81 C-1.5 56.03 -1.49 55.24 -1.49 54.43 C-1.33 53.63 -1.17 52.83 -1 52 C-0.26 50.83 -0.26 50.83 0.49 49.63 C1.11 48.91 1.73 48.18 2.38 47.44 C3 46.78 3.63 46.11 4.27 45.43 C4.84 44.96 5.41 44.49 6 44 C6.66 44 7.32 44 8 44 C8.12 43.42 8.24 42.83 8.37 42.23 C8.58 41.49 8.78 40.76 9 40 C9.33 39.4 9.67 38.8 10.01 38.18 C10.56 37.25 10.56 37.25 11.12 36.31 C11.48 35.62 11.83 34.92 12.2 34.2 C12.46 33.47 12.73 32.75 13 32 C13.05 31.28 13.1 30.57 13.14 29.83 C13.08 29.1 13.01 28.38 12.94 27.62 C12.81 26.88 12.67 26.13 12.54 25.36 C12.36 24.58 12.18 23.8 12 23 C11.82 22.17 11.64 21.34 11.46 20.49 C11.25 19.65 11.03 18.8 10.81 17.94 C10.55 17.11 10.29 16.28 10.02 15.42 C9.68 14.62 9.35 13.82 9 13 C8.53 12.26 8.06 11.53 7.57 10.77 C7.05 10.08 6.54 9.39 6 8.69 C5.48 8.05 4.96 7.42 4.43 6.76 C3.96 6.18 3.49 5.6 3 5 C2.48 4.21 2.48 4.21 1.95 3.39 C1.67 2.93 1.4 2.47 1.12 2 C0.75 1.34 0.38 0.68 0 0 Z " transform ="translate(73,175)" fill="#000000" />
  <path d="M0 0 C0.08 0.62 0.17 1.24 0.25 1.88 C0.5 2.58 0.75 3.28 1 4 C1.93 4.53 1.93 4.53 2.88 5.06 C3.93 5.53 3.93 5.53 5 6 C5.58 6.54 6.16 7.07 6.75 7.62 C7.16 8.08 7.58 8.53 8 9 C7.26 8.73 6.52 8.46 5.75 8.19 C4.84 7.8 3.94 7.4 3 7 C2.24 6.46 1.47 5.93 0.69 5.38 C0.13 4.92 -0.43 4.47 -1 4 C-0.67 2.68 -0.34 1.36 0 0 Z " transform ="translate(82,239)" fill="#000000" />
  <path d="M0 0 C2 1 2 1 2 1 Z " transform ="translate(82,236)" fill="#000000" />
  <path d="M0 0 C0.33 0 0.66 0 1 0 C1 1.98 1 3.96 1 6 C0.67 6 0.34 6 0 6 C0 4.02 0 2.04 0 0 Z " transform ="translate(95,203)" fill="#000000" />
  <path d="M0 0 C0.99 0.5 0.99 0.5 2 1 C1.67 1.66 1.34 2.32 1 3 C0.67 2.01 0.34 1.02 0 0 Z " transform ="translate(94,209)" fill="#000000" />
  <path d="M0 0 C0.99 0.5 0.99 0.5 2 1 C1.01 1.5 1.01 1.5 0 2 C0 1.34 0 0.68 0 0 Z " transform ="translate(91,221)" fill="#000000" />
  <path d="M0 0 C1.98 0.99 1.98 0.99 4 2 C4.06 3.49 4.06 3.49 4.12 5 C4.13 5.63 4.13 6.26 4.13 6.91 C4.07 7.94 4.07 7.94 4 9 C3.85 9.74 3.71 10.48 3.55 11.25 C3.37 11.97 3.19 12.69 3 13.44 C2.81 14.12 2.63 14.8 2.44 15.5 C2.22 16.24 2.22 16.24 2 17 C1.67 16.48 1.35 15.96 1.01 15.42 C0.68 14.62 0.34 13.82 0 13 C-0.06 11.93 -0.13 10.87 -0.2 9.77 C-0.19 9.19 -0.18 8.62 -0.18 8.03 C-0.16 7.44 -0.14 6.85 -0.12 6.25 C-0.12 5.65 -0.11 5.05 -0.1 4.43 C-0.09 3.86 -0.08 3.29 -0.07 2.7 C-0.05 1.81 -0.02 0.92 0 0 Z " transform ="translate(200,126)" fill="#000000" />
  <path d="M0 0 C1 4 1 4 1 4 Z " transform ="translate(189,141)" fill="#000000" />
  <path d="M0 0 C0.66 0.33 1.32 0.66 2 1 C1.35 1.31 1.35 1.31 0.69 1.62 C0.13 2.08 -0.43 2.53 -1 3 C-1.52 3.85 -2.03 4.69 -2.56 5.56 C-2.81 6.09 -3.06 6.61 -3.31 7.16 C-3.54 7.76 -3.77 8.37 -4 9 C-4.19 9.73 -4.37 10.46 -4.56 11.22 C-4.73 11.99 -4.89 12.77 -5.06 13.56 C-5.22 14.33 -5.37 15.09 -5.54 15.88 C-5.69 16.58 -5.84 17.28 -6 18 C-6.33 18.99 -6.66 19.98 -7 21 C-7.33 21.66 -7.66 22.32 -8 23 C-8.66 23.33 -9.32 23.66 -10 24 C-9.67 24.33 -9.34 24.66 -9 25 C-8.98 26.01 -8.96 27.02 -8.94 28.06 C-8.96 29.03 -8.98 30 -9 31 C-8.01 31.33 -7.02 31.66 -6 32 C-5.67 32.99 -5.34 33.98 -5 35 C-6.98 34.34 -8.96 33.68 -11 33 C-10.58 33.63 -10.16 34.25 -9.72 34.9 C-9.17 35.72 -8.63 36.53 -8.06 37.38 C-7.52 38.19 -6.97 39 -6.41 39.84 C-5.94 40.55 -5.48 41.26 -5 42 C-4.67 42.66 -4.34 43.32 -4 44 C-4.58 43.86 -5.16 43.71 -5.75 43.56 C-6.86 43.28 -6.86 43.28 -8 43 C-8.71 42.82 -9.41 42.65 -10.14 42.46 C-11.06 42.23 -11.06 42.23 -12 42 C-11.67 42.53 -11.35 43.06 -11.01 43.61 C-10.36 44.67 -10.36 44.67 -9.69 45.75 C-9.23 46.48 -8.78 47.2 -8.31 47.95 C-7.88 48.63 -7.45 49.3 -7 50 C-6.4 50.82 -5.8 51.65 -5.19 52.5 C-4.8 53 -4.4 53.49 -4 54 C-4.76 53.67 -5.53 53.34 -6.31 53 C-7.2 52.67 -8.09 52.34 -9 52 C-9.99 52 -10.98 52 -12 52 C-12.33 51.34 -12.66 50.68 -13 50 C-13.82 49.75 -14.65 49.5 -15.5 49.25 C-16.74 48.63 -16.74 48.63 -18 48 C-18.27 46.97 -18.54 45.94 -18.81 44.88 C-18.87 43.93 -18.94 42.98 -19 42 C-18.34 42 -17.68 42 -17 42 C-16.34 43.32 -15.68 44.64 -15 46 C-15.07 45.51 -15.13 45.01 -15.2 44.5 C-15.33 43.47 -15.33 43.47 -15.47 42.42 C-15.57 41.67 -15.66 40.92 -15.76 40.15 C-15.91 38.96 -15.91 38.96 -16.06 37.75 C-16.17 36.97 -16.27 36.2 -16.38 35.39 C-16.47 34.64 -16.56 33.89 -16.66 33.11 C-16.75 32.42 -16.84 31.73 -16.93 31.01 C-16.96 30.02 -16.96 30.02 -17 29 C-16.86 28.32 -16.73 27.63 -16.58 26.93 C-16.39 26.29 -16.2 25.66 -16 25 C-15.67 24.01 -15.34 23.02 -15 22 C-15 21.01 -15 20.02 -15 19 C-14.42 18.42 -13.84 17.84 -13.25 17.25 C-12.51 16.51 -11.76 15.76 -11 15 C-10.66 14.48 -10.33 13.97 -9.98 13.43 C-9.66 12.86 -9.33 12.28 -9 11.69 C-8.67 11.09 -8.34 10.49 -8 9.88 C-7.67 9.26 -7.34 8.64 -7 8 C-6.66 7.35 -6.32 6.7 -5.96 6.03 C-5.63 5.4 -5.29 4.77 -4.94 4.12 C-4.64 3.55 -4.34 2.98 -4.03 2.38 C-3.69 1.93 -3.35 1.47 -3 1 C-2.01 0.67 -1.02 0.34 0 0 Z " transform ="translate(219,127)" fill="#000000" />
  <path d="M0 0 C0.64 0.29 1.28 0.58 1.94 0.88 C2.62 1.25 3.3 1.62 4 2 C4.33 2.66 4.66 3.32 5 4 C4.36 3.71 3.72 3.42 3.06 3.12 C2.38 2.75 1.7 2.38 1 2 C0.67 1.34 0.34 0.68 0 0 Z " transform ="translate(209,188)" fill="#000000" />
  <path d="M0 0 C0.99 0.5 0.99 0.5 2 1 C1.67 1.66 1.34 2.32 1 3 C0.67 2.01 0.34 1.02 0 0 Z " transform ="translate(207,185)" fill="#000000" />
  <path d="M0 0 C0.57 0.26 1.14 0.52 1.73 0.78 C2.86 1.38 2.86 1.38 4 2 C4.71 2.55 5.41 3.09 6.14 3.66 C6.84 4.26 7.53 4.87 8.25 5.5 C8.96 6.11 9.66 6.72 10.39 7.34 C10.92 7.89 11.45 8.44 12 9 C12 9.66 12 10.32 12 11 C12.99 11 13.98 11 15 11 C15.48 11.44 15.96 11.89 16.45 12.34 C16.96 12.89 17.47 13.44 18 14 C18.59 14.4 19.19 14.8 19.8 15.22 C20.44 15.64 21.09 16.06 21.75 16.5 C22.45 17.02 23.15 17.53 23.87 18.06 C24.92 19.02 24.92 19.02 26 20 C26.66 20.87 27.33 21.73 28.01 22.62 C28.93 24.05 28.93 24.05 29.88 25.5 C30.43 26.4 30.98 27.29 31.55 28.22 C32.03 29.14 32.51 30.05 33 31 C33.21 31.55 33.42 32.11 33.64 32.68 C33.82 33.23 34.01 33.78 34.2 34.34 C34.59 35.66 34.59 35.66 35 37 C33.51 36.5 33.51 36.5 32 36 C32.99 37.98 32.99 37.98 34 40 C33.53 40.87 33.05 41.73 32.56 42.62 C32.21 43.17 31.85 43.71 31.48 44.27 C30.99 44.84 30.5 45.41 30 46 C29.27 46.57 28.55 47.14 27.8 47.73 C27 48.28 26.2 48.82 25.38 49.38 C24.6 49.88 23.82 50.38 23.02 50.9 C22.36 51.26 21.69 51.63 21 52 C20.34 52 19.68 52 19 52 C18.66 52.93 18.66 52.93 18.31 53.88 C17.88 54.58 17.45 55.28 17 56 C16.13 56.41 15.27 56.82 14.38 57.25 C13.59 57.5 12.81 57.75 12 58 C12 58.66 12 59.32 12 60 C11.01 60.33 10.02 60.66 9 61 C8.67 60.01 8.34 59.02 8 58 C8.2 57.1 8.39 56.19 8.59 55.26 C8.89 54.22 9.19 53.19 9.5 52.12 C9.8 51.1 10.1 50.07 10.41 49.01 C10.6 48.02 10.8 47.02 11 46 C10.91 45.16 10.82 44.32 10.72 43.45 C10.48 42.64 10.25 41.83 10 41 C9.68 40.12 9.36 39.23 9.03 38.32 C8.49 37.02 8.49 37.02 7.94 35.69 C7.39 34.36 7.39 34.36 6.84 33.01 C6.56 32.35 6.29 31.68 6 31 C6.63 30.98 7.25 30.96 7.89 30.93 C8.59 30.96 9.28 30.98 10 31 C10.56 31.35 11.11 31.7 11.69 32.06 C12.12 32.7 12.55 33.34 13 34 C13.25 35.03 13.5 36.06 13.75 37.12 C13.81 37.73 13.88 38.34 13.95 38.97 C13.96 39.64 13.98 40.31 14 41 C13.96 41.74 13.91 42.48 13.87 43.25 C13.79 44.01 13.71 44.77 13.62 45.56 C13.48 46.69 13.48 46.69 13.32 47.84 C13.22 48.56 13.11 49.27 13 50 C12.9 50.63 12.81 51.26 12.71 51.91 C12.57 52.73 12.57 52.73 12.44 53.56 C12.29 54.37 12.15 55.17 12 56 C12.44 55.58 12.88 55.16 13.33 54.73 C13.88 54.16 14.43 53.59 15 53 C15.46 52.4 15.92 51.8 16.39 51.18 C16.82 50.56 17.25 49.95 17.69 49.31 C18.12 48.69 18.56 48.07 19.01 47.43 C19.34 46.96 19.66 46.48 20 46 C20.66 46.66 21.32 47.32 22 48 C22.39 47.38 22.78 46.76 23.19 46.12 C23.79 45.42 24.38 44.72 25 44 C25.86 43.63 26.72 43.25 27.61 42.87 C28.4 42.58 29.19 42.29 30 42 C29.7 41.28 29.39 40.55 29.08 39.8 C28.66 38.84 28.24 37.87 27.81 36.88 C27.35 35.87 26.89 34.87 26.42 33.84 C25.95 32.9 25.48 31.97 25 31 C24.6 30.34 24.21 29.68 23.8 29 C23.41 28.49 23.02 27.97 22.62 27.44 C22.23 27.02 21.84 26.61 21.44 26.19 C20.96 25.79 20.49 25.4 20 25 C18.95 24.65 17.91 24.31 16.83 23.95 C16.22 23.79 15.6 23.63 14.97 23.46 C13.99 23.23 13.99 23.23 13 23 C12.35 22.86 11.7 22.71 11.03 22.56 C10.37 22.43 9.71 22.29 9.04 22.15 C8.38 22.02 7.73 21.89 7.05 21.76 C6.07 21.57 6.07 21.57 5.06 21.38 C4.38 21.24 3.69 21.11 2.99 20.97 C2.35 20.84 1.7 20.72 1.04 20.59 C-0.47 20.3 -0.47 20.3 -2 20 C-2 20.66 -2 21.32 -2 22 C-1.01 22.33 -0.02 22.66 1 23 C0.01 23.33 -0.98 23.66 -2 24 C-2.61 24.07 -3.21 24.13 -3.84 24.2 C-4.53 24.22 -5.22 24.23 -5.94 24.25 C-6.72 24.24 -7.5 24.24 -8.3 24.23 C-9.64 24.12 -9.64 24.12 -11 24 C-12.61 23.67 -12.61 23.67 -14.26 23.33 C-15.35 23.05 -16.44 22.78 -17.56 22.5 C-18.6 22.22 -19.63 21.94 -20.69 21.66 C-21.45 21.44 -22.22 21.22 -23 21 C-23 20.34 -23 19.68 -23 19 C-24.98 18.34 -26.96 17.68 -29 17 C-28.94 17.9 -28.88 18.81 -28.82 19.74 C-28.76 20.6 -28.76 20.6 -28.69 21.47 C-28.65 22.08 -28.61 22.69 -28.56 23.31 C-28.52 23.91 -28.48 24.5 -28.44 25.12 C-28.4 25.69 -28.36 26.27 -28.32 26.86 C-28.21 27.9 -28.11 28.93 -28 30 C-27.67 30.99 -27.34 31.98 -27 33 C-26.29 33.67 -25.58 34.33 -24.85 35.02 C-24.18 35.56 -24.18 35.56 -23.51 36.11 C-23.03 36.49 -22.55 36.86 -22.06 37.25 C-21.58 37.64 -21.09 38.04 -20.59 38.44 C-20.09 38.84 -19.59 39.23 -19.08 39.64 C-18.57 40.04 -18.06 40.44 -17.54 40.84 C-17.03 41.22 -16.52 41.61 -16 42 C-15.51 42.35 -15.01 42.7 -14.5 43.07 C-14.02 43.4 -13.54 43.73 -13.05 44.07 C-12.14 44.69 -11.24 45.3 -10.31 45.94 C-9.48 46.48 -8.65 47.03 -7.8 47.59 C-7.21 48.06 -6.61 48.52 -6 49 C-6 49.66 -6 50.32 -6 51 C-5.01 50.5 -5.01 50.5 -4 50 C-3.85 49.36 -3.7 48.73 -3.55 48.07 C-3.43 46.89 -3.43 46.89 -3.31 45.69 C-3.23 44.91 -3.14 44.13 -3.05 43.32 C-3.03 42.56 -3.02 41.79 -3 41 C-3.16 40.24 -3.32 39.49 -3.48 38.71 C-3.65 38.14 -3.82 37.58 -4 37 C-4.66 37 -5.32 37 -6 37 C-6 36.34 -6 35.68 -6 35 C-4.51 35.5 -4.51 35.5 -3 36 C-3 36.66 -3 37.32 -3 38 C-2.01 38 -1.02 38 0 38 C-0.22 37.37 -0.43 36.75 -0.66 36.1 C-0.93 35.28 -1.21 34.47 -1.5 33.62 C-1.78 32.81 -2.06 32 -2.34 31.16 C-2.56 30.45 -2.78 29.74 -3 29 C-3 28.34 -3 27.68 -3 27 C-2.34 27 -1.68 27 -1 27 C-0.7 27.63 -0.4 28.25 -0.09 28.9 C0.48 30.12 0.48 30.12 1.06 31.38 C1.45 32.19 1.83 33 2.22 33.84 C2.48 34.55 2.74 35.26 3 36 C2.5 36.99 2.5 36.99 2 38 C3.98 37.5 3.98 37.5 6 37 C6.05 37.64 6.1 38.28 6.15 38.93 C6.22 39.76 6.3 40.59 6.38 41.44 C6.44 42.26 6.51 43.08 6.59 43.93 C6.79 44.96 6.79 44.96 7 46 C7.99 46.5 7.99 46.5 9 47 C8.77 47.51 8.54 48.02 8.3 48.54 C7.97 49.23 7.65 49.92 7.31 50.62 C6.94 51.35 6.57 52.08 6.19 52.84 C5.8 53.55 5.4 54.26 5 55 C4.65 55.57 4.3 56.14 3.94 56.73 C3.57 57.23 3.19 57.73 2.81 58.25 C2.4 58.72 1.98 59.19 1.55 59.67 C1.04 60.11 0.53 60.55 0 61 C-0.72 61.44 -1.44 61.88 -2.18 62.33 C-2.97 62.71 -3.75 63.1 -4.56 63.5 C-5.31 63.84 -6.05 64.18 -6.82 64.53 C-7.54 64.69 -8.26 64.84 -9 65 C-9.75 64.7 -10.5 64.4 -11.28 64.09 C-12.13 63.55 -12.13 63.55 -13 63 C-12.63 62.56 -12.25 62.13 -11.87 61.68 C-11.4 61.08 -10.92 60.49 -10.44 59.88 C-9.96 59.29 -9.49 58.71 -9 58.12 C-8.67 57.42 -8.34 56.72 -8 56 C-8.11 54.93 -8.23 53.86 -8.35 52.76 C-8.56 51.85 -8.78 50.94 -9 50 C-9.93 49.77 -10.86 49.54 -11.82 49.3 C-12.41 49.15 -13.01 48.99 -13.62 48.83 C-14.26 48.66 -14.9 48.49 -15.56 48.31 C-16.2 48.14 -16.84 47.96 -17.5 47.78 C-18.13 47.6 -18.77 47.41 -19.42 47.22 C-20.35 46.93 -20.35 46.93 -21.29 46.63 C-21.86 46.42 -22.42 46.21 -23 46 C-23.82 45.54 -24.64 45.09 -25.49 44.62 C-26.11 44.17 -26.73 43.72 -27.38 43.25 C-28.24 42.51 -29.11 41.76 -30 41 C-29.01 40.5 -29.01 40.5 -28 40 C-27.39 40.24 -26.79 40.49 -26.16 40.74 C-25.47 41.12 -24.78 41.49 -24.06 41.88 C-23.37 42.24 -22.68 42.61 -21.97 42.99 C-21.32 43.32 -20.67 43.66 -20 44 C-19.01 44.33 -18.02 44.66 -17 45 C-17.33 44.34 -17.66 43.68 -18 43 C-18.93 42.55 -19.86 42.09 -20.81 41.62 C-21.35 41.36 -21.89 41.1 -22.45 40.83 C-22.96 40.56 -23.47 40.28 -24 40 C-24.7 39.44 -25.4 38.89 -26.12 38.31 C-26.74 37.55 -27.36 36.79 -28 36 C-28.35 35.41 -28.7 34.82 -29.06 34.21 C-29.41 33.54 -29.76 32.88 -30.12 32.19 C-30.45 31.49 -30.78 30.79 -31.11 30.07 C-31.41 29.38 -31.7 28.7 -32 28 C-32.24 27.43 -32.48 26.86 -32.73 26.28 C-32.92 25.73 -33.11 25.19 -33.31 24.62 C-33.46 24.06 -33.61 23.5 -33.77 22.93 C-33.84 22.29 -33.92 21.65 -34 21 C-33.95 20.17 -33.91 19.34 -33.86 18.48 C-33.76 17.6 -33.66 16.72 -33.56 15.81 C-33.44 14.99 -33.32 14.18 -33.19 13.33 C-33.13 12.56 -33.07 11.79 -33 11 C-33.15 10.24 -33.31 9.48 -33.46 8.7 C-33.73 7.86 -33.73 7.86 -34 7 C-31.53 8.98 -31.53 8.98 -29 11 C-29.33 10.34 -29.66 9.68 -30 9 C-30.02 7.97 -30.04 6.94 -30.06 5.88 C-30.04 4.93 -30.02 3.98 -30 3 C-29.01 3 -28.02 3 -27 3 C-26.92 3.53 -26.83 4.06 -26.75 4.61 C-26.59 5.67 -26.59 5.67 -26.44 6.75 C-26.34 7.48 -26.25 8.2 -26.16 8.95 C-26.1 9.63 -26.05 10.3 -26 11 C-26.22 12.24 -26.22 12.24 -26.44 13.5 C-26.62 14 -26.81 14.49 -27 15 C-25.79 15.15 -25.79 15.15 -24.56 15.31 C-24.02 15.4 -23.47 15.49 -22.91 15.57 C-22.28 15.71 -21.65 15.86 -21 16 C-19.92 16.38 -19.92 16.38 -18.81 16.77 C-18.05 17.05 -17.28 17.33 -16.5 17.62 C-15.72 17.89 -14.95 18.16 -14.15 18.43 C-13.44 18.62 -12.73 18.81 -12 19 C-11.05 18.9 -10.1 18.79 -9.12 18.69 C-7.58 18.35 -7.58 18.35 -6 18 C-4.63 17.94 -4.63 17.94 -3.22 17.89 C-1.72 17.88 -1.72 17.88 -0.19 17.88 C1.25 17.87 1.25 17.87 2.71 17.87 C3.46 17.91 4.22 17.95 5 18 C5.33 18.33 5.66 18.66 6 19 C6.83 19.18 7.65 19.35 8.5 19.54 C10.02 19.8 10.02 19.8 11.56 20.06 C13.08 20.33 13.08 20.33 14.63 20.6 C15.8 20.8 15.8 20.8 17 21 C16.38 20.59 15.76 20.17 15.12 19.75 C14.42 19.17 13.72 18.59 13 18 C12.46 17.06 12.46 17.06 11.91 16.1 C11.63 15.43 11.35 14.75 11.06 14.06 C10.74 13.36 10.42 12.66 10.08 11.93 C9.72 11.3 9.37 10.66 9 10 C8.55 9.56 8.1 9.12 7.64 8.66 C6.95 8.15 6.95 8.15 6.25 7.62 C5.51 7.09 4.76 6.55 4 6 C4 5.34 4 4.68 4 4 C3.34 4 2.68 4 2 4 C1.34 2.68 0.68 1.36 0 0 Z M21 19 C21 19.66 21 20.32 21 21 C21.66 20.67 22.32 20.34 23 20 C22.34 19.67 21.68 19.34 21 19 Z M2 39 C1.67 39.33 1.34 39.66 1 40 C0.93 40.72 0.86 41.44 0.79 42.19 C0.73 43.12 0.68 44.04 0.62 45 C0.55 45.99 0.47 46.97 0.39 47.99 C0.26 48.98 0.13 49.98 0 51 C-0.24 51.9 -0.48 52.8 -0.73 53.73 C-1.01 54.54 -1.28 55.35 -1.56 56.19 C-1.83 56.92 -2.1 57.66 -2.38 58.42 C-2.58 58.94 -2.79 59.46 -3 60 C-1.86 58.98 -1.86 58.98 -0.69 57.94 C-0.24 57.48 0.22 57.02 0.68 56.54 C1.12 56.03 1.55 55.52 2 55 C2.34 54.48 2.68 53.96 3.04 53.43 C3.31 52.87 3.59 52.32 3.88 51.75 C4.11 51.17 4.34 50.58 4.57 49.98 C4.71 49.33 4.86 48.67 5 48 C4.99 47.19 4.97 46.38 4.96 45.55 C4.87 44.73 4.78 43.91 4.69 43.06 C4.57 42.29 4.45 41.52 4.32 40.72 C4.22 40.15 4.11 39.59 4 39 C3.34 39 2.68 39 2 39 Z M-6 56 C-7.32 57.65 -8.64 59.3 -10 61 C-9.67 61.66 -9.34 62.32 -9 63 C-7.68 61.35 -6.36 59.7 -5 58 C-5.33 57.34 -5.66 56.68 -6 56 Z " transform ="translate(209,181)" fill="#000000" />
  <path d="M0 0 C1.18 0.19 1.18 0.19 2.38 0.38 C3.24 0.58 4.11 0.79 5 1 C5.66 1.66 6.32 2.32 7 3 C6.03 2.88 5.06 2.75 4.06 2.62 C3.05 2.42 2.04 2.21 1 2 C0.67 1.34 0.34 0.68 0 0 Z " transform ="translate(215,181)" fill="#000000" />
  <path d="M0 0 C0.33 0.66 0.66 1.32 1 2 C0.69 2.93 0.38 3.86 0.06 4.81 C-0.29 5.86 -0.64 6.92 -1 8 C-1.1 8.87 -1.21 9.73 -1.31 10.62 C-1.21 11.41 -1.11 12.19 -1 13 C-0.65 13.7 -0.3 14.4 0.06 15.12 C0.7 15.74 1.34 16.36 2 17 C2.49 17.29 2.97 17.58 3.48 17.88 C4.04 18.15 4.61 18.41 5.19 18.69 C6.1 19.05 6.1 19.05 7.04 19.41 C7.69 19.6 8.33 19.8 9 20 C9.67 20.12 10.34 20.24 11.02 20.37 C11.7 20.45 12.37 20.54 13.06 20.62 C13.72 20.69 14.39 20.75 15.07 20.82 C16.02 20.91 16.02 20.91 17 21 C17.61 21.09 18.21 21.18 18.84 21.28 C19.66 21.42 19.66 21.42 20.5 21.56 C21.74 21.78 21.74 21.78 23 22 C23 21.34 23 20.68 23 20 C22.34 19.67 21.68 19.34 21 19 C21.99 19 22.98 19 24 19 C24.66 20.98 25.32 22.96 26 25 C24.89 24.86 23.77 24.71 22.62 24.56 C21.89 24.47 21.16 24.37 20.41 24.27 C19.61 24.18 18.82 24.09 18 24 C17.21 23.95 16.41 23.9 15.59 23.85 C14.78 23.8 13.96 23.74 13.12 23.69 C11.88 23.57 11.88 23.57 10.61 23.45 C9.75 23.3 8.89 23.15 8 23 C7.06 22.69 6.11 22.37 5.14 22.05 C4.23 21.68 3.32 21.31 2.38 20.94 C1.54 20.58 0.7 20.21 -0.16 19.84 C-0.77 19.56 -1.38 19.29 -2 19 C-2 18.34 -2 17.68 -2 17 C-2.99 17 -3.98 17 -5 17 C-5.99 14.69 -6.98 12.38 -8 10 C-7.01 9.67 -6.02 9.34 -5 9 C-4.67 8.42 -4.34 7.84 -4 7.25 C-3.5 6.14 -3.5 6.14 -3 5 C-2.2 3.64 -2.2 3.64 -1.38 2.25 C-0.92 1.51 -0.47 0.76 0 0 Z " transform ="translate(193,173)" fill="#000000" />
  <path d="M0 0 C0.33 0.66 0.66 1.32 1 2 C0.34 2.66 -0.32 3.32 -1 4 C-0.67 2.68 -0.34 1.36 0 0 Z " transform ="translate(195,168)" fill="#000000" />
  <path d="M0 0 C0.66 0 1.32 0 2 0 C1.71 0.95 1.42 1.9 1.12 2.88 C0.75 3.91 0.38 4.94 0 6 C-0.66 6.66 -1.32 7.32 -2 8 C-2.66 7.34 -3.32 6.68 -4 6 C-3.01 5.67 -2.02 5.34 -1 5 C-0.67 3.35 -0.34 1.7 0 0 Z " transform ="translate(198,158)" fill="#000000" />
  <path d="M0 0 C0.33 0.99 0.66 1.98 1 3 C0.73 3.74 0.46 4.49 0.19 5.25 C-0.2 6.16 -0.6 7.06 -1 8 C-1.17 8.61 -1.34 9.22 -1.51 9.84 C-1.67 10.47 -1.83 11.1 -2 11.75 C-2.33 12.82 -2.66 13.9 -3 15 C-3.99 15.5 -3.99 15.5 -5 16 C-5.2 16.49 -5.39 16.99 -5.59 17.5 C-5.75 18.14 -5.91 18.77 -6.07 19.43 C-6.24 20.14 -6.42 20.85 -6.6 21.57 C-6.86 22.71 -6.86 22.71 -7.12 23.88 C-7.3 24.64 -7.48 25.41 -7.66 26.21 C-7.83 26.98 -8 27.75 -8.17 28.54 C-8.32 29.31 -8.47 30.07 -8.63 30.85 C-8.75 31.56 -8.87 32.27 -9 33 C-9.16 34.66 -9.16 34.66 -9.33 36.36 C-9.35 37.76 -9.35 37.76 -9.38 39.19 C-9.34 40.03 -9.31 40.88 -9.27 41.75 C-9.18 42.49 -9.09 43.24 -9 44 C-8.85 44.66 -8.7 45.32 -8.54 46 C-8.36 46.56 -8.18 47.11 -8 47.69 C-7.67 48.45 -7.34 49.21 -7 50 C-7.66 50 -8.32 50 -9 50 C-9.5 48.99 -9.99 47.98 -10.5 46.94 C-10.77 46.21 -11.04 45.49 -11.32 44.74 C-11.54 43.84 -11.77 42.93 -12 42 C-12.1 41.16 -12.1 41.16 -12.21 40.29 C-12.27 39.38 -12.27 39.38 -12.34 38.45 C-12.36 37.81 -12.39 37.18 -12.41 36.53 C-12.42 35.88 -12.43 35.23 -12.44 34.56 C-12.44 33.91 -12.43 33.26 -12.43 32.59 C-12.41 31.95 -12.39 31.31 -12.37 30.65 C-12.32 30.03 -12.28 29.4 -12.23 28.76 C-12.16 28.18 -12.08 27.6 -12 27 C-11.57 25.57 -11.57 25.57 -11.13 24.1 C-10.78 23.3 -10.43 22.51 -10.06 21.69 C-9.7 21.01 -9.34 20.33 -8.97 19.64 C-8.65 19.1 -8.33 18.56 -8 18 C-7.67 17.34 -7.34 16.68 -7 16 C-7.99 15.67 -8.98 15.34 -10 15 C-9.58 14.46 -9.16 13.91 -8.72 13.36 C-8.17 12.64 -7.63 11.92 -7.06 11.19 C-6.52 10.48 -5.97 9.77 -5.41 9.04 C-4.71 8.03 -4.71 8.03 -4 7 C-3.67 6.01 -3.34 5.02 -3 4 C-2.34 4 -1.68 4 -1 4 C-0.67 2.68 -0.34 1.36 0 0 Z " transform ="translate(181,164)" fill="#000000" />
  <path d="M0 0 C1.03 0.25 2.06 0.5 3.12 0.75 C3.76 0.93 4.39 1.11 5.04 1.29 C5.69 1.52 6.33 1.76 7 2 C7.59 2.34 8.19 2.68 8.8 3.02 C9.34 3.39 9.88 3.75 10.44 4.12 C11.28 4.74 12.13 5.36 13 6 C12.67 6.66 12.34 7.32 12 8 C11.13 7.51 10.27 7.01 9.38 6.5 C8.83 6.19 8.29 5.88 7.73 5.56 C7.16 5.23 6.59 4.9 6 4.56 C5.43 4.24 4.86 3.91 4.27 3.58 C3.72 3.26 3.18 2.95 2.62 2.63 C1.76 2.09 0.89 1.55 0 1 C0 0.67 0 0.34 0 0 Z " transform ="translate(190,208)" fill="#000000" />
  <path d="M0 0 C1.24 0.68 1.24 0.68 2.5 1.38 C3.32 1.91 4.15 2.45 5 3 C5 3.66 5 4.32 5 5 C4.36 4.73 3.72 4.46 3.06 4.19 C2.04 3.6 2.04 3.6 1 3 C0.67 2.01 0.34 1.02 0 0 Z " transform ="translate(185,203)" fill="#000000" />
  <path d="M0 0 C0.33 0 0.66 0 1 0 C1.11 0.88 1.22 1.76 1.33 2.67 C1.41 3.23 1.49 3.8 1.56 4.38 C1.65 4.97 1.73 5.57 1.81 6.19 C1.88 6.77 1.95 7.34 2.03 7.94 C2.11 8.51 2.19 9.08 2.27 9.67 C2.51 10.77 2.75 11.87 3 13 C3.54 13.92 4.08 14.85 4.64 15.8 C5.09 16.53 5.54 17.25 6 18 C5.67 18.66 5.34 19.32 5 20 C4.65 19.47 4.3 18.94 3.94 18.39 C3.49 17.68 3.03 16.98 2.56 16.25 C2.11 15.55 1.66 14.86 1.19 14.14 C0.8 13.43 0.41 12.73 0 12 C-0.22 11.33 -0.43 10.66 -0.65 9.96 C-0.77 9.32 -0.88 8.67 -1 8 C-1.04 7.38 -1.09 6.75 -1.13 6.11 C-1.13 5.52 -1.13 4.92 -1.12 4.31 C-1.08 3.22 -1.04 2.13 -1 1 C-0.67 0.67 -0.34 0.34 0 0 Z " transform ="translate(166,213)" fill="#000000" />
  <path d="M0 0 C0.64 0.6 1.28 1.2 1.94 1.81 C2.62 2.53 3.3 3.26 4 4 C4.33 4.99 4.66 5.98 5 7 C4.01 6.67 3.02 6.34 2 6 C1.44 5.15 0.89 4.31 0.31 3.44 C-0.34 2.23 -0.34 2.23 -1 1 C-0.67 0.67 -0.34 0.34 0 0 Z " transform ="translate(174,214)" fill="#000000" />
  <path d="M0 0 C0.99 0.5 0.99 0.5 2 1 C1.45 1.51 0.89 2.01 0.32 2.53 C-0.4 3.18 -1.13 3.83 -1.88 4.5 C-2.59 5.15 -3.31 5.8 -4.05 6.47 C-4.7 6.97 -5.34 7.48 -6 8 C-6.66 8 -7.32 8 -8 8 C-8 8.66 -8 9.32 -8 10 C-8.57 10.52 -9.14 11.05 -9.73 11.59 C-10.95 12.47 -10.95 12.47 -12.19 13.38 C-13.11 13.99 -14.03 14.61 -14.98 15.25 C-15.97 15.82 -16.97 16.4 -18 17 C-18.98 17.44 -19.95 17.89 -20.96 18.35 C-21.98 18.71 -23.01 19.07 -24.06 19.44 C-25.15 19.74 -26.24 20.04 -27.36 20.35 C-28.23 20.53 -28.23 20.53 -29.12 20.71 C-30.05 20.85 -30.05 20.85 -31 21 C-31.69 21.06 -32.38 21.13 -33.1 21.19 C-33.82 21.23 -34.55 21.27 -35.29 21.31 C-36.39 21.34 -36.39 21.34 -37.52 21.37 C-38.25 21.37 -38.99 21.37 -39.75 21.38 C-40.48 21.36 -41.21 21.35 -41.96 21.34 C-42.66 21.31 -43.37 21.28 -44.1 21.26 C-45.11 21.2 -45.11 21.2 -46.14 21.14 C-46.75 21.09 -47.37 21.05 -48 21 C-48.95 20.89 -49.89 20.79 -50.87 20.68 C-52.02 20.47 -52.02 20.47 -53.19 20.25 C-54.18 19.98 -54.18 19.98 -55.2 19.7 C-55.79 19.47 -56.39 19.24 -57 19 C-57.6 18.69 -58.21 18.37 -58.83 18.05 C-59.38 17.7 -59.93 17.36 -60.5 17 C-61.33 16.34 -62.15 15.68 -63 15 C-63.33 14.34 -63.66 13.68 -64 13 C-63.14 13.45 -63.14 13.45 -62.27 13.9 C-61.52 14.26 -60.77 14.63 -60 15 C-59.3 15.27 -58.61 15.54 -57.89 15.82 C-57.16 16.06 -56.44 16.31 -55.69 16.56 C-54.5 16.95 -54.5 16.95 -53.3 17.34 C-52.54 17.56 -51.78 17.77 -51 18 C-50.39 18.14 -49.77 18.27 -49.14 18.41 C-48.58 18.5 -48.02 18.59 -47.44 18.69 C-46.3 18.79 -45.17 18.89 -44 19 C-43.43 19.05 -42.87 19.11 -42.28 19.16 C-41.67 19.19 -41.06 19.22 -40.44 19.25 C-39.78 19.24 -39.11 19.23 -38.43 19.22 C-37.63 19.15 -36.83 19.07 -36 19 C-34.9 18.82 -33.8 18.65 -32.66 18.47 C-31.76 18.3 -31.76 18.3 -30.85 18.13 C-30.24 18 -29.63 17.88 -29 17.75 C-28.08 17.54 -28.08 17.54 -27.14 17.34 C-26.54 17.19 -25.95 17.05 -25.33 16.9 C-24.23 16.6 -23.13 16.31 -22 16 C-21.23 15.74 -20.46 15.49 -19.67 15.23 C-19.04 14.95 -18.4 14.66 -17.75 14.38 C-17.15 14.04 -16.55 13.71 -15.94 13.37 C-14.98 12.69 -14.98 12.69 -14 12 C-13.15 11.29 -12.31 10.58 -11.44 9.85 C-10.99 9.45 -10.55 9.06 -10.09 8.65 C-9.65 8.25 -9.2 7.85 -8.75 7.44 C-7.94 6.67 -7.13 5.91 -6.3 5.12 C-5.54 4.42 -4.78 3.72 -4 3 C-3.24 2.41 -2.48 1.83 -1.7 1.22 C-1.14 0.82 -0.58 0.42 0 0 Z " transform ="translate(162,189)" fill="#000000" />
  <path d="M0 0 C0.33 0 0.66 0 1 0 C1 2.31 1 4.62 1 7 C0.67 7 0.34 7 0 7 C0 4.69 0 2.38 0 0 Z " transform ="translate(165,202)" fill="#000000" />
  <path d="M0 0 C3 1 3 1 3 1 Z " transform ="translate(206,249)" fill="#000000" />
  <path d="M0 0 C3 1 3 1 3 1 Z " transform ="translate(197,249)" fill="#000000" />
  <path d="M0 0 C3 1 3 1 3 1 Z " transform ="translate(218,249)" fill="#000000" />
  <path d="M0 0 C0.8 0.27 1.61 0.54 2.44 0.81 C3.28 1.2 4.13 1.6 5 2 C5.33 2.99 5.66 3.98 6 5 C5.38 4.69 4.76 4.38 4.12 4.06 C3.42 3.71 2.72 3.36 2 3 C1.34 2.67 0.68 2.34 0 2 C0 1.34 0 0.68 0 0 Z " transform ="translate(225,211)" fill="#000000" />
  <path d="M0 0 C0.33 0.66 0.66 1.32 1 2 C0.34 2.66 -0.32 3.32 -1 4 C-0.67 2.68 -0.34 1.36 0 0 Z " transform ="translate(231,223)" fill="#000000" />
  <path d="M0 0 C0.64 0.08 1.28 0.16 1.94 0.25 C3.45 0.62 3.45 0.62 5 1 C6.16 1.47 6.16 1.47 7.34 1.96 C8.15 2.32 8.97 2.69 9.81 3.06 C11 3.61 11 3.61 12.21 4.16 C12.8 4.44 13.39 4.71 14 5 C13.67 5.66 13.34 6.32 13 7 C12.4 6.83 11.79 6.66 11.17 6.48 C10.37 6.24 9.57 6 8.75 5.75 C7.93 5.48 7.11 5.21 6.27 4.93 C5.52 4.63 4.77 4.32 4 4 C3.15 3.28 2.31 2.56 1.44 1.81 C0.96 1.21 0.49 0.62 0 0 Z " transform ="translate(210,205)" fill="#000000" />
</svg>