<svg xmlns="http://www.w3.org/2000/svg" width="425.0" height="506.0">
  <path d="" transform ="translate(0,0)" fill="#000000" />
  <path d="" transform ="translate(0,0)" fill="#000000" />
  <path d="" transform ="translate(0,0)" fill="#000000" />
  <path d="" transform ="translate(0,0)" fill="#000000" />
  <path d="" transform ="translate(0,0)" fill="#000000" />
  <path d="" transform ="translate(0,0)" fill="#000000" />
  <path d="" transform ="translate(0,0)" fill="#000000" />
  <path d="" transform ="translate(0,0)" fill="#000000" />
  <path d="" transform ="translate(0,0)" fill="#000000" />
  <path d="" transform ="translate(0,0)" fill="#000000" />
  <path d="" transform ="translate(0,0)" fill="#000000" />
  <path d="" transform ="translate(0,0)" fill="#000000" />
  <path d="" transform ="translate(0,0)" fill="#000000" />
  <path d="" transform ="translate(0,0)" fill="#000000" />
  <path d="" transform ="translate(0,0)" fill="#000000" />
  <path d="" transform ="translate(0,0)" fill="#000000" />
  <path d="" transform ="translate(0,0)" fill="#000000" />
  <path d="" transform ="translate(0,0)" fill="#000000" />
  <path d="" transform ="translate(0,0)" fill="#000000" />
  <path d="" transform ="translate(0,0)" fill="#000000" />
  <path d="" transform ="translate(0,0)" fill="#000000" />
  <path d="" transform ="translate(0,0)" fill="#000000" />
  <path d="" transform ="translate(0,0)" fill="#000000" />
  <path d="" transform ="translate(0,0)" fill="#000000" />
  <path d="" transform ="translate(0,0)" fill="#000000" />
  <path d="" transform ="translate(0,0)" fill="#000000" />
  <path d="" transform ="translate(0,0)" fill="#000000" />
  <path d="M0 0 C0.71 -0.02 1.43 -0.05 2.17 -0.07 C3.19 -0.09 3.19 -0.09 4.24 -0.11 C4.89 -0.1 5.54 -0.1 6.21 -0.09 C7.1 -0.05 7.1 -0.05 8 0 C9.38 0.27 9.38 0.27 10.79 0.55 C11.58 0.8 12.37 1.05 13.19 1.31 C14.03 1.59 14.88 1.87 15.75 2.16 C16.5 2.44 17.24 2.71 18 3 C18.87 3.41 19.73 3.83 20.62 4.25 C21.8 5.12 21.8 5.12 23 6 C23.92 6.78 23.92 6.78 24.86 7.57 C25.89 8.46 25.89 8.46 26.94 9.38 C27.62 9.99 28.31 10.6 29.02 11.23 C30 12.11 30 12.11 31 13 C31.55 13.46 32.1 13.92 32.67 14.39 C33.42 15 33.42 15 34.19 15.62 C34.67 16.02 35.14 16.42 35.64 16.82 C36.09 17.21 36.54 17.6 37 18 C37.82 18.8 38.65 19.61 39.5 20.44 C39.9 20.85 40.3 21.27 40.71 21.7 C41.13 22.13 41.56 22.56 42 23 C42.52 23.45 43.04 23.9 43.57 24.37 C44.37 25.08 44.37 25.08 45.19 25.81 C45.69 26.32 46.19 26.83 46.71 27.35 C47.35 28.17 47.35 28.17 48 29 C48.27 29.6 48.54 30.19 48.82 30.81 C49.01 31.45 49.19 32.09 49.38 32.75 C49.5 33.42 49.63 34.1 49.76 34.79 C49.84 35.52 49.92 36.25 50 37 C50.06 37.82 50.12 38.64 50.18 39.49 C50.2 40.34 50.23 41.19 50.25 42.06 C50.24 42.9 50.23 43.74 50.21 44.61 C50.14 45.4 50.07 46.19 50 47 C49.82 47.68 49.63 48.35 49.44 49.05 C49.23 49.65 49.03 50.25 48.81 50.88 C48.54 51.91 48.28 52.94 48 54 C48.45 54.59 48.91 55.18 49.38 55.79 C49.91 56.52 50.45 57.25 51 58 C51.36 59.47 51.36 59.47 51.73 60.97 C51.81 61.53 51.89 62.09 51.98 62.67 C52.05 63.27 52.12 63.88 52.19 64.5 C52.27 65.14 52.35 65.79 52.43 66.45 C52.5 67.14 52.58 67.82 52.65 68.52 C52.75 69.6 52.75 69.6 52.84 70.7 C52.89 71.46 52.95 72.22 53 73 C53.04 73.81 53.08 74.61 53.11 75.45 C53.14 76.28 53.17 77.12 53.19 77.98 C53.21 78.82 53.22 79.67 53.24 80.54 C53.24 81.82 53.24 81.82 53.25 83.12 C53.24 84.41 53.24 84.41 53.24 85.71 C53.22 86.55 53.21 87.39 53.2 88.25 C53.17 89.06 53.14 89.88 53.12 90.71 C53.08 91.47 53.04 92.22 53 93 C52.91 93.98 52.91 93.98 52.83 94.98 C52.76 95.57 52.69 96.17 52.62 96.78 C52.45 97.86 52.29 98.95 52.12 100.06 C51.95 101.06 51.77 102.06 51.58 103.08 C51.39 104.04 51.2 105.01 51 106 C50.8 107.06 50.6 108.11 50.39 109.2 C50.2 110.21 50.01 111.21 49.81 112.25 C49.63 113.14 49.45 114.03 49.27 114.95 C49.18 115.63 49.09 116.3 49 117 C49.33 117.33 49.66 117.66 50 118 C50.05 118.77 50.1 119.55 50.15 120.34 C50.15 121.36 50.16 122.38 50.17 123.43 C50.17 124.53 50.18 125.64 50.19 126.78 C50.19 127.36 50.19 127.94 50.19 128.54 C50.19 129.12 50.19 129.71 50.19 130.31 C50.2 131.47 50.21 132.62 50.22 133.81 C50.23 134.92 50.23 136.03 50.23 137.18 C50.23 138.2 50.24 139.22 50.24 140.27 C50.16 141.17 50.08 142.07 50 143 C49.49 144.1 49.49 144.1 48.96 145.22 C48.49 146.1 48.49 146.1 48 147 C48.12 147.74 48.25 148.49 48.38 149.25 C48.58 149.83 48.79 150.41 49 151 C48.34 151 47.68 151 47 151 C46.99 151.79 46.97 152.58 46.96 153.39 C46.91 154.52 46.86 155.65 46.81 156.81 C46.78 157.43 46.74 158.04 46.7 158.68 C46.62 159.66 46.62 159.66 46.54 160.66 C46.43 161.7 46.43 161.7 46.32 162.77 C46.16 163.87 46.16 163.87 46 165 C45.77 166.17 45.77 166.17 45.53 167.37 C45.34 168.17 45.15 168.98 44.96 169.81 C44.76 170.62 44.55 171.43 44.34 172.27 C44.13 173.09 43.91 173.91 43.69 174.75 C43.47 175.57 43.25 176.4 43.02 177.25 C42.8 178.05 42.57 178.84 42.34 179.67 C42.12 180.43 41.9 181.18 41.66 181.97 C41.44 182.64 41.23 183.31 41 184 C40.6 184.92 40.2 185.85 39.78 186.8 C39.42 187.55 39.06 188.29 38.69 189.06 C38.37 189.79 38.06 190.52 37.74 191.28 C37.49 192.18 37.25 193.07 37 194 C36.91 194.67 36.83 195.34 36.74 196.03 C36.64 197.16 36.64 197.16 36.54 198.32 C36.5 199.1 36.46 199.89 36.42 200.7 C36.41 201.5 36.39 202.3 36.38 203.12 C36.38 203.92 36.38 204.71 36.38 205.52 C36.42 206.67 36.42 206.67 36.47 207.84 C36.53 208.56 36.6 209.29 36.66 210.04 C36.83 211.01 36.83 211.01 37 212 C37.42 212.9 37.85 213.8 38.28 214.73 C38.81 215.39 39.33 216.06 39.88 216.75 C40.42 217.32 40.97 217.9 41.54 218.49 C42.02 218.99 42.5 219.49 43 220 C43.65 221.45 43.65 221.45 44.31 222.94 C44.54 223.95 44.77 224.96 45 226 C45.12 226.63 45.24 227.26 45.36 227.92 C45.46 228.63 45.57 229.34 45.68 230.07 C45.76 230.86 45.84 231.66 45.93 232.48 C45.95 233.31 45.98 234.14 46 235 C45.9 235.8 45.8 236.6 45.69 237.43 C45.44 238.64 45.44 238.64 45.18 239.88 C44.98 240.71 44.77 241.54 44.56 242.4 C44.34 243.25 44.11 244.11 43.88 245 C43.64 245.91 43.41 246.82 43.18 247.75 C42.94 248.67 42.7 249.6 42.46 250.55 C42.22 251.46 41.97 252.38 41.72 253.32 C41.48 254.2 41.25 255.09 41 256 C40.79 256.82 40.57 257.64 40.35 258.48 C40.14 259.25 39.94 260.03 39.73 260.83 C39.42 261.94 39.42 261.94 39.11 263.08 C38.91 263.8 38.71 264.51 38.5 265.25 C38.19 266.29 38.19 266.29 37.88 267.36 C37.67 268.02 37.46 268.69 37.25 269.37 C37.04 269.99 36.84 270.62 36.62 271.26 C36.42 271.84 36.21 272.41 36 273 C35.59 273.96 35.18 274.92 34.75 275.91 C34.34 276.7 33.93 277.5 33.5 278.31 C32.88 279.32 32.88 279.32 32.25 280.36 C31.83 280.9 31.42 281.44 31 282 C30.2 282.7 29.39 283.4 28.56 284.12 C27.72 284.74 26.87 285.36 26 286 C25.22 286.89 25.22 286.89 24.42 287.79 C23.89 288.44 23.36 289.08 22.81 289.75 C22.32 290.36 21.84 290.98 21.33 291.61 C20.89 292.07 20.45 292.53 20 293 C19.34 293 18.68 293 18 293 C18 293.66 18 294.32 18 295 C18.64 295.17 19.28 295.33 19.94 295.5 C20.95 295.67 21.96 295.83 23 296 C23.71 296.08 24.43 296.16 25.16 296.24 C25.93 296.29 26.7 296.33 27.5 296.38 C28.28 296.37 29.06 296.36 29.86 296.35 C30.92 296.18 30.92 296.18 32 296 C32.75 295.52 32.75 295.52 33.52 295.02 C33.92 294.6 34.33 294.18 34.75 293.75 C35.12 293.29 35.5 292.84 35.88 292.37 C36.25 291.92 36.62 291.46 37 291 C37.87 290.3 38.73 289.6 39.62 288.88 C40.41 288.26 41.19 287.64 42 287 C42.51 286.56 43.02 286.13 43.54 285.68 C44.02 285.12 44.5 284.57 45 284 C45.31 283.25 45.63 282.51 45.95 281.74 C46.19 280.94 46.44 280.14 46.69 279.31 C46.94 278.5 47.19 277.7 47.45 276.86 C47.63 276.25 47.81 275.63 48 275 C48.66 275.04 49.32 275.08 50 275.12 C51.49 275.56 51.49 275.56 53 276 C53.64 276.4 54.28 276.81 54.94 277.23 C55.62 277.73 56.3 278.23 57 278.75 C57.64 279.24 58.28 279.73 58.94 280.23 C59.96 281.11 59.96 281.11 61 282 C61.86 282.73 62.71 283.45 63.6 284.2 C64.02 284.63 64.44 285.06 64.87 285.5 C65.24 285.99 65.62 286.49 66 287 C66.27 287.61 66.53 288.21 66.8 288.84 C67.01 289.5 67.22 290.16 67.43 290.85 C67.61 291.54 67.78 292.22 67.96 292.93 C68.12 293.63 68.27 294.34 68.44 295.06 C68.62 295.77 68.81 296.48 69 297.21 C69.16 297.89 69.33 298.58 69.5 299.29 C69.61 299.94 69.73 300.59 69.85 301.26 C69.9 301.84 69.95 302.41 70 303 C69.82 303.76 69.64 304.52 69.46 305.31 C68.98 305.87 68.5 306.42 68 307 C67.14 307.52 66.28 308.03 65.39 308.56 C64.35 309.04 63.32 309.51 62.25 310 C61.7 310.26 61.15 310.51 60.59 310.77 C60.04 311.03 59.5 311.29 58.95 311.55 C57.97 312.03 57 312.51 56 313 C55.19 313.58 55.19 313.58 54.37 314.17 C53.96 314.5 53.55 314.84 53.12 315.19 C52.66 315.49 52.19 315.79 51.7 316.1 C50.86 316.55 50.86 316.55 50 317 C49.44 317.17 48.89 317.34 48.31 317.52 C47.43 317.71 47.43 317.71 46.53 317.91 C45.57 318.12 45.57 318.12 44.6 318.34 C43.95 318.48 43.3 318.61 42.62 318.75 C41.98 318.88 41.34 319.01 40.67 319.14 C40.07 319.25 39.47 319.37 38.85 319.48 C37.91 319.65 36.97 319.82 36 320 C35.71 321.32 35.71 321.32 35.41 322.67 C35.22 323.51 35.22 323.51 35.03 324.38 C34.9 324.97 34.76 325.57 34.62 326.19 C34.5 326.77 34.37 327.34 34.24 327.94 C34.11 328.51 33.98 329.08 33.85 329.67 C33.57 330.77 33.29 331.87 33 333 C32.64 333.97 32.27 334.93 31.9 335.93 C31.6 336.61 31.31 337.29 31 338 C30.2 337.55 29.39 337.09 28.56 336.62 C28.02 336.35 27.48 336.08 26.92 335.8 C26.29 335.54 25.65 335.27 25 335 C24.24 334.79 23.48 334.57 22.7 334.36 C21.91 334.18 21.13 334 20.31 333.81 C19.57 333.65 18.82 333.5 18.05 333.33 C17.04 333.17 17.04 333.17 16 333 C15.01 333 14.02 333 13 333 C12.67 333.66 12.34 334.32 12 335 C11.67 333.35 11.34 331.7 11 330 C10.34 330 9.68 330 9 330 C8.67 329.34 8.34 328.68 8 328 C7.34 328.33 6.68 328.66 6 329 C5.92 328.24 5.83 327.48 5.75 326.7 C5.64 325.71 5.54 324.71 5.44 323.69 C5.33 322.7 5.23 321.72 5.12 320.7 C5.06 319.36 5.06 319.36 5 318 C5.33 317.01 5.66 316.02 6 315 C5.34 314.67 4.68 314.34 4 314 C4 314.66 4 315.32 4 316 C3.42 315.9 2.84 315.79 2.25 315.69 C1.14 315.35 1.14 315.35 0 315 C-0.6 314.46 -1.2 313.93 -1.81 313.38 C-2.53 312.92 -3.26 312.47 -4 312 C-4.9 312.01 -4.9 312.01 -5.81 312.03 C-6.77 312.17 -6.77 312.17 -7.75 312.31 C-8.82 312.54 -9.9 312.77 -11 313 C-11 314.65 -11 316.3 -11 318 C-11.99 318 -12.98 318 -14 318 C-13.67 318.66 -13.34 319.32 -13 320 C-11.96 320.28 -10.91 320.56 -9.84 320.85 C-8.9 321.04 -8.9 321.04 -7.94 321.24 C-7.28 321.37 -6.62 321.49 -5.94 321.62 C-5.27 321.76 -4.61 321.89 -3.93 322.03 C-3.3 322.16 -2.67 322.28 -2.03 322.41 C-1.03 322.61 -0.03 322.8 1 323 C1.19 323.91 1.37 324.81 1.56 325.75 C1.71 326.82 1.85 327.89 2 329 C1.86 329.78 1.71 330.57 1.56 331.38 C1.28 332.18 1.28 332.18 1 333 C0.36 333.05 -0.28 333.1 -0.93 333.15 C-1.76 333.22 -2.59 333.3 -3.44 333.38 C-4.26 333.44 -5.08 333.51 -5.93 333.59 C-6.62 333.72 -7.3 333.86 -8 334 C-8.33 334.66 -8.66 335.32 -9 336 C-9.74 335.86 -10.49 335.71 -11.25 335.56 C-12.16 335.38 -13.06 335.19 -14 335 C-14.66 334.75 -15.32 334.5 -16 334.25 C-16.66 334.17 -17.32 334.08 -18 334 C-18.85 334.47 -19.69 334.95 -20.56 335.44 C-21.77 336.21 -21.77 336.21 -23 337 C-23.99 337 -24.98 337 -26 337 C-25.96 337.58 -25.92 338.15 -25.88 338.75 C-25.92 339.49 -25.96 340.24 -26 341 C-26.33 341.74 -26.66 342.49 -27 343.25 C-27.5 344.12 -27.5 344.12 -28 345 C-28.5 344.2 -28.5 344.2 -29 343.38 C-29.33 342.59 -29.66 341.81 -30 341 C-30.12 339.48 -30.12 339.48 -30.25 337.94 C-30.17 336.97 -30.09 336 -30 335 C-29.71 334.38 -29.42 333.76 -29.12 333.12 C-28.75 332.75 -28.38 332.38 -28 332 C-27.34 332 -26.68 332 -26 332 C-26 332.66 -26 333.32 -26 334 C-25.34 333.67 -24.68 333.34 -24 333 C-23.79 332.32 -23.59 331.64 -23.38 330.94 C-23.25 330.3 -23.13 329.66 -23 329 C-23.93 328.69 -23.93 328.69 -24.88 328.38 C-25.58 328.25 -26.28 328.13 -27 328 C-27.66 328.66 -28.32 329.32 -29 330 C-29.99 330 -30.98 330 -32 330 C-31.67 327.69 -31.34 325.38 -31 323 C-31.66 323.33 -32.32 323.66 -33 324 C-32.94 324.95 -32.88 325.9 -32.81 326.88 C-32.91 328.42 -32.91 328.42 -33 330 C-33.42 330.41 -33.85 330.82 -34.28 331.25 C-34.85 331.5 -35.42 331.75 -36 332 C-36.6 331.92 -37.2 331.84 -37.82 331.76 C-38.44 331.55 -39.05 331.34 -39.69 331.12 C-40.78 330.75 -41.87 330.38 -43 330 C-43 329.34 -43 328.68 -43 328 C-42.34 328 -41.68 328 -41 328 C-40.67 327.34 -40.34 326.68 -40 326 C-39.34 326.33 -38.68 326.66 -38 327 C-38 326.01 -38 325.02 -38 324 C-38.93 324.02 -39.86 324.04 -40.81 324.06 C-42.39 324.03 -42.39 324.03 -44 324 C-44.99 323.67 -45.98 323.34 -47 323 C-47.99 323.33 -48.98 323.66 -50 324 C-50.31 323.24 -50.62 322.47 -50.94 321.69 C-51.29 320.8 -51.64 319.91 -52 319 C-52.5 317.51 -52.5 317.51 -53 316 C-52.86 315.11 -52.71 314.23 -52.56 313.31 C-52.38 312.55 -52.19 311.79 -52 311 C-52.58 311.35 -53.16 311.7 -53.75 312.06 C-54.86 312.53 -54.86 312.53 -56 313 C-57.32 312.67 -58.64 312.34 -60 312 C-60 308.7 -60 305.4 -60 302 C-59.34 302 -58.68 302 -58 302 C-58 301.01 -58 300.02 -58 299 C-58.66 299 -59.32 299 -60 299 C-59.9 298.43 -59.79 297.86 -59.68 297.27 C-59.35 296.15 -59.35 296.15 -59 295 C-58.58 294.29 -58.16 293.58 -57.72 292.85 C-57.17 292.12 -56.63 291.38 -56.06 290.62 C-55.44 289.85 -54.82 289.07 -54.19 288.26 C-53.47 287.52 -52.74 286.77 -52 286 C-50.67 285.05 -50.67 285.05 -49.31 284.08 C-48.41 283.54 -47.5 283 -46.56 282.44 C-45.7 281.96 -44.83 281.49 -43.94 281 C-43.3 280.67 -42.66 280.34 -42 280 C-42.13 279.44 -42.26 278.87 -42.4 278.29 C-42.57 277.49 -42.75 276.68 -42.93 275.86 C-43.11 274.94 -43.3 274.02 -43.48 273.08 C-43.65 272.06 -43.82 271.05 -44 270 C-44.12 268.94 -44.23 267.88 -44.35 266.79 C-44.45 265.68 -44.54 264.57 -44.63 263.43 C-44.68 262.85 -44.72 262.28 -44.76 261.69 C-44.8 261.11 -44.85 260.53 -44.89 259.93 C-44.95 259.04 -44.95 259.04 -45.01 258.13 C-45.05 257.53 -45.08 256.93 -45.12 256.31 C-45.17 255.7 -45.21 255.08 -45.25 254.44 C-45.29 253.82 -45.33 253.2 -45.38 252.56 C-45.42 251.94 -45.46 251.33 -45.5 250.69 C-45.54 250.08 -45.58 249.47 -45.62 248.84 C-45.67 247.94 -45.67 247.94 -45.73 247.02 C-45.76 246.44 -45.79 245.86 -45.83 245.26 C-45.88 244.18 -45.94 243.11 -46 242 C-46.06 240.71 -46.06 240.71 -46.12 239.39 C-46.14 238.65 -46.17 237.92 -46.2 237.16 C-46.21 236.49 -46.22 235.83 -46.24 235.14 C-46.24 234.54 -46.25 233.93 -46.25 233.31 C-46.23 232.2 -46.21 231.08 -46.19 229.93 C-46.13 228.97 -46.07 228 -46 227 C-45.89 226.1 -45.77 225.21 -45.65 224.29 C-45.5 223.49 -45.35 222.69 -45.19 221.88 C-45.04 221.23 -44.89 220.59 -44.73 219.93 C-44.49 219.29 -44.25 218.66 -44 218 C-43.49 217.21 -42.97 216.42 -42.45 215.61 C-41.97 214.75 -41.49 213.89 -41 213 C-40.88 212.09 -40.76 211.18 -40.64 210.24 C-40.65 209.27 -40.67 208.31 -40.69 207.31 C-40.72 206.26 -40.75 205.21 -40.78 204.12 C-40.85 203.09 -40.92 202.06 -41 201 C-41.1 200.11 -41.21 199.23 -41.32 198.31 C-41.46 197.49 -41.6 196.66 -41.75 195.81 C-41.93 195 -42.12 194.18 -42.3 193.34 C-42.53 192.57 -42.76 191.79 -43 191 C-43.29 190.33 -43.58 189.66 -43.88 188.98 C-44.21 188.3 -44.54 187.63 -44.88 186.94 C-45.22 186.22 -45.57 185.5 -45.92 184.76 C-46.28 183.85 -46.63 182.94 -47 182 C-47.18 181.35 -47.36 180.7 -47.54 180.03 C-47.72 179.3 -47.9 178.58 -48.08 177.83 C-48.25 177.08 -48.43 176.33 -48.61 175.55 C-48.78 174.79 -48.95 174.03 -49.12 173.25 C-49.36 172.15 -49.36 172.15 -49.6 171.03 C-49.76 170.32 -49.91 169.62 -50.07 168.89 C-50.22 168.21 -50.37 167.54 -50.53 166.84 C-50.68 166.23 -50.84 165.62 -51 165 C-51.35 164.13 -51.69 163.27 -52.05 162.38 C-52.36 161.59 -52.68 160.81 -53 160 C-53.3 158.48 -53.3 158.48 -53.6 156.92 C-53.75 155.88 -53.9 154.83 -54.06 153.75 C-54.22 152.69 -54.37 151.64 -54.54 150.55 C-54.69 149.71 -54.84 148.87 -55 148 C-55.33 147.67 -55.66 147.34 -56 147 C-56.1 146.2 -56.21 145.41 -56.32 144.59 C-56.44 143 -56.44 143 -56.56 141.38 C-56.6 140.81 -56.65 140.24 -56.69 139.65 C-56.73 139.05 -56.77 138.46 -56.81 137.84 C-56.84 137.22 -56.88 136.6 -56.91 135.96 C-56.96 134.99 -56.96 134.99 -57 134 C-57.02 133.33 -57.04 132.66 -57.06 131.96 C-57.07 131.29 -57.08 130.61 -57.1 129.91 C-57.1 129.23 -57.11 128.56 -57.12 127.87 C-57.12 126.88 -57.12 126.88 -57.12 125.88 C-57.13 125.24 -57.13 124.6 -57.14 123.94 C-57.14 123.34 -57.13 122.74 -57.13 122.12 C-57.07 120.57 -57.07 120.57 -57 119 C-56.67 118.01 -56.34 117.02 -56 116 C-55.34 116 -54.68 116 -54 116 C-54.12 115.25 -54.24 114.5 -54.37 113.73 C-54.53 112.68 -54.7 111.63 -54.88 110.54 C-55.01 109.69 -55.01 109.69 -55.15 108.82 C-55.24 108.22 -55.33 107.62 -55.42 107.01 C-55.52 106.39 -55.61 105.76 -55.71 105.12 C-55.81 104.48 -55.9 103.84 -56 103.19 C-56.14 102.23 -56.14 102.23 -56.28 101.25 C-56.38 100.61 -56.47 99.96 -56.56 99.3 C-56.65 98.66 -56.74 98.02 -56.83 97.35 C-56.96 96.39 -56.96 96.39 -57.1 95.41 C-57.18 94.77 -57.27 94.12 -57.35 93.46 C-57.47 92.51 -57.47 92.51 -57.59 91.55 C-57.67 90.94 -57.74 90.34 -57.81 89.71 C-57.87 89.15 -57.94 88.58 -58 88 C-58.08 87.06 -58.16 86.13 -58.24 85.16 C-58.28 84.35 -58.33 83.53 -58.37 82.68 C-58.4 81.53 -58.4 81.53 -58.44 80.35 C-58.44 79.62 -58.44 78.88 -58.44 78.12 C-58.43 77.39 -58.41 76.65 -58.4 75.89 C-58.37 75.14 -58.35 74.4 -58.32 73.64 C-58.27 72.89 -58.23 72.14 -58.18 71.38 C-58.12 70.59 -58.06 69.81 -58 69 C-57.93 68.13 -57.86 67.25 -57.78 66.35 C-57.7 65.44 -57.61 64.52 -57.53 63.58 C-57.43 62.65 -57.33 61.72 -57.22 60.77 C-57.11 59.83 -56.99 58.9 -56.88 57.94 C-56.75 57.02 -56.62 56.1 -56.49 55.15 C-56.35 54.25 -56.2 53.34 -56.05 52.4 C-55.89 51.5 -55.73 50.61 -55.57 49.68 C-55.38 48.8 -55.19 47.91 -55 47 C-54.77 46.13 -54.55 45.27 -54.32 44.37 C-54.07 43.53 -53.82 42.69 -53.57 41.82 C-53.31 41 -53.06 40.19 -52.79 39.35 C-52.4 38.19 -52.4 38.19 -52 37 C-51.75 36.28 -51.5 35.55 -51.25 34.81 C-51 34.13 -50.75 33.45 -50.5 32.75 C-50.25 32.11 -50 31.47 -49.74 30.81 C-49.38 29.91 -49.38 29.91 -49 29 C-48.3 27.42 -48.3 27.42 -47.59 25.82 C-47.06 24.89 -46.54 23.96 -46 23 C-45.31 22.14 -44.62 21.29 -43.91 20.4 C-43.16 19.59 -42.4 18.78 -41.62 17.94 C-41.22 17.5 -40.82 17.07 -40.41 16.62 C-40.01 16.2 -39.61 15.77 -39.2 15.33 C-38.11 14.18 -38.11 14.18 -37 13 C-36.28 12.22 -36.28 12.22 -35.55 11.42 C-35.16 11.01 -34.77 10.61 -34.38 10.19 C-33.2 9.1 -33.2 9.1 -32 8 C-31.2 7.34 -31.2 7.34 -30.39 6.66 C-29.81 6.22 -29.23 5.77 -28.62 5.31 C-28.1 4.92 -27.58 4.52 -27.04 4.11 C-26.37 3.75 -25.69 3.38 -25 3 C-23.95 2.64 -22.91 2.27 -21.83 1.89 C-21.22 1.73 -20.62 1.57 -19.99 1.4 C-19.33 1.27 -18.68 1.14 -18 1 C-17.3 0.92 -16.6 0.84 -15.88 0.75 C-15.15 0.7 -14.41 0.64 -13.66 0.59 C-12.91 0.55 -12.15 0.51 -11.38 0.47 C-10.23 0.42 -10.23 0.42 -9.06 0.38 C-8.3 0.34 -7.54 0.3 -6.76 0.26 C-6.01 0.22 -5.25 0.19 -4.47 0.15 C-3.73 0.12 -2.98 0.09 -2.21 0.07 C-1.48 0.04 -0.75 0.02 0 0 Z M15 68 C14.28 68.54 13.56 69.07 12.81 69.62 C12.21 70.41 11.62 71.19 11 72 C11.06 73.05 11.12 74.1 11.19 75.19 C11.46 76.12 11.72 77.04 12 78 C12.33 78.33 12.66 78.66 13 79 C13.78 79.08 14.57 79.16 15.38 79.25 C16.67 79.13 16.67 79.13 18 79 C18.62 78.61 19.24 78.22 19.88 77.81 C20.25 77.21 20.62 76.62 21 76 C20.96 75.18 20.92 74.35 20.88 73.5 C20.59 72.68 20.3 71.85 20 71 C19.53 70.4 19.05 69.8 18.56 69.19 C18.05 68.8 17.53 68.4 17 68 C16.34 68 15.68 68 15 68 Z M-2 109 C-2.01 109.68 -2.02 110.36 -2.04 111.05 C-2.04 111.99 -2.05 112.92 -2.06 113.88 C-2.06 114.87 -2.06 115.87 -2.05 116.9 C-2.04 117.92 -2.02 118.95 -2 120 C-1.96 120.94 -1.92 121.88 -1.88 122.85 C-1.82 123.73 -1.75 124.6 -1.69 125.5 C-1.63 126.29 -1.57 127.09 -1.51 127.91 C-1.34 128.6 -1.17 129.29 -1 130 C-0.57 130.58 -0.13 131.17 0.31 131.77 C0.87 132.18 1.43 132.58 2 133 C2.6 133.1 3.2 133.19 3.82 133.29 C4.75 133.24 4.75 133.24 5.69 133.19 C6.78 133.13 7.87 133.06 9 133 C8.67 132.01 8.34 131.02 8 130 C7.34 130 6.68 130 6 130 C6 129.34 6 128.68 6 128 C5.01 128 4.02 128 3 128 C2.94 126.96 2.88 125.93 2.82 124.86 C2.78 124.2 2.74 123.54 2.69 122.86 C2.65 122.17 2.61 121.47 2.56 120.75 C2.52 120.07 2.48 119.39 2.44 118.68 C2.4 118.02 2.36 117.36 2.32 116.67 C2.27 116.03 2.22 115.39 2.18 114.74 C2.09 113.88 2.09 113.88 2 113 C1.82 112.18 1.65 111.36 1.46 110.52 C1.23 109.77 1.23 109.77 1 109 C0.01 109 -0.98 109 -2 109 Z M31 121 C30.44 121.19 29.87 121.39 29.29 121.59 C28.25 121.98 28.25 121.98 27.19 122.38 C26.47 122.65 25.75 122.93 25.01 123.21 C24.35 123.47 23.68 123.73 23 124 C22.2 124.33 21.39 124.66 20.56 125 C20.05 125.33 19.53 125.66 19 126 C18.67 126.99 18.34 127.98 18 129 C18.52 129.52 19.04 130.03 19.57 130.57 C20.62 131.55 20.62 131.55 21.69 132.56 C22.37 133.22 23.06 133.89 23.76 134.57 C24.5 135.04 25.24 135.51 26 136 C26.87 135.96 27.73 135.93 28.62 135.89 C29.41 135.59 30.19 135.3 31 135 C31.45 134.59 31.9 134.19 32.36 133.77 C32.68 133.27 32.99 132.77 33.31 132.25 C33.63 131.72 33.95 131.18 34.29 130.63 C34.52 130.09 34.76 129.56 35 129 C35.08 128.05 35.16 127.1 35.25 126.12 C35.13 125.07 35.13 125.07 35 124 C34.34 124 33.68 124 33 124 C32.67 123.01 32.34 122.02 32 121 C31.67 121 31.34 121 31 121 Z M3 165 C2.67 165.99 2.34 166.98 2 168 C3.98 168 5.96 168 8 168 C7.67 167.01 7.34 166.02 7 165 C5.68 165 4.36 165 3 165 Z M-56 305 C-56 306.65 -56 308.3 -56 310 C-55.67 310 -55.34 310 -55 310 C-55 308.35 -55 306.7 -55 305 C-55.33 305 -55.66 305 -56 305 Z M8 307 C7.67 307.33 7.34 307.66 7 308 C6.98 308.85 6.96 309.69 6.94 310.56 C6.96 311.37 6.98 312.17 7 313 C7.66 312.57 8.32 312.13 9 311.69 C9.99 310.85 9.99 310.85 11 310 C11 309.01 11 308.02 11 307 C10.01 307 9.02 307 8 307 Z M-9 309 C-8 311 -8 311 -8 311 Z M7 316 C8 319 8 319 8 319 Z M-28 323 C-28 323.99 -28 324.98 -28 326 C-27.01 326.33 -26.02 326.66 -25 327 C-25.33 325.68 -25.66 324.36 -26 323 C-26.66 323 -27.32 323 -28 323 Z M-21 328 C-20.88 328.64 -20.75 329.28 -20.62 329.94 C-20.42 330.62 -20.21 331.3 -20 332 C-19.34 332.33 -18.68 332.66 -18 333 C-18 331.35 -18 329.7 -18 328 C-18.99 328 -19.98 328 -21 328 Z M-14 328 C-14.33 328.66 -14.66 329.32 -15 330 C-14.34 330 -13.68 330 -13 330 C-13.33 329.34 -13.66 328.68 -14 328 Z M-15 331 C-15 331.66 -15 332.32 -15 333 C-14.01 333 -13.02 333 -12 333 C-12 332.34 -12 331.68 -12 331 C-12.99 331 -13.98 331 -15 331 Z " transform ="translate(223,86)" fill="#000000" />
  <path d="M0 0 C0.99 0 1.98 0 3 0 C2.57 1.21 2.57 1.21 2.12 2.44 C1.75 3.28 1.38 4.13 1 5 C0.01 5.5 0.01 5.5 -1 6 C-1.33 4.68 -1.66 3.36 -2 2 C-1.34 2 -0.68 2 0 2 C0 1.34 0 0.68 0 0 Z " transform ="translate(360,471)" fill="#000000" />
  <path d="M0 0 C0.33 0.99 0.66 1.98 1 3 C0.01 3.33 -0.98 3.66 -2 4 C-2 3.01 -2 2.02 -2 1 C-1.34 0.67 -0.68 0.34 0 0 Z " transform ="translate(370,476)" fill="#000000" />
  <path d="M0 0 C2.97 0.5 2.97 0.5 6 1 C6.99 4.63 7.98 8.26 9 12 C10.32 10.35 11.64 8.7 13 7 C13.02 7.8 13.04 8.61 13.06 9.44 C13.04 10.28 13.02 11.13 13 12 C12.67 12.33 12.34 12.66 12 13 C11.93 13.55 11.86 14.1 11.79 14.67 C11.74 15.73 11.74 15.73 11.68 16.82 C11.64 17.58 11.6 18.34 11.56 19.13 C11.5 20.33 11.5 20.33 11.44 21.56 C11.39 22.37 11.35 23.18 11.31 24.01 C11.25 25.15 11.25 25.15 11.18 26.32 C11.15 27.02 11.11 27.73 11.08 28.46 C11.05 28.97 11.03 29.47 11 30 C12.32 28.68 13.64 27.36 15 26 C16.32 26.66 17.64 27.32 19 28 C17.02 31.46 17.02 31.46 15 35 C15.99 35 16.98 35 18 35 C18 36.98 18 38.96 18 41 C16.68 40.67 15.36 40.34 14 40 C14 40.66 14 41.32 14 42 C9.71 42 5.42 42 1 42 C1 41.01 1 40.02 1 39 C0.34 39 -0.32 39 -1 39 C-1 38.46 -1 37.91 -1 37.36 C-1 36.64 -1 35.92 -1 35.19 C-1 34.48 -1 33.77 -1 33.04 C-1 32.37 -1 31.69 -1 31 C-1 30.01 -1 29.02 -1 28 C-1.01 27.15 -1.01 26.29 -1.02 25.41 C-1.02 24.4 -1.03 23.39 -1.04 22.34 C-1.04 21.24 -1.04 20.13 -1.05 19 C-1.05 17.84 -1.06 16.69 -1.06 15.5 C-1.07 14.35 -1.08 13.19 -1.09 12 C-1.09 10.9 -1.09 9.79 -1.1 8.66 C-1.1 7.64 -1.11 6.63 -1.11 5.59 C-1.08 4.73 -1.04 3.88 -1 3 C-0.67 2.01 -0.34 1.02 0 0 Z M8 33 C7.26 34.14 7.26 34.14 6.5 35.31 C6 36.2 5.51 37.09 5 38 C5 38.99 5 39.98 5 41 C5.66 41 6.32 41 7 41 C7.53 40.13 7.53 40.13 8.06 39.25 C8.53 38.14 8.53 38.14 9 37 C8.88 36.26 8.75 35.51 8.62 34.75 C8.42 34.17 8.21 33.6 8 33 Z " transform ="translate(338,438)" fill="#000000" />
  <path d="M0 0 C0.66 0 1.32 0 2 0 C1.98 0.93 1.96 1.86 1.94 2.81 C1.96 3.86 1.98 4.92 2 6 C2.33 6.99 2.66 7.98 3 9 C0.69 9 -1.62 9 -4 9 C-4.33 8.01 -4.66 7.02 -5 6 C-4.69 5.47 -4.39 4.94 -4.07 4.39 C-3.62 3.87 -3.16 3.35 -2.69 2.81 C-2.24 2.28 -1.79 1.75 -1.32 1.21 C-0.89 0.81 -0.45 0.41 0 0 Z " transform ="translate(332,455)" fill="#000000" />
  <path d="M0 0 C0.66 0 1.32 0 2 0 C1.34 1.32 0.68 2.64 0 4 C-0.33 3.34 -0.66 2.68 -1 2 C-0.67 1.34 -0.34 0.68 0 0 Z " transform ="translate(351,456)" fill="#000000" />
  <path d="M0 0 C0.47 0.56 0.95 1.11 1.44 1.69 C1.95 2.45 2.47 3.21 3 4 C3.23 4.91 3.45 5.81 3.69 6.75 C3.79 7.49 3.89 8.24 4 9 C3.01 9 2.02 9 1 9 C0.67 6.03 0.34 3.06 0 0 Z " transform ="translate(82,466)" fill="#000000" />
  <path d="M0 0 C0.99 0.5 0.99 0.5 2 1 C1.67 2.65 1.34 4.3 1 6 C0.67 6 0.34 6 0 6 C0 4.02 0 2.04 0 0 Z " transform ="translate(80,459)" fill="#000000" />
  <path d="M0 0 C0.66 0 1.32 0 2 0 C2 0.99 2 1.98 2 3 C0.68 2.67 -0.64 2.34 -2 2 C-1.34 1.34 -0.68 0.68 0 0 Z " transform ="translate(89,474)" fill="#000000" />
  <path d="M0 0 C1.32 0.33 2.64 0.66 4 1 C4 1.66 4 2.32 4 3 C2.68 3 1.36 3 0 3 C0 2.01 0 1.02 0 0 Z " transform ="translate(91,466)" fill="#000000" />
  <path d="M0 0 C0.66 0 1.32 0 2 0 C1.67 0.99 1.34 1.98 1 3 C0.67 2.01 0.34 1.02 0 0 Z " transform ="translate(93,438)" fill="#000000" />
  <path d="M0 0 C2 1 2 1 2 1 Z " transform ="translate(98,439)" fill="#000000" />
  <path d="M0 0 C0.74 0.68 0.74 0.68 1.5 1.38 C2 1.91 2.49 2.45 3 3 C3 3.66 3 4.32 3 5 C1.68 4.67 0.36 4.34 -1 4 C-0.67 2.68 -0.34 1.36 0 0 Z " transform ="translate(94,456)" fill="#000000" />
  <path d="M0 0 C0.66 0.66 1.32 1.32 2 2 C1.01 3.49 1.01 3.49 0 5 C-0.33 4.01 -0.66 3.02 -1 2 C-0.67 1.34 -0.34 0.68 0 0 Z " transform ="translate(96,448)" fill="#000000" />
  <path d="M0 0 C0.32 0.43 0.63 0.87 0.96 1.31 C1.3 1.87 1.65 2.43 2 3 C2.34 4.49 2.34 4.49 2.69 6 C2.84 7.49 2.84 7.49 3 9 C2.67 9.99 2.34 10.98 2 12 C2.15 12.73 2.31 13.46 2.46 14.22 C2.64 15.14 2.82 16.05 3 17 C3 17.57 3 18.14 2.99 18.73 C2.96 19.34 2.92 19.96 2.88 20.59 C2.83 21.23 2.78 21.87 2.73 22.53 C2.68 23.18 2.62 23.83 2.56 24.5 C2.51 25.15 2.46 25.8 2.4 26.47 C2.35 27.11 2.31 27.75 2.25 28.41 C2.21 29.02 2.16 29.63 2.11 30.26 C2.07 30.84 2.04 31.41 2 32 C1.99 32.98 1.98 33.96 1.96 34.97 C1.98 35.64 1.99 36.31 2 37 C2.66 36.61 3.32 36.22 4 35.81 C4.66 35.21 5.32 34.62 6 34 C6.08 33.11 6.16 32.23 6.25 31.31 C6.17 30.55 6.09 29.79 6 29 C7.98 28.67 9.96 28.34 12 28 C12.5 26.51 12.5 26.51 13 25 C14.65 25 16.3 25 18 25 C18.12 24.24 18.25 23.47 18.38 22.69 C18.58 21.8 18.79 20.91 19 20 C19.53 19.1 19.53 19.1 20.06 18.19 C20.37 17.8 20.68 17.4 21 17 C21.5 18.49 21.5 18.49 22 20 C21.86 20.89 21.71 21.77 21.56 22.69 C21.38 23.45 21.19 24.21 21 25 C21.66 25.33 22.32 25.66 23 26 C23.5 27.49 23.5 27.49 24 29 C21.69 29.66 19.38 30.32 17 31 C16.34 34.3 15.68 37.6 15 41 C14.01 40.34 13.02 39.68 12 39 C11.69 39.91 11.38 40.81 11.06 41.75 C10.71 42.82 10.36 43.89 10 45 C9.79 45.78 9.59 46.57 9.38 47.38 C9.19 48.18 9.19 48.18 9 49 C8.34 49 7.68 49 7 49 C6.5 47.02 6.5 47.02 6 45 C5.67 46.32 5.34 47.64 5 49 C2.69 49.66 0.38 50.32 -2 51 C-1.34 51.66 -0.68 52.32 0 53 C-0.25 53.58 -0.5 54.15 -0.75 54.75 C-1.16 55.49 -1.57 56.24 -2 57 C-2.7 57.74 -3.4 58.49 -4.12 59.25 C-4.74 59.83 -5.36 60.4 -6 61 C-7.49 60.5 -7.49 60.5 -9 60 C-9 60.99 -9 61.98 -9 63 C-10.32 62.67 -11.64 62.34 -13 62 C-13.21 61.42 -13.41 60.85 -13.62 60.25 C-13.75 59.51 -13.87 58.76 -14 58 C-13.79 57.28 -13.59 56.56 -13.38 55.81 C-12.92 55.21 -12.47 54.62 -12 54 C-11.13 53.75 -10.27 53.5 -9.38 53.25 C-8.59 53.17 -7.81 53.08 -7 53 C-7 52.01 -7 51.02 -7 50 C-10.3 50 -13.6 50 -17 50 C-16.75 51.4 -16.5 52.81 -16.25 54.25 C-16.11 55.04 -15.97 55.83 -15.83 56.64 C-15.88 57.42 -15.94 58.2 -16 59 C-16.53 59.75 -17.05 60.51 -17.59 61.28 C-18.39 61.85 -19.18 62.42 -20 63 C-21 63.13 -21.99 63.26 -23.02 63.39 C-24.08 63.34 -25.15 63.3 -26.25 63.25 C-27.33 63.21 -28.41 63.18 -29.52 63.14 C-30.34 63.09 -31.16 63.05 -32 63 C-31.67 62.01 -31.34 61.02 -31 60 C-30.18 59.73 -29.35 59.46 -28.5 59.19 C-27.26 58.6 -27.26 58.6 -26 58 C-25.81 57.01 -25.63 56.02 -25.44 55 C-25.29 54.01 -25.15 53.02 -25 52 C-24.38 51.59 -23.76 51.18 -23.12 50.75 C-22.42 50.5 -21.72 50.25 -21 50 C-20.57 49.66 -20.14 49.31 -19.69 48.96 C-19.13 48.64 -18.58 48.33 -18 48 C-17.18 47.94 -16.36 47.87 -15.52 47.8 C-14.18 47.84 -14.18 47.84 -12.81 47.88 C-11.91 47.89 -11.01 47.91 -10.08 47.93 C-9.39 47.95 -8.71 47.98 -8 48 C-7.78 47.52 -7.57 47.04 -7.34 46.54 C-7.07 45.91 -6.79 45.28 -6.5 44.62 C-6.08 43.69 -6.08 43.69 -5.66 42.73 C-5.44 42.16 -5.22 41.59 -5 41 C-5 40.34 -5 39.68 -5 39 C-4.34 39 -3.68 39 -3 39 C-3 40.65 -3 42.3 -3 44 C-2.34 44 -1.68 44 -1 44 C-1.01 42.85 -1.01 42.85 -1.02 41.68 C-1.02 40.61 -1.03 39.54 -1.04 38.44 C-1.04 37.57 -1.04 37.57 -1.04 36.68 C-1.05 35.78 -1.05 35.78 -1.05 34.85 C-1.05 34.22 -1.05 33.59 -1.06 32.94 C-1.06 32.3 -1.06 31.66 -1.06 31 C-1.06 30.36 -1.07 29.73 -1.07 29.07 C-1.07 28.43 -1.07 27.8 -1.07 27.14 C-1.07 26.5 -1.07 25.87 -1.07 25.21 C-1.07 24.26 -1.07 24.26 -1.07 23.3 C-1.06 22.66 -1.06 22.03 -1.06 21.38 C-1.06 20.76 -1.05 20.14 -1.05 19.51 C-1.04 18.91 -1.03 18.31 -1.03 17.7 C-1.02 17.14 -1.01 16.58 -1 16 C-0.95 14.57 -0.95 14.57 -0.9 13.1 C-0.84 11.85 -0.84 11.85 -0.78 10.58 C-0.73 9.83 -0.69 9.08 -0.64 8.31 C-0.6 7.63 -0.55 6.95 -0.5 6.25 C-0.45 5.6 -0.4 4.94 -0.36 4.27 C-0.31 3.69 -0.27 3.11 -0.22 2.52 C-0.15 1.69 -0.07 0.86 0 0 Z M10 31 C10.66 31.66 11.32 32.32 12 33 C12 32.34 12 31.68 12 31 C11.34 31 10.68 31 10 31 Z " transform ="translate(167,417)" fill="#000000" />
  <path d="M0 0 C0.33 0.66 0.66 1.32 1 2 C0.34 1.67 -0.32 1.34 -1 1 C-0.67 0.67 -0.34 0.34 0 0 Z " transform ="translate(166,411)" fill="#000000" />
  <path d="M0 0 C2 1 2 1 2 1 Z " transform ="translate(160,413)" fill="#000000" />
  <path d="M0 0 C0.99 0.33 1.98 0.66 3 1 C2.01 1.33 1.02 1.66 0 2 C0 1.34 0 0.68 0 0 Z " transform ="translate(164,404)" fill="#000000" />
  <path d="M0 0 C0.33 0 0.66 0 1 0 C1.03 0.69 1.06 1.39 1.09 2.1 C1.13 3.08 1.18 4.05 1.22 5.05 C1.29 6.66 1.29 6.66 1.36 8.3 C1.4 9.44 1.45 10.58 1.5 11.75 C1.55 12.84 1.6 13.93 1.64 15.06 C1.71 16.69 1.71 16.69 1.78 18.36 C1.82 19.45 1.86 20.55 1.9 21.67 C1.93 22.77 1.97 23.87 2 25 C2.03 26.13 2.07 27.27 2.1 28.44 C2.12 29.51 2.14 30.59 2.16 31.7 C2.17 32.67 2.19 33.65 2.21 34.65 C2.14 35.42 2.07 36.2 2 37 C1.34 37.66 0.68 38.32 0 39 C-0.16 38.13 -0.32 37.27 -0.49 36.38 C-0.66 35.26 -0.83 34.15 -1 33 C-1.04 32.02 -1.09 31.05 -1.13 30.04 C-1.13 29.03 -1.13 28.02 -1.13 26.97 C-1.13 25.85 -1.14 24.73 -1.14 23.57 C-1.13 23 -1.13 22.42 -1.13 21.82 C-1.13 21.24 -1.13 20.66 -1.12 20.06 C-1.13 18.91 -1.13 17.75 -1.14 16.56 C-1.13 14.88 -1.13 14.88 -1.13 13.16 C-1.12 12.09 -1.11 11.02 -1.1 9.92 C-1.07 8.96 -1.03 7.99 -1 7 C-0.92 6.22 -0.85 5.43 -0.77 4.62 C-0.68 3.98 -0.59 3.34 -0.49 2.68 C-0.33 1.8 -0.17 0.91 0 0 Z " transform ="translate(154,391)" fill="#000000" />
  <path d="M0 0 C2 1 2 1 2 1 Z " transform ="translate(148,386)" fill="#000000" />
  <path d="M0 0 C0.66 0 1.32 0 2 0 C1.67 0.99 1.34 1.98 1 3 C0.67 2.01 0.34 1.02 0 0 Z " transform ="translate(149,399)" fill="#000000" />
  <path d="M0 0 C0.66 0.66 1.32 1.32 2 2 C2 2.99 2 3.98 2 5 C1.01 5 0.02 5 -1 5 C-0.67 3.35 -0.34 1.7 0 0 Z " transform ="translate(187,419)" fill="#000000" />
  <path d="M0 0 C4 1 4 1 4 1 Z " transform ="translate(181,422)" fill="#000000" />
  <path d="M0 0 C1 4 1 4 1 4 Z " transform ="translate(187,427)" fill="#000000" />
  <path d="M0 0 C0.99 1.49 0.99 1.49 2 3 C1.34 3.66 0.68 4.32 0 5 C0 3.35 0 1.7 0 0 Z " transform ="translate(173,422)" fill="#000000" />
  <path d="M0 0 C0.33 1.32 0.66 2.64 1 4 C0.34 3.01 -0.32 2.02 -1 1 C-0.67 0.67 -0.34 0.34 0 0 Z " transform ="translate(194,434)" fill="#000000" />
  <path d="M0 0 C0.66 0.33 1.32 0.66 2 1 C2.01 1.56 2.02 2.12 2.03 2.7 C2.05 3.86 2.05 3.86 2.07 5.05 C2.08 6.32 2.08 6.32 2.1 7.61 C2.11 8.5 2.12 9.39 2.12 10.31 C2.15 11.63 2.15 11.63 2.18 12.98 C2.18 13.83 2.19 14.68 2.2 15.55 C2.21 16.72 2.21 16.72 2.23 17.92 C2.15 18.6 2.08 19.29 2 20 C1.5 20.88 1.5 20.88 0.99 21.78 C0.66 22.18 0.34 22.58 0 23 C-0.04 22.48 -0.07 21.96 -0.11 21.43 C-0.16 20.7 -0.2 19.98 -0.25 19.24 C-0.3 18.45 -0.35 17.66 -0.4 16.85 C-0.46 16.01 -0.51 15.17 -0.56 14.31 C-0.62 13.5 -0.67 12.68 -0.73 11.84 C-0.78 11.04 -0.83 10.25 -0.88 9.43 C-0.92 8.66 -0.95 7.89 -0.99 7.1 C-0.99 6.41 -1 5.71 -1 5 C-0.84 3.98 -0.69 2.97 -0.53 1.92 C-0.35 1.29 -0.18 0.65 0 0 Z " transform ="translate(221,432)" fill="#000000" />
  <path d="M0 0 C0.33 1.32 0.66 2.64 1 4 C0.34 3.67 -0.32 3.34 -1 3 C-0.67 2.01 -0.34 1.02 0 0 Z " transform ="translate(162,439)" fill="#000000" />
  <path d="M0 0 C4 1 4 1 4 1 Z " transform ="translate(161,433)" fill="#000000" />
  <path d="M0 0 C0.33 0.52 0.66 1.03 1 1.56 C1.33 2.37 1.66 3.17 2 4 C2.1 4.85 2.1 4.85 2.2 5.72 C2.22 6.33 2.23 6.94 2.25 7.56 C2.17 8.7 2.09 9.83 2 11 C1.67 11.64 1.34 12.28 1 12.94 C0.67 13.29 0.34 13.64 0 14 C-0.16 13.13 -0.33 12.27 -0.5 11.38 C-0.66 10.26 -0.83 9.15 -1 8 C-1.04 6.93 -1.08 5.86 -1.12 4.75 C-1.08 3.84 -1.04 2.94 -1 2 C-0.67 1.34 -0.34 0.68 0 0 Z " transform ="translate(154,431)" fill="#000000" />
  <path d="M0 0 C0.33 0 0.66 0 1 0 C1 1.65 1 3.3 1 5 C0.34 5 -0.32 5 -1 5 C-0.67 3.35 -0.34 1.7 0 0 Z " transform ="translate(154,446)" fill="#000000" />
  <path d="M0 0 C0.67 -0.04 1.35 -0.09 2.04 -0.13 C3.22 -0.14 3.22 -0.14 4.42 -0.14 C5.78 -0.15 5.78 -0.15 7.16 -0.16 C8.15 -0.16 9.14 -0.16 10.16 -0.16 C11.2 -0.17 12.25 -0.17 13.32 -0.18 C14.42 -0.18 15.52 -0.19 16.65 -0.19 C17.8 -0.19 18.95 -0.19 20.13 -0.2 C20.72 -0.2 21.31 -0.2 21.91 -0.2 C22.51 -0.2 23.1 -0.2 23.71 -0.2 C24.3 -0.2 24.89 -0.21 25.49 -0.21 C26.09 -0.21 26.68 -0.21 27.29 -0.21 C28.18 -0.21 28.18 -0.21 29.09 -0.22 C30 -0.22 30 -0.22 30.92 -0.22 C31.52 -0.22 32.13 -0.22 32.75 -0.22 C33.67 -0.23 33.67 -0.23 34.61 -0.23 C35.53 -0.23 35.53 -0.23 36.48 -0.23 C37.41 -0.23 37.41 -0.23 38.36 -0.23 C38.99 -0.23 39.62 -0.24 40.26 -0.24 C40.9 -0.24 41.53 -0.24 42.18 -0.24 C43.13 -0.24 43.13 -0.24 44.11 -0.24 C44.74 -0.24 45.38 -0.24 46.04 -0.24 C47 -0.24 47 -0.24 47.98 -0.24 C48.94 -0.24 48.94 -0.24 49.92 -0.24 C50.88 -0.24 50.88 -0.24 51.87 -0.25 C52.51 -0.25 53.15 -0.25 53.81 -0.25 C54.45 -0.25 55.1 -0.25 55.76 -0.26 C56.4 -0.26 57.04 -0.26 57.7 -0.26 C58.34 -0.27 58.98 -0.27 59.64 -0.27 C60.27 -0.28 60.91 -0.28 61.57 -0.28 C62.52 -0.29 62.52 -0.29 63.5 -0.29 C64.13 -0.29 64.77 -0.3 65.42 -0.3 C66.05 -0.3 66.68 -0.3 67.33 -0.31 C67.96 -0.31 68.58 -0.31 69.23 -0.31 C69.85 -0.31 70.47 -0.32 71.11 -0.32 C71.73 -0.32 72.35 -0.32 72.98 -0.32 C73.59 -0.32 74.21 -0.32 74.84 -0.32 C75.75 -0.32 75.75 -0.32 76.68 -0.32 C77.28 -0.32 77.88 -0.32 78.5 -0.32 C79.4 -0.32 79.4 -0.32 80.31 -0.32 C80.9 -0.32 81.5 -0.32 82.11 -0.32 C82.99 -0.33 82.99 -0.33 83.89 -0.33 C84.78 -0.33 84.78 -0.33 85.68 -0.34 C86.56 -0.34 86.56 -0.34 87.46 -0.35 C88.6 -0.35 89.75 -0.36 90.93 -0.37 C92.03 -0.36 93.14 -0.36 94.27 -0.36 C95.32 -0.36 96.37 -0.36 97.45 -0.36 C98.44 -0.37 99.42 -0.37 100.43 -0.38 C101.35 -0.38 102.26 -0.37 103.2 -0.37 C104.45 -0.32 104.45 -0.32 105.73 -0.27 C106.86 -0.14 106.86 -0.14 108 0 C108.64 0.21 109.28 0.42 109.94 0.64 C110.75 1.03 110.75 1.03 111.58 1.43 C112.38 1.95 113.18 2.46 114 3 C114.41 3.51 114.82 4.01 115.24 4.54 C115.56 5.29 115.56 5.29 115.88 6.06 C116.25 7.03 116.62 8 117 9 C117 9.66 117 10.32 117 11 C75.75 11 34.5 11 -8 11 C-7.67 9.02 -7.34 7.04 -7 5 C-6.38 4.24 -5.76 3.47 -5.12 2.69 C-4.42 2.13 -3.72 1.57 -3 1 C-2.01 0.67 -1.02 0.34 0 0 Z " transform ="translate(172,495)" fill="#000000" />
  <path d="M0 0 C0.33 0 0.66 0 1 0 C1 1.65 1 3.3 1 5 C0.01 5 -0.98 5 -2 5 C-1.87 5.96 -1.87 5.96 -1.75 6.93 C-1.64 7.76 -1.54 8.59 -1.44 9.44 C-1.33 10.26 -1.23 11.08 -1.12 11.93 C-1.08 12.62 -1.04 13.3 -1 14 C-1.33 14.33 -1.66 14.66 -2 15 C-2.14 16.64 -2.14 16.64 -2.28 18.31 C-2.32 18.97 -2.36 19.64 -2.39 20.32 C-2.43 21.02 -2.46 21.72 -2.5 22.44 C-2.53 23.13 -2.57 23.83 -2.61 24.54 C-2.64 25.21 -2.68 25.87 -2.72 26.56 C-2.86 28.26 -2.86 28.26 -3 30 C-3.33 30.66 -3.66 31.32 -4 32 C-4.19 33.28 -4.19 33.28 -4.39 34.59 C-4.51 35.67 -4.63 36.75 -4.75 37.86 C-4.82 38.44 -4.88 39.02 -4.95 39.61 C-5.05 40.51 -5.05 40.51 -5.15 41.43 C-5.22 42.05 -5.29 42.67 -5.36 43.3 C-5.42 43.92 -5.49 44.55 -5.56 45.19 C-5.63 45.8 -5.7 46.41 -5.77 47.05 C-5.84 47.65 -5.91 48.26 -5.98 48.88 C-6.05 49.48 -6.12 50.08 -6.18 50.7 C-6.25 51.29 -6.31 51.87 -6.38 52.48 C-6.5 53.62 -6.61 54.75 -6.73 55.92 C-6.82 56.94 -6.91 57.95 -7 59 C-7.03 59.8 -7.06 60.6 -7.09 61.42 C-7.09 62.38 -7.09 62.38 -7.09 63.36 C-7.06 64.23 -7.03 65.1 -7 66 C-6.9 65.21 -6.8 64.43 -6.7 63.62 C-6.55 62.57 -6.4 61.52 -6.25 60.44 C-6.07 59.35 -5.89 58.26 -5.71 57.14 C-5.48 56.1 -5.24 55.07 -5 54 C-4.49 52.83 -4.49 52.83 -3.98 51.64 C-3.61 51.02 -3.25 50.39 -2.88 49.75 C-2.26 48.84 -1.64 47.94 -1 47 C-0.34 47 0.32 47 1 47 C1.01 47.51 1.01 48.02 1.02 48.54 C1.02 49.25 1.03 49.96 1.04 50.69 C1.04 51.47 1.04 52.25 1.05 53.06 C1.05 53.88 1.06 54.71 1.06 55.56 C1.07 56.36 1.08 57.16 1.09 57.99 C1.09 58.78 1.09 59.57 1.1 60.38 C1.09 61.16 1.09 61.94 1.08 62.75 C1.06 63.49 1.03 64.23 1 65 C0.93 65.68 0.85 66.35 0.77 67.05 C0.68 67.66 0.59 68.27 0.5 68.9 C0.33 69.92 0.17 70.95 0 72 C0 72.99 0 73.98 0 75 C-0.66 75 -1.32 75 -2 75 C-1.99 75.85 -1.98 76.71 -1.96 77.59 C-1.96 78.69 -1.95 79.8 -1.94 80.94 C-1.93 82.04 -1.91 83.14 -1.9 84.28 C-1.95 85.63 -1.95 85.63 -2 87 C-2.33 87.33 -2.66 87.66 -3 88 C-4.42 88.06 -4.42 88.06 -5.87 88.11 C-6.47 88.11 -7.07 88.11 -7.69 88.11 C-8.34 88.11 -8.99 88.1 -9.66 88.1 C-10.66 88.1 -10.66 88.1 -11.67 88.09 C-12.36 88.09 -13.05 88.09 -13.75 88.09 C-14.46 88.08 -15.16 88.08 -15.89 88.08 C-16.97 88.07 -16.97 88.07 -18.06 88.06 C-18.78 88.06 -19.5 88.06 -20.24 88.05 C-20.95 88.05 -21.65 88.05 -22.38 88.05 C-23.07 88.05 -23.76 88.04 -24.46 88.04 C-25.13 88.04 -25.79 88.04 -26.47 88.04 C-27.13 88.03 -27.78 88.03 -28.45 88.03 C-29.35 88.02 -29.35 88.02 -30.26 88.02 C-31.62 88.01 -31.62 88.01 -33 88 C-32.8 87.06 -32.59 86.12 -32.38 85.15 C-32.25 84.54 -32.12 83.94 -31.98 83.32 C-31.84 82.68 -31.71 82.04 -31.56 81.38 C-31.43 80.76 -31.29 80.14 -31.15 79.5 C-31.02 78.89 -30.89 78.28 -30.75 77.65 C-30.63 77.04 -30.5 76.43 -30.36 75.81 C-30.18 74.91 -30.18 74.91 -30 74 C-29.84 73.11 -29.84 73.11 -29.68 72.2 C-29.59 71.65 -29.5 71.1 -29.4 70.54 C-29.27 69.7 -29.14 68.86 -29 68 C-28.01 68.33 -27.02 68.66 -26 69 C-25.67 69.66 -25.34 70.32 -25 71 C-23.68 71 -22.36 71 -21 71 C-21 71.99 -21 72.98 -21 74 C-20.34 74 -19.68 74 -19 74 C-19 72.02 -19 70.04 -19 68 C-20.32 68 -21.64 68 -23 68 C-22.84 67.26 -22.67 66.51 -22.5 65.75 C-22.34 64.84 -22.17 63.94 -22 63 C-21.98 62.28 -21.96 61.56 -21.94 60.81 C-21.96 60.21 -21.98 59.62 -22 59 C-22 58.34 -22 57.68 -22 57 C-23.32 56.67 -24.64 56.34 -26 56 C-25.67 54.35 -25.34 52.7 -25 51 C-23.52 50.5 -23.52 50.5 -22 50 C-21.59 51.07 -21.17 52.14 -20.75 53.25 C-20.48 53.89 -20.21 54.53 -19.93 55.2 C-19.62 55.79 -19.32 56.39 -19 57 C-17.95 58.05 -17.95 58.05 -16.88 59.12 C-15.95 60.05 -15.95 60.05 -15 61 C-14.75 61.91 -14.5 62.81 -14.25 63.75 C-14.17 64.49 -14.09 65.24 -14 66 C-13.5 64.51 -13.5 64.51 -13 63 C-13.03 62.3 -13.06 61.59 -13.09 60.87 C-13.18 60.07 -13.28 59.26 -13.38 58.44 C-13.53 57.12 -13.53 57.12 -13.68 55.77 C-13.79 54.86 -13.89 53.94 -14 53 C-14.09 52.1 -14.17 51.19 -14.26 50.26 C-14.34 49.39 -14.42 48.52 -14.5 47.62 C-14.57 46.83 -14.64 46.04 -14.72 45.23 C-14.81 44.49 -14.9 43.76 -15 43 C-15.29 41.91 -15.29 41.91 -15.58 40.8 C-15.72 40.2 -15.86 39.61 -16 39 C-15.73 38.55 -15.46 38.09 -15.19 37.62 C-14.8 37.09 -14.4 36.55 -14 36 C-13.67 35.15 -13.34 34.31 -13 33.44 C-12.83 32.92 -12.67 32.4 -12.5 31.86 C-12.33 31.25 -12.17 30.63 -12 30 C-11.85 29.24 -11.69 28.48 -11.54 27.7 C-11.38 26.87 -11.22 26.04 -11.06 25.19 C-10.82 23.9 -10.82 23.9 -10.57 22.59 C-10.38 21.73 -10.19 20.88 -10 20 C-9.75 19.21 -9.5 18.42 -9.24 17.6 C-8.98 16.85 -8.71 16.09 -8.44 15.31 C-8.05 14.23 -8.05 14.23 -7.66 13.12 C-7.44 12.42 -7.23 11.72 -7 11 C-6.86 10.3 -6.73 9.6 -6.59 8.88 C-6.5 8.24 -6.41 7.6 -6.31 6.94 C-6.21 5.97 -6.11 5 -6 4 C-4.02 3.67 -2.04 3.34 0 3 C0 2.01 0 1.02 0 0 Z M-13 69 C-13 70.65 -13 72.3 -13 74 C-12.34 73.67 -11.68 73.34 -11 73 C-11 71.68 -11 70.36 -11 69 C-11.66 69 -12.32 69 -13 69 Z M-9 69 C-9 70.32 -9 71.64 -9 73 C-8.34 71.68 -7.68 70.36 -7 69 C-7.66 69 -8.32 69 -9 69 Z M-25 77 C-24.71 77.64 -24.42 78.28 -24.12 78.94 C-23.75 79.62 -23.38 80.3 -23 81 C-22.34 81.33 -21.68 81.66 -21 82 C-21.1 81.36 -21.21 80.72 -21.31 80.06 C-21.54 79.38 -21.77 78.7 -22 78 C-22.99 77.67 -23.98 77.34 -25 77 Z M-11 76 C-11.99 76.5 -11.99 76.5 -13 77 C-12.67 78.32 -12.34 79.64 -12 81 C-11.34 80.34 -10.68 79.68 -10 79 C-10.33 78.01 -10.66 77.02 -11 76 Z " transform ="translate(127,392)" fill="#000000" />
  <path d="M0 0 C0.99 0.5 0.99 0.5 2 1 C1.01 1.5 1.01 1.5 0 2 C0 1.34 0 0.68 0 0 Z " transform ="translate(119,383)" fill="#000000" />
  <path d="M0 0 C0.66 0.33 1.32 0.66 2 1 C1.67 2.32 1.34 3.64 1 5 C0.34 4.34 -0.32 3.68 -1 3 C-0.67 2.01 -0.34 1.02 0 0 Z " transform ="translate(107,388)" fill="#000000" />
  <path d="M0 0 C0.99 0.5 0.99 0.5 2 1 C2 3.97 2 6.94 2 10 C1.67 10 1.34 10 1 10 C0.67 6.7 0.34 3.4 0 0 Z " transform ="translate(108,395)" fill="#000000" />
  <path d="M0 0 C0.33 0 0.66 0 1 0 C1.33 1.03 1.66 2.06 2 3.12 C2.19 3.77 2.37 4.42 2.57 5.09 C2.71 5.72 2.85 6.35 3 7 C2.98 7.91 2.96 8.81 2.94 9.75 C2.96 10.82 2.98 11.89 3 13 C3.19 13.75 3.39 14.49 3.59 15.26 C3.85 16.12 4.11 16.99 4.38 17.88 C4.65 18.81 4.92 19.75 5.21 20.72 C5.47 21.8 5.73 22.88 6 24 C6.1 24.65 6.2 25.31 6.31 25.98 C6.39 26.68 6.48 27.38 6.57 28.09 C6.66 28.8 6.74 29.51 6.83 30.24 C6.91 30.94 6.98 31.65 7.06 32.38 C7.13 33.05 7.2 33.73 7.27 34.43 C7.33 35.08 7.4 35.73 7.47 36.4 C7.55 37.02 7.62 37.64 7.7 38.28 C7.8 38.85 7.9 39.41 8 40 C8.35 40.92 8.7 41.84 9.06 42.79 C9.37 43.52 9.68 44.25 10 45 C10 45.99 10 46.98 10 48 C9.39 47.92 8.77 47.84 8.14 47.76 C7.43 47.51 6.73 47.26 6 47 C5.58 46.4 5.16 45.8 4.73 45.18 C4.41 44.42 4.08 43.66 3.75 42.88 C3.42 42.07 3.09 41.26 2.75 40.43 C2.38 39.23 2.38 39.23 2 38 C1.93 37.31 1.86 36.63 1.79 35.92 C1.79 35.31 1.8 34.69 1.81 34.06 C1.87 33.05 1.94 32.04 2 31 C1.67 30.34 1.34 29.68 1 29 C0.98 28.39 0.96 27.79 0.94 27.16 C0.96 26.47 0.98 25.78 1 25.06 C1.02 24.37 1.04 23.68 1.06 22.97 C1.03 22 1.03 22 1 21 C0.67 20.01 0.34 19.02 0 18 C-0.04 17.34 -0.07 16.68 -0.11 16.01 C-0.11 15.27 -0.1 14.53 -0.1 13.77 C-0.09 12.57 -0.09 12.57 -0.09 11.34 C-0.08 10.5 -0.07 9.67 -0.06 8.81 C-0.06 7.97 -0.05 7.12 -0.05 6.25 C-0.04 5.45 -0.04 4.65 -0.04 3.83 C-0.03 3.1 -0.02 2.36 -0.02 1.6 C-0.01 1.08 -0.01 0.55 0 0 Z " transform ="translate(94,391)" fill="#000000" />
  <path d="M0 0 C0.99 0.33 1.98 0.66 3 1 C3 3.97 3 6.94 3 10 C2.01 10 1.02 10 0 10 C0 6.7 0 3.4 0 0 Z " transform ="translate(109,409)" fill="#000000" />
  <path d="M0 0 C0.66 0.66 1.32 1.32 2 2 C1.68 2.56 1.36 3.13 1.03 3.71 C0.69 4.47 0.35 5.22 0 6 C-0.11 6.76 -0.23 7.51 -0.34 8.29 C-0.42 9.45 -0.42 9.45 -0.5 10.62 C-0.55 11.4 -0.6 12.18 -0.66 12.98 C-0.77 13.64 -0.88 14.31 -1 15 C-1.66 15.66 -2.32 16.32 -3 17 C-3.14 16.41 -3.29 15.82 -3.44 15.21 C-3.72 14.02 -3.72 14.02 -4 12.81 C-4.18 11.99 -4.35 11.17 -4.54 10.32 C-4.69 9.56 -4.84 8.79 -5 8 C-5.14 7.05 -5.29 6.1 -5.44 5.12 C-5.29 4.42 -5.15 3.72 -5 3 C-4.18 2.4 -3.35 1.8 -2.5 1.19 C-1.68 0.8 -0.85 0.4 0 0 Z " transform ="translate(152,348)" fill="#000000" />
  <path d="M0 0 C0.66 0 1.32 0 2 0 C1.67 1.65 1.34 3.3 1 5 C0.34 4.67 -0.32 4.34 -1 4 C-0.67 2.68 -0.34 1.36 0 0 Z " transform ="translate(148,343)" fill="#000000" />
  <path d="M0 0 C0.8 0.14 1.61 0.29 2.44 0.44 C3.28 0.62 4.13 0.81 5 1 C5.33 1.33 5.66 1.66 6 2 C6.06 2.82 6.11 3.63 6.17 4.48 C6.17 5.52 6.18 6.55 6.19 7.62 C6.18 8.71 6.17 9.79 6.17 10.9 C6.11 11.92 6.06 12.95 6 14 C5.85 14.78 5.7 15.55 5.55 16.35 C5.37 16.98 5.19 17.6 5 18.25 C4.67 19.16 4.34 20.06 4 21 C2.35 21.33 0.7 21.66 -1 22 C-0.67 23.32 -0.34 24.64 0 26 C1.32 26 2.64 26 4 26 C3.67 26.99 3.34 27.98 3 29 C2.01 28.67 1.02 28.34 0 28 C0.66 29.32 1.32 30.64 2 32 C2.66 32 3.32 32 4 32 C3.67 32.99 3.34 33.98 3 35 C2.65 35.56 2.3 36.11 1.94 36.69 C1.63 37.12 1.32 37.55 1 38 C1.66 38.33 2.32 38.66 3 39 C2.83 39.83 2.67 40.66 2.5 41.51 C2.4 42.06 2.31 42.62 2.22 43.19 C2.15 43.78 2.07 44.38 2 45 C1.98 45.59 1.97 46.17 1.95 46.78 C1.96 47.4 1.96 48.01 1.97 48.64 C1.99 49.31 2 49.98 2.01 50.66 C2.03 51.37 2.05 52.08 2.06 52.81 C2.07 53.57 2.08 54.32 2.09 55.1 C2.09 56.31 2.09 56.31 2.1 57.54 C2.09 58.4 2.09 59.26 2.08 60.15 C2.05 61.09 2.03 62.03 2 63 C1.94 64.08 1.87 65.16 1.81 66.28 C1.68 67.99 1.68 67.99 1.56 69.74 C1.47 70.88 1.38 72.02 1.29 73.19 C1.19 74.33 1.1 75.46 1 76.62 C0.9 77.75 0.81 78.87 0.71 80.02 C0.58 81.58 0.58 81.58 0.44 83.16 C0.35 84.1 0.27 85.03 0.18 85.99 C0.09 86.99 0.09 86.99 0 88 C3.47 87.5 3.47 87.5 7 87 C6.73 87.5 6.46 87.99 6.19 88.5 C5.8 89.32 5.4 90.15 5 91 C4.64 91.87 4.64 91.87 4.27 92.77 C3.89 93.75 3.89 93.75 3.5 94.75 C3.11 95.78 3.11 95.78 2.72 96.83 C2.48 97.55 2.24 98.26 2 99 C1.74 100.12 1.74 100.12 1.47 101.26 C1.31 101.98 1.16 102.7 1 103.44 C0.88 104.1 0.75 104.75 0.62 105.43 C0.42 105.95 0.21 106.47 0 107 C-1.49 107.5 -1.49 107.5 -3 108 C-3.37 108.77 -3.75 109.54 -4.13 110.33 C-4.46 111.29 -4.79 112.26 -5.12 113.25 C-5.46 114.2 -5.79 115.16 -6.13 116.14 C-6.42 117.08 -6.71 118.03 -7 119 C-7.2 119.94 -7.41 120.89 -7.62 121.86 C-7.74 122.57 -7.87 123.27 -8 124 C-9.65 124 -11.3 124 -13 124 C-12.69 123.63 -12.38 123.26 -12.06 122.88 C-11.71 122.26 -11.36 121.64 -11 121 C-10.79 119.95 -10.59 118.9 -10.38 117.81 C-10.25 116.88 -10.13 115.96 -10 115 C-10.66 114.67 -11.32 114.34 -12 114 C-11.5 113.5 -11.5 113.5 -11 113 C-10.94 112.45 -10.87 111.91 -10.81 111.35 C-10.78 110.64 -10.75 109.94 -10.72 109.21 C-10.68 108.43 -10.64 107.66 -10.61 106.86 C-10.57 106.04 -10.54 105.22 -10.5 104.38 C-10.47 103.58 -10.43 102.78 -10.39 101.96 C-10.36 101.18 -10.32 100.39 -10.28 99.59 C-10.24 98.81 -10.2 98.03 -10.16 97.24 C-10.11 96.5 -10.05 95.76 -10 95 C-9.92 94.33 -9.85 93.66 -9.77 92.97 C-9.68 92.36 -9.59 91.76 -9.5 91.13 C-9.34 90.1 -9.17 89.06 -9 88 C-8.81 86.87 -8.63 85.73 -8.44 84.56 C-8.29 83.72 -8.15 82.87 -8 82 C-9.32 82 -10.64 82 -12 82 C-11.67 79.36 -11.34 76.72 -11 74 C-11.66 74 -12.32 74 -13 74 C-12.69 73.4 -12.38 72.8 -12.06 72.19 C-11.54 71.1 -11.54 71.1 -11 70 C-10.67 69.01 -10.34 68.02 -10 67 C-10.33 66.01 -10.66 65.02 -11 64 C-10.89 63.37 -10.78 62.74 -10.66 62.09 C-10.46 61.38 -10.27 60.67 -10.06 59.94 C-9.87 59.15 -9.68 58.36 -9.49 57.55 C-9.33 56.71 -9.17 55.87 -9 55 C-8.93 54.12 -8.86 53.24 -8.79 52.33 C-8.78 51.46 -8.76 50.59 -8.75 49.69 C-8.74 48.89 -8.74 48.09 -8.73 47.26 C-8.82 46.52 -8.91 45.77 -9 45 C-9.34 44.24 -9.67 43.49 -10.02 42.71 C-10.34 42.14 -10.67 41.58 -11 41 C-10.34 40.01 -9.68 39.02 -9 38 C-10.65 37.67 -12.3 37.34 -14 37 C-14 36.01 -14 35.02 -14 34 C-12.35 34 -10.7 34 -9 34 C-9.32 33.59 -9.65 33.18 -9.98 32.76 C-10.32 32.18 -10.65 31.6 -11 31 C-11.09 30.36 -11.17 29.72 -11.26 29.05 C-11.26 28.34 -11.26 27.62 -11.27 26.88 C-11.27 25.69 -11.27 25.69 -11.27 24.48 C-11.27 23.66 -11.26 22.84 -11.25 22 C-11.26 21.18 -11.27 20.36 -11.27 19.52 C-11.27 18.73 -11.27 17.94 -11.27 17.12 C-11.26 16.41 -11.26 15.69 -11.26 14.95 C-11.17 14.3 -11.09 13.66 -11 13 C-10.71 12.42 -10.42 11.85 -10.12 11.25 C-9.56 10.63 -9.56 10.63 -9 10 C-8.3 9.94 -7.6 9.88 -6.88 9.81 C-6.26 9.87 -5.64 9.94 -5 10 C-4.47 9.07 -4.47 9.07 -3.94 8.12 C-3.63 7.42 -3.32 6.72 -3 6 C-3.33 5.34 -3.66 4.68 -4 4 C-2.68 3.34 -1.36 2.68 0 2 C0 1.34 0 0.68 0 0 Z M-3 77 C-2 81 -2 81 -2 81 Z M-3 82 C-3.33 82.33 -3.66 82.66 -4 83 C-4.1 83.61 -4.21 84.22 -4.32 84.85 C-4.4 85.58 -4.48 86.31 -4.56 87.06 C-4.65 87.8 -4.73 88.53 -4.82 89.29 C-4.88 89.85 -4.94 90.42 -5 91 C-3.51 91.99 -3.51 91.99 -2 93 C-1.9 92.37 -1.81 91.75 -1.71 91.1 C-1.6 90.28 -1.49 89.47 -1.38 88.62 C-1.2 87.41 -1.2 87.41 -1.02 86.16 C-1.02 85.45 -1.01 84.74 -1 84 C-1.66 83.34 -2.32 82.68 -3 82 Z " transform ="translate(140,352)" fill="#000000" />
  <path d="M0 0 C0.99 0 1.98 0 3 0 C2.89 0.55 2.78 1.1 2.67 1.66 C2.51 2.45 2.35 3.25 2.19 4.06 C2.01 4.96 1.83 5.85 1.64 6.78 C1.43 7.84 1.22 8.9 1 10 C0.81 10.96 0.81 10.96 0.61 11.95 C0.48 12.62 0.34 13.3 0.2 14 C0.06 14.69 -0.07 15.37 -0.21 16.07 C-0.35 16.75 -0.49 17.43 -0.62 18.12 C-0.76 18.8 -0.9 19.48 -1.03 20.17 C-1.16 20.8 -1.28 21.42 -1.41 22.07 C-1.61 23.04 -1.8 24 -2 25 C-2.32 24.45 -2.63 23.9 -2.96 23.33 C-3.3 22.56 -3.65 21.79 -4 21 C-4.14 20.15 -4.27 19.3 -4.41 18.42 C-4.48 17.54 -4.55 16.66 -4.62 15.75 C-4.7 14.86 -4.77 13.97 -4.85 13.05 C-4.93 12.03 -4.93 12.03 -5 11 C-5.66 11 -6.32 11 -7 11 C-6.71 10.4 -6.42 9.8 -6.12 9.19 C-5.75 8.47 -5.38 7.74 -5 7 C-4.69 6.42 -4.38 5.85 -4.06 5.25 C-3.71 4.84 -3.36 4.43 -3 4 C-2.01 4 -1.02 4 0 4 C0 2.68 0 1.36 0 0 Z " transform ="translate(169,329)" fill="#000000" />
</svg>