<?xml version="1.0" encoding="UTF-8"?>
<!-- Generator: visioncortex VTracer 0.6.4 -->
<svg version="1.1" xmlns="http://www.w3.org/2000/svg" width="194" height="250">
<path d="M0 0 C0.66 0 1.32 0 2 0 C1.67 0.99 1.34 1.98 1 3 C0.34 2.67 -0.32 2.34 -1 2 C-0.67 1.34 -0.34 0.68 0 0 Z " fill="#000000" transform="translate(65,10)"/>
<path d="M0 0 C0.66 0 1.32 0 2 0 C2 0.66 2 1.32 2 2 C2.5 2.37 2.99 2.74 3.5 3.12 C4 3.41 4.49 3.7 5 4 C3.61 4.06 3.61 4.06 2.19 4.12 C1.14 4.08 0.08 4.04 -1 4 C-1.62 3.67 -2.24 3.34 -2.88 3 C-3.25 2.67 -3.62 2.34 -4 2 C-3.38 1.67 -2.76 1.34 -2.12 1 C-1.42 0.67 -0.72 0.34 0 0 Z " fill="#000000" transform="translate(75,9)"/>
<path d="M0 0 C0.57 0.01 1.14 0.02 1.73 0.02 C2.35 0.14 2.98 0.26 3.62 0.38 C4.74 0.58 5.85 0.79 7 1 C7 1.33 7 1.66 7 2 C4.03 2 1.06 2 -2 2 C-1.34 1.34 -0.68 0.68 0 0 Z " fill="#000000" transform="translate(82,10)"/>
<path d="" fill="#000000" transform="translate(0,0)"/>
<path d="M0 0 C3 1 3 1 3 1 Z " fill="#000000" transform="translate(91,11)"/>
<path d="M0 0 C2 1 2 1 2 1 Z " fill="#000000" transform="translate(69,12)"/>
<path d="M0 0 C4 1 4 1 4 1 Z " fill="#000000" transform="translate(94,12)"/>
<path d="" fill="#000000" transform="translate(0,0)"/>
<path d="" fill="#000000" transform="translate(0,0)"/>
<path d="M0 0 C2 1 2 1 2 1 Z " fill="#000000" transform="translate(98,13)"/>
<path d="M0 0 C2 1 2 1 2 1 Z " fill="#000000" transform="translate(66,14)"/>
<path d="M0 0 C0.99 0.33 1.98 0.66 3 1 C2.01 1 1.02 1 0 1 C0 0.67 0 0.34 0 0 Z " fill="#000000" transform="translate(95,14)"/>
<path d="M0 0 C0 0.99 0 1.98 0 3 C-0.39 3.41 -0.78 3.81 -1.18 4.23 C-2.08 4.61 -2.08 4.61 -3 5 C-3.81 4.94 -4.61 4.89 -5.45 4.83 C-6.33 4.64 -7.21 4.45 -8.12 4.25 C-9.01 4.07 -9.9 3.89 -10.82 3.7 C-11.54 3.47 -12.26 3.24 -13 3 C-13.33 2.34 -13.66 1.68 -14 1 C-13.16 1.1 -12.31 1.19 -11.45 1.29 C-10.35 1.4 -9.25 1.51 -8.12 1.62 C-7.03 1.74 -5.94 1.86 -4.82 1.98 C-3.42 1.99 -3.42 1.99 -2 2 C-1.34 1.34 -0.68 0.68 0 0 Z " fill="#000000" transform="translate(62,14)"/>
<path d="M0 0 C4 1 4 1 4 1 Z " fill="#000000" transform="translate(98,16)"/>
<path d="M0 0 C1.32 0.33 2.64 0.66 4 1 C3.01 1.5 3.01 1.5 2 2 C1.34 1.34 0.68 0.68 0 0 Z " fill="#000000" transform="translate(102,17)"/>
<path d="M0 0 C0.99 0.33 1.98 0.66 3 1 C2.01 1 1.02 1 0 1 C0 0.67 0 0.34 0 0 Z " fill="#000000" transform="translate(106,19)"/>
<path d="M0 0 C2.31 0 4.62 0 7 0 C7.33 0.66 7.66 1.32 8 2 C5.36 1.67 2.72 1.34 0 1 C0 0.67 0 0.34 0 0 Z " fill="#000000" transform="translate(47,20)"/>
<path d="M0 0 C0.73 0.13 1.46 0.26 2.21 0.4 C2.8 0.6 3.39 0.8 4 1 C3.18 1.41 2.36 1.82 1.52 2.24 C0.73 2.63 0.73 2.63 -0.07 3.04 C-0.62 3.31 -1.18 3.59 -1.75 3.88 C-2.29 4.14 -2.83 4.41 -3.38 4.69 C-4.18 5.09 -4.18 5.09 -4.98 5.49 C-5.98 5.99 -6.97 6.49 -8 7 C-8.79 7.39 -9.58 7.79 -10.39 8.2 C-10.92 8.46 -11.45 8.73 -12 9 C-10.98 7.89 -10.98 7.89 -9.94 6.75 C-9.48 6.3 -9.03 5.85 -8.56 5.38 C-7.79 4.7 -7.79 4.7 -7 4 C-6.42 3.58 -5.84 3.17 -5.25 2.74 C-4.65 2.37 -4.05 2 -3.44 1.62 C-2.88 1.29 -2.32 0.95 -1.75 0.6 C-1.17 0.4 -0.59 0.2 0 0 Z " fill="#000000" transform="translate(43,21)"/>
<path d="M0 0 C0.62 0.25 1.24 0.5 1.88 0.75 C2.58 1.16 3.28 1.57 4 2 C4.41 2.7 4.83 3.4 5.25 4.12 C5.5 4.74 5.75 5.36 6 6 C5.57 5.65 5.13 5.3 4.69 4.94 C4.13 4.49 3.57 4.03 3 3.56 C2.44 3.11 1.89 2.66 1.31 2.19 C0.88 1.8 0.45 1.41 0 1 C0 0.67 0 0.34 0 0 Z " fill="#000000" transform="translate(109,21)"/>
<path d="" fill="#000000" transform="translate(0,0)"/>
<path d="" fill="#000000" transform="translate(0,0)"/>
<path d="M0 0 C0.99 0.5 0.99 0.5 2 1 C1.67 1.66 1.34 2.32 1 3 C0.67 2.01 0.34 1.02 0 0 Z " fill="#000000" transform="translate(115,27)"/>
<path d="M0 0 C0.66 0 1.32 0 2 0 C1.67 0.66 1.34 1.32 1 2 C0.67 1.34 0.34 0.68 0 0 Z " fill="#000000" transform="translate(62,28)"/>
<path d="" fill="#000000" transform="translate(0,0)"/>
<path d="" fill="#000000" transform="translate(0,0)"/>
<path d="M0 0 C0.66 0.66 1.32 1.32 2 2 C1.34 2 0.68 2 0 2 C0 1.34 0 0.68 0 0 Z " fill="#000000" transform="translate(117,30)"/>
<path d="M0 0 C0 0.99 0 1.98 0 3 C-0.99 3.49 -0.99 3.49 -2 4 C-1.34 2.68 -0.68 1.36 0 0 Z " fill="#000000" transform="translate(29,31)"/>
<path d="" fill="#000000" transform="translate(0,0)"/>
<path d="M0 0 C0.66 0 1.32 0 2 0 C1.67 0.66 1.34 1.32 1 2 C0.67 1.34 0.34 0.68 0 0 Z " fill="#000000" transform="translate(114,31)"/>
<path d="" fill="#000000" transform="translate(0,0)"/>
<path d="" fill="#000000" transform="translate(0,0)"/>
<path d="M0 0 C0.6 0.23 1.2 0.46 1.82 0.7 C2.9 1.34 2.9 1.34 4 2 C4.51 2.74 5.03 3.48 5.55 4.24 C5.99 5.11 6.43 5.98 6.88 6.88 C7.33 7.74 7.78 8.6 8.24 9.49 C8.62 10.73 8.62 10.73 9 12 C8.71 12.77 8.43 13.53 8.13 14.32 C7.76 14.87 7.39 15.43 7 16 C6.74 15.02 6.74 15.02 6.48 14.02 C6.24 13.15 6 12.28 5.75 11.38 C5.35 10.01 5.35 10.01 4.93 8.62 C4.63 7.76 4.32 6.89 4 6 C3.64 5.34 3.28 4.68 2.91 4 C2.55 3.46 2.19 2.93 1.81 2.38 C1.21 1.59 0.62 0.81 0 0 Z " fill="#000000" transform="translate(116,33)"/>
<path d="" fill="#000000" transform="translate(0,0)"/>
<path d="M0 0 C0.33 0.66 0.66 1.32 1 2 C0.62 3.07 0.62 3.07 0.22 4.16 C-0.16 4.98 -0.54 5.79 -0.94 6.62 C-1.32 7.44 -1.7 8.26 -2.09 9.1 C-2.39 9.73 -2.69 10.35 -3 11 C-3.33 10.34 -3.66 9.68 -4 9 C-3.83 8.37 -3.65 7.74 -3.48 7.09 C-3.2 6.38 -2.91 5.67 -2.62 4.94 C-2.35 4.22 -2.07 3.51 -1.79 2.78 C-1.53 2.19 -1.27 1.6 -1 1 C-0.67 0.67 -0.34 0.34 0 0 Z " fill="#000000" transform="translate(25,36)"/>
<path d="" fill="#000000" transform="translate(0,0)"/>
<path d="M0 0 C2.47 0.49 2.47 0.49 5 1 C4.01 1.33 3.02 1.66 2 2 C1.67 2.99 1.34 3.98 1 5 C0.67 3.35 0.34 1.7 0 0 Z " fill="#000000" transform="translate(65,39)"/>
<path d="M0 0 C1.98 0.99 1.98 0.99 4 2 C2.68 1.67 1.36 1.34 0 1 C0 0.67 0 0.34 0 0 Z " fill="#000000" transform="translate(83,39)"/>
<path d="" fill="#000000" transform="translate(0,0)"/>
<path d="M0 0 C1.65 1.65 3.3 3.3 5 5 C4.36 4.73 3.72 4.46 3.06 4.19 C2.04 3.6 2.04 3.6 1 3 C0.67 2.01 0.34 1.02 0 0 Z " fill="#000000" transform="translate(56,41)"/>
<path d="M0 0 C2 1 2 1 2 1 Z " fill="#000000" transform="translate(70,41)"/>
<path d="M0 0 C0.91 0.27 1.81 0.54 2.75 0.81 C4.36 1.4 4.36 1.4 6 2 C6.78 2.54 7.57 3.07 8.38 3.62 C8.91 4.08 9.45 4.53 10 5 C8.92 4.85 8.92 4.85 7.81 4.69 C6.88 4.46 5.96 4.23 5 4 C4.07 3.51 3.14 3.01 2.19 2.5 C1.47 2.01 0.74 1.51 0 1 C0 0.67 0 0.34 0 0 Z " fill="#000000" transform="translate(87,41)"/>
<path d="M0 0 C3 1 3 1 3 1 Z " fill="#000000" transform="translate(72,42)"/>
<path d="" fill="#000000" transform="translate(0,0)"/>
<path d="M0 0 C0.33 0.99 0.66 1.98 1 3 C0.53 3.89 0.05 4.77 -0.44 5.69 C-0.95 6.45 -1.47 7.21 -2 8 C-2.33 7.34 -2.66 6.68 -3 6 C-2.53 4.97 -2.05 3.94 -1.56 2.88 C-1.05 1.93 -0.53 0.98 0 0 Z " fill="#000000" transform="translate(55,43)"/>
<path d="M0 0 C1.65 0 3.3 0 5 0 C5 0.33 5 0.66 5 1 C3.35 1 1.7 1 0 1 C0 0.67 0 0.34 0 0 Z " fill="#000000" transform="translate(75,43)"/>
<path d="M0 0 C0.66 0.33 1.32 0.66 2 1 C1.01 1.99 0.02 2.98 -1 4 C-0.67 2.68 -0.34 1.36 0 0 Z " fill="#000000" transform="translate(25,44)"/>
<path d="M0 0 C0.5 0.6 0.99 1.2 1.5 1.81 C2 2.53 2.49 3.26 3 4 C3 4.99 3 5.98 3 7 C1.68 6.67 0.36 6.34 -1 6 C-0.34 5.67 0.32 5.34 1 5 C0.67 3.35 0.34 1.7 0 0 Z " fill="#000000" transform="translate(67,44)"/>
<path d="M0 0 C4 1 4 1 4 1 Z " fill="#000000" transform="translate(80,44)"/>
<path d="" fill="#000000" transform="translate(0,0)"/>
<path d="M0 0 C2.48 0.99 2.48 0.99 5 2 C4.01 2.49 4.01 2.49 3 3 C2.01 2.01 1.02 1.02 0 0 Z " fill="#000000" transform="translate(61,46)"/>
<path d="M0 0 C2.47 0.49 2.47 0.49 5 1 C4.01 1.33 3.02 1.66 2 2 C1.34 1.34 0.68 0.68 0 0 Z " fill="#000000" transform="translate(97,46)"/>
<path d="M0 0 C0.91 0.06 1.81 0.12 2.75 0.19 C3.82 0.46 4.89 0.72 6 1 C6.78 1.85 7.57 2.69 8.38 3.56 C8.91 4.37 9.45 5.17 10 6 C5.55 5.01 5.55 5.01 1 4 C0.67 2.68 0.34 1.36 0 0 Z " fill="#000000" transform="translate(87,47)"/>
<path d="M0 0 C0.33 0 0.66 0 1 0 C1.06 0.7 1.12 1.4 1.18 2.12 C1.27 3.07 1.35 4.02 1.44 5 C1.53 6 1.62 6.99 1.71 8.02 C1.81 9 1.9 9.99 2 11 C2.14 12.24 2.14 12.24 2.29 13.51 C2.38 14.23 2.47 14.95 2.56 15.69 C2.71 16.78 2.85 17.87 3 19 C2.34 19 1.68 19 1 19 C0.67 18.34 0.34 17.68 0 17 C-0.04 16.41 -0.07 15.82 -0.11 15.21 C-0.11 14.51 -0.1 13.81 -0.1 13.09 C-0.09 12.33 -0.09 11.56 -0.09 10.78 C-0.08 9.99 -0.07 9.19 -0.06 8.38 C-0.06 7.57 -0.05 6.77 -0.05 5.95 C-0.04 5.19 -0.04 4.43 -0.04 3.65 C-0.03 2.95 -0.02 2.25 -0.02 1.53 C-0.01 1.02 -0.01 0.52 0 0 Z " fill="#000000" transform="translate(121,47)"/>
<path d="M0 0 C0.33 0.66 0.66 1.32 1 2 C0.71 2.75 0.41 3.51 0.11 4.29 C-0.44 5.63 -0.44 5.63 -1 7 C-1.16 7.89 -1.32 8.77 -1.48 9.68 C-1.62 11.05 -1.62 11.05 -1.75 12.44 C-1.83 13.4 -1.9 14.36 -1.98 15.35 C-1.99 16.22 -1.99 17.1 -2 18 C-1.87 18.62 -1.74 19.23 -1.61 19.87 C-1.34 20.62 -1.34 20.62 -1.06 21.38 C-0.54 22.67 -0.54 22.67 0 24 C0.06 25.42 0.06 25.42 0.12 26.88 C0.08 27.58 0.04 28.28 0 29 C-0.47 28.42 -0.95 27.84 -1.44 27.25 C-1.95 26.51 -2.47 25.77 -3 25 C-3.19 24.4 -3.38 23.8 -3.58 23.18 C-3.72 22.46 -3.86 21.74 -4 21 C-4.07 20.18 -4.13 19.36 -4.2 18.52 C-4.22 17.63 -4.23 16.73 -4.25 15.81 C-4.24 14.85 -4.24 13.89 -4.23 12.9 C-4.15 11.94 -4.08 10.99 -4 10 C-3.79 9.11 -3.58 8.23 -3.36 7.32 C-3.1 6.51 -2.83 5.71 -2.56 4.88 C-2.3 4.15 -2.03 3.43 -1.75 2.68 C-1.38 1.85 -1.38 1.85 -1 1 C-0.67 0.67 -0.34 0.34 0 0 Z " fill="#000000" transform="translate(23,48)"/>
<path d="M0 0 C2 1 2 1 2 1 Z " fill="#000000" transform="translate(102,48)"/>
<path d="M0 0 C2 1 2 1 2 1 Z " fill="#000000" transform="translate(104,49)"/>
<path d="M0 0 C0.99 0.33 1.98 0.66 3 1 C2.01 1 1.02 1 0 1 C0 0.67 0 0.34 0 0 Z " fill="#000000" transform="translate(106,50)"/>
<path d="" fill="#000000" transform="translate(0,0)"/>
<path d="" fill="#000000" transform="translate(0,0)"/>
<path d="M0 0 C0 0.99 0 1.98 0 3 C-0.99 3.49 -0.99 3.49 -2 4 C-1.34 2.68 -0.68 1.36 0 0 Z " fill="#000000" transform="translate(50,52)"/>
<path d="" fill="#000000" transform="translate(0,0)"/>
<path d="M0 0 C0.62 0.25 1.24 0.49 1.88 0.75 C2.58 1.16 3.28 1.58 4 2 C4.41 2.7 4.83 3.4 5.25 4.12 C5.5 4.74 5.75 5.36 6 6 C5.57 5.65 5.13 5.3 4.69 4.94 C4.13 4.49 3.57 4.03 3 3.56 C2.44 3.11 1.89 2.66 1.31 2.19 C0.88 1.8 0.45 1.41 0 1 C0 0.67 0 0.34 0 0 Z " fill="#000000" transform="translate(109,52)"/>
<path d="M0 0 C0.66 0.33 1.32 0.66 2 1 C2 2.98 2 4.96 2 7 C1.4 7.27 0.8 7.54 0.19 7.81 C-0.53 8.2 -1.26 8.6 -2 9 C-2.58 9.54 -3.16 10.07 -3.75 10.62 C-4.16 11.08 -4.58 11.53 -5 12 C-5.33 11.34 -5.66 10.68 -6 10 C-5.59 9.24 -5.17 8.47 -4.75 7.69 C-3.88 6.36 -3.88 6.36 -3 5 C-2.44 4.07 -1.89 3.14 -1.31 2.19 C-0.88 1.47 -0.45 0.74 0 0 Z " fill="#000000" transform="translate(54,53)"/>
<path d="M0 0 C0 0.99 0 1.98 0 3 C-0.74 3.84 -0.74 3.84 -1.5 4.69 C-1.99 5.12 -2.49 5.55 -3 6 C-3.66 5.67 -4.32 5.34 -5 5 C-3.35 3.35 -1.7 1.7 0 0 Z " fill="#000000" transform="translate(47,56)"/>
<path d="M0 0 C3 1 3 1 3 1 Z " fill="#000000" transform="translate(94,58)"/>
<path d="M0 0 C0.71 0.62 0.71 0.62 1.44 1.25 C1.95 1.83 2.47 2.41 3 3 C3.23 3.72 3.45 4.44 3.69 5.19 C3.79 5.79 3.89 6.38 4 7 C3.53 6.59 3.05 6.17 2.56 5.75 C2.05 5.17 1.53 4.59 1 4 C0.77 3.28 0.55 2.56 0.31 1.81 C0.21 1.21 0.11 0.62 0 0 Z " fill="#000000" transform="translate(115,58)"/>
<path d="M0 0 C0.66 0.33 1.32 0.66 2 1 C0.68 1.99 -0.64 2.98 -2 4 C-1.34 2.68 -0.68 1.36 0 0 Z " fill="#000000" transform="translate(91,59)"/>
<path d="M0 0 C2 1 2 1 2 1 Z " fill="#000000" transform="translate(97,59)"/>
<path d="" fill="#000000" transform="translate(0,0)"/>
<path d="M0 0 C2 1 2 1 2 1 Z " fill="#000000" transform="translate(125,60)"/>
<path d="" fill="#000000" transform="translate(0,0)"/>
<path d="M0 0 C0.99 0.33 1.98 0.66 3 1 C3.33 1.66 3.66 2.32 4 3 C4.03 3.64 4.06 4.28 4.1 4.95 C4.09 5.66 4.07 6.38 4.06 7.12 C4.05 7.85 4.04 8.57 4.04 9.32 C4.02 9.87 4.01 10.43 4 11 C3.01 11.5 3.01 11.5 2 12 C2.04 10.95 2.08 9.9 2.12 8.81 C2.13 8.18 2.13 7.54 2.13 6.89 C2.09 6.27 2.05 5.64 2 5 C1.67 4.03 1.34 3.06 1 2.06 C0.67 1.38 0.34 0.7 0 0 Z " fill="#000000" transform="translate(127,61)"/>
<path d="" fill="#000000" transform="translate(0,0)"/>
<path d="M0 0 C0.99 0.03 0.99 0.03 2 0.06 C2.66 0.37 3.32 0.68 4 1 C4.87 2.02 4.87 2.02 5.75 3.06 C6.37 4.02 6.37 4.02 7 5 C7.66 4.34 8.32 3.68 9 3 C9.37 4.07 9.74 5.14 10.12 6.25 C10.31 6.89 10.5 7.52 10.69 8.18 C10.79 8.78 10.89 9.38 11 10 C10.57 11.21 10.57 11.21 10.12 12.44 C9.75 12.95 9.38 13.47 9 14 C7.67 14.12 7.67 14.12 6.31 14.25 C5.22 14.17 4.13 14.09 3 14 C2.07 13.48 1.14 12.97 0.19 12.44 C-0.53 11.63 -1.26 10.83 -2 10 C-2.21 9.43 -2.42 8.87 -2.64 8.28 C-2.76 7.67 -2.88 7.06 -3 6.44 C-3 5.3 -3 4.17 -3 3 C-2.61 2.34 -2.22 1.68 -1.81 1 C-0.92 0.51 -0.92 0.51 0 0 Z M0 1 C-0.33 2.65 -0.66 4.3 -1 6 C-0.01 6.5 -0.01 6.5 1 7 C1.33 5.35 1.66 3.7 2 2 C1.34 1.67 0.68 1.34 0 1 Z M8 7 C8 8.32 8 9.64 8 11 C8.33 9.68 8.66 8.36 9 7 C8.67 7 8.34 7 8 7 Z M0 9 C0.33 9.66 0.66 10.32 1 11 C1.66 10.67 2.32 10.34 3 10 C2.01 9.67 1.02 9.34 0 9 Z M6 11 C5.67 11.66 5.34 12.32 5 13 C5.99 13 6.98 13 8 13 C8 12.34 8 11.68 8 11 C7.34 11 6.68 11 6 11 Z " fill="#000000" transform="translate(95,62)"/>
<path d="M0 0 C0.99 0.49 0.99 0.49 2 1 C1.67 1.66 1.34 2.32 1 3 C0.67 2.01 0.34 1.02 0 0 Z " fill="#000000" transform="translate(101,62)"/>
<path d="M0 0 C0.33 0.99 0.66 1.98 1 3 C0.77 4.02 0.53 5.05 0.29 6.1 C0.12 6.67 -0.06 7.25 -0.24 7.84 C-0.43 8.43 -0.62 9.02 -0.81 9.62 C-0.99 10.22 -1.17 10.82 -1.35 11.44 C-1.62 12.29 -1.62 12.29 -1.89 13.16 C-2.26 14.1 -2.62 15.04 -3 16 C-3.66 16.33 -4.32 16.66 -5 17 C-4.81 16.28 -4.61 15.55 -4.41 14.8 C-4.15 13.84 -3.89 12.87 -3.62 11.88 C-3.35 10.88 -3.08 9.88 -2.8 8.85 C-2.4 7.44 -2.4 7.44 -2 6 C-1.79 5.32 -1.57 4.64 -1.36 3.93 C-1.18 3.4 -1 2.86 -0.81 2.31 C-0.41 1.17 -0.41 1.17 0 0 Z " fill="#000000" transform="translate(40,63)"/>
<path d="" fill="#000000" transform="translate(0,0)"/>
<path d="M0 0 C0.33 0 0.66 0 1 0 C1.99 3.63 2.98 7.26 4 11 C3.01 10.01 2.02 9.02 1 8 C0.67 7.34 0.34 6.68 0 6 C-0.02 4.97 -0.04 3.94 -0.06 2.88 C-0.04 1.93 -0.02 0.98 0 0 Z " fill="#000000" transform="translate(87,65)"/>
<path d="M0 0 C0.99 0.33 1.98 0.66 3 1 C3 4.63 3 8.26 3 12 C4.32 11.67 5.64 11.34 7 11 C6.67 11.66 6.34 12.32 6 13 C5.34 13 4.68 13 4 13 C4.06 14.13 4.12 15.27 4.19 16.44 C4.19 17.16 4.18 17.89 4.18 18.64 C4.12 19.42 4.06 20.2 4 21 C3.83 21.79 3.65 22.58 3.47 23.39 C3.11 24.56 3.11 24.56 2.75 25.75 C2.48 26.5 2.21 27.24 1.93 28.01 C1.63 28.67 1.32 29.32 1 30 C0.28 30.85 -0.44 31.69 -1.19 32.56 C-1.79 33.04 -2.38 33.51 -3 34 C-2.71 33.3 -2.42 32.6 -2.12 31.88 C-1.75 30.93 -1.38 29.98 -1 29 C-0.65 28.08 -0.3 27.16 0.06 26.21 C0.37 25.15 0.68 24.09 1 23 C1.08 21.98 1.15 20.97 1.23 19.92 C1.22 18.88 1.2 17.83 1.19 16.75 C1.17 15.63 1.15 14.5 1.14 13.35 C1.09 12.24 1.05 11.14 1 10 C0.92 8.99 0.85 7.98 0.77 6.93 C0.68 6.03 0.59 5.12 0.5 4.19 C0.41 3.38 0.31 2.57 0.22 1.73 C0.15 1.16 0.07 0.59 0 0 Z " fill="#000000" transform="translate(119,65)"/>
<path d="M0 0 C0.66 0 1.32 0 2 0 C1.67 0.66 1.34 1.32 1 2 C0.67 1.34 0.34 0.68 0 0 Z " fill="#000000" transform="translate(125,65)"/>
<path d="M0 0 C1.65 0 3.3 0 5 0 C5.33 0.66 5.66 1.32 6 2 C3.03 1.5 3.03 1.5 0 1 C0 0.67 0 0.34 0 0 Z " fill="#000000" transform="translate(53,68)"/>
<path d="M0 0 C0.99 0.33 1.98 0.66 3 1 C2.01 1 1.02 1 0 1 C0 0.67 0 0.34 0 0 Z " fill="#000000" transform="translate(123,68)"/>
<path d="M0 0 C0.66 0 1.32 0 2 0 C2.66 3.63 3.32 7.26 4 11 C3.34 10.34 2.68 9.68 2 9 C1.79 8.29 1.58 7.57 1.37 6.84 C1.12 5.62 1.12 5.62 0.88 4.38 C0.71 3.56 0.54 2.74 0.37 1.9 C0.25 1.27 0.12 0.65 0 0 Z " fill="#000000" transform="translate(23,69)"/>
<path d="M0 0 C0.66 0.33 1.32 0.66 2 1 C0.68 1.99 -0.64 2.98 -2 4 C-1.34 2.68 -0.68 1.36 0 0 Z " fill="#000000" transform="translate(51,69)"/>
<path d="" fill="#000000" transform="translate(0,0)"/>
<path d="" fill="#000000" transform="translate(0,0)"/>
<path d="M0 0 C0.33 0.66 0.66 1.32 1 2 C0.93 3.02 0.87 4.03 0.8 5.08 C0.73 5.68 0.65 6.29 0.57 6.91 C0.49 7.54 0.4 8.17 0.31 8.81 C0.25 9.43 0.18 10.05 0.11 10.68 C0.03 11.29 -0.05 11.89 -0.14 12.52 C-0.25 13.11 -0.36 13.7 -0.48 14.31 C-0.74 15.15 -0.74 15.15 -1 16 C-1.62 16.94 -2.24 17.87 -2.88 18.84 C-3.58 19.55 -4.28 20.26 -5 21 C-5.56 21.38 -6.12 21.76 -6.7 22.14 C-7.21 22.36 -7.72 22.59 -8.25 22.81 C-9.16 23.2 -10.06 23.6 -11 24 C-11 23.34 -11 22.68 -11 22 C-10.24 21.59 -9.47 21.17 -8.69 20.75 C-7.8 20.17 -6.91 19.59 -6 19 C-5.4 18.05 -4.8 17.1 -4.19 16.12 C-3.8 15.09 -3.4 14.06 -3 13 C-2.91 11.58 -2.91 11.58 -2.81 10.12 C-2.87 9.42 -2.94 8.72 -3 8 C-4.98 8.99 -4.98 8.99 -7 10 C-6.77 9.46 -6.55 8.93 -6.31 8.38 C-5.88 7.59 -5.45 6.81 -5 6 C-4.59 5.47 -4.18 4.94 -3.75 4.4 C-3.3 3.85 -2.84 3.31 -2.38 2.75 C-1.93 2.23 -1.48 1.71 -1.02 1.17 C-0.69 0.79 -0.35 0.4 0 0 Z " fill="#000000" transform="translate(181,71)"/>
<path d="M0 0 C0.47 0.39 0.94 0.78 1.42 1.18 C1.94 1.78 2.46 2.38 3 3 C3.26 3.8 3.53 4.59 3.8 5.41 C3.97 6.29 4.14 7.16 4.31 8.06 C4.49 8.94 4.68 9.82 4.86 10.72 C4.91 11.47 4.95 12.23 5 13 C4.34 13.66 3.68 14.32 3 15 C3 12.69 3 10.38 3 8 C2.34 8 1.68 8 1 8 C1 9.32 1 10.64 1 12 C0.01 12 -0.98 12 -2 12 C-1.67 12.66 -1.34 13.32 -1 14 C-2.18 13.57 -2.18 13.57 -3.38 13.12 C-4.24 12.75 -5.11 12.38 -6 12 C-6.66 11.34 -7.32 10.68 -8 10 C-8.25 9.22 -8.49 8.43 -8.75 7.62 C-8.83 6.76 -8.91 5.89 -9 5 C-8.69 4.24 -8.38 3.47 -8.06 2.69 C-7.71 2.13 -7.36 1.57 -7 1 C-6.24 0.92 -5.47 0.83 -4.69 0.75 C-3.36 0.87 -3.36 0.87 -2 1 C-1.1 1.99 -1.1 1.99 -0.19 3 C0.2 3.66 0.6 4.32 1 5 C0.67 3.35 0.34 1.7 0 0 Z M-5 2 C-5.99 2.5 -5.99 2.5 -7 3 C-6.67 4.65 -6.34 6.3 -6 8 C-5.65 7.38 -5.3 6.76 -4.94 6.12 C-4.47 5.07 -4.47 5.07 -4 4 C-4.33 3.34 -4.66 2.68 -5 2 Z " fill="#000000" transform="translate(61,71)"/>
<path d="M0 0 C0.33 0 0.66 0 1 0 C1.66 3.96 2.32 7.92 3 12 C2.01 11.01 1.02 10.02 0 9 C-0.27 8.13 -0.27 8.13 -0.55 7.25 C-0.61 6.65 -0.68 6.05 -0.75 5.44 C-0.83 4.3 -0.91 3.17 -1 2 C-0.67 1.34 -0.34 0.68 0 0 Z " fill="#000000" transform="translate(48,73)"/>
<path d="M0 0 C0 0.99 0 1.98 0 3 C-0.66 2.67 -1.32 2.34 -2 2 C-1.34 1.34 -0.68 0.68 0 0 Z " fill="#000000" transform="translate(128,73)"/>
<path d="" fill="#000000" transform="translate(0,0)"/>
<path d="M0 0 C1.98 0.99 1.98 0.99 4 2 C2.68 2 1.36 2 0 2 C0 1.34 0 0.68 0 0 Z " fill="#000000" transform="translate(91,76)"/>
<path d="M0 0 C2 1 2 1 2 1 Z " fill="#000000" transform="translate(95,76)"/>
<path d="M0 0 C0.66 1.32 1.32 2.64 2 4 C2.17 4.61 2.35 5.23 2.53 5.86 C2.66 6.48 2.8 7.11 2.94 7.75 C3.1 8.44 3.26 9.13 3.42 9.84 C3.61 10.56 3.8 11.27 4 12 C4.27 12.71 4.55 13.42 4.83 14.16 C5.25 15.19 5.25 15.19 5.69 16.25 C6.1 17.19 6.1 17.19 6.51 18.14 C6.67 18.75 6.83 19.37 7 20 C6.86 20.74 6.72 21.47 6.58 22.23 C6.29 23.11 6.29 23.11 6 24 C6 23.34 6 22.68 6 22 C5.2 22.05 5.2 22.05 4.39 22.11 C3.68 22.13 2.98 22.16 2.25 22.19 C1.16 22.19 1.16 22.19 0.05 22.2 C-0.63 22.13 -1.3 22.07 -2 22 C-2.82 21.5 -3.65 21.01 -4.5 20.5 C-5 20 -5.49 19.51 -6 19 C-5.67 18.34 -5.34 17.68 -5 17 C-4.46 17.47 -3.93 17.95 -3.38 18.44 C-2.59 18.95 -1.81 19.47 -1 20 C0.61 20.34 0.61 20.34 2.25 20.69 C3.16 20.79 4.06 20.89 5 21 C4.81 20.51 4.61 20.01 4.41 19.5 C4.15 18.86 3.89 18.22 3.62 17.56 C3.37 16.92 3.11 16.29 2.85 15.63 C2.57 15.09 2.29 14.55 2 14 C1.34 13.67 0.68 13.34 0 13 C0 8.71 0 4.42 0 0 Z " fill="#000000" transform="translate(33,77)"/>
<path d="M0 0 C1.98 0.5 1.98 0.5 4 1 C2.35 1.33 0.7 1.66 -1 2 C-0.67 1.34 -0.34 0.68 0 0 Z " fill="#000000" transform="translate(77,79)"/>
<path d="M0 0 C1.32 1.32 2.64 2.64 4 4 C3.67 4.66 3.34 5.32 3 6 C2.26 5.07 2.26 5.07 1.5 4.12 C0.76 3.07 0.76 3.07 0 2 C0 1.34 0 0.68 0 0 Z " fill="#000000" transform="translate(27,80)"/>
<path d="M0 0 C2 1 2 1 2 1 Z " fill="#000000" transform="translate(81,80)"/>
<path d="" fill="#000000" transform="translate(0,0)"/>
<path d="" fill="#000000" transform="translate(0,0)"/>
<path d="M0 0 C0 0.99 0 1.98 0 3 C-0.5 3.39 -0.99 3.78 -1.5 4.19 C-2 4.46 -2.49 4.72 -3 5 C-2.69 4.36 -2.38 3.72 -2.06 3.06 C-1.71 2.38 -1.36 1.7 -1 1 C-0.67 0.67 -0.34 0.34 0 0 Z " fill="#000000" transform="translate(172,82)"/>
<path d="" fill="#000000" transform="translate(0,0)"/>
<path d="M0 0 C0.99 0.5 0.99 0.5 2 1 C2 3.64 2 6.28 2 9 C1.34 8.67 0.68 8.34 0 8 C0 5.36 0 2.72 0 0 Z " fill="#000000" transform="translate(25,85)"/>
<path d="M0 0 C2.97 0.5 2.97 0.5 6 1 C4.68 2.32 3.36 3.64 2 5 C1.51 4.32 1.51 4.32 1 3.62 C0.67 3.09 0.34 2.55 0 2 C0 1.34 0 0.68 0 0 Z " fill="#000000" transform="translate(51,85)"/>
<path d="" fill="#000000" transform="translate(0,0)"/>
<path d="M0 0 C3 1 3 1 3 1 Z " fill="#000000" transform="translate(60,85)"/>
<path d="M0 0 C0.66 0.66 1.32 1.32 2 2 C0.68 2.33 -0.64 2.66 -2 3 C-1.34 2.01 -0.68 1.02 0 0 Z " fill="#000000" transform="translate(31,86)"/>
<path d="" fill="#000000" transform="translate(0,0)"/>
<path d="M0 0 C0.66 0.33 1.32 0.66 2 1 C1.6 2.05 1.2 3.1 0.79 4.18 C0.54 4.84 0.28 5.5 0.01 6.19 C-0.4 7.24 -0.4 7.24 -0.81 8.31 C-1.07 9 -1.33 9.69 -1.6 10.4 C-1.86 11.07 -2.13 11.74 -2.39 12.43 C-2.66 13.06 -2.92 13.69 -3.19 14.35 C-3.59 15.16 -3.59 15.16 -4 16 C-4.56 16.65 -5.12 17.31 -5.7 17.98 C-6.13 18.32 -6.56 18.65 -7 19 C-7.66 18.67 -8.32 18.34 -9 18 C-8.01 16.68 -7.02 15.36 -6 14 C-6.48 13.97 -6.97 13.93 -7.47 13.89 C-8.14 13.87 -8.81 13.84 -9.5 13.81 C-10.23 13.81 -10.95 13.81 -11.7 13.81 C-12.84 13.9 -12.84 13.9 -14 14 C-14.72 14.2 -15.43 14.39 -16.17 14.6 C-16.86 14.85 -17.54 15.11 -18.25 15.38 C-18.9 15.65 -19.56 15.92 -20.23 16.2 C-20.82 16.46 -21.4 16.73 -22 17 C-22.83 17.39 -23.65 17.78 -24.5 18.19 C-25 18.46 -25.49 18.72 -26 19 C-26.66 18.01 -27.32 17.02 -28 16 C-27.34 16 -26.68 16 -26 16 C-26.66 15.01 -27.32 14.02 -28 13 C-28.33 13.66 -28.66 14.32 -29 15 C-29.99 14.67 -30.98 14.34 -32 14 C-32 13.34 -32 12.68 -32 12 C-32.99 11.67 -33.98 11.34 -35 11 C-35 10.34 -35 9.68 -35 9 C-34.47 9.17 -33.93 9.34 -33.38 9.52 C-32.6 9.68 -31.81 9.84 -31 10 C-29.57 9.99 -29.57 9.99 -28.12 9.98 C-26.51 9.87 -26.51 9.87 -24.88 9.75 C-23.15 9.6 -23.15 9.6 -21.39 9.44 C-20.27 9.3 -19.15 9.15 -18 9 C-17.06 8.8 -16.11 8.61 -15.14 8.4 C-13.86 8.05 -13.86 8.05 -12.56 7.69 C-11.37 7.29 -11.37 7.29 -10.16 6.89 C-9.45 6.6 -8.73 6.3 -8 6 C-7.38 5.66 -6.76 5.33 -6.12 4.98 C-5.59 4.64 -5.05 4.29 -4.5 3.94 C-3.67 3.3 -2.85 2.66 -2 2 C-1.34 1.34 -0.68 0.68 0 0 Z M-6 7 C-6 7.66 -6 8.32 -6 9 C-5.01 8.67 -4.02 8.34 -3 8 C-3.99 7.67 -4.98 7.34 -6 7 Z M-8 8 C-8.99 9.48 -8.99 9.48 -10 11 C-8.68 10.67 -7.36 10.34 -6 10 C-6.66 9.34 -7.32 8.68 -8 8 Z M-21 12 C-21.66 12.66 -22.32 13.32 -23 14 C-22.01 14 -21.02 14 -20 14 C-20.33 13.34 -20.66 12.68 -21 12 Z M-24 14 C-24.33 14.66 -24.66 15.32 -25 16 C-24.34 16 -23.68 16 -23 16 C-23.33 15.34 -23.66 14.68 -24 14 Z " fill="#000000" transform="translate(99,88)"/>
<path d="M0 0 C0.66 0.33 1.32 0.66 2 1 C1.36 1.27 0.72 1.54 0.06 1.81 C-0.62 2.2 -1.3 2.6 -2 3 C-2.33 3.99 -2.66 4.98 -3 6 C-0.69 6.66 1.62 7.32 4 8 C4 8.33 4 8.66 4 9 C2.89 9.12 2.89 9.12 1.75 9.25 C0.84 9.17 -0.06 9.09 -1 9 C-1.76 8.34 -2.53 7.68 -3.31 7 C-3.87 6.34 -4.43 5.68 -5 5 C-4.73 4.36 -4.46 3.72 -4.19 3.06 C-3.8 2.38 -3.4 1.7 -3 1 C-2.01 0.67 -1.02 0.34 0 0 Z " fill="#000000" transform="translate(157,87)"/>
<path d="M0 0 C2.47 0.5 2.47 0.5 5 1 C4.67 1.66 4.34 2.32 4 3 C2.68 2.01 1.36 1.02 0 0 Z " fill="#000000" transform="translate(159,88)"/>
<path d="" fill="#000000" transform="translate(0,0)"/>
<path d="" fill="#000000" transform="translate(0,0)"/>
<path d="" fill="#000000" transform="translate(0,0)"/>
<path d="M0 0 C0 0.99 0 1.98 0 3 C-1.98 3.99 -1.98 3.99 -4 5 C-2.68 3.35 -1.36 1.7 0 0 Z " fill="#000000" transform="translate(165,90)"/>
<path d="" fill="#000000" transform="translate(0,0)"/>
<path d="M0 0 C0 0.99 0 1.98 0 3 C-0.58 3.67 -1.16 4.35 -1.75 5.04 C-2.49 5.75 -3.23 6.46 -4 7.19 C-4.74 7.9 -5.48 8.62 -6.25 9.36 C-7.12 10.17 -7.12 10.17 -8 11 C-8.66 10.67 -9.32 10.34 -10 10 C-6.7 6.7 -3.4 3.4 0 0 Z " fill="#000000" transform="translate(115,99)"/>
<path d="M0 0 C2.47 0.5 2.47 0.5 5 1 C3.02 1.99 3.02 1.99 1 3 C0.67 2.01 0.34 1.02 0 0 Z " fill="#000000" transform="translate(173,100)"/>
<path d="" fill="#000000" transform="translate(0,0)"/>
<path d="M0 0 C2 1 2 1 2 1 Z " fill="#000000" transform="translate(178,102)"/>
<path d="M0 0 C1.48 0.99 1.48 0.99 3 2 C2.67 2.66 2.34 3.32 2 4 C1.34 2.68 0.68 1.36 0 0 Z " fill="#000000" transform="translate(41,103)"/>
<path d="" fill="#000000" transform="translate(0,0)"/>
<path d="M0 0 C2 1 2 1 2 1 Z " fill="#000000" transform="translate(171,103)"/>
<path d="" fill="#000000" transform="translate(0,0)"/>
<path d="M0 0 C0.66 0.33 1.32 0.66 2 1 C1.17 1.55 1.17 1.55 0.32 2.1 C-0.77 2.86 -0.77 2.86 -1.88 3.62 C-2.61 4.17 -3.34 4.72 -4.09 5.28 C-4.72 5.85 -5.35 6.42 -6 7 C-6.68 8.55 -6.68 8.55 -7.38 10.12 C-7.58 11.07 -7.79 12.02 -8 13 C-8.56 14.18 -8.56 14.18 -9.12 15.38 C-9.41 15.91 -9.7 16.45 -10 17 C-10.99 16.01 -11.98 15.02 -13 14 C-12.53 13.74 -12.06 13.48 -11.58 13.21 C-11.06 12.81 -10.54 12.41 -10 12 C-9.77 11.49 -9.54 10.98 -9.3 10.45 C-9.12 9.87 -8.94 9.29 -8.75 8.69 C-8.39 7.76 -8.39 7.76 -8.03 6.82 C-7.69 6.22 -7.35 5.62 -7 5 C-6.42 4.48 -5.85 3.96 -5.25 3.43 C-4.29 2.75 -4.29 2.75 -3.31 2.06 C-2.69 1.66 -2.07 1.26 -1.43 0.85 C-0.96 0.57 -0.48 0.29 0 0 Z " fill="#000000" transform="translate(169,104)"/>
<path d="M0 0 C0.33 1.32 0.66 2.64 1 4 C0.01 4 -0.98 4 -2 4 C-1.34 2.68 -0.68 1.36 0 0 Z " fill="#000000" transform="translate(177,104)"/>
<path d="M0 0 C0.66 0.52 1.32 1.03 2 1.56 C2.99 2.77 2.99 2.77 4 4 C4.16 4.56 4.31 5.11 4.48 5.68 C4.55 6.58 4.55 6.58 4.62 7.5 C4.59 8.1 4.56 8.71 4.52 9.33 C4.35 9.88 4.18 10.43 4 11 C3.61 11.41 3.22 11.81 2.82 12.23 C2.33 12.57 1.83 12.9 1.31 13.25 C0.77 13.55 0.22 13.85 -0.34 14.16 C-0.89 14.44 -1.44 14.71 -2 15 C-3.33 15.84 -3.33 15.84 -4.69 16.69 C-5.83 17.34 -5.83 17.34 -7 18 C-7.99 18.33 -8.98 18.66 -10 19 C-10.67 18.96 -11.35 18.92 -12.04 18.88 C-12.75 18.77 -13.46 18.67 -14.19 18.56 C-14.9 18.46 -15.62 18.36 -16.36 18.25 C-16.9 18.17 -17.44 18.09 -18 18 C-17.61 17.48 -17.22 16.97 -16.81 16.44 C-16.21 15.96 -15.62 15.49 -15 15 C-13.73 15.22 -13.73 15.22 -12.44 15.44 C-11.63 15.62 -10.83 15.81 -10 16 C-9.34 15.34 -8.68 14.68 -8 14 C-7.34 14 -6.68 14 -6 14 C-5.53 13.64 -5.05 13.28 -4.56 12.91 C-4.05 12.44 -3.53 11.98 -3 11.5 C-2.48 11.04 -1.97 10.57 -1.44 10.09 C-0.96 9.73 -0.49 9.37 0 9 C0.66 9 1.32 9 2 9 C1.34 6.03 0.68 3.06 0 0 Z " fill="#000000" transform="translate(181,104)"/>
<path d="M0 0 C0.66 0.33 1.32 0.66 2 1 C1.01 1 0.02 1 -1 1 C-0.67 0.67 -0.34 0.34 0 0 Z " fill="#000000" transform="translate(172,105)"/>
<path d="" fill="#000000" transform="translate(0,0)"/>
<path d="M0 0 C2 1 2 1 2 1 Z " fill="#000000" transform="translate(75,107)"/>
<path d="M0 0 C2 1 2 1 2 1 Z " fill="#000000" transform="translate(88,107)"/>
<path d="" fill="#000000" transform="translate(0,0)"/>
<path d="M0 0 C2 1 2 1 2 1 Z " fill="#000000" transform="translate(169,107)"/>
<path d="" fill="#000000" transform="translate(0,0)"/>
<path d="M0 0 C1.65 0 3.3 0 5 0 C5 0.33 5 0.66 5 1 C3.35 1 1.7 1 0 1 C0 0.67 0 0.34 0 0 Z " fill="#000000" transform="translate(78,108)"/>
<path d="M0 0 C3 1 3 1 3 1 Z " fill="#000000" transform="translate(84,108)"/>
<path d="" fill="#000000" transform="translate(0,0)"/>
<path d="M0 0 C2 1 2 1 2 1 Z " fill="#000000" transform="translate(167,108)"/>
<path d="" fill="#000000" transform="translate(0,0)"/>
<path d="M0 0 C0.99 0.33 1.98 0.66 3 1 C2.01 1 1.02 1 0 1 C0 0.67 0 0.34 0 0 Z " fill="#000000" transform="translate(46,109)"/>
<path d="" fill="#000000" transform="translate(0,0)"/>
<path d="" fill="#000000" transform="translate(0,0)"/>
<path d="M0 0 C2 1 2 1 2 1 Z " fill="#000000" transform="translate(173,109)"/>
<path d="M0 0 C0.66 0.33 1.32 0.66 2 1 C1.01 1 0.02 1 -1 1 C-0.67 0.67 -0.34 0.34 0 0 Z " fill="#000000" transform="translate(177,109)"/>
<path d="" fill="#000000" transform="translate(0,0)"/>
<path d="M0 0 C0.66 0.33 1.32 0.66 2 1 C0.35 1.66 -1.3 2.32 -3 3 C-2.01 2.01 -1.02 1.02 0 0 Z " fill="#000000" transform="translate(103,110)"/>
<path d="" fill="#000000" transform="translate(0,0)"/>
<path d="" fill="#000000" transform="translate(0,0)"/>
<path d="M0 0 C2.48 0.99 2.48 0.99 5 2 C4.01 2.5 4.01 2.5 3 3 C2.01 2.01 1.02 1.02 0 0 Z " fill="#000000" transform="translate(49,111)"/>
<path d="" fill="#000000" transform="translate(0,0)"/>
<path d="" fill="#000000" transform="translate(0,0)"/>
<path d="M0 0 C2 1 2 1 2 1 Z " fill="#000000" transform="translate(174,111)"/>
<path d="M0 0 C0.66 0.33 1.32 0.66 2 1 C0.02 1.99 0.02 1.99 -2 3 C-1.34 2.01 -0.68 1.02 0 0 Z " fill="#000000" transform="translate(180,111)"/>
<path d="" fill="#000000" transform="translate(0,0)"/>
<path d="" fill="#000000" transform="translate(0,0)"/>
<path d="" fill="#000000" transform="translate(0,0)"/>
<path d="M0 0 C0.99 0.33 1.98 0.66 3 1 C2.42 1.35 1.84 1.7 1.25 2.06 C0.51 2.37 -0.23 2.68 -1 3 C-1.74 2.88 -2.48 2.75 -3.25 2.62 C-3.83 2.42 -4.41 2.21 -5 2 C-4.24 1.65 -3.47 1.3 -2.69 0.94 C-1.8 0.63 -0.91 0.32 0 0 Z " fill="#000000" transform="translate(97,113)"/>
<path d="M0 0 C0.66 0.33 1.32 0.66 2 1 C1.01 1 0.02 1 -1 1 C-0.67 0.67 -0.34 0.34 0 0 Z " fill="#000000" transform="translate(171,113)"/>
<path d="M0 0 C1.07 0.12 2.15 0.25 3.25 0.38 C4.2 0.51 4.2 0.51 5.18 0.64 C5.78 0.76 6.38 0.88 7 1 C7.8 1.35 8.61 1.7 9.44 2.06 C10.21 2.53 10.21 2.53 11 3 C10.46 2.95 9.91 2.9 9.36 2.85 C8.64 2.78 7.92 2.7 7.19 2.62 C6.13 2.52 6.13 2.52 5.04 2.41 C4.37 2.28 3.69 2.14 3 2 C2.42 1.66 1.84 1.31 1.24 0.96 C0.83 0.64 0.42 0.33 0 0 Z " fill="#000000" transform="translate(54,114)"/>
<path d="" fill="#000000" transform="translate(0,0)"/>
<path d="M0 0 C0.33 1.32 0.66 2.64 1 4 C0.34 3.01 -0.32 2.02 -1 1 C-0.67 0.67 -0.34 0.34 0 0 Z " fill="#000000" transform="translate(169,115)"/>
<path d="M0 0 C0.66 0.33 1.32 0.66 2 1 C0.02 1.99 0.02 1.99 -2 3 C-1.34 2.01 -0.68 1.02 0 0 Z " fill="#000000" transform="translate(175,115)"/>
<path d="M0 0 C1.02 0.22 1.02 0.22 2.06 0.44 C3.02 0.72 3.02 0.72 4 1 C3.01 1.33 2.02 1.66 1 2 C0.67 3.98 0.34 5.96 0 8 C-0.33 8 -0.66 8 -1 8 C-1.02 6.87 -1.04 5.73 -1.06 4.56 C-1.07 3.92 -1.09 3.29 -1.1 2.63 C-1.07 2.09 -1.03 1.55 -1 1 C-0.67 0.67 -0.34 0.34 0 0 Z " fill="#000000" transform="translate(88,116)"/>
<path d="M0 0 C2.31 0 4.62 0 7 0 C7 0.33 7 0.66 7 1 C4.69 1 2.38 1 0 1 C0 0.67 0 0.34 0 0 Z " fill="#000000" transform="translate(65,117)"/>
<path d="M0 0 C2.97 0 5.94 0 9 0 C8.67 0.99 8.34 1.98 8 3 C8 2.34 8 1.68 8 1 C5.36 1 2.72 1 0 1 C0 0.67 0 0.34 0 0 Z " fill="#000000" transform="translate(72,118)"/>
<path d="M0 0 C2 1 2 1 2 1 Z " fill="#000000" transform="translate(154,119)"/>
<path d="M0 0 C0.66 0.33 1.32 0.66 2 1 C1.01 1 0.02 1 -1 1 C-0.67 0.67 -0.34 0.34 0 0 Z " fill="#000000" transform="translate(152,120)"/>
<path d="" fill="#000000" transform="translate(0,0)"/>
<path d="" fill="#000000" transform="translate(0,0)"/>
<path d="M0 0 C0.65 0.01 1.3 0.02 1.97 0.02 C2.66 0.08 3.35 0.13 4.06 0.19 C4.75 0.28 5.44 0.38 6.15 0.48 C6.76 0.65 7.37 0.82 8 1 C8.7 1.68 9.4 2.36 10.12 3.06 C10.74 3.7 11.36 4.34 12 5 C13.01 5.19 14.02 5.37 15.06 5.56 C16.03 5.38 17 5.19 18 5 C18.58 4.17 19.16 3.35 19.75 2.5 C20.16 1.67 20.58 0.85 21 0 C21.66 0 22.32 0 23 0 C22.75 0.76 22.5 1.53 22.25 2.31 C21.84 3.2 21.42 4.09 21 5 C20.42 5.62 19.84 6.24 19.25 6.88 C18.51 7.25 17.77 7.62 17 8 C16.01 7.98 15.02 7.96 14 7.94 C13.01 7.63 12.02 7.32 11 7 C10.32 6.34 9.64 5.68 8.94 5 C8.3 4.34 7.66 3.68 7 3 C6.26 2.73 5.52 2.46 4.75 2.19 C3.39 2.09 3.39 2.09 2 2 C0.96 2.09 0.96 2.09 -0.1 2.17 C-1.19 2.3 -1.19 2.3 -2.31 2.44 C-3.01 2.54 -3.71 2.64 -4.43 2.75 C-4.95 2.83 -5.46 2.91 -6 3 C-5.67 2.34 -5.34 1.68 -5 1 C-4.32 0.77 -3.64 0.55 -2.94 0.31 C-1.48 0.16 -1.48 0.16 0 0 Z " fill="#000000" transform="translate(70,122)"/>
<path d="M0 0 C0.66 0.33 1.32 0.66 2 1 C1.34 1.66 0.68 2.32 0 3 C-0.99 2.67 -1.98 2.34 -3 2 C-2.01 1.34 -1.02 0.68 0 0 Z " fill="#000000" transform="translate(149,122)"/>
<path d="" fill="#000000" transform="translate(0,0)"/>
<path d="M0 0 C0.66 0.66 1.32 1.32 2 2 C1.34 2 0.68 2 0 2 C0 1.34 0 0.68 0 0 Z " fill="#000000" transform="translate(82,123)"/>
<path d="M0 0 C2.64 0 5.28 0 8 0 C8 0.33 8 0.66 8 1 C5.36 1 2.72 1 0 1 C0 0.67 0 0.34 0 0 Z " fill="#000000" transform="translate(94,123)"/>
<path d="" fill="#000000" transform="translate(0,0)"/>
<path d="M0 0 C0.66 0.33 1.32 0.66 2 1 C1.01 1 0.02 1 -1 1 C-0.67 0.67 -0.34 0.34 0 0 Z " fill="#000000" transform="translate(160,123)"/>
<path d="M0 0 C1.14 0.15 1.14 0.15 2.31 0.31 C3.2 0.54 4.09 0.77 5 1 C5.6 1.52 6.2 2.03 6.81 2.56 C7.2 3.04 7.6 3.51 8 4 C7.05 3.71 6.1 3.42 5.12 3.12 C4.09 2.75 3.06 2.38 2 2 C1.34 1.34 0.68 0.68 0 0 Z " fill="#000000" transform="translate(102,124)"/>
<path d="" fill="#000000" transform="translate(0,0)"/>
<path d="" fill="#000000" transform="translate(0,0)"/>
<path d="" fill="#000000" transform="translate(0,0)"/>
<path d="M0 0 C0.66 0.33 1.32 0.66 2 1 C0.02 1.99 0.02 1.99 -2 3 C-1.34 2.01 -0.68 1.02 0 0 Z " fill="#000000" transform="translate(144,125)"/>
<path d="" fill="#000000" transform="translate(0,0)"/>
<path d="" fill="#000000" transform="translate(0,0)"/>
<path d="M0 0 C0.99 0.5 0.99 0.5 2 1 C1.01 1.5 1.01 1.5 0 2 C0 1.34 0 0.68 0 0 Z " fill="#000000" transform="translate(61,126)"/>
<path d="" fill="#000000" transform="translate(0,0)"/>
<path d="M0 0 C0.66 0.33 1.32 0.66 2 1 C1.01 1 0.02 1 -1 1 C-0.67 0.67 -0.34 0.34 0 0 Z " fill="#000000" transform="translate(156,126)"/>
<path d="M0 0 C2 1 2 1 2 1 Z " fill="#000000" transform="translate(145,127)"/>
<path d="M0 0 C2 1 2 1 2 1 Z " fill="#000000" transform="translate(151,127)"/>
<path d="M0 0 C0 0.99 0 1.98 0 3 C-0.46 3.9 -0.91 4.81 -1.38 5.74 C-1.66 6.25 -1.94 6.76 -2.23 7.29 C-2.53 7.81 -2.82 8.33 -3.12 8.88 C-3.43 9.39 -3.73 9.91 -4.04 10.44 C-4.32 10.95 -4.6 11.46 -4.88 11.99 C-5.25 12.98 -5.62 13.98 -6 15 C-5.59 16.43 -5.59 16.43 -5.18 17.88 C-4.79 18.58 -4.4 19.28 -4 20 C-6.48 19.01 -6.48 19.01 -9 18 C-8.69 16.86 -8.69 16.86 -8.38 15.69 C-8.2 15.15 -8.02 14.62 -7.84 14.06 C-7.56 13.38 -7.29 12.7 -7 12 C-6.29 10.61 -6.29 10.61 -5.57 9.19 C-5.03 8.2 -4.49 7.21 -3.94 6.19 C-3.41 5.23 -2.88 4.28 -2.34 3.29 C-1.9 2.54 -1.46 1.78 -1 1 C-0.67 0.67 -0.34 0.34 0 0 Z " fill="#000000" transform="translate(60,128)"/>
<path d="M0 0 C0.87 0.25 1.73 0.5 2.62 0.75 C3.17 0.93 3.71 1.11 4.27 1.29 C4.84 1.52 5.41 1.76 6 2 C6.57 2.34 7.14 2.68 7.73 3.02 C8.28 3.39 8.82 3.75 9.38 4.12 C10.24 4.74 11.11 5.36 12 6 C11.88 6.74 11.75 7.49 11.62 8.25 C11.42 9.16 11.21 10.06 11 11 C10.57 12.11 10.57 12.11 10.12 13.25 C9.75 13.83 9.38 14.41 9 15 C8.01 15.33 7.02 15.66 6 16 C6.29 15.26 6.58 14.51 6.88 13.75 C7.25 12.84 7.62 11.94 8 11 C8.35 10.28 8.71 9.57 9.07 8.83 C9.38 8.22 9.68 7.62 10 7 C9.28 6.58 8.56 6.16 7.81 5.72 C6.88 5.17 5.96 4.63 5 4.06 C4.07 3.52 3.14 2.97 2.19 2.41 C1.47 1.94 0.74 1.48 0 1 C0 0.67 0 0.34 0 0 Z " fill="#000000" transform="translate(110,128)"/>
<path d="M0 0 C2 1 2 1 2 1 Z " fill="#000000" transform="translate(140,128)"/>
<path d="M0 0 C0.66 1.32 1.32 2.64 2 4 C1.01 4.5 1.01 4.5 0 5 C0 3.35 0 1.7 0 0 Z " fill="#000000" transform="translate(144,128)"/>
<path d="" fill="#000000" transform="translate(0,0)"/>
<path d="M0 0 C0.66 0 1.32 0 2 0 C2.08 1.07 2.16 2.15 2.25 3.25 C2.26 3.89 2.26 4.52 2.27 5.18 C2.18 5.78 2.09 6.38 2 7 C1.34 7.8 0.68 8.61 0 9.44 C-0.99 10.21 -0.99 10.21 -2 11 C-1.34 7.37 -0.68 3.74 0 0 Z " fill="#000000" transform="translate(153,128)"/>
<path d="M0 0 C0.66 0.33 1.32 0.66 2 1 C1.01 2.32 0.02 3.64 -1 5 C-1.99 4.34 -2.98 3.68 -4 3 C-2.68 2.01 -1.36 1.02 0 0 Z " fill="#000000" transform="translate(138,129)"/>
<path d="M0 0 C0.66 0 1.32 0 2 0 C1.67 0.66 1.34 1.32 1 2 C0.67 1.34 0.34 0.68 0 0 Z " fill="#000000" transform="translate(148,129)"/>
<path d="M0 0 C2 1 2 1 2 1 Z " fill="#000000" transform="translate(140,131)"/>
<path d="M0 0 C1.98 0 3.96 0 6 0 C6 0.33 6 0.66 6 1 C4.02 1 2.04 1 0 1 C0 0.67 0 0.34 0 0 Z " fill="#000000" transform="translate(99,133)"/>
<path d="M0 0 C0.66 0.33 1.32 0.66 2 1 C0.02 1.99 0.02 1.99 -2 3 C-1.34 2.01 -0.68 1.02 0 0 Z " fill="#000000" transform="translate(132,133)"/>
<path d="M0 0 C3 1 3 1 3 1 Z " fill="#000000" transform="translate(96,134)"/>
<path d="M0 0 C3 1 3 1 3 1 Z " fill="#000000" transform="translate(105,134)"/>
<path d="M0 0 C0.66 0.33 1.32 0.66 2 1 C2.31 2.02 2.31 2.02 2.62 3.06 C2.81 4.02 2.81 4.02 3 5 C1.02 5.99 1.02 5.99 -1 7 C-0.67 4.69 -0.34 2.38 0 0 Z " fill="#000000" transform="translate(138,134)"/>
<path d="" fill="#000000" transform="translate(0,0)"/>
<path d="M0 0 C2 1 2 1 2 1 Z " fill="#000000" transform="translate(94,135)"/>
<path d="M0 0 C2 1 2 1 2 1 Z " fill="#000000" transform="translate(108,135)"/>
<path d="" fill="#000000" transform="translate(0,0)"/>
<path d="M0 0 C2 1 2 1 2 1 Z " fill="#000000" transform="translate(92,136)"/>
<path d="M0 0 C2 1 2 1 2 1 Z " fill="#000000" transform="translate(110,136)"/>
<path d="M0 0 C2 1 2 1 2 1 Z " fill="#000000" transform="translate(128,136)"/>
<path d="" fill="#000000" transform="translate(0,0)"/>
<path d="M0 0 C2 1 2 1 2 1 Z " fill="#000000" transform="translate(144,136)"/>
<path d="M0 0 C0.66 0.33 1.32 0.66 2 1 C1.01 1 0.02 1 -1 1 C-0.67 0.67 -0.34 0.34 0 0 Z " fill="#000000" transform="translate(90,137)"/>
<path d="" fill="#000000" transform="translate(0,0)"/>
<path d="" fill="#000000" transform="translate(0,0)"/>
<path d="M0 0 C0.99 0.33 1.98 0.66 3 1 C2.67 1.66 2.34 2.32 2 3 C1.34 2.01 0.68 1.02 0 0 Z " fill="#000000" transform="translate(113,138)"/>
<path d="M0 0 C0.33 0.66 0.66 1.32 1 2 C-0.32 1.67 -1.64 1.34 -3 1 C-2.01 0.67 -1.02 0.34 0 0 Z " fill="#000000" transform="translate(127,137)"/>
<path d="" fill="#000000" transform="translate(0,0)"/>
<path d="" fill="#000000" transform="translate(0,0)"/>
<path d="" fill="#000000" transform="translate(0,0)"/>
<path d="M0 0 C1.49 0.99 1.49 0.99 3 2 C2.67 2.66 2.34 3.32 2 4 C1.34 2.68 0.68 1.36 0 0 Z " fill="#000000" transform="translate(128,139)"/>
<path d="M0 0 C0.99 0.5 0.99 0.5 2 1 C1.67 1.66 1.34 2.32 1 3 C0.67 2.01 0.34 1.02 0 0 Z " fill="#000000" transform="translate(134,139)"/>
<path d="M0 0 C2 1 2 1 2 1 Z " fill="#000000" transform="translate(141,139)"/>
<path d="" fill="#000000" transform="translate(0,0)"/>
<path d="M0 0 C0 3 0 3 0 3 Z " fill="#000000" transform="translate(87,140)"/>
<path d="M0 0 C0 0.99 0 1.98 0 3 C-0.66 2.67 -1.32 2.34 -2 2 C-1.34 1.34 -0.68 0.68 0 0 Z " fill="#000000" transform="translate(149,140)"/>
<path d="" fill="#000000" transform="translate(0,0)"/>
<path d="" fill="#000000" transform="translate(0,0)"/>
<path d="" fill="#000000" transform="translate(0,0)"/>
<path d="M0 0 C0.66 0.33 1.32 0.66 2 1 C1.01 1 0.02 1 -1 1 C-0.67 0.67 -0.34 0.34 0 0 Z " fill="#000000" transform="translate(133,142)"/>
<path d="M0 0 C0 3 0 3 0 3 Z " fill="#000000" transform="translate(85,143)"/>
<path d="" fill="#000000" transform="translate(0,0)"/>
<path d="" fill="#000000" transform="translate(0,0)"/>
<path d="" fill="#000000" transform="translate(0,0)"/>
<path d="" fill="#000000" transform="translate(0,0)"/>
<path d="M0 0 C0.66 0.33 1.32 0.66 2 1 C1.01 1 0.02 1 -1 1 C-0.67 0.67 -0.34 0.34 0 0 Z " fill="#000000" transform="translate(114,144)"/>
<path d="" fill="#000000" transform="translate(0,0)"/>
<path d="" fill="#000000" transform="translate(0,0)"/>
<path d="" fill="#000000" transform="translate(0,0)"/>
<path d="" fill="#000000" transform="translate(0,0)"/>
<path d="" fill="#000000" transform="translate(0,0)"/>
<path d="M0 0 C0.66 0.33 1.32 0.66 2 1 C0.02 1.99 0.02 1.99 -2 3 C-1.34 2.01 -0.68 1.02 0 0 Z " fill="#000000" transform="translate(129,145)"/>
<path d="M0 0 C0.66 0.33 1.32 0.66 2 1 C0.02 1.99 0.02 1.99 -2 3 C-1.34 2.01 -0.68 1.02 0 0 Z " fill="#000000" transform="translate(143,145)"/>
<path d="" fill="#000000" transform="translate(0,0)"/>
<path d="M0 0 C0.66 0.33 1.32 0.66 2 1 C1.01 1 0.02 1 -1 1 C-0.67 0.67 -0.34 0.34 0 0 Z " fill="#000000" transform="translate(111,146)"/>
<path d="M0 0 C0.66 0.33 1.32 0.66 2 1 C2 1.66 2 2.32 2 3 C2.66 3.33 3.32 3.66 4 4 C4.27 4.65 4.54 5.29 4.82 5.96 C5.06 6.76 5.31 7.55 5.56 8.38 C5.81 9.17 6.06 9.96 6.32 10.77 C6.54 11.51 6.77 12.24 7 13 C7.33 13.99 7.66 14.98 8 16 C8.06 16.63 8.11 17.26 8.17 17.9 C8.17 18.57 8.18 19.25 8.19 19.94 C8.18 20.99 8.18 20.99 8.17 22.06 C8.11 22.7 8.06 23.34 8 24 C7.5 25.24 7.5 25.24 7 26.5 C6.67 27 6.34 27.49 6 28 C5.67 27.01 5.34 26.02 5 25 C5.19 23.87 5.37 22.73 5.56 21.56 C5.66 20.95 5.76 20.34 5.87 19.71 C5.91 19.14 5.95 18.58 6 18 C5.6 16.89 5.6 16.89 5.19 15.75 C4.8 15.17 4.4 14.59 4 14 C3.65 13.48 3.3 12.97 2.94 12.44 C2.63 11.96 2.32 11.49 2 11 C1.67 10.01 1.34 9.02 1 8 C-0.65 8.33 -2.3 8.66 -4 9 C-4.33 7.68 -4.66 6.36 -5 5 C-4.01 5.33 -3.02 5.66 -2 6 C-1.01 5.67 -0.02 5.34 1 5 C0.67 3.35 0.34 1.7 0 0 Z M2 6 C3 8 3 8 3 8 Z " fill="#000000" transform="translate(122,146)"/>
<path d="" fill="#000000" transform="translate(0,0)"/>
<path d="" fill="#000000" transform="translate(0,0)"/>
<path d="M0 0 C2 1 2 1 2 1 Z " fill="#000000" transform="translate(56,148)"/>
<path d="M0 0 C0 3 0 3 0 3 Z " fill="#000000" transform="translate(88,148)"/>
<path d="M0 0 C2 1 2 1 2 1 Z " fill="#000000" transform="translate(108,148)"/>
<path d="" fill="#000000" transform="translate(0,0)"/>
<path d="" fill="#000000" transform="translate(0,0)"/>
<path d="" fill="#000000" transform="translate(0,0)"/>
<path d="M0 0 C0.66 0.33 1.32 0.66 2 1 C1.01 1 0.02 1 -1 1 C-0.67 0.67 -0.34 0.34 0 0 Z " fill="#000000" transform="translate(139,148)"/>
<path d="M0 0 C0.33 0.66 0.66 1.32 1 2 C1.03 2.57 1.06 3.14 1.1 3.73 C1.09 4.35 1.07 4.98 1.06 5.62 C1.04 6.74 1.02 7.85 1 9 C0.34 9 -0.32 9 -1 9 C-1.01 8.43 -1.02 7.87 -1.04 7.29 C-1.04 6.55 -1.05 5.82 -1.06 5.06 C-1.07 4.33 -1.09 3.6 -1.1 2.85 C-1.07 2.24 -1.03 1.63 -1 1 C-0.67 0.67 -0.34 0.34 0 0 Z " fill="#000000" transform="translate(52,149)"/>
<path d="M0 0 C2 1 2 1 2 1 Z " fill="#000000" transform="translate(58,149)"/>
<path d="M0 0 C0 0.99 0 1.98 0 3 C-0.41 3.39 -0.83 3.77 -1.25 4.17 C-1.83 4.45 -2.41 4.72 -3 5 C-3.63 5.09 -4.26 5.18 -4.9 5.27 C-5.57 5.26 -6.25 5.26 -6.94 5.25 C-7.94 5.26 -7.94 5.26 -8.96 5.27 C-9.97 5.13 -9.97 5.13 -11 5 C-11.74 4.66 -12.49 4.33 -13.25 3.98 C-13.83 3.66 -14.41 3.33 -15 3 C-14.25 3.03 -13.5 3.07 -12.73 3.11 C-11.75 3.13 -10.76 3.16 -9.75 3.19 C-8.78 3.22 -7.8 3.26 -6.8 3.29 C-5.87 3.2 -4.95 3.1 -4 3 C-2.83 2.25 -2.83 2.25 -1.64 1.49 C-1.1 1 -0.56 0.51 0 0 Z " fill="#000000" transform="translate(83,146)"/>
<path d="" fill="#000000" transform="translate(0,0)"/>
<path d="M0 0 C2 1 2 1 2 1 Z " fill="#000000" transform="translate(60,150)"/>
<path d="M0 0 C2 1 2 1 2 1 Z " fill="#000000" transform="translate(66,150)"/>
<path d="M0 0 C0.33 0.66 0.66 1.32 1 2 C0.57 2.35 0.13 2.7 -0.31 3.06 C-0.87 3.37 -1.43 3.68 -2 4 C-2.99 3.67 -3.98 3.34 -5 3 C-3.35 2.01 -1.7 1.02 0 0 Z " fill="#000000" transform="translate(107,149)"/>
<path d="" fill="#000000" transform="translate(0,0)"/>
<path d="" fill="#000000" transform="translate(0,0)"/>
<path d="M0 0 C0.66 0.33 1.32 0.66 2 1 C1.57 1.35 1.13 1.7 0.69 2.06 C0.13 2.37 -0.43 2.68 -1 3 C-1.99 2.67 -2.98 2.34 -4 2 C-3.38 1.65 -2.76 1.3 -2.12 0.94 C-1.07 0.47 -1.07 0.47 0 0 Z " fill="#000000" transform="translate(136,150)"/>
<path d="M0 0 C1.32 0.33 2.64 0.66 4 1 C3.34 1.66 2.68 2.32 2 3 C1.34 2.01 0.68 1.02 0 0 Z " fill="#000000" transform="translate(62,151)"/>
<path d="" fill="#000000" transform="translate(0,0)"/>
<path d="" fill="#000000" transform="translate(0,0)"/>
<path d="M0 0 C1.48 0.99 1.48 0.99 3 2 C2.67 2.66 2.34 3.32 2 4 C1.34 2.68 0.68 1.36 0 0 Z " fill="#000000" transform="translate(113,151)"/>
<path d="M0 0 C0 3 0 3 0 3 Z " fill="#000000" transform="translate(85,152)"/>
<path d="" fill="#000000" transform="translate(0,0)"/>
<path d="" fill="#000000" transform="translate(0,0)"/>
<path d="" fill="#000000" transform="translate(0,0)"/>
<path d="M0 0 C4 1 4 1 4 1 Z " fill="#000000" transform="translate(128,153)"/>
<path d="M0 0 C1.32 0.33 2.64 0.66 4 1 C3.01 1.5 3.01 1.5 2 2 C1.34 1.34 0.68 0.68 0 0 Z " fill="#000000" transform="translate(65,154)"/>
<path d="M0 0 C2 1 2 1 2 1 Z " fill="#000000" transform="translate(99,154)"/>
<path d="M0 0 C1.14 0.5 1.14 0.5 2.31 1 C3.64 1.5 3.64 1.5 5 2 C5.99 2 6.98 2 8 2 C7.38 2.5 6.76 2.99 6.12 3.5 C5.42 4 4.72 4.49 4 5 C3.34 5 2.68 5 2 5 C1.34 3.35 0.68 1.7 0 0 Z " fill="#000000" transform="translate(110,154)"/>
<path d="" fill="#000000" transform="translate(0,0)"/>
<path d="" fill="#000000" transform="translate(0,0)"/>
<path d="" fill="#000000" transform="translate(0,0)"/>
<path d="" fill="#000000" transform="translate(0,0)"/>
<path d="M0 0 C0.99 0.33 1.98 0.66 3 1 C2.01 1 1.02 1 0 1 C0 0.67 0 0.34 0 0 Z " fill="#000000" transform="translate(69,156)"/>
<path d="M0 0 C3 1 3 1 3 1 Z " fill="#000000" transform="translate(79,156)"/>
<path d="" fill="#000000" transform="translate(0,0)"/>
<path d="" fill="#000000" transform="translate(0,0)"/>
<path d="M0 0 C0.99 0.5 0.99 0.5 2 1 C1.67 1.66 1.34 2.32 1 3 C0.67 2.01 0.34 1.02 0 0 Z " fill="#000000" transform="translate(107,156)"/>
<path d="" fill="#000000" transform="translate(0,0)"/>
<path d="M0 0 C0 0.99 0 1.98 0 3 C-0.49 3.7 -0.99 4.4 -1.5 5.12 C-1.99 6.07 -2.49 7.02 -3 8 C-3.1 8.66 -3.2 9.33 -3.3 10.01 C-3.34 11.12 -3.34 11.12 -3.38 12.25 C-3.35 13.02 -3.32 13.8 -3.3 14.6 C-3.2 15.39 -3.1 16.18 -3 17 C-2.8 17.78 -2.6 18.56 -2.39 19.37 C-2.14 20.14 -1.89 20.9 -1.62 21.69 C-1.22 22.79 -1.22 22.79 -0.8 23.91 C-0.4 24.95 -0.4 24.95 0 26 C0.21 26.63 0.43 27.25 0.64 27.9 C0.82 28.45 1 29 1.19 29.56 C1.46 30.37 1.72 31.17 2 32 C1.55 31.59 1.1 31.18 0.63 30.76 C0.09 30.18 -0.44 29.6 -1 29 C-1.37 28.35 -1.75 27.69 -2.13 27.02 C-2.46 26.29 -2.79 25.56 -3.12 24.81 C-3.46 24.01 -3.79 23.22 -4.14 22.39 C-4.42 21.6 -4.71 20.81 -5 20 C-5.19 19.32 -5.38 18.65 -5.58 17.95 C-5.7 17.31 -5.82 16.66 -5.94 16 C-5.99 15.36 -6.05 14.71 -6.11 14.05 C-6.07 13.37 -6.04 12.7 -6 12 C-5.83 11.21 -5.66 10.42 -5.49 9.61 C-5.24 8.81 -5 8.01 -4.75 7.19 C-4.5 6.46 -4.24 5.73 -3.98 4.98 C-3.66 4.33 -3.33 3.67 -3 3 C-2.47 2.42 -1.94 1.84 -1.39 1.24 C-0.93 0.83 -0.47 0.42 0 0 Z " fill="#000000" transform="translate(50,158)"/>
<path d="M0 0 C1.32 1.32 2.64 2.64 4 4 C2.68 3.34 1.36 2.68 0 2 C0 1.34 0 0.68 0 0 Z " fill="#000000" transform="translate(53,158)"/>
<path d="M0 0 C0.99 0.33 1.98 0.66 3 1 C2.01 1 1.02 1 0 1 C0 0.67 0 0.34 0 0 Z " fill="#000000" transform="translate(72,158)"/>
<path d="" fill="#000000" transform="translate(0,0)"/>
<path d="" fill="#000000" transform="translate(0,0)"/>
<path d="" fill="#000000" transform="translate(0,0)"/>
<path d="M0 0 C0.58 0.12 1.17 0.24 1.77 0.37 C2.56 0.77 2.56 0.77 3.38 1.19 C4.24 1.79 5.11 2.38 6 3 C6.33 3.33 6.66 3.66 7 4 C6.96 5.11 6.92 6.23 6.88 7.38 C6.78 8 6.69 8.63 6.59 9.28 C6.4 9.85 6.2 10.41 6 11 C5.15 11.64 4.31 12.28 3.44 12.94 C2.63 13.29 1.83 13.64 1 14 C0.67 13.34 0.34 12.68 0 12 C0.66 12 1.32 12 2 12 C1.67 11.34 1.34 10.68 1 10 C0.46 9.86 -0.08 9.73 -0.63 9.59 C-1.27 9.52 -1.91 9.45 -2.56 9.38 C-3.7 9.25 -4.83 9.13 -6 9 C-5.67 8.34 -5.34 7.68 -5 7 C-4.34 7 -3.68 7 -3 7 C-3 6.34 -3 5.68 -3 5 C-4.32 4.67 -5.64 4.34 -7 4 C-6.56 3.68 -6.13 3.35 -5.68 3.02 C-5.08 2.62 -4.49 2.22 -3.88 1.81 C-3.24 1.44 -2.61 1.08 -1.95 0.7 C-1.31 0.47 -0.66 0.24 0 0 Z M2 3 C2.66 3.66 3.32 4.32 4 5 C4 4.34 4 3.68 4 3 C3.34 3 2.68 3 2 3 Z " fill="#000000" transform="translate(94,158)"/>
<path d="" fill="#000000" transform="translate(0,0)"/>
<path d="M0 0 C0.99 0.33 1.98 0.66 3 1 C1.02 1.99 1.02 1.99 -1 3 C-0.67 2.01 -0.34 1.02 0 0 Z " fill="#000000" transform="translate(109,159)"/>
<path d="M0 0 C1.98 0.99 1.98 0.99 4 2 C3.01 2 2.02 2 1 2 C0.67 1.34 0.34 0.68 0 0 Z " fill="#000000" transform="translate(75,160)"/>
<path d="" fill="#000000" transform="translate(0,0)"/>
<path d="" fill="#000000" transform="translate(0,0)"/>
<path d="M0 0 C0.99 0.5 0.99 0.5 2 1 C1.01 1.5 1.01 1.5 0 2 C0 1.34 0 0.68 0 0 Z " fill="#000000" transform="translate(50,161)"/>
<path d="" fill="#000000" transform="translate(0,0)"/>
<path d="" fill="#000000" transform="translate(0,0)"/>
<path d="M0 0 C2 1 2 1 2 1 Z " fill="#000000" transform="translate(82,162)"/>
<path d="" fill="#000000" transform="translate(0,0)"/>
<path d="" fill="#000000" transform="translate(0,0)"/>
<path d="M0 0 C0.33 0.66 0.66 1.32 1 2 C0.34 2.66 -0.32 3.32 -1 4 C-0.67 2.68 -0.34 1.36 0 0 Z " fill="#000000" transform="translate(49,163)"/>
<path d="" fill="#000000" transform="translate(0,0)"/>
<path d="M0 0 C2 1 2 1 2 1 Z " fill="#000000" transform="translate(79,163)"/>
<path d="" fill="#000000" transform="translate(0,0)"/>
<path d="" fill="#000000" transform="translate(0,0)"/>
<path d="M0 0 C0.33 0.99 0.66 1.98 1 3 C0.34 3.66 -0.32 4.32 -1 5 C-0.67 3.35 -0.34 1.7 0 0 Z " fill="#000000" transform="translate(105,164)"/>
<path d="M0 0 C2.48 0.99 2.48 0.99 5 2 C4.01 2.5 4.01 2.5 3 3 C2.01 2.01 1.02 1.02 0 0 Z " fill="#000000" transform="translate(60,165)"/>
<path d="M0 0 C1 4 1 4 1 4 Z " fill="#000000" transform="translate(47,167)"/>
<path d="" fill="#000000" transform="translate(0,0)"/>
<path d="" fill="#000000" transform="translate(0,0)"/>
<path d="" fill="#000000" transform="translate(0,0)"/>
<path d="M0 0 C1.3 0.43 1.3 0.43 2.62 0.88 C3.36 1.12 3.36 1.12 4.1 1.37 C5.04 1.68 5.04 1.68 6 2 C6.97 2.24 7.94 2.47 8.94 2.72 C9.95 3.14 10.96 3.56 12 4 C12.77 4.86 13.54 5.72 14.34 6.6 C14.68 7.09 15.02 7.58 15.37 8.09 C15.87 8.85 15.87 8.85 16.38 9.62 C16.73 10.14 17.08 10.66 17.45 11.19 C17.78 11.67 18.12 12.16 18.46 12.66 C18.97 13.43 19.48 14.21 20 15 C19.01 15.99 18.02 16.98 17 18 C16.42 17.79 15.84 17.58 15.25 17.37 C14.5 16.92 13.76 16.47 13 16 C12.03 14.66 12.03 14.66 11.04 13.29 C10.71 12.76 10.38 12.24 10.05 11.71 C9.56 10.89 9.56 10.89 9.06 10.06 C8.74 9.52 8.42 8.99 8.09 8.43 C7.6 7.65 7.6 7.65 7.1 6.85 C6.77 6.35 6.44 5.85 6.1 5.34 C5.74 4.9 5.37 4.45 5 4 C4.09 3.4 3.18 2.8 2.25 2.18 C1.5 1.79 0.76 1.4 0 1 C0 0.67 0 0.34 0 0 Z M9 5 C9.66 6.32 10.32 7.64 11 9 C11 7.68 11 6.36 11 5 C10.34 5 9.68 5 9 5 Z M11 9 C11.66 10.32 12.32 11.64 13 13 C13.66 13 14.32 13 15 13 C14.34 11.68 13.68 10.36 13 9 C12.34 9 11.68 9 11 9 Z M16 14 C17 16 17 16 17 16 Z " fill="#000000" transform="translate(65,168)"/>
<path d="" fill="#000000" transform="translate(0,0)"/>
<path d="" fill="#000000" transform="translate(0,0)"/>
<path d="M0 0 C0.33 0.99 0.66 1.98 1 3 C0.44 3.87 -0.11 4.73 -0.69 5.62 C-1.83 6.8 -1.83 6.8 -3 8 C-3.71 8.21 -4.42 8.43 -5.14 8.65 C-5.76 8.76 -6.37 8.88 -7 9 C-6.58 8.52 -6.16 8.04 -5.72 7.54 C-5.17 6.91 -4.63 6.28 -4.06 5.62 C-3.52 5 -2.97 4.37 -2.41 3.73 C-1.94 3.16 -1.48 2.59 -1 2 C-0.67 1.34 -0.34 0.68 0 0 Z " fill="#000000" transform="translate(124,170)"/>
<path d="" fill="#000000" transform="translate(0,0)"/>
<path d="" fill="#000000" transform="translate(0,0)"/>
<path d="" fill="#000000" transform="translate(0,0)"/>
<path d="M0 0 C2 1 2 1 2 1 Z " fill="#000000" transform="translate(99,173)"/>
<path d="M0 0 C0.33 0 0.66 0 1 0 C1 2.31 1 4.62 1 7 C0.67 7 0.34 7 0 7 C0 4.69 0 2.38 0 0 Z " fill="#000000" transform="translate(53,174)"/>
<path d="" fill="#000000" transform="translate(0,0)"/>
<path d="M0 0 C2 1 2 1 2 1 Z " fill="#000000" transform="translate(97,174)"/>
<path d="M0 0 C0 0.99 0 1.98 0 3 C-0.51 3.67 -1.01 4.34 -1.53 5.04 C-2.35 5.68 -3.16 6.33 -4 7 C-4.55 7.23 -5.1 7.47 -5.67 7.71 C-6.59 8 -6.59 8 -7.53 8.31 C-8.18 8.5 -8.82 8.69 -9.49 8.88 C-10.15 9.07 -10.82 9.25 -11.5 9.44 C-12.16 9.62 -12.83 9.79 -13.51 9.98 C-14.16 10.17 -14.8 10.36 -15.47 10.56 C-16.39 10.87 -16.39 10.87 -17.33 11.18 C-17.88 11.45 -18.43 11.72 -19 12 C-19.45 12.42 -19.9 12.84 -20.36 13.27 C-20.73 13.73 -21.09 14.19 -21.47 14.66 C-21.97 15.43 -22.48 16.2 -23 17 C-22.37 16.99 -21.75 16.98 -21.1 16.96 C-20.28 16.96 -19.47 16.95 -18.62 16.94 C-17.81 16.93 -17 16.91 -16.16 16.9 C-15.09 16.95 -15.09 16.95 -14 17 C-13.34 17.33 -12.68 17.66 -12 18 C-12.23 18.8 -12.45 19.61 -12.69 20.44 C-12.86 20.98 -13.04 21.51 -13.22 22.07 C-13.48 22.7 -13.74 23.34 -14 24 C-14.62 25.19 -14.62 25.19 -15.25 26.4 C-15.7 27.22 -16.16 28.03 -16.62 28.88 C-17.07 29.66 -17.52 30.44 -17.98 31.24 C-18.31 31.82 -18.65 32.4 -19 33 C-19.33 32.34 -19.66 31.68 -20 31 C-19.6 30.07 -19.2 29.14 -18.79 28.18 C-18.51 27.64 -18.24 27.11 -17.96 26.56 C-17.66 26 -17.37 25.45 -17.06 24.88 C-16.77 24.31 -16.48 23.75 -16.18 23.17 C-15.91 22.64 -15.63 22.1 -15.35 21.55 C-14.9 20.71 -14.46 19.87 -14 19 C-17.3 19 -20.6 19 -24 19 C-24.87 20.86 -24.87 20.86 -25.75 22.75 C-26.12 23.48 -26.5 24.21 -26.88 24.96 C-27.25 25.64 -27.62 26.31 -28 27 C-28.56 27.76 -29.11 28.53 -29.69 29.31 C-30.45 29.87 -31.21 30.43 -32 31 C-32.66 31.29 -33.33 31.57 -34.01 31.87 C-34.77 32.14 -35.53 32.41 -36.31 32.69 C-37.1 32.92 -37.88 33.16 -38.69 33.4 C-39.83 33.7 -39.83 33.7 -41 34 C-41.65 34.15 -42.3 34.29 -42.96 34.44 C-43.85 34.59 -43.85 34.59 -44.75 34.75 C-45.82 34.83 -46.89 34.91 -48 35 C-48.97 34.86 -49.94 34.71 -50.94 34.56 C-51.96 34.28 -51.96 34.28 -53 34 C-53 33.67 -53 33.34 -53 33 C-51.93 32.94 -51.93 32.94 -50.84 32.89 C-49.88 32.82 -48.92 32.76 -47.94 32.69 C-46.43 32.54 -46.43 32.54 -44.9 32.4 C-43.46 32.2 -43.46 32.2 -42 32 C-41.29 31.83 -40.58 31.65 -39.85 31.48 C-39.26 31.26 -38.67 31.04 -38.06 30.81 C-37.26 30.43 -37.26 30.43 -36.44 30.03 C-35.96 29.69 -35.49 29.35 -35 29 C-34.57 28.49 -34.13 27.99 -33.69 27.47 C-33.32 26.92 -32.94 26.38 -32.56 25.81 C-32.05 24.88 -31.53 23.96 -31 23 C-30.34 23.66 -29.68 24.32 -29 25 C-28.62 24.18 -28.25 23.36 -27.86 22.52 C-27.62 21.99 -27.37 21.47 -27.11 20.93 C-26.85 20.38 -26.58 19.82 -26.31 19.25 C-25.95 18.44 -25.95 18.44 -25.57 17.62 C-25.19 16.82 -25.19 16.82 -24.8 16.02 C-24.38 15.24 -24.38 15.24 -23.95 14.45 C-23.64 13.97 -23.32 13.49 -23 13 C-22.22 12.24 -21.44 11.48 -20.63 10.7 C-19.76 10.14 -18.89 9.58 -18 9 C-16.69 8.59 -16.69 8.59 -15.35 8.16 C-14.45 7.99 -13.55 7.81 -12.62 7.62 C-11.67 7.39 -10.72 7.16 -9.74 6.93 C-8.83 6.62 -7.93 6.31 -7 6 C-6.25 5.5 -5.5 5 -4.73 4.48 C-4.1 3.93 -3.46 3.38 -2.81 2.81 C-2.26 2.28 -1.71 1.75 -1.14 1.21 C-0.77 0.81 -0.39 0.41 0 0 Z " fill="#000000" transform="translate(126,174)"/>
<path d="M0 0 C3 1 3 1 3 1 Z " fill="#000000" transform="translate(91,177)"/>
<path d="M0 0 C0.99 0.33 1.98 0.66 3 1 C2.01 1 1.02 1 0 1 C0 0.67 0 0.34 0 0 Z " fill="#000000" transform="translate(82,178)"/>
<path d="" fill="#000000" transform="translate(0,0)"/>
<path d="M0 0 C4 1 4 1 4 1 Z " fill="#000000" transform="translate(113,179)"/>
<path d="M0 0 C2 1 2 1 2 1 Z " fill="#000000" transform="translate(127,179)"/>
<path d="M0 0 C3 1 3 1 3 1 Z " fill="#000000" transform="translate(85,180)"/>
<path d="" fill="#000000" transform="translate(0,0)"/>
<path d="M0 0 C3 1 3 1 3 1 Z " fill="#000000" transform="translate(107,180)"/>
<path d="M0 0 C0.64 0.31 1.28 0.62 1.94 0.94 C2.96 1.46 2.96 1.46 4 2 C4.33 2.33 4.66 2.66 5 3 C5.1 4.18 5.1 4.18 5.2 5.38 C5.22 6.43 5.23 7.48 5.25 8.56 C5.25 9.13 5.25 9.7 5.26 10.28 C5.24 11.18 5.24 11.18 5.23 12.09 C5.21 12.72 5.18 13.35 5.15 14 C5.1 14.66 5.05 15.32 5 16 C4.91 16.7 4.81 17.4 4.72 18.12 C4.54 19.19 4.54 19.19 4.36 20.28 C4.23 20.99 4.11 21.71 3.97 22.44 C3.77 23.49 3.77 23.49 3.56 24.56 C3.36 25.58 3.36 25.58 3.16 26.62 C3.02 27.26 2.89 27.9 2.75 28.57 C2.57 29.47 2.57 29.47 2.38 30.4 C2.25 30.93 2.13 31.46 2 32 C1.74 32.72 1.49 33.44 1.22 34.18 C1.15 34.78 1.08 35.38 1 36 C1.39 36.76 1.78 37.51 2.18 38.29 C2.74 39.06 3.3 39.83 3.88 40.62 C4.43 41.4 4.98 42.18 5.55 42.98 C6.27 43.98 6.27 43.98 7 45 C7.33 45.66 7.66 46.32 8 47 C8.09 48.49 8.09 48.49 8.19 50 C8.09 51.49 8.09 51.49 8 53 C7.34 53.66 6.68 54.32 6 55 C5.18 54.92 4.35 54.84 3.5 54.75 C2.68 54.5 1.85 54.25 1 54 C0.34 53.34 -0.32 52.68 -1 52 C2.47 52.5 2.47 52.5 6 53 C5.89 52.49 5.78 51.98 5.67 51.46 C5.51 50.77 5.35 50.08 5.19 49.38 C5 48.65 4.81 47.92 4.62 47.18 C4.42 46.46 4.21 45.74 4 45 C3.71 44.09 3.71 44.09 3.41 43.17 C3.19 42.64 2.97 42.11 2.75 41.56 C2.17 40.72 1.59 39.87 1 39 C0.11 38.69 -0.77 38.38 -1.69 38.06 C-3.33 38.03 -3.33 38.03 -5 38 C-5.72 38.06 -6.43 38.12 -7.17 38.18 C-7.9 38.26 -8.62 38.35 -9.38 38.44 C-10.41 38.59 -10.41 38.59 -11.46 38.75 C-11.97 38.83 -12.48 38.91 -13 39 C-12.34 39.66 -11.68 40.32 -11 41 C-10.36 41.78 -9.72 42.57 -9.06 43.38 C-8.04 44.67 -8.04 44.67 -7 46 C-6.42 46.76 -5.84 47.53 -5.25 48.31 C-4.84 48.87 -4.42 49.43 -4 50 C-4.56 49.77 -5.12 49.55 -5.7 49.32 C-6.46 48.88 -7.22 48.45 -8 48 C-8.77 47.23 -9.54 46.45 -10.33 45.65 C-10.94 44.99 -10.94 44.99 -11.56 44.32 C-11.98 43.86 -12.39 43.41 -12.81 42.94 C-13.41 42.25 -13.41 42.25 -14.03 41.54 C-14.44 41.11 -14.85 40.67 -15.27 40.21 C-15.69 39.81 -16.12 39.4 -16.56 38.98 C-17.03 38.66 -17.51 38.33 -18 38 C-18.9 37.77 -18.9 37.77 -19.81 37.54 C-20.44 37.47 -21.06 37.39 -21.7 37.32 C-22.79 37.21 -23.88 37.11 -25 37 C-25.66 36.34 -26.32 35.68 -27 35 C-26.67 34.01 -26.34 33.02 -26 32 C-25.62 32.72 -25.62 32.72 -25.22 33.46 C-24.62 34.22 -24.62 34.22 -24 35 C-23.46 35.17 -22.92 35.34 -22.37 35.51 C-21.41 35.6 -21.41 35.6 -20.44 35.69 C-19.73 35.75 -19.02 35.81 -18.29 35.88 C-17.53 35.92 -16.78 35.96 -16 36 C-15.22 36.04 -14.45 36.08 -13.65 36.12 C-12.88 36.15 -12.11 36.17 -11.31 36.19 C-10.56 36.17 -9.81 36.15 -9.04 36.14 C-8.37 36.09 -7.69 36.05 -7 36 C-5.58 35.75 -5.58 35.75 -4.12 35.5 C-3.42 35 -2.72 34.51 -2 34 C-1.69 33.43 -1.39 32.85 -1.07 32.26 C-0.8 31.58 -0.53 30.89 -0.25 30.19 C-0.03 29.52 0.19 28.85 0.42 28.17 C0.61 27.45 0.8 26.74 1 26 C1.19 25.28 1.37 24.55 1.57 23.81 C1.71 22.88 1.85 21.95 2 21 C2.04 20.33 2.07 19.66 2.11 18.96 C2.13 18.21 2.15 17.46 2.17 16.68 C2.17 15.9 2.18 15.11 2.19 14.31 C2.19 13.51 2.19 12.7 2.19 11.88 C2.21 10.66 2.21 10.66 2.22 9.42 C2.23 8.64 2.23 7.86 2.23 7.05 C2.24 5.99 2.24 5.99 2.24 4.91 C2.16 4.28 2.08 3.65 2 3 C1.67 2.42 1.33 1.84 0.99 1.25 C0.66 0.84 0.34 0.42 0 0 Z " fill="#000000" transform="translate(129,180)"/>
<path d="M0 0 C2 1 2 1 2 1 Z " fill="#000000" transform="translate(104,181)"/>
<path d="M0 0 C2 1 2 1 2 1 Z " fill="#000000" transform="translate(102,182)"/>
<path d="" fill="#000000" transform="translate(0,0)"/>
<path d="" fill="#000000" transform="translate(0,0)"/>
<path d="" fill="#000000" transform="translate(0,0)"/>
<path d="" fill="#000000" transform="translate(0,0)"/>
<path d="M0 0 C1.48 0.99 1.48 0.99 3 2 C2.67 2.66 2.34 3.32 2 4 C1.34 2.68 0.68 1.36 0 0 Z " fill="#000000" transform="translate(52,190)"/>
<path d="M0 0 C0.33 0.99 0.66 1.98 1 3 C0.34 3.66 -0.32 4.32 -1 5 C-0.67 3.35 -0.34 1.7 0 0 Z " fill="#000000" transform="translate(97,192)"/>
<path d="" fill="#000000" transform="translate(0,0)"/>
<path d="" fill="#000000" transform="translate(0,0)"/>
<path d="" fill="#000000" transform="translate(0,0)"/>
<path d="" fill="#000000" transform="translate(0,0)"/>
<path d="" fill="#000000" transform="translate(0,0)"/>
<path d="" fill="#000000" transform="translate(0,0)"/>
<path d="" fill="#000000" transform="translate(0,0)"/>
<path d="" fill="#000000" transform="translate(0,0)"/>
<path d="M0 0 C0.99 0.33 1.98 0.66 3 1 C2.01 1 1.02 1 0 1 C0 0.67 0 0.34 0 0 Z " fill="#000000" transform="translate(63,202)"/>
<path d="M0 0 C0.66 0.33 1.32 0.66 2 1 C2.01 1.63 2.01 2.26 2.02 2.91 C2.02 3.79 2.03 4.66 2.04 5.57 C2.04 6.53 2.04 7.49 2.05 8.48 C2.05 9.5 2.06 10.51 2.06 11.56 C2.07 12.55 2.08 13.54 2.09 14.56 C2.09 15.53 2.09 16.5 2.1 17.5 C2.09 18.45 2.09 19.39 2.08 20.36 C2.04 21.67 2.04 21.67 2 23 C1.89 24.13 1.89 24.13 1.77 25.28 C1.68 25.92 1.59 26.56 1.5 27.21 C1.33 28.13 1.17 29.05 1 30 C1.57 30.27 2.13 30.53 2.71 30.8 C3.82 31.33 3.82 31.33 4.94 31.88 C6.03 32.4 6.03 32.4 7.15 32.93 C8.07 33.46 8.07 33.46 9 34 C9.33 34.66 9.66 35.32 10 36 C9.3 35.71 8.6 35.42 7.88 35.12 C6.93 34.75 5.98 34.38 5 34 C3.55 33.41 3.55 33.41 2.06 32.81 C1.05 32.54 0.04 32.28 -1 32 C-2.11 32.12 -3.23 32.25 -4.38 32.38 C-5.24 32.58 -6.11 32.79 -7 33 C-6.55 32.69 -6.09 32.38 -5.62 32.06 C-5.09 31.71 -4.55 31.36 -4 31 C-3.34 30.67 -2.68 30.34 -2 30 C-1.79 29.39 -1.58 28.79 -1.37 28.16 C-1.2 27.33 -1.04 26.49 -0.88 25.62 C-0.63 24.17 -0.63 24.17 -0.38 22.68 C-0.31 22.11 -0.24 21.55 -0.16 20.96 C-0.11 20.32 -0.06 19.67 0 19 C0.03 18.21 0.06 17.43 0.09 16.62 C0.1 15.77 0.11 14.92 0.12 14.04 C0.13 13.18 0.13 12.32 0.14 11.43 C0.13 10.57 0.13 9.7 0.12 8.81 C0.12 7.95 0.11 7.09 0.1 6.2 C0.09 5.4 0.08 4.6 0.07 3.77 C0.06 3.04 0.04 2.32 0.03 1.57 C0.02 1.05 0.01 0.53 0 0 Z " fill="#000000" transform="translate(96,203)"/>
<path d="M0 0 C2 1 2 1 2 1 Z " fill="#000000" transform="translate(66,204)"/>
<path d="M0 0 C2.47 0.5 2.47 0.5 5 1 C4.01 1.33 3.02 1.66 2 2 C1.34 1.34 0.68 0.68 0 0 Z " fill="#000000" transform="translate(68,205)"/>
<path d="M0 0 C0.33 0.66 0.66 1.32 1 2 C0.01 2.99 -0.98 3.98 -2 5 C-1.34 3.35 -0.68 1.7 0 0 Z " fill="#000000" transform="translate(105,207)"/>
<path d="M0 0 C0.19 0.56 0.38 1.12 0.58 1.69 C0.72 2.45 0.86 3.22 1 4 C0.85 4.79 0.7 5.59 0.55 6.4 C0.28 7.24 0.02 8.08 -0.25 8.94 C-0.53 9.81 -0.81 10.68 -1.1 11.58 C-1.4 12.38 -1.69 13.18 -2 14 C-2.43 14.87 -2.43 14.87 -2.87 15.76 C-3.14 16.21 -3.41 16.66 -3.69 17.12 C-4.12 17.74 -4.55 18.36 -5 19 C-5.33 18.34 -5.66 17.68 -6 17 C-5.77 16.29 -5.53 15.59 -5.29 14.86 C-4.75 13.6 -4.75 13.6 -4.19 12.31 C-3.81 11.42 -3.44 10.54 -3.06 9.62 C-2.53 8.32 -2.53 8.32 -2 7 C-1.65 5.9 -1.65 5.9 -1.29 4.79 C-1.11 4.15 -0.93 3.52 -0.75 2.88 C-0.5 1.93 -0.25 0.98 0 0 Z " fill="#000000" transform="translate(76,209)"/>
<path d="" fill="#000000" transform="translate(0,0)"/>
<path d="" fill="#000000" transform="translate(0,0)"/>
<path d="" fill="#000000" transform="translate(0,0)"/>
<path d="" fill="#000000" transform="translate(0,0)"/>
<path d="" fill="#000000" transform="translate(0,0)"/>
<path d="" fill="#000000" transform="translate(0,0)"/>
<path d="M0 0 C0.99 0.33 1.98 0.66 3 1 C2.67 1.66 2.34 2.32 2 3 C1.34 2.01 0.68 1.02 0 0 Z " fill="#000000" transform="translate(125,222)"/>
<path d="" fill="#000000" transform="translate(0,0)"/>
<path d="" fill="#000000" transform="translate(0,0)"/>
<path d="" fill="#000000" transform="translate(0,0)"/>
<path d="M0 0 C2 1 2 1 2 1 Z " fill="#000000" transform="translate(128,225)"/>
<path d="M0 0 C2 1 2 1 2 1 Z " fill="#000000" transform="translate(126,226)"/>
<path d="" fill="#000000" transform="translate(0,0)"/>
<path d="" fill="#000000" transform="translate(0,0)"/>
<path d="M0 0 C0.33 0.66 0.66 1.32 1 2 C0.96 2.57 0.92 3.14 0.88 3.73 C0.77 4.35 0.67 4.98 0.56 5.62 C0.28 7.3 0.28 7.3 0 9 C2.31 9.33 4.62 9.66 7 10 C7 10.33 7 10.66 7 11 C5.35 11 3.7 11 2 11 C2 11.66 2 12.32 2 13 C2.66 13.33 3.32 13.66 4 14 C2.35 13.67 0.7 13.34 -1 13 C-1 11.35 -1 9.7 -1 8 C-1.66 8 -2.32 8 -3 8 C-2.87 7.51 -2.73 7.01 -2.6 6.5 C-2.42 5.86 -2.24 5.22 -2.06 4.56 C-1.89 3.92 -1.71 3.29 -1.54 2.63 C-1.36 2.09 -1.18 1.55 -1 1 C-0.67 0.67 -0.34 0.34 0 0 Z " fill="#000000" transform="translate(69,228)"/>
<path d="" fill="#000000" transform="translate(0,0)"/>
<path d="" fill="#000000" transform="translate(0,0)"/>
<path d="M0 0 C0.99 0.33 1.98 0.66 3 1 C2.01 1 1.02 1 0 1 C0 0.67 0 0.34 0 0 Z " fill="#000000" transform="translate(125,230)"/>
<path d="" fill="#000000" transform="translate(0,0)"/>
<path d="" fill="#000000" transform="translate(0,0)"/>
<path d="M0 0 C1.65 0 3.3 0 5 0 C5 0.33 5 0.66 5 1 C3.35 1 1.7 1 0 1 C0 0.67 0 0.34 0 0 Z " fill="#000000" transform="translate(84,236)"/>
<path d="M0 0 C2.31 0 4.62 0 7 0 C7 0.33 7 0.66 7 1 C4.69 1 2.38 1 0 1 C0 0.67 0 0.34 0 0 Z " fill="#000000" transform="translate(77,237)"/>
<path d="" fill="#000000" transform="translate(0,0)"/>
<path d="" fill="#000000" transform="translate(0,0)"/>
<path d="" fill="#000000" transform="translate(0,0)"/>
<path d="M0 0 C0.66 0.33 1.32 0.66 2 1 C1.67 2.32 1.34 3.64 1 5 C0.34 4.67 -0.32 4.34 -1 4 C-0.67 2.68 -0.34 1.36 0 0 Z " fill="#000000" transform="translate(107,240)"/>
<path d="M0 0 C1.03 0.14 2.06 0.29 3.12 0.44 C4 0.56 4 0.56 4.88 0.68 C5.93 0.84 5.93 0.84 7 1 C7.86 1.16 8.71 1.33 9.59 1.5 C11.28 1.75 11.28 1.75 13 2 C14.17 2.09 14.17 2.09 15.35 2.17 C16.64 2.24 16.64 2.24 17.96 2.32 C19.29 2.38 19.29 2.38 20.64 2.44 C21.54 2.48 22.44 2.52 23.38 2.56 C24.3 2.61 25.23 2.65 26.18 2.69 C27.5 2.75 27.5 2.75 28.84 2.82 C29.64 2.85 30.44 2.89 31.26 2.92 C31.83 2.95 32.41 2.97 33 3 C33 3.33 33 3.66 33 4 C32.09 4.02 32.09 4.02 31.16 4.05 C29.88 4.08 29.88 4.08 28.57 4.11 C27.64 4.12 26.7 4.14 25.73 4.15 C24.73 4.16 23.72 4.18 22.69 4.19 C21.68 4.2 20.68 4.2 19.64 4.21 C18.65 4.21 17.65 4.2 16.63 4.2 C15.17 4.17 15.17 4.17 13.68 4.14 C12.8 4.1 11.91 4.05 11 4 C10.3 3.9 9.6 3.81 8.88 3.71 C8.29 3.58 7.7 3.46 7.09 3.33 C6.11 3.06 5.13 2.78 4.12 2.5 C3.3 2.22 2.48 1.94 1.63 1.66 C1.09 1.44 0.56 1.22 0 1 C0 0.67 0 0.34 0 0 Z " fill="#000000" transform="translate(73,242)"/>
<path d="M0 0 C2 1 2 1 2 1 Z " fill="#000000" transform="translate(104,243)"/>
<path d="M0 0 C2 1 2 1 2 1 Z " fill="#000000" transform="translate(107,249)"/>
</svg>
