<?xml version="1.0" encoding="UTF-8"?>
<!-- Generator: visioncortex VTracer 0.6.4 -->
<svg version="1.1" xmlns="http://www.w3.org/2000/svg" width="250" height="250">
<path d="M0 0 C0.99 0.33 1.98 0.66 3 1 C2.01 1 1.02 1 0 1 C0 0.67 0 0.34 0 0 Z " fill="#000000" transform="translate(174,3)"/>
<path d="" fill="#000000" transform="translate(0,0)"/>
<path d="M0 0 C0.73 0.69 1.46 1.38 2.22 2.09 C2.68 2.55 3.13 3.01 3.61 3.48 C4.3 4.23 4.3 4.23 5 5 C5.39 5.51 5.78 6.01 6.18 6.53 C6.54 7.06 6.91 7.59 7.28 8.13 C7.65 8.68 8.01 9.24 8.39 9.81 C8.75 10.39 9.12 10.97 9.5 11.56 C10.08 12.47 10.08 12.47 10.67 13.4 C11.25 14.32 11.25 14.32 11.84 15.27 C12.39 16.2 12.39 16.2 12.96 17.15 C13.3 17.76 13.65 18.37 14 19 C14.44 19.88 14.44 19.88 14.9 20.79 C15.16 21.36 15.42 21.93 15.69 22.51 C15.93 23.06 16.17 23.6 16.41 24.17 C16.63 24.69 16.84 25.21 17.06 25.75 C17.45 26.71 17.83 27.68 18.22 28.67 C18.61 29.82 18.61 29.82 19 31 C19 31.66 19 32.32 19 33 C21.97 33 24.94 33 28 33 C27.34 33.66 26.68 34.32 26 35 C25.34 35.15 24.69 35.3 24.01 35.45 C23.24 35.53 22.48 35.61 21.69 35.69 C20.93 35.77 20.17 35.86 19.39 35.95 C18.21 35.97 18.21 35.97 17 36 C15.92 35.76 15.92 35.76 14.82 35.52 C13.89 35.35 12.96 35.18 12 35 C11.28 34.97 10.56 34.94 9.82 34.92 C9.01 34.91 8.19 34.91 7.36 34.9 C6.51 34.91 5.67 34.91 4.81 34.91 C3.51 34.92 3.51 34.92 2.19 34.94 C1.3 34.94 0.42 34.95 -0.49 34.95 C-1.32 34.96 -2.16 34.96 -3.02 34.96 C-3.78 34.97 -4.55 34.98 -5.34 34.98 C-5.88 34.99 -6.43 34.99 -7 35 C-6.67 34.34 -6.34 33.68 -6 33 C1.26 33 8.52 33 16 33 C15.03 30.48 14.06 27.97 13.06 25.38 C12.73 24.54 12.4 23.71 12.06 22.86 C11.76 22.15 11.46 21.44 11.16 20.71 C10.81 19.92 10.47 19.13 10.11 18.32 C9.75 17.56 9.38 16.79 9 16 C8.6 15.29 8.2 14.58 7.79 13.85 C7.37 13.18 6.96 12.51 6.53 11.82 C6.12 11.19 5.71 10.55 5.29 9.9 C4.88 9.29 4.48 8.69 4.06 8.06 C3.66 7.48 3.26 6.89 2.85 6.29 C2.48 5.75 2.1 5.22 1.72 4.66 C1.15 3.78 0.59 2.9 0 2 C0 1.34 0 0.68 0 0 Z " fill="#000000" transform="translate(178,6)"/>
<path d="M0 0 C0 3 0 3 0 3 Z " fill="#000000" transform="translate(53,13)"/>
<path d="M0 0 C2 1 2 1 2 1 Z " fill="#000000" transform="translate(51,17)"/>
<path d="M0 0 C0.33 0.66 0.66 1.32 1 2 C0.34 1.67 -0.32 1.34 -1 1 C-0.67 0.67 -0.34 0.34 0 0 Z " fill="#000000" transform="translate(51,20)"/>
<path d="M0 0 C2 1 2 1 2 1 Z " fill="#000000" transform="translate(51,23)"/>
<path d="M0 0 C0.33 0 0.66 0 1 0 C1.02 0.72 1.04 1.44 1.06 2.19 C1.04 3.12 1.02 4.04 1 5 C0.81 6.21 0.81 6.21 0.62 7.44 C0.42 8.28 0.21 9.13 0 10 C-0.35 11.09 -0.7 12.19 -1.06 13.31 C-1.53 14.64 -1.53 14.64 -2 16 C-1.34 16.33 -0.68 16.66 0 17 C0.11 17.88 0.23 18.75 0.34 19.65 C0.4 20.74 0.45 21.82 0.5 22.94 C0.55 24.02 0.6 25.1 0.66 26.21 C0.77 27.13 0.88 28.05 1 29 C1.66 29.66 2.32 30.32 3 31 C2.28 31.14 1.56 31.29 0.81 31.44 C-0.12 31.62 -1.04 31.81 -2 32 C-2.93 32.19 -3.86 32.37 -4.81 32.56 C-5.53 32.71 -6.26 32.85 -7 33 C-6.67 32.34 -6.34 31.68 -6 31 C-5.01 30.67 -4.02 30.34 -3 30 C-3.16 29.26 -3.33 28.52 -3.5 27.75 C-3.59 27.2 -3.68 26.65 -3.77 26.09 C-3.84 25.4 -3.92 24.71 -4 24 C-4.06 23.11 -4.11 22.23 -4.17 21.32 C-4.2 20.33 -4.22 19.33 -4.25 18.31 C-4.24 17.28 -4.24 16.25 -4.23 15.19 C-4.15 14.14 -4.08 13.08 -4 12 C-3.79 10.95 -3.58 9.9 -3.36 8.81 C-3.1 7.82 -2.83 6.83 -2.56 5.81 C-2.3 4.91 -2.03 4.01 -1.75 3.08 C-1.38 2.05 -1.38 2.05 -1 1 C-0.67 0.67 -0.34 0.34 0 0 Z " fill="#000000" transform="translate(51,25)"/>
<path d="" fill="#000000" transform="translate(0,0)"/>
<path d="M0 0 C2 1 2 1 2 1 Z " fill="#000000" transform="translate(169,39)"/>
<path d="M0 0 C0.83 -0.02 1.67 -0.05 2.53 -0.07 C3.65 -0.09 4.78 -0.11 5.94 -0.12 C6.53 -0.13 7.13 -0.13 7.74 -0.13 C8.34 -0.12 8.94 -0.12 9.55 -0.11 C11.26 -0.06 11.26 -0.06 13 0 C13.82 0.08 14.64 0.15 15.48 0.23 C16.54 0.43 16.54 0.43 17.62 0.62 C18.67 0.9 18.67 0.9 19.74 1.17 C20.86 1.58 20.86 1.58 22 2 C23.4 2.66 23.4 2.66 24.82 3.33 C26.27 4.09 26.27 4.09 27.75 4.88 C29.13 5.68 29.13 5.68 30.55 6.49 C31.36 6.99 32.17 7.49 33 8 C33.56 8.35 34.12 8.71 34.7 9.07 C35.13 9.38 35.56 9.68 36 10 C36.66 10.66 37.32 11.32 38 12 C38.49 12.71 38.49 12.71 38.99 13.44 C39.43 14.21 39.43 14.21 39.88 15 C40.25 15.99 40.62 16.98 41 18 C41 18.74 41 19.48 41 20.25 C40.67 20.83 40.34 21.41 40 22 C39.24 22.39 38.47 22.78 37.69 23.19 C36.8 23.46 35.91 23.72 35 24 C33.86 24.31 33.86 24.31 32.69 24.62 C32.13 24.75 31.57 24.87 31 25 C31.43 24.55 31.87 24.09 32.31 23.62 C32.87 23.09 33.43 22.55 34 22 C34.53 21.64 35.06 21.27 35.61 20.9 C36.07 20.6 36.53 20.31 37 20 C36.97 19.45 36.95 18.89 36.92 18.32 C36.87 17.6 36.81 16.87 36.75 16.12 C36.7 15.41 36.66 14.69 36.61 13.95 C36.41 13.3 36.21 12.66 36 12 C35.47 11.65 34.93 11.3 34.38 10.93 C33.59 10.63 32.81 10.32 32 10 C31.5 9.77 30.99 9.54 30.47 9.3 C29.64 8.92 29.64 8.92 28.79 8.53 C27.91 8.14 27.91 8.14 27.01 7.74 C26.41 7.48 25.81 7.21 25.19 6.94 C24.6 6.67 24.01 6.4 23.4 6.12 C22.81 5.86 22.21 5.61 21.61 5.34 C21.01 5.1 20.42 4.86 19.82 4.61 C18.92 4.31 18.92 4.31 18 4 C17.37 3.87 16.74 3.73 16.09 3.6 C15.47 3.51 14.85 3.41 14.22 3.32 C12.63 3.16 12.63 3.16 11 3 C10.11 2.98 9.23 2.96 8.31 2.94 C7.55 2.96 6.79 2.98 6 3 C5.3 3 4.6 3 3.88 3 C3.26 3 2.64 3 2 3 C1.01 3 0.02 3 -1 3 C-0.67 2.01 -0.34 1.02 0 0 Z " fill="#000000" transform="translate(207,39)"/>
<path d="M0 0 C0.68 0.04 1.36 0.08 2.07 0.12 C2.89 0.23 3.71 0.33 4.56 0.44 C5.39 0.54 6.22 0.64 7.07 0.75 C7.7 0.83 8.34 0.91 9 1 C9 1.33 9 1.66 9 2 C7.63 2.13 7.63 2.13 6.23 2.25 C5.65 2.3 5.07 2.35 4.48 2.4 C3.56 2.48 3.56 2.48 2.62 2.56 C2.02 2.62 1.42 2.67 0.8 2.73 C-0.07 2.8 -0.07 2.8 -0.96 2.88 C-1.96 2.92 -2.97 2.96 -4 3 C-4.66 2.67 -5.32 2.34 -6 2 C-6 2.66 -6 3.32 -6 4 C-6.66 4 -7.32 4 -8 4 C-8 3.01 -8 2.02 -8 1 C-6.87 1.02 -5.73 1.04 -4.56 1.06 C-3.92 1.07 -3.29 1.09 -2.63 1.1 C-2.09 1.07 -1.55 1.03 -1 1 C-0.67 0.67 -0.34 0.34 0 0 Z " fill="#000000" transform="translate(158,40)"/>
<path d="M0 0 C2 1 2 1 2 1 Z " fill="#000000" transform="translate(167,40)"/>
<path d="M0 0 C1.98 0.49 1.98 0.49 4 1 C2.35 1.66 0.7 2.32 -1 3 C-0.67 2.01 -0.34 1.02 0 0 Z " fill="#000000" transform="translate(145,41)"/>
<path d="" fill="#000000" transform="translate(0,0)"/>
<path d="M0 0 C0.99 0.49 0.99 0.49 2 1 C1.01 1.49 1.01 1.49 0 2 C0 1.34 0 0.68 0 0 Z " fill="#000000" transform="translate(140,42)"/>
<path d="M0 0 C0.66 0 1.32 0 2 0 C2 0.66 2 1.32 2 2 C1.34 2 0.68 2 0 2 C0 1.34 0 0.68 0 0 Z " fill="#000000" transform="translate(124,43)"/>
<path d="M0 0 C0.99 0.33 1.98 0.66 3 1 C2.01 1.33 1.02 1.66 0 2 C0 1.34 0 0.68 0 0 Z " fill="#000000" transform="translate(129,43)"/>
<path d="" fill="#000000" transform="translate(0,0)"/>
<path d="M0 0 C2 1 2 1 2 1 Z " fill="#000000" transform="translate(120,44)"/>
<path d="M0 0 C3 1 3 1 3 1 Z " fill="#000000" transform="translate(137,44)"/>
<path d="" fill="#000000" transform="translate(0,0)"/>
<path d="M0 0 C0.99 0.33 1.98 0.66 3 1 C2.58 1.32 2.15 1.64 1.72 1.96 C0.87 2.48 0.87 2.48 0 3 C-1.14 3.2 -2.27 3.39 -3.44 3.6 C-4.1 3.68 -4.77 3.76 -5.45 3.84 C-6.15 3.91 -6.84 3.99 -7.56 4.06 C-8.27 4.14 -8.99 4.23 -9.72 4.31 C-10.43 4.39 -11.15 4.47 -11.88 4.56 C-12.58 4.63 -13.28 4.71 -14 4.79 C-14.99 4.89 -14.99 4.89 -16 5 C-17.08 5.11 -18.16 5.23 -19.28 5.35 C-20.18 5.44 -21.07 5.53 -22 5.62 C-23.18 5.74 -23.18 5.74 -24.38 5.85 C-24.91 5.9 -25.45 5.95 -26 6 C-25.66 5.53 -25.33 5.06 -24.98 4.57 C-24.33 4.05 -23.67 3.53 -23 3 C-22.46 2.86 -21.92 2.72 -21.37 2.58 C-20.42 2.44 -20.42 2.44 -19.45 2.3 C-18.77 2.23 -18.09 2.15 -17.39 2.07 C-16.68 2.01 -15.98 1.94 -15.25 1.88 C-14.56 1.8 -13.87 1.73 -13.16 1.65 C-12.47 1.58 -11.78 1.51 -11.08 1.43 C-10.4 1.36 -9.72 1.29 -9.02 1.23 C-8.35 1.15 -7.69 1.08 -7 1 C-6.35 0.9 -5.7 0.79 -5.03 0.69 C-4.42 0.59 -3.8 0.49 -3.17 0.38 C-2.13 0.26 -1.08 0.13 0 0 Z " fill="#000000" transform="translate(114,44)"/>
<path d="M0 0 C0.33 0.66 0.66 1.32 1 2 C0.34 1.67 -0.32 1.34 -1 1 C-0.67 0.67 -0.34 0.34 0 0 Z " fill="#000000" transform="translate(86,48)"/>
<path d="M0 0 C0.66 0.33 1.32 0.66 2 1 C1.32 1.31 0.64 1.62 -0.06 1.94 C-1.03 2.29 -2 2.64 -3 3 C-3.94 3.18 -3.94 3.18 -4.89 3.36 C-5.84 3.49 -5.84 3.49 -6.81 3.62 C-7.86 3.75 -8.92 3.87 -10 4 C-10 3.34 -10 2.68 -10 2 C-9.3 1.84 -8.6 1.69 -7.88 1.53 C-6.52 1.24 -6.52 1.24 -5.12 0.94 C-4.22 0.74 -3.32 0.54 -2.38 0.34 C-1.6 0.23 -0.81 0.12 0 0 Z " fill="#000000" transform="translate(82,49)"/>
<path d="M0 0 C2 1 2 1 2 1 Z " fill="#000000" transform="translate(69,51)"/>
<path d="M0 0 C2 1 2 1 2 1 Z " fill="#000000" transform="translate(63,52)"/>
<path d="M0 0 C2 1 2 1 2 1 Z " fill="#000000" transform="translate(67,52)"/>
<path d="M0 0 C0.99 0.33 1.98 0.66 3 1 C1.68 1.33 0.36 1.66 -1 2 C-0.67 1.34 -0.34 0.68 0 0 Z " fill="#000000" transform="translate(60,53)"/>
<path d="" fill="#000000" transform="translate(0,0)"/>
<path d="M0 0 C2 1 2 1 2 1 Z " fill="#000000" transform="translate(40,57)"/>
<path d="M0 0 C0.33 0.66 0.66 1.32 1 2 C0.34 1.67 -0.32 1.34 -1 1 C-0.67 0.67 -0.34 0.34 0 0 Z " fill="#000000" transform="translate(33,58)"/>
<path d="" fill="#000000" transform="translate(0,0)"/>
<path d="M0 0 C3 1 3 1 3 1 Z " fill="#000000" transform="translate(37,58)"/>
<path d="M0 0 C0.67 -0.01 1.33 -0.02 2.02 -0.04 C2.97 -0.04 2.97 -0.04 3.94 -0.05 C4.55 -0.05 5.15 -0.05 5.78 -0.05 C6.37 -0.05 6.96 -0.05 7.56 -0.04 C8.69 -0.02 9.83 -0 10.99 0.02 C12.07 0.05 13.14 0.09 14.25 0.12 C15.29 0.17 16.33 0.22 17.4 0.27 C18.4 0.33 19.39 0.39 20.42 0.45 C21.36 0.53 22.3 0.61 23.27 0.69 C24.17 0.79 25.07 0.9 26 1 C26.87 1.13 27.73 1.26 28.63 1.4 C29.45 1.55 30.27 1.7 31.11 1.86 C31.88 2.02 32.64 2.19 33.42 2.36 C34.13 2.53 34.84 2.7 35.56 2.88 C36.22 3.04 36.87 3.2 37.55 3.36 C38.13 3.53 38.72 3.7 39.32 3.87 C40.64 4.43 40.64 4.43 42 5 C42.33 5.99 42.66 6.98 43 8 C42.11 7.8 41.21 7.59 40.29 7.38 C39.42 7.18 39.42 7.18 38.53 6.98 C37.9 6.84 37.27 6.71 36.62 6.56 C35.68 6.36 35.68 6.36 34.71 6.14 C34.07 6.01 33.44 5.87 32.78 5.73 C31.82 5.54 31.82 5.54 30.85 5.34 C30.24 5.23 29.63 5.12 29 5 C27.96 4.86 26.92 4.72 25.84 4.58 C24.95 4.49 24.05 4.4 23.12 4.31 C22.32 4.25 21.52 4.18 20.7 4.11 C20.14 4.08 19.58 4.04 19 4 C19.54 4.42 20.09 4.85 20.64 5.29 C21.72 6.16 21.72 6.16 22.81 7.06 C23.54 7.69 24.27 8.33 25.02 8.98 C25.67 9.64 26.33 10.31 27 11 C27.4 11.67 27.79 12.34 28.2 13.02 C28.46 13.66 28.73 14.29 29 14.94 C29.33 15.95 29.66 16.96 30 18 C29.13 17.75 28.27 17.5 27.38 17.25 C26.56 16.98 26.56 16.98 25.73 16.71 C25.16 16.48 24.59 16.24 24 16 C23.43 15.66 22.86 15.32 22.27 14.98 C21.45 14.43 21.45 14.43 20.62 13.88 C19.76 13.26 18.89 12.64 18 12 C18.5 12.7 18.99 13.4 19.5 14.12 C20 15.07 20.49 16.02 21 17 C21.06 18.09 21.12 19.19 21.19 20.31 C21.13 21.2 21.06 22.09 21 23 C20.34 23 19.68 23 19 23 C19.99 25.47 19.99 25.47 21 28 C22.09 28.06 23.19 28.12 24.31 28.19 C24.93 28.22 25.54 28.26 26.18 28.29 C26.78 28.53 27.38 28.76 28 29 C28.59 29.7 29.17 30.4 29.78 31.12 C30.18 32.07 30.58 33.02 31 34 C30.96 35.09 30.93 36.18 30.89 37.3 C30.8 37.89 30.7 38.47 30.6 39.07 C30.49 39.67 30.37 40.26 30.25 40.88 C30.15 41.46 30.05 42.05 29.95 42.65 C29.84 43.24 29.74 43.83 29.64 44.43 C29.48 45.31 29.48 45.31 29.32 46.2 C29.16 47.09 29.16 47.09 29 48 C28.89 48.62 28.78 49.24 28.67 49.88 C28.57 50.49 28.48 51.09 28.38 51.72 C28.19 53.34 28.19 53.34 28 55 C28.1 55.65 28.2 56.3 28.3 56.98 C28.52 57.79 28.52 57.79 28.75 58.62 C28.9 59.63 28.9 59.63 29.06 60.66 C29.04 61.43 29.02 62.21 29 63 C28.7 63.94 28.4 64.87 28.1 65.84 C27.67 66.88 27.25 67.92 26.81 69 C26.47 69.81 26.47 69.81 26.11 70.64 C25.76 71.48 25.76 71.48 25.4 72.34 C25.16 72.92 24.92 73.51 24.68 74.11 C24.34 75.05 24.34 75.05 24 76 C23.81 76.69 23.62 77.38 23.43 78.09 C23.17 79.16 23.17 79.16 22.91 80.25 C22.75 80.97 22.58 81.69 22.41 82.42 C22.25 83.13 22.1 83.84 21.94 84.56 C21.8 85.24 21.66 85.92 21.52 86.62 C21.38 87.26 21.24 87.9 21.09 88.57 C20.94 89.16 20.78 89.76 20.62 90.38 C20.42 90.91 20.21 91.45 20 92 C19.3 92.81 18.6 93.63 17.88 94.46 C17.26 94.97 16.64 95.48 16 96 C15.01 95.34 14.02 94.68 13 94 C13.33 93.01 13.66 92.02 14 91 C14.66 91 15.32 91 16 91 C16.25 90.41 16.51 89.81 16.77 89.2 C17.11 88.37 17.46 87.54 17.81 86.69 C18.36 85.32 18.36 85.32 18.92 83.93 C19.46 82.48 19.46 82.48 20 81 C20.27 80.05 20.55 79.11 20.83 78.13 C21.07 77.2 21.31 76.27 21.56 75.31 C21.8 74.39 22.03 73.46 22.27 72.51 C22.51 71.68 22.75 70.85 23 70 C23.29 69.42 23.59 68.84 23.89 68.24 C24.31 67.47 24.31 67.47 24.75 66.69 C25 66.16 25.24 65.64 25.5 65.1 C25.75 64.06 25.75 64.06 26 63 C26.03 62.19 26.03 62.19 26.06 61.36 C26.05 60.44 26.05 60.44 26.04 59.5 C26.01 58.86 25.98 58.23 25.94 57.57 C25.9 56.93 25.86 56.29 25.81 55.62 C25.77 54.99 25.73 54.36 25.68 53.71 C25.63 53.12 25.58 52.52 25.52 51.91 C25.26 50.47 25.26 50.47 25 49 C24.34 48.67 23.68 48.34 23 48 C23.15 47.1 23.15 47.1 23.31 46.19 C23.54 45.47 23.77 44.74 24 44 C24.5 43.57 24.99 43.13 25.5 42.69 C26 42.13 26.49 41.57 27 41 C27.15 40.46 27.3 39.92 27.45 39.36 C27.6 38.44 27.6 38.44 27.75 37.5 C27.83 36.91 27.9 36.32 27.98 35.72 C27.99 35.15 27.99 34.58 28 34 C27.67 33.01 27.34 32.02 27 31 C25.35 31.33 23.7 31.66 22 32 C21.67 33.32 21.34 34.64 21 36 C21.99 35.67 22.98 35.34 24 35 C23.92 35.68 23.84 36.36 23.75 37.06 C23.38 38.52 23.38 38.52 23 40 C22.71 40.48 22.41 40.97 22.11 41.47 C21.77 41.99 21.42 42.52 21.06 43.06 C20.53 43.93 20.53 43.93 19.99 44.82 C19.66 45.54 19.34 46.26 19 47 C18.77 48.03 18.53 49.06 18.29 50.12 C18.11 51.21 17.93 52.31 17.75 53.44 C17.6 54.49 17.45 55.54 17.3 56.62 C17.2 57.41 17.1 58.19 17 59 C16.34 59 15.68 59 15 59 C14.91 58.23 14.91 58.23 14.82 57.45 C14.78 56.73 14.73 56 14.69 55.25 C14.68 54.44 14.67 53.63 14.67 52.8 C14.78 51.88 14.89 50.95 15 50 C15.37 48.92 15.73 47.84 16.11 46.73 C16.34 46.18 16.56 45.64 16.79 45.08 C17.02 44.53 17.26 43.99 17.5 43.44 C17.96 42.4 18.43 41.37 18.91 40.31 C19.45 39.17 19.45 39.17 20 38 C19.34 37.67 18.68 37.34 18 37 C17.67 37.66 17.34 38.32 17 39 C16.34 39 15.68 39 15 39 C15.33 38.32 15.66 37.64 16 36.94 C16.33 35.97 16.66 35 17 34 C17.14 32.95 17.29 31.9 17.44 30.81 C17.41 30.22 17.39 29.62 17.37 29.01 C17.25 28.35 17.12 27.68 17 27 C16.73 26.23 16.47 25.47 16.2 24.68 C15.82 23.86 15.45 23.03 15.06 22.19 C14.39 20.92 14.39 20.92 13.7 19.63 C13.14 18.76 12.58 17.9 12 17 C11.65 16.55 11.29 16.09 10.93 15.62 C10.55 15.17 10.16 14.71 9.77 14.24 C9.18 13.57 9.18 13.57 8.58 12.88 C8.18 12.45 7.78 12.01 7.38 11.56 C6.62 10.76 5.86 9.96 5.09 9.13 C4.4 8.43 3.71 7.72 3 7 C2.61 6.46 2.22 5.93 1.82 5.38 C1.22 4.92 0.62 4.47 0 4 C-1.61 3.86 -1.61 3.86 -3.26 3.72 C-3.89 3.73 -4.53 3.75 -5.19 3.76 C-5.88 3.79 -6.57 3.82 -7.27 3.86 C-8.35 3.89 -8.35 3.89 -9.45 3.92 C-10.2 3.95 -10.95 3.97 -11.71 3.99 C-12.48 4.03 -13.25 4.06 -14.04 4.09 C-14.81 4.12 -15.58 4.15 -16.38 4.19 C-17.5 4.22 -17.5 4.22 -18.66 4.26 C-19.4 4.28 -20.15 4.3 -20.92 4.32 C-21.66 4.35 -22.4 4.37 -23.17 4.4 C-23.9 4.42 -24.64 4.45 -25.4 4.48 C-26.5 4.53 -26.5 4.53 -27.62 4.58 C-28.34 4.62 -29.06 4.65 -29.8 4.69 C-30.86 4.76 -30.86 4.76 -31.94 4.83 C-32.62 4.89 -33.3 4.94 -34 5 C-34.65 5.08 -35.3 5.15 -35.97 5.23 C-36.6 5.32 -37.22 5.41 -37.86 5.5 C-38.45 5.59 -39.04 5.68 -39.65 5.77 C-40.21 5.86 -40.77 5.95 -41.35 6.05 C-42.35 6.22 -43.35 6.4 -44.38 6.58 C-45.24 6.72 -46.11 6.86 -47 7 C-47.73 7.03 -48.45 7.06 -49.2 7.09 C-49.82 7.08 -50.43 7.07 -51.06 7.06 C-52.03 7.04 -53 7.02 -54 7 C-54.63 7.15 -55.26 7.3 -55.9 7.45 C-56.94 7.72 -56.94 7.72 -58 8 C-58.71 8.12 -59.41 8.25 -60.14 8.37 C-61.29 8.54 -61.29 8.54 -62.46 8.72 C-63.34 8.85 -64.21 8.97 -65.11 9.1 C-66.04 9.23 -66.98 9.37 -67.94 9.5 C-68.9 9.63 -69.86 9.77 -70.85 9.91 C-71.84 10.04 -72.83 10.17 -73.85 10.3 C-74.86 10.43 -75.87 10.55 -76.92 10.68 C-78.44 10.84 -78.44 10.84 -80 11 C-81.52 11.11 -81.52 11.11 -83.07 11.22 C-84.56 11.3 -84.56 11.3 -86.09 11.38 C-87.05 11.43 -88.01 11.47 -89 11.52 C-89.93 11.55 -90.86 11.59 -91.81 11.62 C-93.17 11.67 -93.17 11.67 -94.56 11.71 C-95.81 11.75 -95.81 11.75 -97.08 11.79 C-98.18 11.82 -98.18 11.82 -99.31 11.84 C-99.87 11.89 -100.42 11.95 -101 12 C-101.33 12.33 -101.66 12.66 -102 13 C-103.24 13.05 -103.24 13.05 -104.5 13.1 C-106.02 13.08 -106.02 13.08 -107.56 13.06 C-108.57 13.05 -109.59 13.04 -110.63 13.04 C-111.41 13.02 -112.19 13.01 -113 13 C-113.33 13.99 -113.66 14.98 -114 16 C-114.78 15.81 -115.57 15.63 -116.38 15.44 C-116.91 15.34 -117.45 15.25 -118 15.16 C-118.66 15.1 -119.32 15.05 -120 15 C-121.3 15.08 -121.3 15.08 -122.62 15.16 C-123.53 15.25 -124.44 15.34 -125.38 15.44 C-126.25 15.54 -127.12 15.64 -128.02 15.75 C-128.68 15.83 -129.33 15.91 -130 16 C-130 16.66 -130 17.32 -130 18 C-130.66 18 -131.32 18 -132 18 C-132 17.34 -132 16.68 -132 16 C-132.66 16.2 -133.33 16.41 -134.01 16.62 C-134.89 16.89 -135.78 17.16 -136.69 17.44 C-137.56 17.7 -138.43 17.97 -139.32 18.25 C-140.21 18.49 -141.09 18.74 -142 19 C-143.4 19.3 -143.4 19.3 -144.83 19.6 C-145.55 19.73 -146.26 19.86 -147 20 C-147 19.34 -147 18.68 -147 18 C-145.91 17.58 -145.91 17.58 -144.8 17.16 C-143.84 16.8 -142.87 16.44 -141.88 16.06 C-140.86 15.69 -139.85 15.33 -138.81 14.95 C-137.88 14.63 -136.95 14.32 -136 14 C-134.48 13.72 -134.48 13.72 -132.94 13.44 C-131.97 13.29 -131 13.15 -130 13 C-129.33 12.78 -128.65 12.55 -127.96 12.32 C-127.17 12.05 -126.39 11.78 -125.58 11.5 C-124.69 11.23 -123.8 10.96 -122.88 10.68 C-121.93 10.46 -120.98 10.23 -120 10 C-119.06 9.9 -118.11 9.81 -117.14 9.71 C-116.16 9.67 -115.18 9.63 -114.17 9.59 C-112.62 9.56 -112.62 9.56 -111.04 9.53 C-109.96 9.52 -108.87 9.51 -107.75 9.5 C-106.89 9.48 -106.89 9.48 -106.02 9.46 C-105.44 9.45 -104.85 9.43 -104.25 9.42 C-103.65 9.4 -103.06 9.38 -102.44 9.37 C-101.83 9.35 -101.23 9.33 -100.6 9.31 C-99.99 9.29 -99.37 9.27 -98.74 9.25 C-97.81 9.22 -97.81 9.22 -96.85 9.18 C-96.22 9.16 -95.59 9.13 -94.94 9.1 C-94.3 9.07 -93.66 9.03 -93 9 C-92.02 8.93 -92.02 8.93 -91.02 8.86 C-90.04 8.78 -90.04 8.78 -89.03 8.7 C-88.37 8.65 -87.71 8.59 -87.03 8.53 C-86.37 8.47 -85.71 8.41 -85.02 8.35 C-84.36 8.28 -83.7 8.22 -83.02 8.16 C-82.36 8.09 -81.71 8.03 -81.03 7.96 C-80.38 7.89 -79.73 7.83 -79.06 7.76 C-78.42 7.7 -77.78 7.63 -77.12 7.56 C-76.51 7.5 -75.89 7.44 -75.26 7.38 C-74.66 7.31 -74.06 7.25 -73.44 7.19 C-72.85 7.13 -72.26 7.07 -71.65 7.01 C-71.07 6.94 -70.48 6.88 -69.88 6.82 C-69.3 6.75 -68.73 6.69 -68.13 6.62 C-67.56 6.56 -66.98 6.49 -66.4 6.42 C-65.27 6.28 -64.15 6.14 -63 6 C-61.92 5.84 -60.84 5.69 -59.72 5.53 C-58.66 5.36 -57.59 5.2 -56.49 5.03 C-55.43 4.86 -54.36 4.69 -53.26 4.52 C-51.65 4.26 -51.65 4.26 -50 4 C-48.36 3.74 -48.36 3.74 -46.68 3.47 C-45.55 3.3 -44.43 3.13 -43.27 2.95 C-42.4 2.82 -42.4 2.82 -41.52 2.7 C-40.93 2.61 -40.34 2.53 -39.73 2.45 C-39.13 2.37 -38.52 2.3 -37.9 2.22 C-37.27 2.15 -36.65 2.07 -36 2 C-35.34 1.94 -34.68 1.88 -34 1.81 C-32.98 1.73 -32.98 1.73 -31.94 1.64 C-30.89 1.56 -30.89 1.56 -29.83 1.48 C-28.76 1.41 -28.76 1.41 -27.67 1.33 C-26.6 1.26 -26.6 1.26 -25.5 1.19 C-24.77 1.15 -24.04 1.11 -23.29 1.06 C-22.55 1.02 -21.81 0.98 -21.04 0.94 C-20.29 0.9 -19.53 0.85 -18.75 0.81 C-17.97 0.77 -17.19 0.73 -16.38 0.68 C-15.2 0.62 -15.2 0.62 -13.99 0.56 C-13.19 0.52 -12.4 0.48 -11.58 0.44 C-10.4 0.38 -10.4 0.38 -9.19 0.32 C-8.4 0.29 -7.62 0.26 -6.81 0.22 C-5.65 0.18 -5.65 0.18 -4.47 0.13 C-3.34 0.1 -3.34 0.1 -2.19 0.06 C-1.46 0.04 -0.74 0.02 0 0 Z M5 4 C5.33 4.66 5.66 5.32 6 6 C6.66 5.67 7.32 5.34 8 5 C7.01 4.67 6.02 4.34 5 4 Z M9 4 C9.54 4.43 10.07 4.87 10.62 5.31 C11.41 5.87 12.19 6.43 13 7 C13.97 7.5 14.94 7.99 15.94 8.5 C16.95 9 17.96 9.49 19 10 C19.95 10.56 20.9 11.11 21.88 11.69 C22.93 12.34 22.93 12.34 24 13 C23.67 12.01 23.34 11.02 23 10 C22.19 9.21 22.19 9.21 21.36 8.39 C20.69 7.87 20.01 7.35 19.31 6.81 C18.6 6.29 17.88 5.77 17.14 5.23 C16.44 4.82 15.73 4.42 15 4 C14.39 3.87 13.77 3.74 13.14 3.61 C12.6 3.62 12.06 3.62 11.5 3.62 C10.26 3.81 10.26 3.81 9 4 Z M8 6 C8 6.66 8 7.32 8 8 C8.66 7.67 9.32 7.34 10 7 C9.34 6.67 8.68 6.34 8 6 Z M10 8 C10.99 9.32 11.98 10.64 13 12 C13.66 11.67 14.32 11.34 15 11 C14.55 10.5 14.09 10.01 13.62 9.5 C13.09 9 12.55 8.51 12 8 C11.34 8 10.68 8 10 8 Z M18 21 C19 23 19 23 19 23 Z M25 46 C25.33 46.66 25.66 47.32 26 48 C26.33 47.34 26.66 46.68 27 46 C26.34 46 25.68 46 25 46 Z " fill="#000000" transform="translate(177,57)"/>
<path d="M0 0 C1.98 0 3.96 0 6 0 C5.07 0.49 5.07 0.49 4.12 1 C3.42 1.33 2.72 1.66 2 2 C1.34 2 0.68 2 0 2 C0 1.34 0 0.68 0 0 Z " fill="#000000" transform="translate(24,60)"/>
<path d="M0 0 C0.66 0 1.32 0 2 0 C2 0.66 2 1.32 2 2 C0.02 2 -1.96 2 -4 2 C-3.38 1.67 -2.76 1.34 -2.12 1 C-1.42 0.67 -0.72 0.34 0 0 Z " fill="#000000" transform="translate(21,61)"/>
<path d="M0 0 C0.99 0 1.98 0 3 0 C2.67 0.99 2.34 1.98 2 3 C1.32 3.23 0.64 3.45 -0.06 3.69 C-1.02 3.84 -1.02 3.84 -2 4 C-2 3.34 -2 2.68 -2 2 C-1.34 2 -0.68 2 0 2 C0 1.34 0 0.68 0 0 Z " fill="#000000" transform="translate(244,62)"/>
<path d="" fill="#000000" transform="translate(0,0)"/>
<path d="" fill="#000000" transform="translate(0,0)"/>
<path d="M0 0 C0.66 0 1.32 0 2 0 C2 0.66 2 1.32 2 2 C1.5 2.37 1.01 2.74 0.5 3.12 C0 3.41 -0.49 3.7 -1 4 C-0.67 4.66 -0.34 5.32 0 6 C-0.92 6.27 -0.92 6.27 -1.86 6.55 C-2.67 6.8 -3.48 7.05 -4.31 7.31 C-5.51 7.68 -5.51 7.68 -6.74 8.05 C-7.48 8.36 -8.23 8.68 -9 9 C-9.59 9.53 -10.18 10.06 -10.79 10.61 C-11.19 11.07 -11.59 11.53 -12 12 C-12.33 10.68 -12.66 9.36 -13 8 C-12.61 7.69 -12.22 7.38 -11.81 7.06 C-11.21 6.71 -10.62 6.36 -10 6 C-8.67 5.69 -8.67 5.69 -7.31 5.38 C-6.55 5.25 -5.79 5.13 -5 5 C-5 4.34 -5 3.68 -5 3 C-4.22 2.46 -3.43 1.93 -2.62 1.38 C-1.33 0.69 -1.33 0.69 0 0 Z " fill="#000000" transform="translate(235,64)"/>
<path d="" fill="#000000" transform="translate(0,0)"/>
<path d="M0 0 C2 1 2 1 2 1 Z " fill="#000000" transform="translate(240,66)"/>
<path d="M0 0 C2 1 2 1 2 1 Z " fill="#000000" transform="translate(7,67)"/>
<path d="M0 0 C0.66 0.33 1.32 0.66 2 1 C1.01 1 0.02 1 -1 1 C-0.67 0.67 -0.34 0.34 0 0 Z " fill="#000000" transform="translate(238,67)"/>
<path d="M0 0 C0.66 0 1.32 0 2 0 C1.83 1.03 1.67 2.06 1.5 3.12 C1.5 3.76 1.51 4.4 1.51 5.06 C1.67 5.7 1.83 6.34 2 7 C2.69 7.82 2.69 7.82 3.39 8.66 C4.03 9.16 4.66 9.67 5.31 10.19 C6.02 10.64 6.74 11.1 7.47 11.57 C8.31 12.04 9.14 12.51 10 13 C10.78 13.34 11.55 13.68 12.35 14.04 C13.19 14.35 14.02 14.66 14.88 14.98 C15.85 15.32 16.81 15.66 17.8 16.01 C18.86 16.34 19.91 16.66 21 17 C21.85 17.22 21.85 17.22 22.71 17.44 C23.59 17.65 23.59 17.65 24.48 17.87 C25.08 18 25.68 18.13 26.29 18.27 C26.9 18.4 27.5 18.53 28.13 18.67 C28.74 18.8 29.34 18.92 29.97 19.05 C30.58 19.18 31.19 19.31 31.82 19.44 C32.74 19.62 32.74 19.62 33.68 19.81 C34.3 19.93 34.92 20.06 35.56 20.19 C36.2 20.32 36.83 20.45 37.49 20.58 C38.12 20.71 38.76 20.84 39.41 20.97 C40.02 21.1 40.64 21.23 41.27 21.36 C41.86 21.48 42.46 21.6 43.07 21.73 C44.16 21.95 45.25 22.17 46.38 22.4 C47.24 22.6 48.11 22.8 49 23 C49.66 23.33 50.32 23.66 51 24 C50.67 24.66 50.34 25.32 50 26 C49.18 25.84 48.37 25.69 47.53 25.53 C46.99 25.42 46.44 25.32 45.89 25.21 C45.29 25.1 44.69 24.98 44.08 24.86 C43.46 24.74 42.85 24.62 42.21 24.5 C41.57 24.37 40.94 24.24 40.28 24.11 C39.61 23.98 38.95 23.85 38.27 23.71 C37.6 23.58 36.94 23.45 36.25 23.31 C35.6 23.19 34.96 23.07 34.3 22.94 C33.66 22.82 33.02 22.7 32.36 22.57 C31.41 22.38 31.41 22.38 30.44 22.19 C29.8 22.06 29.17 21.93 28.52 21.8 C27.56 21.6 27.56 21.6 26.59 21.39 C25.97 21.25 25.34 21.11 24.69 20.96 C24.07 20.81 23.46 20.66 22.82 20.51 C21.92 20.26 21.92 20.26 21 20 C20.42 19.81 19.83 19.61 19.23 19.41 C18.67 19.21 18.11 19 17.53 18.78 C16.47 18.36 15.42 17.93 14.33 17.48 C13.41 17.09 12.49 16.69 11.53 16.28 C10.7 15.86 9.86 15.43 9 15 C7.76 14.21 7.76 14.21 6.5 13.4 C5.48 12.68 5.48 12.68 4.44 11.94 C3.54 11.24 3.54 11.24 2.62 10.53 C2.09 10.02 1.55 9.52 1 9 C0.44 8.33 -0.12 7.65 -0.7 6.96 C-1.13 6.31 -1.56 5.67 -2 5 C-2.06 4.26 -2.12 3.52 -2.19 2.75 C-2.13 2.17 -2.06 1.59 -2 1 C-1.34 0.67 -0.68 0.34 0 0 Z " fill="#000000" transform="translate(2,68)"/>
<path d="" fill="#000000" transform="translate(0,0)"/>
<path d="M0 0 C2 1 2 1 2 1 Z " fill="#000000" transform="translate(219,72)"/>
<path d="" fill="#000000" transform="translate(0,0)"/>
<path d="M0 0 C0.33 0.66 0.66 1.32 1 2 C0.34 1.67 -0.32 1.34 -1 1 C-0.67 0.67 -0.34 0.34 0 0 Z " fill="#000000" transform="translate(216,73)"/>
<path d="M0 0 C0.99 0 1.98 0 3 0 C3 0.66 3 1.32 3 2 C2.01 2.5 2.01 2.5 1 3 C-0.03 3.02 -1.06 3.04 -2.12 3.06 C-3.07 3.04 -4.02 3.02 -5 3 C-4.55 2.69 -4.09 2.38 -3.62 2.06 C-3.09 1.71 -2.55 1.36 -2 1 C-1.34 0.67 -0.68 0.34 0 0 Z " fill="#000000" transform="translate(42,75)"/>
<path d="M0 0 C0.99 0.33 1.98 0.66 3 1 C2.67 1.99 2.34 2.98 2 4 C2.66 4.33 3.32 4.66 4 5 C4 5.66 4 6.32 4 7 C4.66 7 5.32 7 6 7 C5.67 9.31 5.34 11.62 5 14 C4.01 14 3.02 14 2 14 C1.67 15.65 1.34 17.3 1 19 C1.66 19.33 2.32 19.66 3 20 C2.78 21.14 2.78 21.14 2.56 22.31 C2.38 23.2 2.19 24.09 2 25 C1.67 25.99 1.34 26.98 1 28 C0.34 28 -0.32 28 -1 28 C-1.16 27.15 -1.33 26.31 -1.5 25.44 C-1.66 24.3 -1.83 23.17 -2 22 C-2.02 21.35 -2.04 20.71 -2.07 20.04 C-2.07 19.41 -2.06 18.78 -2.06 18.12 C-2.04 17.09 -2.02 16.06 -2 15 C-2.66 15 -3.32 15 -4 15 C-4.54 14.34 -5.07 13.68 -5.62 13 C-6.08 12.34 -6.53 11.68 -7 11 C-6.75 10.54 -6.49 10.08 -6.23 9.61 C-5.89 9 -5.54 8.38 -5.19 7.75 C-4.64 6.8 -4.64 6.8 -4.09 5.82 C-3.73 5.22 -3.37 4.62 -3 4 C-2.42 3.2 -1.84 2.39 -1.25 1.56 C-0.84 1.05 -0.42 0.53 0 0 Z M-1 5 C-1 7.31 -1 9.62 -1 12 C-0.67 11.59 -0.34 11.17 0 10.75 C0.33 10.17 0.66 9.59 1 9 C1.04 8.28 1.08 7.56 1.12 6.81 C1.06 5.92 1.06 5.92 1 5 C0.34 5 -0.32 5 -1 5 Z M-3 7 C-2 9 -2 9 -2 9 Z M-4 9 C-3 12 -3 12 -3 12 Z M3 9 C4 11 4 11 4 11 Z " fill="#000000" transform="translate(60,75)"/>
<path d="M0 0 C0.33 0.66 0.66 1.32 1 2 C0.34 1.67 -0.32 1.34 -1 1 C-0.67 0.67 -0.34 0.34 0 0 Z " fill="#000000" transform="translate(219,75)"/>
<path d="M0 0 C0.33 0.66 0.66 1.32 1 2 C-0.32 2.33 -1.64 2.66 -3 3 C-3 2.34 -3 1.68 -3 1 C-2.01 0.67 -1.02 0.34 0 0 Z " fill="#000000" transform="translate(216,76)"/>
<path d="" fill="#000000" transform="translate(0,0)"/>
<path d="" fill="#000000" transform="translate(0,0)"/>
<path d="M0 0 C0.33 0.99 0.66 1.98 1 3 C0.01 3 -0.98 3 -2 3 C-2 2.34 -2 1.68 -2 1 C-1.34 0.67 -0.68 0.34 0 0 Z " fill="#000000" transform="translate(51,79)"/>
<path d="" fill="#000000" transform="translate(0,0)"/>
<path d="" fill="#000000" transform="translate(0,0)"/>
<path d="M0 0 C0.33 0.66 0.66 1.32 1 2 C0.26 2.35 -0.49 2.7 -1.25 3.06 C-2.16 3.37 -3.06 3.68 -4 4 C-4.76 3.88 -5.53 3.75 -6.31 3.62 C-6.87 3.42 -7.43 3.21 -8 3 C-8 2.67 -8 2.34 -8 2 C-5.36 1.34 -2.72 0.68 0 0 Z " fill="#000000" transform="translate(207,80)"/>
<path d="" fill="#000000" transform="translate(0,0)"/>
<path d="" fill="#000000" transform="translate(0,0)"/>
<path d="M0 0 C2.47 0.5 2.47 0.5 5 1 C3.68 1.33 2.36 1.66 1 2 C0.67 1.34 0.34 0.68 0 0 Z " fill="#000000" transform="translate(82,95)"/>
<path d="M0 0 C2.31 0 4.62 0 7 0 C5.02 0.99 5.02 0.99 3 2 C2.01 1.34 1.02 0.68 0 0 Z " fill="#000000" transform="translate(87,95)"/>
<path d="" fill="#000000" transform="translate(0,0)"/>
<path d="M0 0 C1.32 0.33 2.64 0.66 4 1 C3.01 1.5 3.01 1.5 2 2 C1.34 1.34 0.68 0.68 0 0 Z " fill="#000000" transform="translate(79,96)"/>
<path d="" fill="#000000" transform="translate(0,0)"/>
<path d="M0 0 C0 0.99 0 1.98 0 3 C-0.99 3 -1.98 3 -3 3 C-2.01 2.01 -1.02 1.02 0 0 Z " fill="#000000" transform="translate(70,98)"/>
<path d="M0 0 C0.66 0.33 1.32 0.66 2 1 C0.02 1.99 0.02 1.99 -2 3 C-1.34 2.01 -0.68 1.02 0 0 Z " fill="#000000" transform="translate(75,98)"/>
<path d="M0 0 C4 1 4 1 4 1 Z " fill="#000000" transform="translate(96,98)"/>
<path d="M0 0 C2 1 2 1 2 1 Z " fill="#000000" transform="translate(100,99)"/>
<path d="" fill="#000000" transform="translate(0,0)"/>
<path d="M0 0 C0.57 0.05 1.13 0.1 1.71 0.16 C2.34 0.26 2.97 0.36 3.62 0.46 C5.29 0.73 5.29 0.73 7 1 C6.98 1.75 6.98 1.75 6.97 2.51 C6.96 3.21 6.94 3.9 6.93 4.61 C6.92 5.37 6.91 6.12 6.9 6.9 C6.89 7.69 6.88 8.49 6.88 9.31 C6.86 10.1 6.84 10.88 6.82 11.69 C6.81 12.83 6.81 12.83 6.8 13.99 C6.79 15.03 6.79 15.03 6.77 16.1 C6.85 16.73 6.92 17.35 7 18 C7.32 18.47 7.63 18.93 7.96 19.42 C8.3 19.94 8.65 20.46 9 21 C9.17 21.81 9.33 22.63 9.5 23.46 C9.62 24.42 9.73 25.38 9.85 26.37 C9.98 27.42 10.11 28.47 10.24 29.55 C10.37 30.65 10.49 31.74 10.62 32.88 C10.76 33.96 10.89 35.05 11.03 36.18 C11.16 37.23 11.28 38.28 11.41 39.37 C11.53 40.33 11.64 41.29 11.76 42.28 C11.84 43.18 11.92 44.07 12 45 C12.01 45.94 12.02 46.88 12.04 47.85 C12.02 48.56 12.01 49.27 12 50 C11.34 49.67 10.68 49.34 10 49 C10 50.98 10 52.96 10 55 C9.34 55 8.68 55 8 55 C7.72 53.95 7.72 53.95 7.44 52.88 C7.29 51.93 7.15 50.98 7 50 C7.17 49.15 7.34 48.29 7.52 47.41 C7.68 46.28 7.84 45.16 8 44 C7.98 43.29 7.96 42.58 7.95 41.85 C7.89 41.07 7.83 40.3 7.77 39.5 C7.65 38.29 7.65 38.29 7.52 37.06 C7.39 35.82 7.39 35.82 7.25 34.56 C7.14 33.33 7.14 33.33 7.02 32.08 C6.94 31.27 6.85 30.46 6.77 29.63 C6.66 28.84 6.55 28.05 6.44 27.24 C6.29 26.5 6.15 25.76 6 25 C5.8 24.35 5.59 23.71 5.38 23.04 C5.14 22.45 4.9 21.86 4.66 21.25 C4.39 20.7 4.13 20.15 3.86 19.57 C3.58 19.06 3.29 18.54 3 18 C2.39 17.04 1.77 16.08 1.14 15.09 C0.52 14.19 -0.11 13.3 -0.75 12.38 C-1.7 11.03 -1.7 11.03 -2.67 9.65 C-3.11 8.77 -3.55 7.9 -4 7 C-3.93 6.09 -3.85 5.19 -3.77 4.25 C-3.52 3.51 -3.26 2.77 -3 2 C-2.63 1.55 -2.26 1.09 -1.88 0.62 C-1.26 0.42 -0.64 0.21 0 0 Z M0 2 C-0.23 2.7 -0.45 3.4 -0.69 4.12 C-0.79 5.07 -0.89 6.02 -1 7 C-0.7 7.83 -0.7 7.83 -0.4 8.67 C-0.12 9.21 0.15 9.75 0.44 10.31 C0.95 11.2 1.47 12.09 2 13 C2.33 11.68 2.66 10.36 3 9 C3.33 9.99 3.66 10.98 4 12 C4.66 12 5.32 12 6 12 C6 8.7 6 5.4 6 2 C4.02 2 2.04 2 0 2 Z " fill="#000000" transform="translate(50,100)"/>
<path d="M0 0 C1.26 -0.16 1.26 -0.16 2.55 -0.32 C3.44 -0.36 4.33 -0.4 5.25 -0.44 C6.17 -0.42 7.09 -0.39 8.04 -0.37 C9.01 -0.25 9.99 -0.13 11 0 C12.67 0.45 12.67 0.45 14.37 0.9 C15.47 1.26 16.56 1.63 17.69 2 C18.7 2.37 19.72 2.74 20.76 3.12 C21.5 3.41 22.24 3.7 23 4 C23 4.33 23 4.66 23 5 C22.49 4.94 21.98 4.88 21.46 4.82 C20.77 4.73 20.08 4.65 19.38 4.56 C18.29 4.43 18.29 4.43 17.18 4.29 C16.46 4.19 15.74 4.1 15 4 C14.08 3.86 14.08 3.86 13.13 3.71 C12.59 3.62 12.06 3.53 11.5 3.44 C10.68 3.29 9.85 3.15 9 3 C8.67 3.8 8.34 4.61 8 5.44 C7.67 6.28 7.34 7.13 7 8 C7 8.33 7 8.66 7 9 C11.95 7.52 11.95 7.52 17 6 C16.01 6.99 15.02 7.98 14 9 C13.28 9.39 12.56 9.78 11.81 10.19 C11.21 10.46 10.62 10.72 10 11 C10.33 11.66 10.66 12.32 11 13 C7.7 13.66 4.4 14.32 1 15 C0.67 14.34 0.34 13.68 0 13 C0.99 12.67 1.98 12.34 3 12 C2.01 12 1.02 12 0 12 C-0.82 11.93 -1.64 11.86 -2.48 11.78 C-3.37 11.69 -4.27 11.6 -5.19 11.5 C-6.54 11.36 -6.54 11.36 -7.92 11.22 C-8.61 11.15 -9.29 11.07 -10 11 C-10 10.34 -10 9.68 -10 9 C-11.32 9.33 -12.64 9.66 -14 10 C-14 9.34 -14 8.68 -14 8 C-13.38 7.92 -12.76 7.83 -12.12 7.75 C-11.07 7.38 -11.07 7.38 -10 7 C-9.75 6.38 -9.5 5.76 -9.25 5.12 C-8.84 4.42 -8.43 3.72 -8 3 C-7.25 2.54 -7.25 2.54 -6.49 2.07 C-5.85 1.8 -5.22 1.53 -4.56 1.25 C-3.85 1.02 -3.13 0.78 -2.39 0.54 C-1.6 0.36 -0.81 0.18 0 0 Z M4 2 C3.34 2.66 2.68 3.32 2 4 C1.22 4.17 0.43 4.33 -0.38 4.5 C-1.24 4.67 -2.11 4.83 -3 5 C-3.76 5.35 -4.53 5.7 -5.31 6.06 C-5.87 6.37 -6.43 6.68 -7 7 C-7 7.66 -7 8.32 -7 9 C-6.03 9.19 -5.06 9.37 -4.06 9.56 C-3.05 9.71 -2.04 9.85 -1 10 C-0.67 9.67 -0.34 9.34 0 9 C0.8 8.69 1.61 8.38 2.44 8.06 C3.28 7.71 4.13 7.36 5 7 C5.66 6.34 6.32 5.68 7 5 C7 4.01 7 3.02 7 2 C6.01 2 5.02 2 4 2 Z " fill="#000000" transform="translate(143,100)"/>
<path d="M0 0 C0.99 0.33 1.98 0.66 3 1 C2.01 1 1.02 1 0 1 C0 0.67 0 0.34 0 0 Z " fill="#000000" transform="translate(160,100)"/>
<path d="" fill="#000000" transform="translate(0,0)"/>
<path d="M0 0 C0.82 -0.07 1.64 -0.13 2.48 -0.2 C3.37 -0.22 4.27 -0.23 5.19 -0.25 C6.15 -0.24 7.11 -0.24 8.09 -0.23 C9.05 -0.16 10.01 -0.08 11 0 C11.9 0.22 12.79 0.44 13.72 0.67 C14.53 0.95 15.35 1.22 16.19 1.5 C16.92 1.78 17.66 2.06 18.42 2.34 C18.94 2.56 19.46 2.78 20 3 C20 3.66 20 4.32 20 5 C16.37 4.34 12.74 3.68 9 3 C8.34 4.32 7.68 5.64 7 7 C6.67 7.66 6.34 8.32 6 9 C6.74 8.65 7.48 8.3 8.25 7.94 C9.16 7.63 10.06 7.32 11 7 C11.76 7.12 12.53 7.25 13.31 7.38 C13.87 7.58 14.43 7.79 15 8 C13.35 8.66 11.7 9.32 10 10 C10.33 10.66 10.66 11.32 11 12 C10.34 11.97 9.67 11.95 8.99 11.92 C8.11 11.87 7.22 11.81 6.31 11.75 C5.4 11.66 4.49 11.57 3.55 11.48 C2.71 11.32 1.87 11.16 1 11 C0.16 10.54 0.16 10.54 -0.71 10.08 C-1.13 9.72 -1.56 9.37 -2 9 C-2.66 8.34 -3.32 7.68 -4 7 C-4.66 6.67 -5.32 6.34 -6 6 C-6.33 7.32 -6.66 8.64 -7 10 C-8.65 9.67 -10.3 9.34 -12 9 C-11.34 8.67 -10.68 8.34 -10 8 C-10 7.34 -10 6.68 -10 6 C-10.99 6 -11.98 6 -13 6 C-12.67 5.01 -12.34 4.02 -12 3 C-11.42 3.23 -10.84 3.45 -10.25 3.69 C-9.14 3.84 -9.14 3.84 -8 4 C-7.01 3.32 -7.01 3.32 -6 2.62 C-5.34 2.09 -4.68 1.55 -4 1 C-3.41 0.81 -2.81 0.61 -2.2 0.41 C-1.47 0.28 -0.75 0.14 0 0 Z M4 2 C3.47 2.22 2.94 2.43 2.39 2.66 C1.87 2.93 1.35 3.21 0.81 3.5 C-0.12 4 -1.04 4.49 -2 5 C-1.01 6.48 -1.01 6.48 0 8 C0.78 7.94 1.57 7.88 2.38 7.81 C3.24 7.54 4.11 7.28 5 7 C5.43 6.15 5.87 5.31 6.31 4.44 C6.54 3.63 6.77 2.83 7 2 C6.01 2 5.02 2 4 2 Z " fill="#000000" transform="translate(82,105)"/>
<path d="M0 0 C0.16 0.52 0.33 1.03 0.5 1.56 C0.66 2.37 0.83 3.17 1 4 C1.01 4.58 1.02 5.16 1.03 5.75 C1.02 6.37 1.01 6.99 1 7.62 C1 8.74 1 9.85 1 11 C1.33 11.66 1.66 12.32 2 13 C2.08 13.92 2.16 14.84 2.25 15.79 C2.16 16.85 2.08 17.91 2 19 C1.58 19.91 1.16 20.81 0.72 21.75 C-0.1 23.08 -0.1 23.08 -0.94 24.44 C-1.49 25.38 -2.03 26.32 -2.6 27.3 C-3.06 28.19 -3.52 29.08 -4 30 C-4.2 30.75 -4.41 31.5 -4.62 32.27 C-4.7 32.9 -4.79 33.53 -4.88 34.19 C-4.92 35.12 -4.96 36.04 -5 37 C-5.66 37 -6.32 37 -7 37 C-7.02 36.42 -7.05 35.83 -7.07 35.23 C-7.09 34.41 -7.11 33.59 -7.12 32.75 C-7.13 31.85 -7.13 30.95 -7.13 30.02 C-7.07 28.53 -7.07 28.53 -7 27 C-6.78 25.35 -6.78 25.35 -6.55 23.66 C-6.28 22.04 -6.28 22.04 -6 20.38 C-5.81 19.35 -5.63 18.33 -5.44 17.27 C-5.29 16.52 -5.15 15.77 -5 15 C-4.67 15 -4.34 15 -4 15 C-4 16.98 -4 18.96 -4 21 C-3.51 20.67 -3.02 20.34 -2.51 20 C-2.01 19.34 -1.51 18.68 -1 18 C-0.92 17.43 -0.85 16.87 -0.77 16.28 C-0.76 15.62 -0.75 14.96 -0.74 14.28 C-0.76 13.57 -0.77 12.87 -0.79 12.15 C-0.81 11.42 -0.84 10.69 -0.88 9.94 C-0.91 8.84 -0.91 8.84 -0.94 7.72 C-0.96 7.01 -0.97 6.31 -0.99 5.59 C-1.02 4.95 -1.04 4.31 -1.07 3.65 C-1.04 3.1 -1.02 2.56 -1 2 C-0.67 1.34 -0.34 0.68 0 0 Z " fill="#000000" transform="translate(198,107)"/>
<path d="M0 0 C2 1 2 1 2 1 Z " fill="#000000" transform="translate(135,112)"/>
<path d="M0 0 C1.32 0.66 2.64 1.32 4 2 C2.35 2 0.7 2 -1 2 C-0.67 1.34 -0.34 0.68 0 0 Z " fill="#000000" transform="translate(75,116)"/>
<path d="" fill="#000000" transform="translate(0,0)"/>
<path d="" fill="#000000" transform="translate(0,0)"/>
<path d="" fill="#000000" transform="translate(0,0)"/>
<path d="M0 0 C1.21 1.14 1.21 1.14 2.44 2.31 C2.89 2.74 3.34 3.17 3.81 3.61 C4.2 4.07 4.59 4.53 5 5 C5.33 5.99 5.66 6.98 6 8 C5.01 7.67 4.02 7.34 3 7 C2.44 6.38 1.89 5.76 1.31 5.12 C0.88 4.42 0.45 3.72 0 3 C0 2.01 0 1.02 0 0 Z " fill="#000000" transform="translate(138,131)"/>
<path d="" fill="#000000" transform="translate(0,0)"/>
<path d="" fill="#000000" transform="translate(0,0)"/>
<path d="" fill="#000000" transform="translate(0,0)"/>
<path d="M0 0 C0.33 0.99 0.66 1.98 1 3 C1.14 3.87 1.29 4.73 1.44 5.62 C1.72 6.8 1.72 6.8 2 8 C2.66 8.33 3.32 8.66 4 9 C4 9.66 4 10.32 4 11 C3.2 10.73 2.39 10.46 1.56 10.19 C0.72 9.8 -0.13 9.4 -1 9 C-1.33 8.01 -1.66 7.02 -2 6 C-2.66 6 -3.32 6 -4 6 C-4.33 6.99 -4.66 7.98 -5 9 C-5.33 8.34 -5.66 7.68 -6 7 C-5.01 6.01 -4.02 5.02 -3 4 C-2.34 4.33 -1.68 4.66 -1 5 C-0.67 3.35 -0.34 1.7 0 0 Z " fill="#000000" transform="translate(102,137)"/>
<path d="M0 0 C1.98 0.99 1.98 0.99 4 2 C3.67 2.66 3.34 3.32 3 4 C2.01 2.68 1.02 1.36 0 0 Z " fill="#000000" transform="translate(144,139)"/>
<path d="" fill="#000000" transform="translate(0,0)"/>
<path d="M0 0 C1.3 -0.02 1.3 -0.02 2.62 -0.04 C3.99 0.11 3.99 0.11 5.38 0.25 C6.69 0.44 6.69 0.44 8.02 0.64 C8.68 0.76 9.33 0.88 10 1 C9.01 2.49 9.01 2.49 8 4 C7.53 3.85 7.05 3.69 6.57 3.54 C5.91 3.38 5.24 3.22 4.56 3.06 C3.83 2.96 3.1 2.86 2.35 2.76 C1.19 2.88 1.19 2.88 0 3 C-0.74 3.48 -1.49 3.96 -2.25 4.46 C-3 5.09 -3.74 5.72 -4.5 6.38 C-5.25 7.02 -5.99 7.66 -6.76 8.33 C-7.5 8.88 -8.24 9.43 -9 10 C-9.74 10.26 -10.48 10.53 -11.24 10.8 C-11.95 10.91 -12.65 11.01 -13.38 11.12 C-14.02 11.16 -14.67 11.19 -15.34 11.22 C-15.89 11.15 -16.43 11.08 -17 11 C-17.66 10.53 -18.32 10.05 -19 9.56 C-19.33 9.05 -19.66 8.53 -20 8 C-19.49 8.02 -18.98 8.05 -18.46 8.07 C-17.77 8.09 -17.08 8.11 -16.38 8.12 C-15.65 8.13 -14.93 8.13 -14.18 8.13 C-13.46 8.09 -12.74 8.05 -12 8 C-11.38 7.85 -10.77 7.71 -10.13 7.55 C-9.59 7.37 -9.06 7.19 -8.5 7 C-7.67 6.67 -6.85 6.34 -6 6 C-6 5.34 -6 4.68 -6 4 C-5.22 3.28 -4.43 2.56 -3.62 1.81 C-3.09 1.46 -2.55 1.11 -2 0.75 C-1.34 0.51 -0.68 0.26 0 0 Z " fill="#000000" transform="translate(131,141)"/>
<path d="" fill="#000000" transform="translate(0,0)"/>
<path d="M0 0 C0.99 0.33 1.98 0.66 3 1 C2.01 1 1.02 1 0 1 C0 0.67 0 0.34 0 0 Z " fill="#000000" transform="translate(148,143)"/>
<path d="" fill="#000000" transform="translate(0,0)"/>
<path d="" fill="#000000" transform="translate(0,0)"/>
<path d="" fill="#000000" transform="translate(0,0)"/>
<path d="" fill="#000000" transform="translate(0,0)"/>
<path d="" fill="#000000" transform="translate(0,0)"/>
<path d="" fill="#000000" transform="translate(0,0)"/>
<path d="" fill="#000000" transform="translate(0,0)"/>
<path d="" fill="#000000" transform="translate(0,0)"/>
<path d="" fill="#000000" transform="translate(0,0)"/>
<path d="" fill="#000000" transform="translate(0,0)"/>
<path d="" fill="#000000" transform="translate(0,0)"/>
<path d="M0 0 C0.33 0.66 0.66 1.32 1 2 C0.34 1.67 -0.32 1.34 -1 1 C-0.67 0.67 -0.34 0.34 0 0 Z " fill="#000000" transform="translate(63,153)"/>
<path d="M0 0 C0.5 0.25 0.99 0.5 1.5 0.75 C2 1.16 2.49 1.57 3 2 C3.08 2.66 3.17 3.32 3.25 4 C3.17 4.66 3.08 5.32 3 6 C2.67 6.66 2.34 7.32 2 8 C1.67 7.42 1.34 6.84 1 6.25 C0.67 5.51 0.34 4.76 0 4 C-0.04 3.26 -0.08 2.51 -0.12 1.75 C-0.08 1.17 -0.04 0.59 0 0 Z " fill="#000000" transform="translate(122,155)"/>
<path d="M0 0 C0.66 0 1.32 0 2 0 C2.33 2.64 2.66 5.28 3 8 C2.34 7.01 1.68 6.02 1 5 C0.69 3.67 0.69 3.67 0.38 2.31 C0.25 1.55 0.13 0.79 0 0 Z " fill="#000000" transform="translate(63,157)"/>
<path d="" fill="#000000" transform="translate(0,0)"/>
<path d="" fill="#000000" transform="translate(0,0)"/>
<path d="M0 0 C0.66 0.66 1.32 1.32 2 2 C1.34 2 0.68 2 0 2 C0 1.34 0 0.68 0 0 Z " fill="#000000" transform="translate(129,158)"/>
<path d="M0 0 C0 0.99 0 1.98 0 3 C-1.65 3.66 -3.3 4.32 -5 5 C-4.67 4.01 -4.34 3.02 -4 2 C-3.32 1.61 -2.64 1.22 -1.94 0.81 C-1.3 0.54 -0.66 0.28 0 0 Z " fill="#000000" transform="translate(112,159)"/>
<path d="" fill="#000000" transform="translate(0,0)"/>
<path d="" fill="#000000" transform="translate(0,0)"/>
<path d="M0 0 C1.02 0.26 1.02 0.26 2.05 0.52 C2.99 0.76 3.92 1 4.88 1.25 C5.88 1.52 6.88 1.79 7.91 2.07 C9.44 2.53 9.44 2.53 11 3 C11.89 3.34 12.79 3.67 13.71 4.02 C14.55 4.36 15.39 4.71 16.25 5.06 C17.06 5.4 17.86 5.74 18.7 6.08 C19.46 6.38 20.22 6.69 21 7 C21.72 7.23 22.44 7.46 23.18 7.7 C23.82 7.88 24.46 8.06 25.12 8.25 C26.07 8.5 27.02 8.75 28 9 C28 9.99 28 10.98 28 12 C26.98 12.03 25.96 12.05 24.91 12.08 C24.27 12.08 23.63 12.08 22.97 12.08 C22.32 12.05 21.67 12.03 21 12 C19.37 11.71 19.37 11.71 17.71 11.42 C16.61 11.2 15.51 10.98 14.38 10.75 C13.78 10.65 13.19 10.54 12.58 10.43 C11.97 10.35 11.36 10.27 10.73 10.18 C10.12 10.12 9.51 10.07 8.88 10.01 C8.26 10 7.64 10 7 10 C6.06 10.15 6.06 10.15 5.09 10.3 C4.47 10.45 3.85 10.6 3.2 10.76 C2.6 10.93 2 11.11 1.38 11.29 C0.8 11.48 0.22 11.68 -0.38 11.88 C-1.46 12.26 -2.54 12.65 -3.65 13.05 C-4.42 13.37 -5.2 13.68 -6 14 C-6 13.34 -6 12.68 -6 12 C-5.33 11.71 -4.67 11.42 -3.98 11.12 C-3.06 10.75 -2.14 10.38 -1.19 10 C-0.19 9.63 0.8 9.27 1.82 8.89 C2.87 8.6 3.92 8.3 5 8 C6.05 7.91 7.1 7.82 8.18 7.73 C9.17 7.74 10.16 7.74 11.19 7.75 C12.57 7.8 12.57 7.8 13.98 7.86 C14.98 7.93 14.98 7.93 16 8 C15.24 7.53 14.47 7.05 13.69 6.56 C13.15 6.29 12.62 6.02 12.07 5.73 C11.38 5.49 10.7 5.25 10 5 C8.59 4.79 8.59 4.79 7.15 4.58 C6.15 4.49 5.15 4.4 4.12 4.31 C3.16 4.25 2.19 4.18 1.2 4.11 C0.47 4.08 -0.25 4.04 -1 4 C-0.67 2.68 -0.34 1.36 0 0 Z " fill="#000000" transform="translate(127,161)"/>
<path d="M0 0 C0 0.99 0 1.98 0 3 C-0.99 3.5 -0.99 3.5 -2 4 C-1.34 2.68 -0.68 1.36 0 0 Z " fill="#000000" transform="translate(103,164)"/>
<path d="M0 0 C0.33 0.66 0.66 1.32 1 2 C1.83 1.84 2.65 1.67 3.5 1.5 C4.04 1.41 4.59 1.31 5.15 1.22 C5.76 1.15 6.37 1.07 7 1 C7.67 0.99 8.35 0.98 9.04 0.97 C9.73 0.98 10.42 0.99 11.12 1 C12.13 1.02 12.13 1.02 13.16 1.03 C14.07 1.02 14.07 1.02 15 1 C15.83 0.84 16.65 0.67 17.5 0.5 C18 0.34 18.49 0.17 19 0 C19.33 0.66 19.66 1.32 20 2 C19.49 2.33 18.99 2.66 18.47 3 C17.65 3.33 16.84 3.66 16 4 C15.45 4.04 14.9 4.08 14.33 4.12 C13.71 4.11 13.1 4.1 12.47 4.09 C11.82 4.07 11.18 4.05 10.51 4.03 C9.85 4 9.18 3.97 8.5 3.94 C7.84 3.9 7.17 3.87 6.49 3.83 C5.84 3.82 5.2 3.8 4.53 3.78 C3.92 3.78 3.3 3.78 2.67 3.78 C1.84 3.89 1.84 3.89 1 4 C-0.22 4.74 -0.22 4.74 -1.47 5.5 C-1.97 6 -2.48 6.49 -3 7 C-2.69 6.03 -2.38 5.06 -2.06 4.06 C-1.54 2.55 -1.54 2.55 -1 1 C-0.67 0.67 -0.34 0.34 0 0 Z " fill="#000000" transform="translate(106,164)"/>
<path d="M0 0 C0.35 0.58 0.7 1.16 1.06 1.75 C1.37 2.49 1.68 3.24 2 4 C1.88 4.74 1.75 5.49 1.62 6.25 C1.42 6.83 1.21 7.41 1 8 C0.67 5.36 0.34 2.72 0 0 Z " fill="#000000" transform="translate(66,166)"/>
<path d="M0 0 C0.66 0.99 1.32 1.98 2 3 C1.01 3 0.02 3 -1 3 C-1.66 4.32 -2.32 5.64 -3 7 C-3.99 6.67 -4.98 6.34 -6 6 C-5.01 5.67 -4.02 5.34 -3 5 C-2.63 4.34 -2.26 3.68 -1.88 3 C-1.44 2.01 -1.44 2.01 -1 1 C-0.67 0.67 -0.34 0.34 0 0 Z " fill="#000000" transform="translate(98,167)"/>
<path d="" fill="#000000" transform="translate(0,0)"/>
<path d="M0 0 C1.09 0.12 2.19 0.25 3.31 0.38 C4.2 0.58 5.09 0.79 6 1 C6 1.33 6 1.66 6 2 C5.37 2.19 4.74 2.39 4.09 2.59 C3.24 2.85 2.38 3.11 1.5 3.38 C0.59 3.65 -0.33 3.92 -1.27 4.2 C-2.17 4.46 -3.07 4.73 -4 5 C-4.74 5.22 -5.47 5.45 -6.23 5.68 C-6.9 5.87 -7.56 6.06 -8.25 6.25 C-9.2 6.49 -9.2 6.49 -10.17 6.73 C-11.08 6.86 -11.08 6.86 -12 7 C-12.9 6.95 -12.9 6.95 -13.83 6.9 C-14.38 6.81 -14.93 6.72 -15.5 6.62 C-16.33 6.42 -17.15 6.21 -18 6 C-18 5.67 -18 5.34 -18 5 C-17.12 4.81 -16.24 4.61 -15.33 4.41 C-14.77 4.29 -14.2 4.16 -13.62 4.03 C-13.03 3.9 -12.43 3.76 -11.81 3.62 C-11.23 3.5 -10.66 3.37 -10.06 3.24 C-9.2 3.05 -9.2 3.05 -8.33 2.85 C-7.23 2.57 -6.13 2.29 -5 2 C-4.1 1.63 -3.21 1.26 -2.28 0.88 C-1.53 0.59 -0.78 0.3 0 0 Z " fill="#000000" transform="translate(108,172)"/>
<path d="M0 0 C2.47 0.5 2.47 0.5 5 1 C4.01 1.5 4.01 1.5 3 2 C2.01 1.34 1.02 0.68 0 0 Z " fill="#000000" transform="translate(115,173)"/>
<path d="M0 0 C0.26 0.84 0.26 0.84 0.53 1.69 C0.68 2.45 0.84 3.22 1 4 C0.96 4.79 0.92 5.59 0.88 6.4 C0.77 7.24 0.67 8.08 0.56 8.94 C0.46 9.77 0.36 10.61 0.25 11.46 C0.13 12.72 0.13 12.72 0 14 C-0.01 14.93 -0.02 15.86 -0.04 16.82 C-0.02 17.54 -0.01 18.26 0 19 C1.49 19.5 1.49 19.5 3 20 C2.34 20.33 1.68 20.66 1 21 C1 22.98 1 24.96 1 27 C0.34 27 -0.32 27 -1 27 C-1.37 28.42 -1.37 28.42 -1.75 29.88 C-2.16 30.91 -2.57 31.94 -3 33 C-3.66 33.37 -4.32 33.74 -5 34.12 C-5.66 34.41 -6.32 34.7 -7 35 C-7.31 35.61 -7.62 36.23 -7.94 36.86 C-8.47 37.92 -8.47 37.92 -9 39 C-9.45 39.53 -9.91 40.07 -10.37 40.62 C-10.89 41.13 -11.4 41.64 -11.93 42.16 C-12.5 42.73 -13.07 43.29 -13.65 43.88 C-14.24 44.45 -14.83 45.03 -15.44 45.62 C-16.32 46.5 -16.32 46.5 -17.21 47.4 C-17.78 47.96 -18.35 48.52 -18.93 49.1 C-19.71 49.86 -19.71 49.86 -20.5 50.64 C-20.99 51.09 -21.49 51.54 -22 52 C-22.52 52.4 -23.04 52.79 -23.57 53.2 C-24.04 53.46 -24.51 53.73 -25 54 C-25.63 53.9 -26.26 53.81 -26.91 53.71 C-27.6 53.48 -28.29 53.24 -29 53 C-29.72 52.79 -30.44 52.57 -31.18 52.35 C-31.93 52.11 -32.67 51.87 -33.44 51.62 C-34.18 51.39 -34.92 51.16 -35.68 50.91 C-36.45 50.61 -37.21 50.31 -38 50 C-38.75 49.48 -39.49 48.96 -40.26 48.43 C-41.17 47.96 -42.07 47.49 -43 47 C-43.96 46.95 -44.93 46.91 -45.92 46.86 C-46.97 46.96 -48.03 47.07 -49.11 47.18 C-49.97 47.26 -49.97 47.26 -50.85 47.33 C-51.74 47.41 -51.74 47.41 -52.65 47.5 C-53.25 47.56 -53.85 47.62 -54.47 47.68 C-55.08 47.75 -55.69 47.81 -56.31 47.88 C-56.91 47.93 -57.52 47.99 -58.14 48.06 C-59.03 48.14 -59.03 48.14 -59.94 48.23 C-60.53 48.29 -61.12 48.34 -61.73 48.4 C-62.31 48.45 -62.89 48.5 -63.49 48.55 C-64.62 48.65 -65.74 48.74 -66.9 48.84 C-68.44 48.92 -68.44 48.92 -70 49 C-70.83 48.98 -71.65 48.96 -72.5 48.94 C-73.2 48.87 -73.9 48.8 -74.61 48.73 C-75.73 48.49 -76.85 48.25 -78 48 C-78.72 47.62 -79.44 47.23 -80.18 46.84 C-80.74 46.35 -81.3 45.87 -81.88 45.38 C-82.53 44.83 -83.19 44.29 -83.87 43.74 C-84.57 43.16 -85.28 42.59 -86 42 C-86.8 41.44 -87.59 40.87 -88.41 40.29 C-89.24 39.72 -90.08 39.15 -90.94 38.56 C-91.78 37.98 -92.61 37.39 -93.48 36.79 C-94.31 36.2 -95.14 35.61 -96 35 C-96.81 34.4 -97.62 33.8 -98.46 33.18 C-99.24 32.58 -100.01 31.99 -100.81 31.38 C-101.55 30.79 -102.28 30.21 -103.04 29.61 C-104.01 28.81 -104.01 28.81 -105 28 C-105.87 27.24 -106.73 26.47 -107.62 25.69 C-108.18 25.11 -108.18 25.11 -108.75 24.53 C-109.16 24.02 -109.57 23.52 -110 23 C-110.59 22.18 -111.18 21.35 -111.79 20.5 C-112.41 19.6 -113.04 18.69 -113.69 17.75 C-114.56 16.44 -114.56 16.44 -115.45 15.11 C-115.96 14.41 -116.47 13.72 -117 13 C-117.66 12.67 -118.32 12.34 -119 12 C-119.28 11.32 -119.56 10.64 -119.85 9.93 C-120.11 9.11 -120.36 8.29 -120.62 7.44 C-120.89 6.61 -121.15 5.78 -121.41 4.93 C-121.61 4.3 -121.8 3.66 -122 3 C-121.34 3 -120.68 3 -120 3 C-119.55 4.05 -119.09 5.1 -118.62 6.19 C-118.26 6.91 -117.89 7.64 -117.51 8.39 C-117.01 9.25 -116.51 10.11 -116 11 C-115.67 11.5 -115.34 12 -115.01 12.51 C-114.64 13.04 -114.27 13.57 -113.89 14.11 C-113.5 14.65 -113.11 15.2 -112.7 15.76 C-112.08 16.59 -112.08 16.59 -111.44 17.44 C-111.01 18 -110.57 18.56 -110.13 19.14 C-109.68 19.69 -109.24 20.25 -108.78 20.82 C-108.32 21.36 -107.86 21.9 -107.39 22.46 C-106.93 22.97 -106.47 23.48 -106 24 C-105.55 24.45 -105.09 24.89 -104.63 25.35 C-104.17 25.76 -103.72 26.17 -103.25 26.59 C-102.8 26.98 -102.35 27.36 -101.88 27.76 C-101.42 28.13 -100.97 28.5 -100.5 28.88 C-99.13 29.93 -99.13 29.93 -97.73 31.01 C-96.38 31.99 -96.38 31.99 -95 33 C-93.68 33.96 -93.68 33.96 -92.33 34.93 C-91.48 35.53 -90.63 36.13 -89.75 36.75 C-88.94 37.3 -88.13 37.86 -87.29 38.43 C-86.53 38.95 -85.78 39.47 -85 40 C-84.33 40.5 -83.65 41 -82.96 41.51 C-82.36 41.96 -81.75 42.41 -81.12 42.88 C-80.61 43.26 -80.1 43.65 -79.57 44.05 C-79.05 44.37 -78.53 44.68 -78 45 C-77.37 45.2 -76.75 45.41 -76.1 45.62 C-75.06 45.81 -75.06 45.81 -74 46 C-72.89 46.08 -72.89 46.08 -71.77 46.17 C-70.52 46.18 -70.52 46.18 -69.25 46.19 C-68.28 46.17 -67.31 46.16 -66.31 46.15 C-65.22 46.1 -64.13 46.05 -63 46 C-62.4 45.96 -61.79 45.92 -61.17 45.88 C-60.54 45.83 -59.9 45.78 -59.25 45.73 C-58.27 45.63 -58.27 45.63 -57.27 45.54 C-56.27 45.43 -56.27 45.43 -55.25 45.31 C-54.58 45.23 -53.91 45.15 -53.22 45.07 C-52.54 44.97 -51.86 44.88 -51.16 44.78 C-50.48 44.67 -49.8 44.55 -49.09 44.44 C-48.4 44.29 -47.71 44.15 -47 44 C-45.94 43.7 -45.94 43.7 -44.85 43.4 C-44.14 43.17 -43.44 42.95 -42.71 42.72 C-42.02 42.49 -41.34 42.26 -40.63 42.02 C-39.97 41.79 -39.31 41.55 -38.62 41.31 C-37.99 41.07 -37.35 40.84 -36.7 40.59 C-36.11 40.37 -35.52 40.15 -34.91 39.93 C-33.95 39.62 -32.99 39.31 -32 39 C-31.34 39.33 -30.68 39.66 -30 40 C-30.52 40.43 -31.03 40.87 -31.56 41.31 C-32.37 41.87 -33.17 42.43 -34 43 C-34.9 43.43 -34.9 43.43 -35.82 43.87 C-36.46 44.14 -37.1 44.41 -37.75 44.69 C-38.36 44.94 -38.98 45.19 -39.61 45.45 C-40.07 45.63 -40.53 45.81 -41 46 C-40.12 46.3 -39.24 46.6 -38.33 46.91 C-37.77 47.1 -37.2 47.28 -36.62 47.47 C-36.03 47.67 -35.43 47.86 -34.81 48.06 C-34.23 48.26 -33.66 48.46 -33.06 48.67 C-32.49 48.85 -31.92 49.03 -31.33 49.22 C-30.23 49.48 -29.13 49.74 -28 50 C-27.08 49.92 -26.16 49.84 -25.21 49.75 C-24.48 49.5 -23.75 49.25 -23 49 C-22.28 48.32 -21.56 47.64 -20.81 46.94 C-20.21 46.3 -19.62 45.66 -19 45 C-18.34 45 -17.68 45 -17 45 C-16.74 44.41 -16.48 43.82 -16.22 43.21 C-15.82 42.48 -15.41 41.75 -15 41 C-14.45 40.44 -13.91 39.87 -13.34 39.29 C-12.74 38.74 -12.13 38.19 -11.5 37.62 C-10.89 37.08 -10.28 36.54 -9.66 35.98 C-9.11 35.32 -8.56 34.67 -8 34 C-7.43 32.62 -7.43 32.62 -6.85 31.2 C-6.57 30.15 -6.29 29.09 -6 28 C-5.79 26.87 -5.58 25.74 -5.37 24.57 C-5.2 23.43 -5.04 22.3 -4.88 21.12 C-4.75 20.24 -4.75 20.24 -4.61 19.33 C-4.49 18.49 -4.49 18.49 -4.37 17.63 C-4.19 16.33 -4.19 16.33 -4 15 C-4.66 15 -5.32 15 -6 15 C-5.63 13.79 -5.63 13.79 -5.25 12.56 C-4.98 11.76 -4.98 11.76 -4.71 10.93 C-4.48 10.3 -4.24 9.66 -4 9 C-3.49 7.81 -3.49 7.81 -2.98 6.6 C-2.61 5.78 -2.25 4.97 -1.88 4.12 C-1.52 3.34 -1.17 2.56 -0.8 1.76 C-0.54 1.18 -0.27 0.6 0 0 Z M-2 23 C-2 24.32 -2 25.64 -2 27 C-1.67 25.68 -1.34 24.36 -1 23 C-1.33 23 -1.66 23 -2 23 Z " fill="#000000" transform="translate(189,172)"/>
<path d="" fill="#000000" transform="translate(0,0)"/>
<path d="" fill="#000000" transform="translate(0,0)"/>
<path d="M0 0 C0.5 0.99 0.5 0.99 1 2 C-0.1 2.71 -0.1 2.71 -1.23 3.43 C-1.7 3.73 -2.18 4.03 -2.67 4.34 C-3.17 4.66 -3.67 4.98 -4.19 5.31 C-5.15 5.93 -6.11 6.54 -7.11 7.18 C-8.06 7.78 -9.02 8.38 -10 9 C-10.81 9.56 -11.62 10.11 -12.46 10.69 C-13.3 11.12 -14.14 11.55 -15 12 C-16.01 12.17 -17.02 12.34 -18.06 12.51 C-19.73 12.6 -19.73 12.6 -21.44 12.69 C-22.34 12.73 -22.34 12.73 -23.26 12.78 C-23.89 12.81 -24.51 12.84 -25.15 12.87 C-26.1 12.9 -26.1 12.9 -27.07 12.94 C-28.02 12.97 -28.02 12.97 -29 13 C-29.96 13.04 -29.96 13.04 -30.93 13.08 C-31.57 13.11 -32.2 13.13 -32.85 13.16 C-33.47 13.18 -34.1 13.19 -34.74 13.21 C-35.34 13.22 -35.94 13.24 -36.56 13.25 C-37.68 13.28 -38.79 13.3 -39.94 13.33 C-41.46 13.17 -41.46 13.17 -43 13 C-43.94 12.54 -44.87 12.08 -45.84 11.61 C-46.91 10.81 -46.91 10.81 -48 10 C-48.33 9.34 -48.66 8.68 -49 8 C-48.3 8.32 -47.6 8.63 -46.88 8.96 C-45.93 9.3 -44.98 9.65 -44 10 C-43.02 10.15 -42.04 10.3 -41.03 10.45 C-40.01 10.53 -38.99 10.61 -37.94 10.69 C-36.92 10.77 -35.89 10.86 -34.84 10.95 C-33.43 10.97 -33.43 10.97 -32 11 C-31.34 10.84 -30.68 10.69 -30 10.52 C-29.34 10.35 -28.68 10.18 -28 10 C-27.07 9.99 -26.14 9.98 -25.19 9.96 C-24.14 9.96 -23.08 9.95 -22 9.94 C-20.29 9.83 -20.29 9.83 -18.54 9.71 C-17.66 9.59 -17.66 9.59 -16.77 9.46 C-15.89 9.23 -15.89 9.23 -15 9 C-14.43 8.73 -13.86 8.46 -13.27 8.19 C-12.72 7.86 -12.16 7.53 -11.59 7.19 C-11.05 6.84 -10.51 6.48 -9.95 6.12 C-9.43 5.75 -8.91 5.38 -8.38 5 C-7.88 4.63 -7.38 4.26 -6.87 3.88 C-6.41 3.53 -5.94 3.18 -5.46 2.81 C-4.65 2.21 -3.84 1.62 -3 1 C-2.01 0.67 -1.02 0.34 0 0 Z " fill="#000000" transform="translate(152,174)"/>
<path d="M0 0 C2 1 2 1 2 1 Z " fill="#000000" transform="translate(140,176)"/>
<path d="M0 0 C0.99 0.33 1.98 0.66 3 1 C1.68 1.33 0.36 1.66 -1 2 C-0.67 1.34 -0.34 0.68 0 0 Z " fill="#000000" transform="translate(136,177)"/>
<path d="M0 0 C0.99 0.5 0.99 0.5 2 1 C1.67 1.66 1.34 2.32 1 3 C0.67 2.01 0.34 1.02 0 0 Z " fill="#000000" transform="translate(120,178)"/>
<path d="M0 0 C2 1 2 1 2 1 Z " fill="#000000" transform="translate(133,179)"/>
<path d="M0 0 C0.99 0.33 1.98 0.66 3 1 C2.01 1 1.02 1 0 1 C0 0.67 0 0.34 0 0 Z " fill="#000000" transform="translate(100,180)"/>
<path d="M0 0 C0.66 0.33 1.32 0.66 2 1 C1.72 1.58 1.44 2.16 1.15 2.76 C0.55 3.93 0.55 3.93 -0.06 5.12 C-0.51 5.94 -0.96 6.76 -1.42 7.6 C-1.94 8.39 -2.46 9.18 -3 10 C-3.94 10.96 -3.94 10.96 -4.89 11.93 C-5.52 12.47 -6.16 13.01 -6.81 13.56 C-7.42 14.04 -8.02 14.51 -8.64 15 C-9.09 15.33 -9.54 15.66 -10 16 C-9.71 15.39 -9.42 14.78 -9.12 14.14 C-8.75 13.44 -8.38 12.73 -8 12 C-7.38 11.24 -6.76 10.47 -6.12 9.69 C-5.07 8.36 -5.07 8.36 -4 7 C-3.62 6.38 -3.24 5.76 -2.85 5.12 C-2.49 4.49 -2.12 3.85 -1.75 3.19 C-1.41 2.58 -1.08 1.98 -0.73 1.36 C-0.49 0.91 -0.25 0.46 0 0 Z " fill="#000000" transform="translate(66,185)"/>
<path d="M0 0 C0.99 0.33 1.98 0.66 3 1 C1.35 1.33 -0.3 1.66 -2 2 C-1.34 1.34 -0.68 0.68 0 0 Z " fill="#000000" transform="translate(125,187)"/>
<path d="M0 0 C0 3 0 3 0 3 Z " fill="#000000" transform="translate(182,187)"/>
<path d="M0 0 C0.99 0.5 0.99 0.5 2 1 C1.01 1.5 1.01 1.5 0 2 C0 1.34 0 0.68 0 0 Z " fill="#000000" transform="translate(121,189)"/>
<path d="M0 0 C2 1 2 1 2 1 Z " fill="#000000" transform="translate(124,191)"/>
<path d="M0 0 C0 0.99 0 1.98 0 3 C-0.72 3.82 -1.44 4.64 -2.19 5.48 C-2.64 5.92 -3.09 6.36 -3.55 6.82 C-4.03 7.27 -4.51 7.72 -5 8.19 C-5.48 8.65 -5.95 9.11 -6.45 9.59 C-6.9 10.03 -7.35 10.47 -7.81 10.92 C-8.53 11.61 -9.26 12.29 -10 13 C-10.66 12.67 -11.32 12.34 -12 12 C-11.64 11.55 -11.27 11.11 -10.9 10.64 C-10.14 9.74 -10.14 9.74 -9.38 8.81 C-8.83 8.18 -8.29 7.54 -7.73 6.89 C-7.16 6.27 -6.59 5.64 -6 5 C-5.43 4.48 -4.86 3.96 -4.27 3.42 C-3.72 2.97 -3.18 2.52 -2.62 2.06 C-1.76 1.38 -0.89 0.7 0 0 Z " fill="#000000" transform="translate(180,190)"/>
<path d="M0 0 C0.99 0.5 0.99 0.5 2 1 C1.34 1.66 0.68 2.32 0 3 C0 2.01 0 1.02 0 0 Z " fill="#000000" transform="translate(122,192)"/>
<path d="M0 0 C0.93 0.39 0.93 0.39 1.87 0.79 C2.57 1.19 3.28 1.59 4 2 C4.38 2.51 4.77 3.03 5.16 3.56 C5.46 4.18 5.76 4.8 6.06 5.44 C6.39 6.14 6.71 6.84 7.05 7.56 C7.36 8.36 7.68 9.17 8 10 C8.3 10.98 8.61 11.96 8.92 12.97 C9.19 13.97 9.47 14.97 9.75 16 C10.11 17.42 10.11 17.42 10.48 18.88 C10.65 19.58 10.82 20.28 11 21 C11.77 21.19 11.77 21.19 12.55 21.38 C13.36 21.58 14.17 21.79 15 22 C16.08 22.28 17.16 22.55 18.27 22.84 C19.21 23.1 19.21 23.1 20.18 23.36 C21.2 23.64 21.2 23.64 22.25 23.94 C22.97 24.14 23.69 24.35 24.43 24.56 C25.59 24.91 25.59 24.91 26.77 25.27 C27.59 25.53 28.42 25.79 29.27 26.06 C30.17 26.37 31.07 26.68 32 27 C33.03 27.39 34.05 27.78 35.11 28.18 C35.65 28.39 36.18 28.6 36.74 28.82 C37.28 29.04 37.83 29.26 38.39 29.48 C38.93 29.7 39.47 29.93 40.03 30.15 C40.57 30.38 41.11 30.6 41.67 30.83 C42.21 31.05 42.75 31.28 43.31 31.51 C44.12 31.84 44.12 31.84 44.94 32.19 C46 32.63 47.06 33.07 48.15 33.52 C49.14 33.94 50.13 34.36 51.15 34.79 C52.04 35.17 52.93 35.55 53.84 35.93 C54.55 36.29 55.27 36.64 56 37 C56.66 37.66 57.32 38.32 58 39 C57.29 38.88 56.59 38.76 55.86 38.64 C54.92 38.43 53.97 38.22 53 38 C52.08 37.68 51.17 37.35 50.22 37.02 C49.23 36.62 48.23 36.23 47.21 35.82 C46.4 35.5 46.4 35.5 45.56 35.17 C45 34.95 44.44 34.73 43.86 34.5 C43.28 34.28 42.71 34.05 42.12 33.82 C41.54 33.59 40.97 33.36 40.38 33.12 C39.81 32.9 39.25 32.68 38.66 32.44 C38.1 32.22 37.54 32 36.96 31.77 C36.41 31.55 35.85 31.33 35.27 31.1 C34.71 30.89 34.16 30.67 33.59 30.45 C32.76 30.12 32.76 30.12 31.92 29.8 C31.37 29.59 30.83 29.38 30.26 29.17 C29.19 28.78 28.11 28.4 27 28 C25.37 27.51 25.37 27.51 23.71 27.01 C22.71 26.74 21.7 26.46 20.66 26.18 C19.76 25.95 18.86 25.72 17.94 25.48 C17.3 25.32 16.66 25.16 16 25 C16 25.99 16 26.98 16 28 C15.24 27.26 14.47 26.51 13.69 25.75 C13.26 25.33 12.83 24.91 12.39 24.48 C11.93 23.99 11.47 23.5 11 23 C10.5 22.44 10 21.88 9.49 21.3 C9 20.54 8.51 19.78 8 19 C7.78 18.45 7.57 17.9 7.34 17.34 C7.14 16.72 6.93 16.1 6.72 15.47 C6.52 14.82 6.31 14.18 6.11 13.51 C5.91 12.85 5.71 12.18 5.5 11.5 C5.3 10.84 5.1 10.17 4.89 9.49 C4.69 8.84 4.49 8.2 4.28 7.53 C4.08 6.92 3.88 6.3 3.67 5.67 C3.34 4.84 3.34 4.84 3 4 C2.45 3.19 1.91 2.37 1.34 1.53 C0.9 1.03 0.46 0.52 0 0 Z " fill="#000000" transform="translate(192,193)"/>
<path d="M0 0 C0 0.99 0 1.98 0 3 C-0.66 2.67 -1.32 2.34 -2 2 C-1.34 1.34 -0.68 0.68 0 0 Z " fill="#000000" transform="translate(55,201)"/>
<path d="" fill="#000000" transform="translate(0,0)"/>
<path d="" fill="#000000" transform="translate(0,0)"/>
<path d="" fill="#000000" transform="translate(0,0)"/>
<path d="" fill="#000000" transform="translate(0,0)"/>
<path d="" fill="#000000" transform="translate(0,0)"/>
<path d="M0 0 C0.33 0.66 0.66 1.32 1 2 C0.34 1.67 -0.32 1.34 -1 1 C-0.67 0.67 -0.34 0.34 0 0 Z " fill="#000000" transform="translate(47,209)"/>
<path d="M0 0 C0.33 0.66 0.66 1.32 1 2 C1.68 2.21 2.36 2.41 3.06 2.62 C3.7 2.75 4.34 2.87 5 3 C4.4 3.2 3.79 3.41 3.17 3.62 C1.97 4.03 1.97 4.03 0.75 4.44 C-0.04 4.7 -0.83 4.97 -1.64 5.25 C-2.42 5.49 -3.2 5.74 -4 6 C-4.76 6.2 -5.52 6.39 -6.3 6.6 C-7.14 6.8 -7.14 6.8 -8 7 C-7.61 6.55 -7.22 6.09 -6.81 5.62 C-6.21 5.09 -5.62 4.55 -5 4 C-4.11 3.61 -3.23 3.22 -2.31 2.81 C-1.55 2.54 -0.79 2.28 0 2 C0 1.34 0 0.68 0 0 Z " fill="#000000" transform="translate(45,211)"/>
<path d="M0 0 C2.97 0.5 2.97 0.5 6 1 C5.01 1.33 4.02 1.66 3 2 C2.44 1.69 1.89 1.38 1.31 1.06 C0.88 0.71 0.45 0.36 0 0 Z " fill="#000000" transform="translate(50,214)"/>
<path d="M0 0 C0.72 0.1 1.43 0.21 2.17 0.31 C3.57 0.65 3.57 0.65 5 1 C5.84 1.43 6.68 1.87 7.55 2.31 C8.46 2.87 9.37 3.43 10.31 4 C10.81 4.3 11.31 4.6 11.83 4.91 C12.36 5.23 12.89 5.55 13.44 5.88 C14 6.22 14.57 6.55 15.15 6.9 C16.06 7.45 16.06 7.45 17 8 C17.7 8.4 18.4 8.8 19.12 9.21 C19.85 9.62 20.58 10.04 21.34 10.46 C22.07 10.88 22.8 11.29 23.56 11.71 C24.28 12.11 25 12.52 25.75 12.94 C26.47 13.34 27.18 13.74 27.92 14.15 C28.58 14.52 29.24 14.9 29.92 15.28 C30.52 15.61 31.11 15.94 31.72 16.28 C32.14 16.52 32.57 16.76 33 17 C32.01 17.33 31.02 17.66 30 18 C29.48 17.83 28.96 17.65 28.43 17.47 C27.87 17.17 27.31 16.87 26.74 16.56 C26.12 16.22 25.5 15.89 24.86 15.55 C23.88 15 23.88 15 22.88 14.44 C22.2 14.07 21.53 13.7 20.84 13.33 C20.17 12.96 19.5 12.58 18.81 12.2 C18.15 11.83 17.5 11.46 16.82 11.07 C16.22 10.72 15.62 10.36 15 10 C14.08 9.42 13.17 8.83 12.22 8.23 C11.47 7.72 10.71 7.21 9.94 6.69 C9.26 6.21 8.58 5.74 7.88 5.25 C7.26 4.84 6.64 4.43 6 4 C5.38 3.66 4.76 3.32 4.12 2.96 C3.57 2.69 3.01 2.41 2.44 2.12 C1.63 1.75 0.83 1.38 0 1 C0 0.67 0 0.34 0 0 Z " fill="#000000" transform="translate(56,216)"/>
<path d="M0 0 C0.74 -0.01 1.48 -0.03 2.25 -0.04 C3.39 0.04 3.39 0.04 4.56 0.12 C5.32 0.23 6.07 0.34 6.85 0.45 C7.56 0.63 8.27 0.81 9 1 C9.62 1.3 10.23 1.59 10.87 1.89 C11.41 2.24 11.95 2.58 12.5 2.94 C13.74 3.96 13.74 3.96 15 5 C15.33 5.66 15.66 6.32 16 7 C15.13 6.57 15.13 6.57 14.25 6.12 C13.51 5.75 12.76 5.38 12 5 C11.4 4.65 10.81 4.3 10.19 3.95 C9.47 3.63 8.75 3.32 8 3 C6.74 2.87 6.74 2.87 5.45 2.73 C4.54 2.74 3.63 2.74 2.69 2.75 C1.73 2.77 0.76 2.78 -0.23 2.8 C-1.6 2.9 -1.6 2.9 -3 3 C-4.13 3.22 -4.13 3.22 -5.27 3.45 C-6.22 3.72 -6.22 3.72 -7.19 4 C-8.12 4.33 -9.04 4.66 -10 5 C-9.65 4.55 -9.3 4.09 -8.94 3.62 C-8.3 3.09 -7.66 2.55 -7 2 C-5.97 1.59 -4.94 1.18 -3.88 0.75 C-2.96 0.52 -2.96 0.52 -2.03 0.29 C-1.36 0.19 -0.69 0.1 0 0 Z " fill="#000000" transform="translate(164,227)"/>
<path d="M0 0 C0.92 0.12 1.84 0.23 2.79 0.35 C3.52 0.57 4.25 0.78 5 1 C5 1.33 5 1.66 5 2 C4.47 2.11 3.93 2.22 3.38 2.34 C2.27 2.64 2.27 2.64 1.12 2.94 C0.3 3.21 -0.52 3.48 -1.37 3.76 C-2.67 4.37 -2.67 4.37 -4 5 C-4.83 5.65 -5.66 6.29 -6.51 6.96 C-7.33 7.71 -8.15 8.47 -9 9.25 C-9.83 10.04 -10.67 10.83 -11.52 11.64 C-12.34 12.42 -13.16 13.2 -14 14 C-14.78 14.71 -15.55 15.42 -16.35 16.14 C-17.1 16.78 -17.85 17.41 -18.62 18.06 C-19.35 18.62 -20.07 19.18 -20.82 19.76 C-21.54 20.17 -22.26 20.58 -23 21 C-23.77 21.14 -24.54 21.28 -25.34 21.43 C-26.44 21.43 -26.44 21.43 -27.56 21.44 C-28.7 21.29 -29.83 21.15 -31 21 C-30.58 20.7 -30.16 20.4 -29.72 20.1 C-29.15 19.74 -28.59 19.37 -28 19 C-27.44 18.75 -26.88 18.5 -26.31 18.25 C-25.69 17.98 -25.07 17.71 -24.44 17.44 C-23.73 17.09 -23.03 16.75 -22.3 16.39 C-21.54 15.93 -20.78 15.47 -20 15 C-19.21 14.32 -18.42 13.65 -17.61 12.95 C-16.38 11.8 -16.38 11.8 -15.12 10.62 C-14.29 9.85 -13.45 9.07 -12.59 8.27 C-11.74 7.52 -10.88 6.77 -10 6 C-9.11 5.36 -8.23 4.71 -7.32 4.05 C-6.45 3.5 -5.58 2.94 -4.69 2.38 C-3.91 1.89 -3.13 1.4 -2.32 0.9 C-1.17 0.45 -1.17 0.45 0 0 Z " fill="#000000" transform="translate(148,229)"/>
<path d="M0 0 C2 1 2 1 2 1 Z " fill="#000000" transform="translate(89,234)"/>
<path d="M0 0 C0.99 0.33 1.98 0.66 3 1 C3.71 1.78 4.42 2.56 5.16 3.36 C5.73 4.08 5.73 4.08 6.32 4.8 C6.71 5.3 7.1 5.8 7.5 6.31 C7.89 6.8 8.28 7.29 8.68 7.79 C9.07 8.27 9.45 8.74 9.84 9.24 C10.21 9.71 10.58 10.17 10.96 10.65 C11.3 11.1 11.65 11.54 12 12 C12.59 12.78 13.18 13.55 13.78 14.36 C14.18 14.9 14.59 15.44 15 16 C13.68 15.67 12.36 15.34 11 15 C11 14.34 11 13.68 11 13 C10.34 13 9.68 13 9 13 C8.29 12.23 7.57 11.46 6.84 10.66 C6.44 10.18 6.04 9.69 5.62 9.19 C5.01 8.41 5.01 8.41 4.38 7.62 C3.95 7.12 3.53 6.61 3.1 6.09 C2.7 5.6 2.31 5.11 1.9 4.6 C1.27 3.74 0.65 2.88 0 2 C0 1.34 0 0.68 0 0 Z " fill="#000000" transform="translate(180,234)"/>
<path d="" fill="#000000" transform="translate(0,0)"/>
<path d="" fill="#000000" transform="translate(0,0)"/>
<path d="M0 0 C2 1 2 1 2 1 Z " fill="#000000" transform="translate(99,238)"/>
<path d="M0 0 C3 1 3 1 3 1 Z " fill="#000000" transform="translate(101,239)"/>
<path d="M0 0 C0.69 0.11 1.39 0.22 2.11 0.34 C3.54 0.67 3.54 0.67 5 1 C6.54 1.59 6.54 1.59 8.11 2.19 C9.7 2.87 9.7 2.87 11.31 3.56 C12.14 3.91 12.14 3.91 12.98 4.27 C13.5 4.49 14.02 4.71 14.55 4.94 C15.76 5.47 15.76 5.47 17 6 C16.01 6.33 15.02 6.66 14 7 C13.46 6.86 12.93 6.71 12.37 6.56 C11.8 6.31 11.23 6.05 10.64 5.79 C9.71 5.37 9.71 5.37 8.76 4.96 C8.12 4.66 7.47 4.37 6.81 4.06 C6.16 3.77 5.5 3.48 4.83 3.18 C4.21 2.91 3.59 2.63 2.96 2.35 C1.98 1.9 1.01 1.46 0 1 C0 0.67 0 0.34 0 0 Z " fill="#000000" transform="translate(104,240)"/>
</svg>
