<svg xmlns="http://www.w3.org/2000/svg" width="250.0" height="250.0">
  <path d="" transform ="translate(0,0)" fill="#000000" />
  <path d="" transform ="translate(0,0)" fill="#000000" />
  <path d="" transform ="translate(0,0)" fill="#000000" />
  <path d="" transform ="translate(0,0)" fill="#000000" />
  <path d="" transform ="translate(0,0)" fill="#000000" />
  <path d="" transform ="translate(0,0)" fill="#000000" />
  <path d="" transform ="translate(0,0)" fill="#000000" />
  <path d="" transform ="translate(0,0)" fill="#000000" />
  <path d="" transform ="translate(0,0)" fill="#000000" />
  <path d="" transform ="translate(0,0)" fill="#000000" />
  <path d="" transform ="translate(0,0)" fill="#000000" />
  <path d="" transform ="translate(0,0)" fill="#000000" />
  <path d="" transform ="translate(0,0)" fill="#000000" />
  <path d="" transform ="translate(0,0)" fill="#000000" />
  <path d="" transform ="translate(0,0)" fill="#000000" />
  <path d="" transform ="translate(0,0)" fill="#000000" />
  <path d="" transform ="translate(0,0)" fill="#000000" />
  <path d="" transform ="translate(0,0)" fill="#000000" />
  <path d="" transform ="translate(0,0)" fill="#000000" />
  <path d="" transform ="translate(0,0)" fill="#000000" />
  <path d="" transform ="translate(0,0)" fill="#000000" />
  <path d="" transform ="translate(0,0)" fill="#000000" />
  <path d="" transform ="translate(0,0)" fill="#000000" />
  <path d="" transform ="translate(0,0)" fill="#000000" />
  <path d="" transform ="translate(0,0)" fill="#000000" />
  <path d="" transform ="translate(0,0)" fill="#000000" />
  <path d="" transform ="translate(0,0)" fill="#000000" />
  <path d="" transform ="translate(0,0)" fill="#000000" />
  <path d="" transform ="translate(0,0)" fill="#000000" />
  <path d="" transform ="translate(0,0)" fill="#000000" />
  <path d="" transform ="translate(0,0)" fill="#000000" />
  <path d="" transform ="translate(0,0)" fill="#000000" />
  <path d="" transform ="translate(0,0)" fill="#000000" />
  <path d="" transform ="translate(0,0)" fill="#000000" />
  <path d="" transform ="translate(0,0)" fill="#000000" />
  <path d="" transform ="translate(0,0)" fill="#000000" />
  <path d="" transform ="translate(0,0)" fill="#000000" />
  <path d="" transform ="translate(0,0)" fill="#000000" />
  <path d="" transform ="translate(0,0)" fill="#000000" />
  <path d="" transform ="translate(0,0)" fill="#000000" />
  <path d="" transform ="translate(0,0)" fill="#000000" />
  <path d="" transform ="translate(0,0)" fill="#000000" />
  <path d="" transform ="translate(0,0)" fill="#000000" />
  <path d="" transform ="translate(0,0)" fill="#000000" />
  <path d="" transform ="translate(0,0)" fill="#000000" />
  <path d="" transform ="translate(0,0)" fill="#000000" />
  <path d="" transform ="translate(0,0)" fill="#000000" />
  <path d="" transform ="translate(0,0)" fill="#000000" />
  <path d="" transform ="translate(0,0)" fill="#000000" />
  <path d="" transform ="translate(0,0)" fill="#000000" />
  <path d="" transform ="translate(0,0)" fill="#000000" />
  <path d="" transform ="translate(0,0)" fill="#000000" />
  <path d="" transform ="translate(0,0)" fill="#000000" />
  <path d="" transform ="translate(0,0)" fill="#000000" />
  <path d="" transform ="translate(0,0)" fill="#000000" />
  <path d="" transform ="translate(0,0)" fill="#000000" />
  <path d="" transform ="translate(0,0)" fill="#000000" />
  <path d="" transform ="translate(0,0)" fill="#000000" />
  <path d="" transform ="translate(0,0)" fill="#000000" />
  <path d="" transform ="translate(0,0)" fill="#000000" />
  <path d="" transform ="translate(0,0)" fill="#000000" />
  <path d="" transform ="translate(0,0)" fill="#000000" />
  <path d="" transform ="translate(0,0)" fill="#000000" />
  <path d="" transform ="translate(0,0)" fill="#000000" />
  <path d="" transform ="translate(0,0)" fill="#000000" />
  <path d="" transform ="translate(0,0)" fill="#000000" />
  <path d="" transform ="translate(0,0)" fill="#000000" />
  <path d="" transform ="translate(0,0)" fill="#000000" />
  <path d="" transform ="translate(0,0)" fill="#000000" />
  <path d="" transform ="translate(0,0)" fill="#000000" />
  <path d="" transform ="translate(0,0)" fill="#000000" />
  <path d="" transform ="translate(0,0)" fill="#000000" />
  <path d="" transform ="translate(0,0)" fill="#000000" />
  <path d="" transform ="translate(0,0)" fill="#000000" />
  <path d="" transform ="translate(0,0)" fill="#000000" />
  <path d="" transform ="translate(0,0)" fill="#000000" />
  <path d="" transform ="translate(0,0)" fill="#000000" />
  <path d="" transform ="translate(0,0)" fill="#000000" />
  <path d="" transform ="translate(0,0)" fill="#000000" />
  <path d="" transform ="translate(0,0)" fill="#000000" />
  <path d="" transform ="translate(0,0)" fill="#000000" />
  <path d="" transform ="translate(0,0)" fill="#000000" />
  <path d="" transform ="translate(0,0)" fill="#000000" />
  <path d="" transform ="translate(0,0)" fill="#000000" />
  <path d="" transform ="translate(0,0)" fill="#000000" />
  <path d="" transform ="translate(0,0)" fill="#000000" />
  <path d="" transform ="translate(0,0)" fill="#000000" />
  <path d="" transform ="translate(0,0)" fill="#000000" />
  <path d="" transform ="translate(0,0)" fill="#000000" />
  <path d="" transform ="translate(0,0)" fill="#000000" />
  <path d="" transform ="translate(0,0)" fill="#000000" />
  <path d="" transform ="translate(0,0)" fill="#000000" />
  <path d="" transform ="translate(0,0)" fill="#000000" />
  <path d="" transform ="translate(0,0)" fill="#000000" />
  <path d="" transform ="translate(0,0)" fill="#000000" />
  <path d="" transform ="translate(0,0)" fill="#000000" />
  <path d="" transform ="translate(0,0)" fill="#000000" />
  <path d="" transform ="translate(0,0)" fill="#000000" />
  <path d="" transform ="translate(0,0)" fill="#000000" />
  <path d="" transform ="translate(0,0)" fill="#000000" />
  <path d="" transform ="translate(0,0)" fill="#000000" />
  <path d="" transform ="translate(0,0)" fill="#000000" />
  <path d="" transform ="translate(0,0)" fill="#000000" />
  <path d="" transform ="translate(0,0)" fill="#000000" />
  <path d="" transform ="translate(0,0)" fill="#000000" />
  <path d="" transform ="translate(0,0)" fill="#000000" />
  <path d="" transform ="translate(0,0)" fill="#000000" />
  <path d="" transform ="translate(0,0)" fill="#000000" />
  <path d="" transform ="translate(0,0)" fill="#000000" />
  <path d="M0 0 C0.33 0.99 0.66 1.98 1 3 C0.67 3.66 0.34 4.32 0 5 C-0.16 6.29 -0.16 6.29 -0.32 7.6 C-0.4 8.6 -0.48 9.6 -0.56 10.62 C-0.69 12.13 -0.69 12.13 -0.82 13.66 C-0.88 14.43 -0.94 15.21 -1 16 C-1.66 16 -2.32 16 -3 16 C-3.33 18.97 -3.66 21.94 -4 25 C-3.34 25 -2.68 25 -2 25 C-2 22.36 -2 19.72 -2 17 C-1.67 17 -1.34 17 -1 17 C-1.03 18.13 -1.07 19.26 -1.11 20.43 C-1.12 21.14 -1.13 21.86 -1.15 22.59 C-1.16 23.34 -1.17 24.1 -1.19 24.88 C-1.21 25.62 -1.24 26.37 -1.26 27.14 C-1.28 28.21 -1.28 28.21 -1.29 29.3 C-1.31 29.96 -1.32 30.62 -1.34 31.3 C-1.23 31.86 -1.12 32.42 -1 33 C-0.5 33.41 0 33.81 0.52 34.23 C1.01 34.48 1.5 34.74 2 35 C1.51 35.49 1.51 35.49 1 36 C0.15 36.02 -0.69 36.04 -1.56 36.06 C-2.37 36.04 -3.17 36.02 -4 36 C-4.07 35.48 -4.14 34.96 -4.22 34.42 C-4.36 33.31 -4.36 33.31 -4.5 32.19 C-4.59 31.36 -4.68 30.53 -4.77 29.68 C-4.84 28.8 -4.92 27.91 -5 27 C-5.06 26.16 -5.11 25.31 -5.17 24.45 C-5.2 23.58 -5.22 22.71 -5.25 21.81 C-5.24 20.91 -5.24 20 -5.23 19.06 C-5.16 18.05 -5.08 17.04 -5 16 C-4.9 15.39 -4.8 14.78 -4.7 14.14 C-4.58 13.5 -4.45 12.85 -4.33 12.19 C-4.2 11.54 -4.06 10.9 -3.92 10.24 C-3.78 9.6 -3.64 8.97 -3.5 8.31 C-3.36 7.69 -3.21 7.06 -3.07 6.42 C-2.93 5.84 -2.8 5.27 -2.66 4.68 C-2.44 3.79 -2.22 2.91 -2 2 C-1.34 2 -0.68 2 0 2 C0 1.34 0 0.68 0 0 Z " transform ="translate(52,20)" fill="#000000" />
  <path d="M0 0 C0.33 0.99 0.66 1.98 1 3 C0.34 3.66 -0.32 4.32 -1 5 C-0.67 3.35 -0.34 1.7 0 0 Z " transform ="translate(52,15)" fill="#000000" />
  <path d="M0 0 C0.99 0.33 1.98 0.66 3 1 C1.68 1.33 0.36 1.66 -1 2 C-0.67 1.34 -0.34 0.68 0 0 Z " transform ="translate(19,61)" fill="#000000" />
  <path d="M0 0 C0.99 0.49 0.99 0.49 2 1 C1.01 1.49 1.01 1.49 0 2 C0 1.34 0 0.68 0 0 Z " transform ="translate(24,60)" fill="#000000" />
  <path d="M0 0 C1.98 0.99 1.98 0.99 4 2 C2.68 1.67 1.36 1.34 0 1 C0 0.67 0 0.34 0 0 Z " transform ="translate(12,81)" fill="#000000" />
  <path d="M0 0 C2 1 2 1 2 1 Z " transform ="translate(10,80)" fill="#000000" />
  <path d="M0 0 C2 1 2 1 2 1 Z " transform ="translate(8,79)" fill="#000000" />
  <path d="M0 0 C0.58 0.11 1.16 0.23 1.76 0.35 C2.58 0.51 3.4 0.67 4.24 0.84 C5.16 1.02 6.07 1.2 7.01 1.39 C8.49 1.69 8.49 1.69 10 2 C10.98 2.21 11.97 2.42 12.98 2.63 C13.98 2.85 14.98 3.07 16.01 3.29 C17.01 3.51 18.02 3.73 19.05 3.95 C20.07 4.17 21.08 4.4 22.12 4.62 C23.18 4.85 24.23 5.08 25.31 5.32 C26.31 5.54 27.3 5.75 28.32 5.98 C29.67 6.27 29.67 6.27 31.05 6.57 C31.69 6.71 32.34 6.85 33 7 C33 7.33 33 7.66 33 8 C32.48 7.96 31.97 7.91 31.43 7.87 C30.7 7.8 29.97 7.73 29.21 7.65 C28.39 7.56 27.57 7.47 26.72 7.37 C25.37 7.19 25.37 7.19 24 7 C23.08 6.83 22.17 6.66 21.23 6.48 C20.29 6.28 19.35 6.08 18.38 5.88 C17.42 5.67 16.47 5.45 15.49 5.23 C14.52 5.01 13.56 4.79 12.56 4.56 C11.57 4.35 10.58 4.13 9.56 3.9 C8.61 3.69 7.67 3.48 6.69 3.25 C5.84 3.06 4.98 2.87 4.1 2.67 C3.41 2.45 2.72 2.23 2 2 C1.34 1.34 0.68 0.68 0 0 Z " transform ="translate(16,83)" fill="#000000" />
  <path d="M0 0 C0.99 0.33 1.98 0.66 3 1 C2.22 1.29 1.43 1.58 0.62 1.88 C-0.24 2.25 -1.11 2.62 -2 3 C-2.66 3.66 -3.32 4.32 -4 5 C-3.9 4.36 -3.79 3.72 -3.69 3.06 C-3.46 2.38 -3.23 1.7 -3 1 C-2.01 0.67 -1.02 0.34 0 0 Z " transform ="translate(5,67)" fill="#000000" />
  <path d="M0 0 C2 1 2 1 2 1 Z " transform ="translate(10,65)" fill="#000000" />
  <path d="M0 0 C0.8 0.78 1.61 1.57 2.44 2.38 C2.89 2.82 3.34 3.26 3.81 3.71 C4.2 4.14 4.59 4.56 5 5 C5.33 5.66 5.66 6.32 6 7 C5.38 6.71 4.76 6.42 4.12 6.12 C3.42 5.75 2.72 5.38 2 5 C1.34 4.34 0.68 3.68 0 3 C0 2.01 0 1.02 0 0 Z " transform ="translate(2,72)" fill="#000000" />
  <path d="M0 0 C0.66 0 1.32 0 2 0 C2.66 1.98 3.32 3.96 4 6 C3.34 5.38 2.68 4.76 2 4.12 C1.34 3.42 0.68 2.72 0 2 C0 1.34 0 0.68 0 0 Z " transform ="translate(54,111)" fill="#000000" />
  <path d="M0 0 C0.99 0.5 0.99 0.5 2 1 C1.67 1.99 1.34 2.98 1 4 C0.67 2.68 0.34 1.36 0 0 Z " transform ="translate(52,107)" fill="#000000" />
  <path d="M0 0 C0.99 0.33 1.98 0.66 3 1 C1.68 1.33 0.36 1.66 -1 2 C-0.91 2.5 -0.83 2.99 -0.74 3.5 C-0.6 4.18 -0.46 4.86 -0.31 5.56 C-0.14 6.29 0.04 7.01 0.22 7.76 C0.48 8.5 0.74 9.24 1 10 C1.62 11 1.62 11 2.25 12.02 C2.93 12.94 2.93 12.94 3.62 13.88 C4.07 14.43 4.52 14.98 4.98 15.55 C5.31 16.03 5.65 16.51 6 17 C6 17.66 6 18.32 6 19 C6.66 19 7.32 19 8 19 C8.13 19.78 8.13 19.78 8.26 20.57 C8.38 21.3 8.5 22.02 8.62 22.77 C8.75 23.57 8.88 24.37 9.02 25.2 C9.16 26.06 9.29 26.92 9.44 27.81 C9.58 28.68 9.71 29.54 9.86 30.43 C9.99 31.29 10.13 32.15 10.27 33.04 C10.4 33.89 10.52 34.74 10.66 35.61 C10.77 36.4 10.88 37.19 11 38 C11.08 38.65 11.16 39.31 11.24 39.98 C11.3 40.55 11.36 41.12 11.42 41.71 C11.51 42.69 11.6 43.68 11.69 44.69 C11.75 45.54 11.82 46.39 11.89 47.26 C11.92 47.84 11.96 48.41 12 49 C11.01 48.67 10.02 48.34 9 48 C9 49.98 9 51.96 9 54 C8.34 54 7.68 54 7 54 C6.98 53.11 6.96 52.23 6.94 51.31 C6.96 50.22 6.98 49.13 7 48 C7.18 47.29 7.36 46.58 7.55 45.85 C7.7 44.91 7.85 43.97 8 43 C7.98 42.35 7.96 41.7 7.94 41.03 C7.88 40.3 7.83 39.57 7.77 38.82 C7.65 37.67 7.65 37.67 7.52 36.5 C7.43 35.72 7.34 34.93 7.25 34.12 C7.18 33.35 7.1 32.57 7.02 31.77 C6.94 31 6.85 30.24 6.77 29.45 C6.66 28.69 6.55 27.94 6.44 27.16 C6.29 26.45 6.15 25.74 6 25 C5.8 24.36 5.59 23.71 5.38 23.05 C5.14 22.46 4.9 21.86 4.65 21.25 C4.39 20.69 4.13 20.13 3.86 19.56 C3.57 19.04 3.29 18.53 3 18 C2.4 17.11 1.8 16.22 1.18 15.3 C0.56 14.5 -0.05 13.7 -0.69 12.88 C-1.31 12.07 -1.93 11.26 -2.57 10.43 C-3.28 9.23 -3.28 9.23 -4 8 C-4.11 7.11 -4.21 6.23 -4.32 5.31 C-4.21 4.55 -4.11 3.79 -4 3 C-3.4 2.38 -2.8 1.76 -2.19 1.12 C-1.47 0.75 -0.74 0.38 0 0 Z " transform ="translate(50,99)" fill="#000000" />
  <path d="M0 0 C1.32 0.33 2.64 0.66 4 1 C4 4.3 4 7.6 4 11 C3.34 10.34 2.68 9.68 2 9 C1.94 8.36 1.87 7.72 1.8 7.05 C1.83 6.34 1.85 5.62 1.88 4.88 C1.89 4.15 1.91 3.43 1.93 2.68 C1.95 2.13 1.98 1.57 2 1 C1.34 0.67 0.68 0.34 0 0 Z " transform ="translate(53,100)" fill="#000000" />
  <path d="M0 0 C3 1 3 1 3 1 Z " transform ="translate(49,91)" fill="#000000" />
  <path d="M0 0 C1.02 0.74 1.02 0.74 2.06 1.5 C2.7 2.33 3.34 3.15 4 4 C4.05 4.57 4.1 5.14 4.15 5.73 C4.08 6.38 4.01 7.02 3.94 7.69 C3.81 8.37 3.69 9.06 3.56 9.76 C3.38 10.5 3.19 11.24 3 12 C2.75 12.83 2.5 13.66 2.25 14.52 C1.98 15.34 1.71 16.16 1.44 17 C1.17 17.76 0.9 18.53 0.62 19.31 C0.42 19.87 0.21 20.43 0 21 C-0.66 21 -1.32 21 -2 21 C-2.33 21.66 -2.66 22.32 -3 23 C-3.33 22.67 -3.66 22.34 -4 22 C-4.03 21.17 -4.06 20.35 -4.1 19.5 C-4.09 18.49 -4.07 17.48 -4.06 16.44 C-4.05 15.43 -4.04 14.41 -4.04 13.37 C-4.02 12.59 -4.01 11.81 -4 11 C-4.99 10.67 -5.98 10.34 -7 10 C-6.57 8.55 -6.57 8.55 -6.12 7.06 C-5.75 6.05 -5.38 5.04 -5 4 C-4.34 3.67 -3.68 3.34 -3 3 C-3 4.65 -3 6.3 -3 8 C-2.01 5.36 -1.02 2.72 0 0 Z M1 4 C0.67 4.52 0.34 5.03 0 5.56 C-0.33 6.37 -0.66 7.17 -1 8 C-1.04 8.6 -1.09 9.2 -1.13 9.82 C-1.13 10.46 -1.13 11.1 -1.12 11.75 C-1.08 12.82 -1.04 13.89 -1 15 C-0.34 14.67 0.32 14.34 1 14 C1.21 13.32 1.42 12.64 1.63 11.93 C1.88 10.7 1.88 10.7 2.12 9.44 C2.29 8.61 2.46 7.78 2.63 6.93 C2.75 6.3 2.88 5.66 3 5 C2.34 4.67 1.68 4.34 1 4 Z " transform ="translate(62,78)" fill="#000000" />
  <path d="M0 0 C0.99 0.33 1.98 0.66 3 1 C0.69 3.64 -1.62 6.28 -4 9 C-4.33 8.34 -4.66 7.68 -5 7 C-3.35 4.69 -1.7 2.38 0 0 Z " transform ="translate(60,74)" fill="#000000" />
  <path d="M0 0 C0.66 0.33 1.32 0.66 2 1 C1.75 1.48 1.51 1.96 1.25 2.46 C0.84 2.97 0.42 3.48 0 4 C-0.93 4.24 -0.93 4.24 -1.88 4.48 C-2.93 4.55 -2.93 4.55 -4 4.62 C-5.05 4.71 -5.05 4.71 -6.12 4.79 C-6.74 4.86 -7.36 4.93 -8 5 C-8.99 5.5 -8.99 5.5 -10 6 C-10.66 5.34 -11.32 4.68 -12 4 C-11.47 3.8 -10.94 3.59 -10.39 3.38 C-9.68 3.11 -8.98 2.84 -8.25 2.56 C-7.55 2.3 -6.86 2.03 -6.14 1.75 C-5.43 1.51 -4.73 1.26 -4 1 C-2.94 0.67 -2.94 0.67 -1.86 0.34 C-1.25 0.23 -0.63 0.12 0 0 Z " transform ="translate(56,67)" fill="#000000" />
  <path d="M0 0 C0.99 0.66 1.98 1.32 3 2 C2.34 2 1.68 2 1 2 C1 2.99 1 3.98 1 5 C-0.65 4.67 -2.3 4.34 -4 4 C-3.34 3.67 -2.68 3.34 -2 3 C-2 2.34 -2 1.68 -2 1 C-1.34 0.67 -0.68 0.34 0 0 Z " transform ="translate(62,66)" fill="#000000" />
  <path d="M0 0 C1.14 0.22 1.14 0.22 2.31 0.44 C2.87 0.62 3.43 0.81 4 1 C3.34 1.66 2.68 2.32 2 3 C1.15 3.1 1.15 3.1 0.27 3.2 C-0.35 3.17 -0.98 3.15 -1.62 3.12 C-2.74 3.08 -3.85 3.04 -5 3 C-5 2.34 -5 1.68 -5 1 C-4.26 0.81 -3.52 0.63 -2.75 0.44 C-1.84 0.29 -0.94 0.15 0 0 Z " transform ="translate(72,66)" fill="#000000" />
  <path d="M0 0 C0.76 0.14 1.52 0.27 2.3 0.41 C2.86 0.6 3.42 0.8 4 1 C3.1 1.43 3.1 1.43 2.17 1.88 C1.37 2.25 0.57 2.62 -0.25 3 C-1.43 3.56 -1.43 3.56 -2.64 4.12 C-3.42 4.41 -4.2 4.7 -5 5 C-5.76 5.04 -6.52 5.08 -7.3 5.12 C-7.86 5.08 -8.42 5.04 -9 5 C-9 4.34 -9 3.68 -9 3 C-8.1 2.66 -8.1 2.66 -7.17 2.31 C-6.37 2.02 -5.57 1.73 -4.75 1.44 C-3.96 1.15 -3.17 0.86 -2.36 0.56 C-1.58 0.37 -0.8 0.19 0 0 Z " transform ="translate(39,71)" fill="#000000" />
  <path d="M0 0 C2 1 2 1 2 1 Z " transform ="translate(43,74)" fill="#000000" />
  <path d="M0 0 C1.65 0 3.3 0 5 0 C5 0.33 5 0.66 5 1 C3.35 1 1.7 1 0 1 C0 0.67 0 0.34 0 0 Z " transform ="translate(37,76)" fill="#000000" />
  <path d="M0 0 C0.33 0.99 0.66 1.98 1 3 C0.34 2.67 -0.32 2.34 -1 2 C-0.67 1.34 -0.34 0.68 0 0 Z " transform ="translate(49,75)" fill="#000000" />
  <path d="M0 0 C2 1 2 1 2 1 Z " transform ="translate(48,80)" fill="#000000" />
  <path d="M0 0 C0.33 0.99 0.66 1.98 1 3 C0.34 2.67 -0.32 2.34 -1 2 C-0.67 1.34 -0.34 0.68 0 0 Z " transform ="translate(54,83)" fill="#000000" />
  <path d="M0 0 C0.74 0.66 1.48 1.32 2.24 2 C2.7 2.46 3.16 2.92 3.63 3.39 C4.08 3.92 4.53 4.45 5 5 C5.37 5.6 5.74 6.21 6.11 6.83 C6.45 7.49 6.79 8.14 7.13 8.81 C7.63 9.84 7.63 9.84 8.14 10.88 C8.46 11.58 8.79 12.28 9.12 13 C9.46 13.7 9.79 14.4 10.14 15.12 C10.47 15.8 10.79 16.48 11.13 17.19 C11.45 17.84 11.76 18.5 12.09 19.17 C12.39 19.78 12.69 20.38 13 21 C13.81 22.44 13.81 22.44 14.64 23.92 C15.09 24.61 15.54 25.29 16 26 C16.56 26.43 17.11 26.87 17.69 27.31 C18.12 27.54 18.55 27.77 19 28 C18.01 28 17.02 28 16 28 C16 28.66 16 29.32 16 30 C13.36 29.34 10.72 28.68 8 28 C9.32 27.67 10.64 27.34 12 27 C11.71 26.19 11.42 25.38 11.12 24.54 C10.92 24.01 10.73 23.48 10.53 22.94 C10.31 22.36 10.1 21.78 9.88 21.19 C9.65 20.6 9.43 20.02 9.21 19.42 C8.98 18.82 8.75 18.23 8.51 17.61 C8.26 17.01 8.02 16.41 7.77 15.78 C7.52 15.2 7.26 14.61 7 14 C6.6 13.18 6.6 13.18 6.19 12.35 C5.92 11.84 5.65 11.32 5.37 10.79 C4.83 9.83 4.3 8.87 3.75 7.88 C3.25 7.01 2.75 6.14 2.23 5.24 C1.83 4.5 1.42 3.76 1 3 C0.67 2.01 0.34 1.02 0 0 Z " transform ="translate(181,12)" fill="#000000" />
  <path d="M0 0 C0.99 0.49 0.99 0.49 2 1 C1.67 1.66 1.34 2.32 1 3 C0.67 2.01 0.34 1.02 0 0 Z " transform ="translate(179,9)" fill="#000000" />
  <path d="M0 0 C1.49 0.99 1.49 0.99 3 2 C2.67 2.66 2.34 3.32 2 4 C1.34 2.68 0.68 1.36 0 0 Z " transform ="translate(176,5)" fill="#000000" />
  <path d="M0 0 C0.99 0.33 1.98 0.66 3 1 C2.01 1 1.02 1 0 1 C0 0.67 0 0.34 0 0 Z " transform ="translate(172,2)" fill="#000000" />
  <path d="M0 0 C0.33 0.66 0.66 1.32 1 2 C0.34 1.67 -0.32 1.34 -1 1 C-0.67 0.67 -0.34 0.34 0 0 Z " transform ="translate(205,79)" fill="#000000" />
  <path d="M0 0 C2 1 2 1 2 1 Z " transform ="translate(202,81)" fill="#000000" />
  <path d="M0 0 C1.32 1.32 2.64 2.64 4 4 C2.68 3.34 1.36 2.68 0 2 C0 1.34 0 0.68 0 0 Z " transform ="translate(196,78)" fill="#000000" />
  <path d="M0 0 C0.33 0.66 0.66 1.32 1 2 C0.75 2.59 0.49 3.18 0.23 3.79 C-0.15 4.51 -0.53 5.23 -0.92 5.96 C-1.3 6.77 -1.67 7.57 -2.06 8.4 C-2.37 9.26 -2.68 10.12 -3 11 C-3.17 12.29 -3.17 12.29 -3.33 13.61 C-3.35 14.48 -3.37 15.35 -3.39 16.25 C-3.37 17.56 -3.37 17.56 -3.35 18.9 C-3.32 19.78 -3.28 20.66 -3.25 21.56 C-3.23 22.48 -3.21 23.39 -3.2 24.33 C-3.18 25.19 -3.16 26.05 -3.14 26.94 C-3.12 27.72 -3.09 28.5 -3.06 29.31 C-3.04 29.87 -3.02 30.42 -3 31 C-2.51 30.57 -2.02 30.15 -1.52 29.71 C-1.02 29.15 -0.52 28.58 0 28 C0.1 26.89 0.19 25.79 0.29 24.64 C0.28 24.02 0.27 23.4 0.26 22.76 C0.23 21.8 0.23 21.8 0.19 20.81 C0.17 20.16 0.16 19.5 0.15 18.83 C0.13 18.21 0.12 17.59 0.11 16.96 C0.07 15.98 0.04 15.01 0 14 C0.33 14 0.66 14 1 14 C1.19 14.87 1.38 15.74 1.58 16.63 C1.75 17.47 1.75 17.47 1.92 18.32 C2.08 19.21 2.08 19.21 2.25 20.12 C2.35 20.73 2.45 21.33 2.56 21.95 C2.64 22.54 2.72 23.13 2.81 23.74 C2.87 24.81 2.93 25.89 3 27 C2.78 27.63 2.57 28.27 2.35 28.92 C2.01 29.38 1.66 29.84 1.31 30.31 C0.93 30.73 0.55 31.16 0.16 31.59 C-0.22 32.06 -0.61 32.52 -1 33 C-1.31 33.7 -1.62 34.41 -1.94 35.13 C-2.21 35.87 -2.48 36.61 -2.75 37.38 C-2.99 38.06 -3.23 38.75 -3.48 39.46 C-3.65 39.97 -3.82 40.48 -4 41 C-4.66 41 -5.32 41 -6 41 C-5.99 40.07 -5.98 39.15 -5.97 38.19 C-5.96 37.57 -5.96 36.96 -5.95 36.33 C-5.94 35.65 -5.93 34.98 -5.92 34.28 C-5.91 33.59 -5.9 32.9 -5.88 32.19 C-5.87 31.47 -5.85 30.75 -5.84 30.02 C-5.82 29.27 -5.81 28.53 -5.79 27.77 C-5.78 27.02 -5.76 26.27 -5.75 25.5 C-5.74 24.77 -5.74 24.03 -5.73 23.28 C-5.72 22.55 -5.71 21.83 -5.71 21.08 C-5.69 20.36 -5.68 19.65 -5.67 18.91 C-5.65 18.21 -5.63 17.51 -5.61 16.78 C-5.58 16.09 -5.56 15.39 -5.53 14.68 C-5.5 14.01 -5.46 13.34 -5.42 12.66 C-5.34 11.71 -5.34 11.71 -5.25 10.74 C-5.17 10.17 -5.09 9.59 -5 9 C-4.7 8.08 -4.4 7.16 -4.1 6.22 C-3.74 5.5 -3.38 4.78 -3.02 4.03 C-2.66 3.45 -2.31 2.87 -1.95 2.27 C-1.48 1.64 -1.48 1.64 -1 1 C-0.67 0.67 -0.34 0.34 0 0 Z " transform ="translate(196,96)" fill="#000000" />
  <path d="M0 0 C0.49 -0.05 0.97 -0.09 1.48 -0.14 C2.19 -0.18 2.89 -0.21 3.62 -0.25 C4.84 -0.25 4.84 -0.25 6.07 -0.26 C7.04 -0.17 8 -0.09 9 0 C9.88 0.18 9.88 0.18 10.78 0.36 C11.41 0.51 12.04 0.66 12.68 0.82 C13.63 1.07 13.63 1.07 14.59 1.33 C15.22 1.51 15.85 1.69 16.5 1.88 C17.12 2.05 17.75 2.22 18.39 2.4 C18.97 2.58 19.56 2.75 20.16 2.93 C21.09 3.28 22.03 3.64 23 4 C23.33 4.66 23.66 5.32 24 6 C23.3 5.87 22.59 5.73 21.87 5.59 C20.45 5.3 20.45 5.3 19 5 C18.05 4.76 17.11 4.53 16.13 4.28 C15.14 4.02 14.15 3.77 13.12 3.5 C12.08 3.24 11.04 2.97 9.96 2.7 C8.98 2.47 8.01 2.24 7 2 C5.84 1.79 5.84 1.79 4.66 1.58 C4.03 1.49 3.4 1.4 2.75 1.31 C1.84 1.21 0.94 1.11 0 1 C0 0.67 0 0.34 0 0 Z " transform ="translate(195,58)" fill="#000000" />
  <path d="M0 0 C2 1 2 1 2 1 Z " transform ="translate(192,57)" fill="#000000" />
  <path d="M0 0 C1.32 1.32 2.64 2.64 4 4 C3.67 4.66 3.34 5.32 3 6 C1.35 5.01 -0.3 4.02 -2 3 C-1.34 2.67 -0.68 2.34 0 2 C0 1.34 0 0.68 0 0 Z " transform ="translate(201,68)" fill="#000000" />
  <path d="M0 0 C1.98 0.99 1.98 0.99 4 2 C3.67 2.66 3.34 3.32 3 4 C2.01 2.68 1.02 1.36 0 0 Z " transform ="translate(197,64)" fill="#000000" />
  <path d="M0 0 C1.09 0.01 2.17 0.03 3.29 0.04 C3.98 0.07 4.68 0.09 5.39 0.11 C6.5 0.15 6.5 0.15 7.62 0.19 C8.34 0.19 9.05 0.2 9.79 0.21 C10.84 0.25 10.84 0.25 11.91 0.29 C12.6 0.36 13.29 0.43 14 0.49 C14.66 0.66 15.32 0.83 16 1 C16.61 1.38 17.23 1.77 17.86 2.17 C18.41 2.62 18.96 3.08 19.52 3.55 C20.34 4.36 21.16 5.17 22 6 C21.01 6 20.02 6 19 6 C18.4 5.78 17.8 5.57 17.18 5.34 C16.25 4.93 16.25 4.93 15.31 4.5 C14.38 4.08 14.38 4.08 13.43 3.66 C12.96 3.44 12.48 3.22 12 3 C11.67 3.33 11.34 3.66 11 4 C11.77 4.4 12.54 4.8 13.34 5.21 C14.34 5.74 15.34 6.27 16.38 6.81 C17.37 7.33 18.37 7.86 19.4 8.39 C20.26 8.92 21.12 9.45 22 10 C22.45 10.56 22.89 11.12 23.35 11.7 C23.57 12.13 23.78 12.56 24 13 C23.24 12.71 22.47 12.42 21.69 12.12 C20.8 11.75 19.91 11.38 19 11 C18.17 10.47 18.17 10.47 17.33 9.93 C16.89 9.62 16.45 9.32 16 9 C16.27 9.47 16.53 9.94 16.8 10.43 C17.16 11.05 17.51 11.67 17.88 12.31 C18.22 12.93 18.57 13.54 18.93 14.18 C19.28 14.78 19.64 15.38 20 16 C20.37 16.57 20.75 17.14 21.13 17.73 C21.42 18.15 21.71 18.57 22 19 C21.34 19.66 20.68 20.32 20 21 C19.73 20.51 19.47 20.01 19.2 19.5 C18.67 18.54 18.67 18.54 18.12 17.56 C17.78 16.92 17.43 16.29 17.07 15.63 C16.72 15.09 16.36 14.55 16 14 C15.34 13.67 14.68 13.34 14 13 C14.6 13.68 15.2 14.36 15.81 15.06 C16.17 15.51 16.54 15.97 16.91 16.43 C17.27 16.95 17.63 17.47 18 18 C18.31 18.59 18.62 19.18 18.93 19.79 C19.2 20.39 19.47 21 19.75 21.62 C19.99 22.19 20.23 22.76 20.48 23.35 C20.65 23.9 20.82 24.44 21 25 C21 25.99 21 26.98 21 28 C22.09 27.92 23.19 27.84 24.31 27.75 C25.27 27.76 25.27 27.76 26.24 27.77 C27.11 27.88 27.11 27.88 28 28 C28.96 28.74 28.96 28.74 29.94 29.5 C30.29 30.33 30.64 31.15 31 32 C31.09 32.54 31.18 33.07 31.28 33.62 C31.31 34.24 31.34 34.86 31.38 35.5 C31.35 36.18 31.33 36.87 31.31 37.57 C31.21 38.37 31.1 39.18 31 40 C30.76 41.02 30.53 42.03 30.29 43.08 C30.01 44.15 29.73 45.21 29.44 46.31 C29 47.82 29 47.82 28.56 49.36 C28.37 50.23 28.19 51.1 28 52 C28.33 52.99 28.66 53.98 29 55 C29.12 55.95 29.12 55.95 29.24 56.91 C29.26 57.62 29.29 58.33 29.31 59.06 C29.3 59.87 29.29 60.67 29.29 61.5 C29.14 62.74 29.14 62.74 29 64 C28.75 64.74 28.5 65.48 28.25 66.25 C27.92 67.01 27.59 67.78 27.25 68.56 C26.88 69.38 26.52 70.2 26.14 71.04 C25.76 72.02 25.39 72.99 25 74 C24.83 74.64 24.66 75.28 24.48 75.94 C24.32 76.64 24.15 77.33 23.98 78.05 C23.74 79.12 23.74 79.12 23.48 80.21 C23.32 80.92 23.16 81.64 23 82.38 C22.86 83.07 22.72 83.76 22.57 84.47 C22.42 85.13 22.28 85.78 22.12 86.46 C21.89 87.39 21.89 87.39 21.64 88.33 C21.43 88.88 21.22 89.43 21 90 C20.3 90.82 19.6 91.63 18.88 92.48 C18.26 92.98 17.64 93.48 17 94 C15.51 93.5 15.51 93.5 14 93 C13.75 92.41 13.51 91.81 13.25 91.2 C13.17 90.48 13.09 89.75 13 89 C13.11 88.29 13.22 87.59 13.34 86.86 C13.54 86.16 13.73 85.47 13.94 84.75 C14.13 84.04 14.33 83.34 14.53 82.61 C14.76 81.81 14.76 81.81 15 81 C15.33 81 15.66 81 16 81 C16 83.97 16 86.94 16 90 C16.76 88.76 17.53 87.53 18.31 86.25 C18.77 85.43 19.23 84.62 19.7 83.78 C20.13 82.86 20.56 81.94 21 81 C21.3 79.99 21.59 78.98 21.89 77.94 C22.14 76.91 22.38 75.88 22.62 74.81 C22.82 73.85 23.02 72.89 23.23 71.89 C23.48 70.94 23.74 69.98 24 69 C24.79 67.59 24.79 67.59 25.61 66.16 C26.07 65.12 26.53 64.07 27 63 C27.05 62.35 27.1 61.7 27.15 61.03 C27.12 60.33 27.1 59.63 27.07 58.91 C27.02 58.21 26.96 57.51 26.91 56.79 C26.84 56.07 26.76 55.36 26.69 54.62 C26.63 53.89 26.57 53.15 26.5 52.39 C26.44 51.7 26.38 51 26.32 50.29 C26.22 49.2 26.11 48.12 26 47 C24.51 46.5 24.51 46.5 23 46 C23.62 45.17 24.24 44.35 24.88 43.5 C25.58 42.67 26.28 41.85 27 41 C27.66 41 28.32 41 29 41 C29.04 39.93 29.08 38.85 29.12 37.75 C29.13 37.11 29.13 36.48 29.13 35.82 C29.09 35.22 29.05 34.62 29 34 C28.67 33.2 28.34 32.39 28 31.56 C27.67 31.05 27.34 30.53 27 30 C25.35 30 23.7 30 22 30 C21.67 31.65 21.34 33.3 21 35 C22.98 34.5 22.98 34.5 25 34 C24.01 36.47 24.01 36.47 23 39 C22.67 38.01 22.34 37.02 22 36 C21.38 36.14 20.76 36.29 20.12 36.44 C19.07 36.72 19.07 36.72 18 37 C17.01 37.5 17.01 37.5 16 38 C16.12 37.44 16.25 36.89 16.38 36.31 C16.58 35.55 16.79 34.79 17 34 C17.41 33.26 17.82 32.52 18.25 31.75 C18.5 30.84 18.75 29.94 19 29 C18.87 28.38 18.74 27.75 18.6 27.11 C18.36 26.44 18.12 25.76 17.88 25.06 C17.58 24.38 17.29 23.69 17 22.99 C16.67 22.33 16.34 21.68 16 21 C15.66 20.44 15.32 19.87 14.97 19.29 C14.63 18.78 14.29 18.27 13.94 17.75 C12.98 16.39 12.98 16.39 12 15 C11.65 14.24 11.3 13.47 10.94 12.69 C10.63 12.13 10.32 11.57 10 11 C9.01 10.67 8.02 10.34 7 10 C6.57 9.47 6.13 8.95 5.68 8.41 C5.27 7.78 4.86 7.15 4.44 6.5 C4.02 5.87 3.61 5.24 3.18 4.59 C2.79 4.07 2.4 3.54 2 3 C1.34 2.67 0.68 2.34 0 2 C0 1.34 0 0.68 0 0 Z M5 2 C5.34 2.43 5.68 2.87 6.02 3.31 C6.47 3.87 6.92 4.43 7.38 5 C7.82 5.56 8.26 6.11 8.71 6.69 C9.14 7.12 9.56 7.55 10 8 C10.66 8 11.32 8 12 8 C12.33 8.99 12.66 9.98 13 11 C13.66 10.67 14.32 10.34 15 10 C14.22 9.24 13.43 8.47 12.62 7.69 C12.17 7.23 11.71 6.78 11.23 6.31 C10.83 5.88 10.42 5.45 10 5 C9.44 4.1 9.44 4.1 8.88 3.19 C8.59 2.8 8.3 2.4 8 2 C7.01 2 6.02 2 5 2 Z M26 44 C26 44.66 26 45.32 26 46 C26.66 46 27.32 46 28 46 C28 45.34 28 44.68 28 44 C27.34 44 26.68 44 26 44 Z " transform ="translate(175,57)" fill="#000000" />
  <path d="M0 0 C0.72 0.14 1.44 0.29 2.19 0.44 C3.08 0.72 3.08 0.72 4 1 C3.17 1.45 3.17 1.45 2.32 1.91 C1.6 2.29 0.87 2.67 0.12 3.06 C-0.95 3.64 -0.95 3.64 -2.05 4.22 C-3.02 4.61 -3.02 4.61 -4 5 C-4.66 4.67 -5.32 4.34 -6 4 C-5.57 3.53 -5.13 3.05 -4.69 2.56 C-4.13 2.05 -3.57 1.53 -3 1 C-2.01 0.67 -1.02 0.34 0 0 Z " transform ="translate(215,75)" fill="#000000" />
  <path d="M0 0 C0.99 0.33 1.98 0.66 3 1 C1.68 1.33 0.36 1.66 -1 2 C-0.67 1.34 -0.34 0.68 0 0 Z " transform ="translate(211,74)" fill="#000000" />
  <path d="M0 0 C0.66 0.33 1.32 0.66 2 1 C1.01 1 0.02 1 -1 1 C-0.67 0.67 -0.34 0.34 0 0 Z " transform ="translate(221,73)" fill="#000000" />
  <path d="M0 0 C3 1 3 1 3 1 Z " transform ="translate(223,72)" fill="#000000" />
  <path d="M0 0 C0.99 0.33 1.98 0.66 3 1 C2.06 1.45 2.06 1.45 1.1 1.91 C0.28 2.29 -0.53 2.67 -1.38 3.06 C-2.19 3.45 -3 3.83 -3.84 4.22 C-4.55 4.48 -5.26 4.74 -6 5 C-6.66 4.67 -7.32 4.34 -8 4 C-7.46 3.7 -6.91 3.4 -6.36 3.09 C-5.64 2.71 -4.92 2.33 -4.19 1.94 C-3.48 1.55 -2.77 1.17 -2.04 0.78 C-1.37 0.52 -0.69 0.26 0 0 Z " transform ="translate(225,68)" fill="#000000" />
  <path d="M0 0 C0.99 0.33 1.98 0.66 3 1 C1.68 1.33 0.36 1.66 -1 2 C-0.67 1.34 -0.34 0.68 0 0 Z " transform ="translate(229,69)" fill="#000000" />
  <path d="M0 0 C1.18 0.19 1.18 0.19 2.38 0.38 C3.24 0.58 4.11 0.79 5 1 C5.66 1.66 6.32 2.32 7 3 C5.82 2.81 5.82 2.81 4.62 2.62 C3.76 2.42 2.89 2.21 2 2 C1.34 1.34 0.68 0.68 0 0 Z " transform ="translate(224,41)" fill="#000000" />
  <path d="M0 0 C3 1 3 1 3 1 Z " transform ="translate(221,40)" fill="#000000" />
  <path d="M0 0 C4 1 4 1 4 1 Z " transform ="translate(217,39)" fill="#000000" />
  <path d="M0 0 C2 1 2 1 2 1 Z " transform ="translate(235,63)" fill="#000000" />
  <path d="M0 0 C0.66 0.33 1.32 0.66 2 1 C1.22 1.52 0.43 2.03 -0.38 2.56 C-1.24 3.04 -2.11 3.51 -3 4 C-3.66 3.67 -4.32 3.34 -5 3 C-4.22 2.48 -3.43 1.97 -2.62 1.44 C-1.76 0.96 -0.89 0.49 0 0 Z " transform ="translate(233,64)" fill="#000000" />
  <path d="M0 0 C0.66 0.33 1.32 0.66 2 1 C1.07 1.52 0.14 2.03 -0.81 2.56 C-1.86 3.04 -2.92 3.51 -4 4 C-4.99 3.67 -5.98 3.34 -7 3 C-6.28 2.66 -6.28 2.66 -5.54 2.31 C-4.59 1.88 -4.59 1.88 -3.62 1.44 C-2.69 1 -2.69 1 -1.73 0.56 C-1.16 0.37 -0.59 0.19 0 0 Z " transform ="translate(239,65)" fill="#000000" />
  <path d="M0 0 C2 1 2 1 2 1 Z " transform ="translate(237,62)" fill="#000000" />
  <path d="M0 0 C0.66 0.33 1.32 0.66 2 1 C1.01 1 0.02 1 -1 1 C-0.67 0.67 -0.34 0.34 0 0 Z " transform ="translate(240,60)" fill="#000000" />
  <path d="M0 0 C0.66 0.33 1.32 0.66 2 1 C1.01 1 0.02 1 -1 1 C-0.67 0.67 -0.34 0.34 0 0 Z " transform ="translate(242,63)" fill="#000000" />
  <path d="M0 0 C0.66 0.66 1.32 1.32 2 2 C2.06 3.3 2.06 3.3 2.12 4.62 C2.08 5.41 2.04 6.19 2 7 C1.67 6.34 1.34 5.68 1 5 C0.34 4.67 -0.32 4.34 -1 4 C-0.67 2.68 -0.34 1.36 0 0 Z " transform ="translate(244,54)" fill="#000000" />
  <path d="M0 0 C0.99 0.49 0.99 0.49 2 1 C1.67 1.66 1.34 2.32 1 3 C0.67 2.01 0.34 1.02 0 0 Z " transform ="translate(242,51)" fill="#000000" />
  <path d="M0 0 C1.32 0.33 2.64 0.66 4 1 C3.01 1.49 3.01 1.49 2 2 C1.34 1.34 0.68 0.68 0 0 Z " transform ="translate(233,45)" fill="#000000" />
  <path d="M0 0 C2 1 2 1 2 1 Z " transform ="translate(231,44)" fill="#000000" />
  <path d="M0 0 C0.99 0.33 1.98 0.66 3 1 C2.01 1 1.02 1 0 1 C0 0.67 0 0.34 0 0 Z " transform ="translate(237,47)" fill="#000000" />
  <path d="M0 0 C2 1 2 1 2 1 Z " transform ="translate(109,147)" fill="#000000" />
  <path d="M0 0 C2 1 2 1 2 1 Z " transform ="translate(111,148)" fill="#000000" />
  <path d="M0 0 C0.66 0.66 1.32 1.32 2 2 C1.34 2 0.68 2 0 2 C0 1.34 0 0.68 0 0 Z " transform ="translate(107,145)" fill="#000000" />
  <path d="M0 0 C0.33 0.66 0.66 1.32 1 2 C-0.32 2.33 -1.64 2.66 -3 3 C-2.01 2.01 -1.02 1.02 0 0 Z " transform ="translate(110,159)" fill="#000000" />
  <path d="M0 0 C0.33 0.99 0.66 1.98 1 3 C0.01 3.5 0.01 3.5 -1 4 C-0.67 2.68 -0.34 1.36 0 0 Z " transform ="translate(112,155)" fill="#000000" />
  <path d="M0 0 C2.47 0.5 2.47 0.5 5 1 C4.67 1.99 4.34 2.98 4 4 C3.98 4.72 3.96 5.44 3.94 6.19 C3.97 7.08 3.97 7.08 4 8 C3.53 7.42 3.05 6.84 2.56 6.25 C2.05 5.51 1.53 4.76 1 4 C0.77 3.26 0.55 2.51 0.31 1.75 C0.21 1.17 0.11 0.59 0 0 Z " transform ="translate(120,153)" fill="#000000" />
  <path d="M0 0 C1 4 1 4 1 4 Z " transform ="translate(116,157)" fill="#000000" />
  <path d="M0 0 C0.33 0.66 0.66 1.32 1 2 C1.66 2.33 2.32 2.66 3 3 C1.68 3.33 0.36 3.66 -1 4 C-0.67 2.68 -0.34 1.36 0 0 Z " transform ="translate(105,163)" fill="#000000" />
  <path d="M0 0 C0 0.99 0 1.98 0 3 C-0.58 3.6 -1.16 4.2 -1.75 4.82 C-2.49 5.44 -3.23 6.05 -4 6.69 C-4.74 7.31 -5.48 7.93 -6.25 8.57 C-6.83 9.04 -7.41 9.52 -8 10 C-8.33 9.34 -8.66 8.68 -9 8 C-8.16 7.13 -8.16 7.13 -7.31 6.25 C-6.17 5.14 -6.17 5.14 -5 4 C-4.54 3.62 -4.09 3.24 -3.62 2.84 C-3.17 2.48 -2.72 2.12 -2.25 1.75 C-1.51 1.17 -0.77 0.59 0 0 Z " transform ="translate(103,162)" fill="#000000" />
  <path d="M0 0 C1.65 0 3.3 0 5 0 C5 0.33 5 0.66 5 1 C3.35 1 1.7 1 0 1 C0 0.67 0 0.34 0 0 Z " transform ="translate(108,164)" fill="#000000" />
  <path d="M0 0 C0.93 -0.04 1.86 -0.08 2.81 -0.12 C3.53 -0.08 4.26 -0.04 5 0 C4.16 0.43 4.16 0.43 3.3 0.87 C2.54 1.24 1.78 1.61 1 2 C-0.15 2.53 -0.15 2.53 -1.33 3.07 C-2.56 3.59 -2.56 3.59 -3.81 4.12 C-4.68 4.47 -5.55 4.82 -6.45 5.18 C-7.71 5.59 -7.71 5.59 -9 6 C-9.73 6.09 -10.46 6.17 -11.21 6.26 C-11.84 6.26 -12.47 6.25 -13.12 6.25 C-14.07 6.17 -15.02 6.09 -16 6 C-16 5.67 -16 5.34 -16 5 C-14.9 4.71 -14.9 4.71 -13.77 4.41 C-12.79 4.15 -11.82 3.89 -10.81 3.62 C-9.85 3.37 -8.89 3.11 -7.89 2.85 C-6.94 2.57 -5.98 2.29 -5 2 C-3.67 1.46 -3.67 1.46 -2.31 0.91 C-1.55 0.61 -0.79 0.31 0 0 Z " transform ="translate(107,171)" fill="#000000" />
  <path d="M0 0 C2.31 0 4.62 0 7 0 C7 0.33 7 0.66 7 1 C4.69 1 2.38 1 0 1 C0 0.67 0 0.34 0 0 Z " transform ="translate(114,165)" fill="#000000" />
  <path d="M0 0 C0.66 1.32 1.32 2.64 2 4 C1.01 3.67 0.02 3.34 -1 3 C-0.67 2.01 -0.34 1.02 0 0 Z " transform ="translate(89,172)" fill="#000000" />
  <path d="M0 0 C2 1 2 1 2 1 Z " transform ="translate(100,179)" fill="#000000" />
  <path d="M0 0 C0.33 0.99 0.66 1.98 1 3 C0.69 3.56 0.38 4.11 0.06 4.69 C-0.29 5.12 -0.64 5.55 -1 6 C-0.67 4.02 -0.34 2.04 0 0 Z " transform ="translate(110,127)" fill="#000000" />
  <path d="M0 0 C0.33 0.66 0.66 1.32 1 2 C0.01 2.99 -0.98 3.98 -2 5 C-1.34 3.35 -0.68 1.7 0 0 Z " transform ="translate(113,122)" fill="#000000" />
  <path d="M0 0 C0.33 0.66 0.66 1.32 1 2 C1.02 3.03 1.04 4.06 1.06 5.12 C1.04 6.07 1.02 7.02 1 8 C1.99 8.33 2.98 8.66 4 9 C3.01 9.5 3.01 9.5 2 10 C0.68 8.68 -0.64 7.36 -2 6 C-1.34 4.02 -0.68 2.04 0 0 Z " transform ="translate(101,136)" fill="#000000" />
  <path d="M0 0 C0.33 0.99 0.66 1.98 1 3 C0.01 3.99 -0.98 4.98 -2 6 C-1.34 4.02 -0.68 2.04 0 0 Z " transform ="translate(97,139)" fill="#000000" />
  <path d="M0 0 C0.33 0 0.66 0 1 0 C1.11 0.53 1.22 1.06 1.33 1.61 C1.49 2.32 1.65 3.02 1.81 3.75 C1.99 4.48 2.17 5.2 2.36 5.95 C2.57 6.63 2.78 7.3 3 8 C3.54 8.82 4.07 9.65 4.62 10.5 C5.08 11 5.53 11.49 6 12 C5.38 11.73 4.76 11.46 4.12 11.19 C3.42 10.8 2.72 10.4 2 10 C1.59 9.61 1.17 9.22 0.75 8.81 C0.5 8.21 0.25 7.62 0 7 C-0.04 6.42 -0.08 5.84 -0.12 5.25 C-0.12 4.61 -0.12 3.97 -0.12 3.31 C-0.08 2.22 -0.04 1.13 0 0 Z " transform ="translate(108,133)" fill="#000000" />
  <path d="M0 0 C0.99 0.5 0.99 0.5 2 1 C1.34 1.66 0.68 2.32 0 3 C0 2.01 0 1.02 0 0 Z " transform ="translate(103,131)" fill="#000000" />
  <path d="M0 0 C0.3 0.54 0.6 1.09 0.91 1.65 C1.27 2.42 1.63 3.2 2 4 C2.24 4.88 2.47 5.75 2.71 6.65 C2.93 7.64 3.15 8.63 3.37 9.65 C3.61 10.74 3.86 11.82 4.11 12.95 C4.3 13.79 4.3 13.79 4.49 14.65 C4.68 15.51 4.68 15.51 4.88 16.38 C5.24 18.06 5.24 18.06 5.61 19.78 C5.86 20.87 6.11 21.96 6.37 23.09 C6.62 24.12 6.88 25.16 7.14 26.23 C7.42 27.14 7.71 28.06 8 29 C8.36 29.7 8.72 30.4 9.09 31.13 C9.45 31.67 9.82 32.22 10.2 32.79 C10.79 33.52 11.39 34.25 12 35 C11.67 35.66 11.34 36.32 11 37 C10.4 36.32 9.8 35.64 9.19 34.94 C8.82 34.48 8.45 34.02 8.08 33.54 C7.72 33.03 7.37 32.52 7 32 C6.6 31.23 6.6 31.23 6.19 30.44 C5.83 29.62 5.83 29.62 5.46 28.78 C5.21 28.16 4.95 27.55 4.69 26.92 C4.35 25.97 4.35 25.97 4 25 C3.84 24.4 3.68 23.79 3.51 23.17 C3.38 22.57 3.25 21.97 3.12 21.35 C3.01 20.74 2.89 20.13 2.77 19.51 C2.66 18.89 2.55 18.26 2.44 17.62 C2.26 16.65 2.26 16.65 2.07 15.65 C1.95 15 1.83 14.36 1.7 13.69 C1.58 13.06 1.47 12.43 1.35 11.78 C1.23 11.19 1.12 10.61 1 10 C0.78 9.03 0.56 8.06 0.33 7.06 C0.14 6.26 -0.05 5.45 -0.25 4.62 C-0.42 3.94 -0.59 3.25 -0.77 2.54 C-0.84 2.03 -0.92 1.52 -1 1 C-0.67 0.67 -0.34 0.34 0 0 Z " transform ="translate(62,148)" fill="#000000" />
  <path d="M0 0 C0 3 0 3 0 3 Z " transform ="translate(89,150)" fill="#000000" />
  <path d="M0 0 C1.65 1.32 3.3 2.64 5 4 C4.67 4.66 4.34 5.32 4 6 C3.34 5.38 2.68 4.76 2 4.12 C1.34 3.42 0.68 2.72 0 2 C0 1.34 0 0.68 0 0 Z " transform ="translate(153,146)" fill="#000000" />
  <path d="M0 0 C0.99 0.33 1.98 0.66 3 1 C2.01 1 1.02 1 0 1 C0 0.67 0 0.34 0 0 Z " transform ="translate(150,144)" fill="#000000" />
  <path d="M0 0 C0.74 -0.04 1.49 -0.08 2.25 -0.12 C3.16 -0.08 4.06 -0.04 5 0 C5.76 0.33 6.53 0.66 7.31 1 C8.15 1.5 8.15 1.5 9 2 C8.67 2.33 8.34 2.66 8 3 C7.22 3.08 6.43 3.16 5.62 3.25 C4.76 3.17 3.89 3.09 3 3 C2.4 2.5 1.8 2.01 1.19 1.5 C0.6 0.76 0.6 0.76 0 0 Z " transform ="translate(131,140)" fill="#000000" />
  <path d="M0 0 C0.66 0.33 1.32 0.66 2 1 C1.01 1 0.02 1 -1 1 C-0.67 0.67 -0.34 0.34 0 0 Z " transform ="translate(129,141)" fill="#000000" />
  <path d="M0 0 C0.66 0.33 1.32 0.66 2 1 C1.39 1.52 1.39 1.52 0.76 2.06 C0.22 2.51 -0.32 2.97 -0.88 3.44 C-1.41 3.89 -1.94 4.34 -2.49 4.81 C-3.24 5.4 -3.24 5.4 -4 6 C-4.99 6.5 -4.99 6.5 -6 7 C-6.57 7.03 -7.14 7.06 -7.73 7.1 C-8.67 7.08 -8.67 7.08 -9.62 7.06 C-10.74 7.04 -11.85 7.02 -13 7 C-13 6.67 -13 6.34 -13 6 C-11.95 5.73 -10.9 5.46 -9.81 5.19 C-9.18 5.01 -8.54 4.83 -7.89 4.64 C-7.26 4.43 -6.64 4.22 -6 4 C-4.58 3.23 -4.58 3.23 -3.12 2.44 C-2.42 1.96 -1.72 1.49 -1 1 C-0.67 0.67 -0.34 0.34 0 0 Z " transform ="translate(126,143)" fill="#000000" />
  <path d="M0 0 C1.32 1.32 2.64 2.64 4 4 C2.68 3.34 1.36 2.68 0 2 C0 1.34 0 0.68 0 0 Z " transform ="translate(140,134)" fill="#000000" />
  <path d="M0 0 C0.66 0.66 1.32 1.32 2 2 C1.34 2 0.68 2 0 2 C0 1.34 0 0.68 0 0 Z " transform ="translate(145,139)" fill="#000000" />
  <path d="M0 0 C1.32 1.32 2.64 2.64 4 4 C3.67 4.66 3.34 5.32 3 6 C2.26 5.07 2.26 5.07 1.5 4.12 C0.76 3.07 0.76 3.07 0 2 C0 1.34 0 0.68 0 0 Z " transform ="translate(136,128)" fill="#000000" />
  <path d="M0 0 C0.66 0.33 1.32 0.66 2 1 C0.68 1.99 -0.64 2.98 -2 4 C-1.34 2.68 -0.68 1.36 0 0 Z " transform ="translate(121,187)" fill="#000000" />
  <path d="M0 0 C4 1 4 1 4 1 Z " transform ="translate(123,186)" fill="#000000" />
  <path d="M0 0 C0.66 0.33 1.32 0.66 2 1 C0.68 1.99 -0.64 2.98 -2 4 C-1.34 2.68 -0.68 1.36 0 0 Z " transform ="translate(123,189)" fill="#000000" />
  <path d="M0 0 C1.32 1.32 2.64 2.64 4 4 C3.67 4.66 3.34 5.32 3 6 C2.5 5.57 2.01 5.13 1.5 4.69 C1 4.13 0.51 3.57 0 3 C0 2.01 0 1.02 0 0 Z " transform ="translate(119,175)" fill="#000000" />
  <path d="M0 0 C1.98 0 3.96 0 6 0 C6 0.33 6 0.66 6 1 C4.02 1 2.04 1 0 1 C0 0.67 0 0.34 0 0 Z " transform ="translate(116,172)" fill="#000000" />
  <path d="M0 0 C3 1 3 1 3 1 Z " transform ="translate(122,171)" fill="#000000" />
  <path d="M0 0 C0.66 0.33 1.32 0.66 2 1 C1.57 1.35 1.15 1.7 0.71 2.06 C0.08 2.51 -0.54 2.97 -1.19 3.44 C-2.29 4.12 -2.29 4.12 -3.41 4.82 C-4.27 5.21 -5.12 5.6 -6 6 C-6.96 6.18 -7.91 6.37 -8.9 6.55 C-10.46 6.68 -10.46 6.68 -12.06 6.81 C-13.72 6.88 -13.72 6.88 -15.41 6.94 C-16.28 6.96 -16.28 6.96 -17.16 6.97 C-17.77 6.98 -18.38 6.99 -19 7 C-19.65 7.02 -20.3 7.05 -20.97 7.07 C-21.97 7.11 -21.97 7.11 -23 7.15 C-23.66 7.17 -24.33 7.19 -25.02 7.21 C-26 7.23 -26 7.23 -27 7.25 C-27.62 7.27 -28.25 7.29 -28.89 7.32 C-29.48 7.32 -30.08 7.32 -30.69 7.33 C-31.78 7.22 -32.87 7.11 -34 7 C-34.95 6.54 -35.9 6.08 -36.88 5.61 C-37.58 5.08 -38.28 4.55 -39 4 C-39.33 3.34 -39.66 2.68 -40 2 C-39.1 2.46 -39.1 2.46 -38.19 2.94 C-37.47 3.29 -36.74 3.64 -36 4 C-35.01 4.33 -34.02 4.66 -33 5 C-31.68 5.07 -31.68 5.07 -30.33 5.13 C-28.8 5.13 -28.8 5.13 -27.25 5.12 C-25.64 5.11 -25.64 5.11 -24 5.1 C-23.01 5.07 -22.02 5.03 -21 5 C-20.31 4.93 -19.62 4.85 -18.9 4.77 C-18.34 4.68 -17.77 4.59 -17.19 4.5 C-16.14 4.34 -15.08 4.17 -14 4 C-13.14 4.04 -13.14 4.04 -12.27 4.07 C-11.69 4.11 -11.1 4.15 -10.5 4.19 C-9.64 4.21 -9.64 4.21 -8.77 4.23 C-7.89 4.12 -7.89 4.12 -7 4 C-6.36 3.7 -5.73 3.39 -5.07 3.08 C-4.45 2.7 -3.83 2.33 -3.19 1.94 C-2.62 1.55 -2.06 1.17 -1.48 0.78 C-0.99 0.52 -0.5 0.26 0 0 Z " transform ="translate(142,178)" fill="#000000" />
  <path d="M0 0 C0.66 0.33 1.32 0.66 2 1 C1.01 1 0.02 1 -1 1 C-0.67 0.67 -0.34 0.34 0 0 Z " transform ="translate(145,176)" fill="#000000" />
  <path d="M0 0 C3 1 3 1 3 1 Z " transform ="translate(142,169)" fill="#000000" />
  <path d="M0 0 C4 1 4 1 4 1 Z " transform ="translate(137,168)" fill="#000000" />
  <path d="M0 0 C1.55 -0.09 1.55 -0.09 3.12 -0.19 C4.07 -0.13 5.02 -0.06 6 0 C6 1.32 6 2.64 6 4 C5.01 4.5 5.01 4.5 4 5 C4 4.34 4 3.68 4 3 C2.02 3 0.04 3 -2 3 C-1.79 2.5 -1.59 2.01 -1.38 1.5 C-0.92 1 -0.47 0.51 0 0 Z " transform ="translate(148,168)" fill="#000000" />
  <path d="M0 0 C2 1 2 1 2 1 Z " transform ="translate(145,167)" fill="#000000" />
  <path d="M0 0 C0.99 0.33 1.98 0.66 3 1 C1.68 1.33 0.36 1.66 -1 2 C-0.67 1.34 -0.34 0.68 0 0 Z " transform ="translate(149,173)" fill="#000000" />
  <path d="M0 0 C0.99 0.33 1.98 0.66 3 1 C1.68 1.33 0.36 1.66 -1 2 C-0.67 1.34 -0.34 0.68 0 0 Z " transform ="translate(128,169)" fill="#000000" />
  <path d="M0 0 C2 1 2 1 2 1 Z " transform ="translate(131,168)" fill="#000000" />
  <path d="M0 0 C2 1 2 1 2 1 Z " transform ="translate(131,161)" fill="#000000" />
  <path d="M0 0 C1.05 0.15 1.05 0.15 2.12 0.31 C3.55 0.65 3.55 0.65 5 1 C5.55 1.24 6.1 1.48 6.67 1.73 C7.48 2.14 7.48 2.14 8.31 2.56 C9.2 3.04 10.09 3.51 11 4 C10.01 4.33 9.02 4.66 8 5 C6.99 4.62 6.99 4.62 5.96 4.22 C5.25 3.84 4.54 3.46 3.81 3.06 C3.1 2.68 2.38 2.3 1.64 1.91 C1.1 1.61 0.56 1.31 0 1 C0 0.67 0 0.34 0 0 Z " transform ="translate(133,162)" fill="#000000" />
  <path d="M0 0 C0.33 0.66 0.66 1.32 1 2 C-0.98 2.33 -2.96 2.66 -5 3 C-4.34 2.34 -3.68 1.68 -3 1 C-2.01 0.67 -1.02 0.34 0 0 Z " transform ="translate(126,162)" fill="#000000" />
  <path d="M0 0 C0.99 0.99 1.98 1.98 3 3 C2.01 2.67 1.02 2.34 0 2 C0 1.34 0 0.68 0 0 Z " transform ="translate(126,159)" fill="#000000" />
  <path d="M0 0 C0.99 0.5 0.99 0.5 2 1 C1.67 1.66 1.34 2.32 1 3 C0.67 2.01 0.34 1.02 0 0 Z " transform ="translate(128,156)" fill="#000000" />
  <path d="M0 0 C0.99 0 1.98 0 3 0 C3 0.66 3 1.32 3 2 C2.01 1.67 1.02 1.34 0 1 C0 0.67 0 0.34 0 0 Z " transform ="translate(99,107)" fill="#000000" />
  <path d="M0 0 C2 1 2 1 2 1 Z " transform ="translate(94,111)" fill="#000000" />
  <path d="M0 0 C2 1 2 1 2 1 Z " transform ="translate(100,98)" fill="#000000" />
  <path d="M0 0 C2 1 2 1 2 1 Z " transform ="translate(98,97)" fill="#000000" />
  <path d="M0 0 C0.35 0.43 0.7 0.87 1.06 1.31 C1.37 1.87 1.68 2.43 2 3 C1.67 3.99 1.34 4.98 1 6 C0.67 6 0.34 6 0 6 C0 4.02 0 2.04 0 0 Z " transform ="translate(106,103)" fill="#000000" />
  <path d="M0 0 C1.05 0.19 2.1 0.37 3.19 0.56 C4.14 0.7 4.14 0.7 5.11 0.84 C5.73 0.9 6.36 0.95 7 1 C7.97 0.86 8.94 0.71 9.94 0.56 C10.62 0.38 11.3 0.19 12 0 C11.26 0.68 10.52 1.36 9.75 2.06 C8.84 2.7 7.94 3.34 7 4 C6.3 3.92 5.6 3.83 4.88 3.75 C4.26 3.5 3.64 3.25 3 3 C2.01 3 1.02 3 0 3 C0 2.01 0 1.02 0 0 Z " transform ="translate(81,112)" fill="#000000" />
  <path d="M0 0 C2 1 2 1 2 1 Z " transform ="translate(84,116)" fill="#000000" />
  <path d="M0 0 C0 0.99 0 1.98 0 3 C-0.66 2.67 -1.32 2.34 -2 2 C-1.34 1.34 -0.68 0.68 0 0 Z " transform ="translate(69,98)" fill="#000000" />
  <path d="M0 0 C0.66 0.99 1.32 1.98 2 3 C1.01 3 0.02 3 -1 3 C-0.67 2.01 -0.34 1.02 0 0 Z " transform ="translate(69,106)" fill="#000000" />
  <path d="M0 0 C0.93 0.11 1.87 0.23 2.83 0.35 C3.55 0.56 4.26 0.78 5 1 C4.67 1.66 4.34 2.32 4 3 C2.73 3.31 2.73 3.31 1.44 3.62 C0.63 3.75 -0.17 3.87 -1 4 C-0.67 5.32 -0.34 6.64 0 8 C-0.66 8 -1.32 8 -2 8 C-2 7.34 -2 6.68 -2 6 C-3.32 6.33 -4.64 6.66 -6 7 C-6 7.99 -6 8.98 -6 10 C-4.68 10.33 -3.36 10.66 -2 11 C-2.33 11.66 -2.66 12.32 -3 13 C-3.78 12.79 -4.57 12.59 -5.38 12.38 C-6.24 11.92 -7.11 11.47 -8 11 C-8.43 9.97 -8.87 8.94 -9.31 7.88 C-9.54 6.93 -9.77 5.98 -10 5 C-9 4.44 -9 4.44 -7.99 3.87 C-7.11 3.4 -6.22 2.92 -5.31 2.44 C-4.44 1.96 -3.57 1.49 -2.68 1 C-1.35 0.5 -1.35 0.5 0 0 Z " transform ="translate(81,104)" fill="#000000" />
  <path d="M0 0 C1.27 -0.06 1.27 -0.06 2.56 -0.12 C3.7 -0.08 4.83 -0.04 6 0 C6.65 0.15 7.29 0.29 7.96 0.45 C8.59 0.63 9.22 0.81 9.88 1 C10.91 1.33 11.94 1.66 13 2 C13 2.33 13 2.66 13 3 C10.03 2.67 7.06 2.34 4 2 C3.67 3.32 3.34 4.64 3 6 C2.67 6.66 2.34 7.32 2 8 C1.34 7.67 0.68 7.34 0 7 C0.99 5.02 1.98 3.04 3 1 C2.01 0.67 1.02 0.34 0 0 Z " transform ="translate(86,104)" fill="#000000" />
  <path d="M0 0 C3 1 3 1 3 1 Z " transform ="translate(87,94)" fill="#000000" />
  <path d="M0 0 C2 1 2 1 2 1 Z " transform ="translate(81,94)" fill="#000000" />
  <path d="M0 0 C0.33 0.66 0.66 1.32 1 2 C0.34 2.66 -0.32 3.32 -1 4 C-0.67 2.68 -0.34 1.36 0 0 Z " transform ="translate(126,104)" fill="#000000" />
  <path d="M0 0 C2 1 2 1 2 1 Z " transform ="translate(129,107)" fill="#000000" />
  <path d="M0 0 C0.99 0.5 0.99 0.5 2 1 C1.01 1.5 1.01 1.5 0 2 C0 1.34 0 0.68 0 0 Z " transform ="translate(130,97)" fill="#000000" />
  <path d="M0 0 C0.66 0 1.32 0 2 0 C1.67 0.66 1.34 1.32 1 2 C0.67 1.34 0.34 0.68 0 0 Z " transform ="translate(161,100)" fill="#000000" />
  <path d="M0 0 C2 1 2 1 2 1 Z " transform ="translate(159,99)" fill="#000000" />
  <path d="M0 0 C2 1 2 1 2 1 Z " transform ="translate(157,98)" fill="#000000" />
  <path d="M0 0 C0.99 0.33 1.98 0.66 3 1 C2.4 1.35 1.8 1.7 1.19 2.06 C0.1 2.53 0.1 2.53 -1 3 C-1.99 2.67 -2.98 2.34 -4 2 C-3.4 1.65 -2.8 1.3 -2.19 0.94 C-1.47 0.63 -0.74 0.32 0 0 Z " transform ="translate(157,105)" fill="#000000" />
  <path d="M0 0 C0.69 -0.09 1.37 -0.17 2.08 -0.26 C3.28 -0.32 3.28 -0.32 4.5 -0.38 C5.35 -0.36 6.21 -0.35 7.09 -0.34 C8.05 -0.23 9.01 -0.11 10 0 C10.57 0.13 11.14 0.26 11.73 0.4 C12.33 0.57 12.92 0.73 13.54 0.9 C14.43 1.16 14.43 1.16 15.34 1.44 C15.93 1.62 16.52 1.81 17.12 2 C17.71 2.19 18.29 2.38 18.88 2.58 C19.69 2.85 19.69 2.85 20.51 3.12 C21.33 3.41 22.15 3.7 23 4 C22.4 4.18 21.79 4.37 21.17 4.55 C20.09 4.78 20.09 4.78 19 5 C17.67 4.57 17.67 4.57 16.31 4.12 C15.22 3.75 14.13 3.38 13 3 C12.21 2.88 11.42 2.76 10.61 2.64 C9.79 2.55 8.97 2.47 8.12 2.38 C7.34 2.3 6.56 2.23 5.76 2.15 C5.18 2.1 4.6 2.05 4 2 C3.01 3.48 3.01 3.48 2 5 C1.34 4.67 0.68 4.34 0 4 C-0.43 4.33 -0.87 4.66 -1.31 5 C-1.87 5.33 -2.43 5.66 -3 6 C-3.99 6 -4.98 6 -6 6 C-6 6.99 -6 7.98 -6 9 C-3.69 9.33 -1.38 9.66 1 10 C0.34 10.66 -0.32 11.32 -1 12 C-3.31 11.34 -5.62 10.68 -8 10 C-8 10.66 -8 11.32 -8 12 C-7.08 11.98 -6.17 11.95 -5.23 11.93 C-4.65 11.92 -4.07 11.91 -3.48 11.9 C-2.87 11.89 -2.25 11.88 -1.62 11.88 C-1.02 11.86 -0.42 11.84 0.2 11.82 C1.07 11.81 1.07 11.81 1.96 11.8 C2.96 11.87 3.97 11.93 5 12 C5.66 12.66 6.32 13.32 7 14 C6.26 14.01 5.53 14.02 4.77 14.04 C3.79 14.04 2.82 14.05 1.81 14.06 C0.37 14.08 0.37 14.08 -1.11 14.1 C-2.54 14.05 -2.54 14.05 -4 14 C-5.42 13.75 -5.42 13.75 -6.86 13.5 C-7.57 13.33 -8.27 13.17 -9 13 C-9.27 11.93 -9.54 10.86 -9.81 9.75 C-9.9 9.11 -10 8.47 -10.09 7.82 C-10.06 7.22 -10.03 6.62 -10 6 C-9.3 5.24 -8.6 4.47 -7.88 3.69 C-6.93 3.13 -5.98 2.57 -5 2 C-4.28 1.59 -3.56 1.17 -2.81 0.75 C-1.88 0.5 -0.96 0.25 0 0 Z " transform ="translate(142,99)" fill="#000000" />
  <path d="M0 0 C0.99 0.33 1.98 0.66 3 1 C3 1.66 3 2.32 3 3 C2.34 3 1.68 3 1 3 C0.67 2.01 0.34 1.02 0 0 Z " transform ="translate(139,105)" fill="#000000" />
  <path d="M0 0 C0.99 0.33 1.98 0.66 3 1 C2.01 1.33 1.02 1.66 0 2 C0 1.34 0 0.68 0 0 Z " transform ="translate(147,109)" fill="#000000" />
  <path d="M0 0 C2 1 2 1 2 1 Z " transform ="translate(143,108)" fill="#000000" />
  <path d="M0 0 C0.66 0.33 1.32 0.66 2 1 C0.35 1.33 -1.3 1.66 -3 2 C-2.01 1.34 -1.02 0.68 0 0 Z " transform ="translate(152,110)" fill="#000000" />
  <path d="M0 0 C2 1 2 1 2 1 Z " transform ="translate(150,108)" fill="#000000" />
  <path d="M0 0 C0.66 0 1.32 0 2 0 C1.75 0.8 1.5 1.61 1.25 2.44 C0.84 3.28 0.43 4.13 0 5 C-0.7 5.27 -1.4 5.54 -2.12 5.81 C-2.74 5.87 -3.36 5.94 -4 6 C-3.53 5.57 -3.05 5.13 -2.56 4.69 C-2.05 4.13 -1.53 3.57 -1 3 C-0.67 2.01 -0.34 1.02 0 0 Z " transform ="translate(149,102)" fill="#000000" />
  <path d="M0 0 C1.45 -0.03 1.45 -0.03 2.93 -0.07 C3.74 -0.07 4.54 -0.06 5.38 -0.06 C6.08 -0.05 6.79 -0.04 7.52 -0.04 C8.01 -0.02 8.5 -0.01 9 0 C9 0.33 9 0.66 9 1 C7.99 1.17 6.98 1.33 5.94 1.5 C5.22 1.59 4.51 1.68 3.78 1.78 C2.86 1.85 1.94 1.92 1 2 C0.39 2.02 -0.22 2.03 -0.85 2.05 C-1.85 2.06 -1.85 2.06 -2.87 2.07 C-3.55 2.07 -4.23 2.07 -4.93 2.07 C-5.61 2.07 -6.3 2.07 -7 2.06 C-7.68 2.06 -8.37 2.05 -9.07 2.05 C-9.71 2.05 -10.34 2.04 -11 2.04 C-11.99 2.02 -12.98 2.01 -14 2 C-14 1.67 -14 1.34 -14 1 C-12.64 0.89 -12.64 0.89 -11.25 0.78 C-10.67 0.74 -10.08 0.69 -9.48 0.64 C-8.85 0.6 -8.21 0.55 -7.56 0.5 C-6.93 0.45 -6.29 0.41 -5.64 0.36 C-5 0.31 -4.37 0.27 -3.71 0.22 C-2.77 0.16 -2.77 0.16 -1.8 0.1 C-1.21 0.07 -0.61 0.03 0 0 Z " transform ="translate(91,65)" fill="#000000" />
  <path d="M0 0 C2 1 2 1 2 1 Z " transform ="translate(102,65)" fill="#000000" />
  <path d="M0 0 C1.52 -0.04 1.52 -0.04 3.08 -0.08 C4.12 -0.09 5.16 -0.09 6.23 -0.1 C7.28 -0.09 8.33 -0.09 9.41 -0.09 C11 -0.08 11 -0.08 12.62 -0.06 C13.72 -0.06 14.82 -0.05 15.96 -0.05 C17.51 -0.04 17.51 -0.04 19.1 -0.04 C20.04 -0.03 20.99 -0.02 21.96 -0.02 C22.63 -0.01 23.3 -0.01 24 0 C23.34 0.66 22.68 1.32 22 2 C20.96 2.07 19.91 2.15 18.84 2.23 C18.19 2.23 17.55 2.23 16.89 2.23 C15.86 2.21 15.86 2.21 14.8 2.2 C14.1 2.19 13.39 2.19 12.66 2.19 C11.93 2.18 11.2 2.18 10.45 2.18 C9.7 2.17 8.95 2.16 8.18 2.15 C7.04 2.14 7.04 2.14 5.88 2.12 C5.11 2.12 4.35 2.12 3.56 2.11 C2.81 2.11 2.05 2.1 1.28 2.1 C0.55 2.09 -0.18 2.09 -0.93 2.08 C-1.64 2.08 -2.34 2.08 -3.07 2.07 C-3.76 2.06 -4.46 2.06 -5.17 2.05 C-5.81 2.04 -6.44 2.04 -7.09 2.03 C-8.05 2.02 -9.01 2.01 -10 2 C-10 1.67 -10 1.34 -10 1 C-9.42 0.93 -8.85 0.86 -8.26 0.78 C-7.44 0.69 -6.63 0.6 -5.79 0.5 C-4.88 0.41 -3.96 0.32 -3.02 0.23 C-1.53 0.11 -1.53 0.11 0 0 Z " transform ="translate(150,58)" fill="#000000" />
  <path d="M0 0 C2 1 2 1 2 1 Z " transform ="translate(129,61)" fill="#000000" />
  <path d="M0 0 C1.65 0 3.3 0 5 0 C5 0.33 5 0.66 5 1 C3.35 1 1.7 1 0 1 C0 0.67 0 0.34 0 0 Z " transform ="translate(117,246)" fill="#000000" />
  <path d="M0 0 C4 1 4 1 4 1 Z " transform ="translate(122,245)" fill="#000000" />
  <path d="M0 0 C0.66 0.33 1.32 0.66 2 1 C1.01 1 0.02 1 -1 1 C-0.67 0.67 -0.34 0.34 0 0 Z " transform ="translate(128,242)" fill="#000000" />
  <path d="M0 0 C3 1 3 1 3 1 Z " transform ="translate(128,249)" fill="#000000" />
  <path d="M0 0 C2 1 2 1 2 1 Z " transform ="translate(99,236)" fill="#000000" />
  <path d="M0 0 C3 1 3 1 3 1 Z " transform ="translate(101,237)" fill="#000000" />
  <path d="M0 0 C2 1 2 1 2 1 Z " transform ="translate(97,235)" fill="#000000" />
  <path d="M0 0 C3 1 3 1 3 1 Z " transform ="translate(94,234)" fill="#000000" />
  <path d="M0 0 C3 1 3 1 3 1 Z " transform ="translate(106,239)" fill="#000000" />
  <path d="M0 0 C2 1 2 1 2 1 Z " transform ="translate(104,238)" fill="#000000" />
  <path d="M0 0 C2 1 2 1 2 1 Z " transform ="translate(109,240)" fill="#000000" />
  <path d="M0 0 C3 1 3 1 3 1 Z " transform ="translate(111,241)" fill="#000000" />
  <path d="M0 0 C2.47 0.5 2.47 0.5 5 1 C3.68 1.33 2.36 1.66 1 2 C0.67 1.34 0.34 0.68 0 0 Z " transform ="translate(114,242)" fill="#000000" />
  <path d="M0 0 C4 1 4 1 4 1 Z " transform ="translate(111,249)" fill="#000000" />
  <path d="M0 0 C1.01 0.23 1.01 0.23 2.04 0.46 C3.02 0.64 3.99 0.82 5 1 C5.57 1.06 6.14 1.12 6.73 1.18 C7.63 1.25 7.63 1.25 8.55 1.32 C9.47 1.38 9.47 1.38 10.42 1.44 C11.04 1.48 11.67 1.52 12.31 1.56 C13.28 1.63 13.28 1.63 14.27 1.69 C14.88 1.73 15.49 1.77 16.11 1.82 C17.54 1.91 17.54 1.91 19 2 C19 2.33 19 2.66 19 3 C17.96 3.02 16.93 3.05 15.86 3.07 C15.2 3.08 14.54 3.09 13.86 3.1 C12.82 3.11 12.82 3.11 11.75 3.12 C11.07 3.14 10.39 3.16 9.68 3.18 C8.69 3.19 8.69 3.19 7.67 3.2 C7.03 3.19 6.39 3.18 5.74 3.17 C5.16 3.11 4.59 3.06 4 3 C3.18 2.67 2.36 2.33 1.52 1.99 C1.02 1.66 0.52 1.34 0 1 C0 0.67 0 0.34 0 0 Z " transform ="translate(108,215)" fill="#000000" />
  <path d="M0 0 C0.99 0.33 1.98 0.66 3 1 C2.01 1 1.02 1 0 1 C0 0.67 0 0.34 0 0 Z " transform ="translate(105,213)" fill="#000000" />
  <path d="M0 0 C1.98 0.99 1.98 0.99 4 2 C3.01 2 2.02 2 1 2 C0.67 1.34 0.34 0.68 0 0 Z " transform ="translate(99,208)" fill="#000000" />
  <path d="M0 0 C2 1 2 1 2 1 Z " transform ="translate(97,207)" fill="#000000" />
  <path d="M0 0 C0.99 0.33 1.98 0.66 3 1 C2.01 1 1.02 1 0 1 C0 0.67 0 0.34 0 0 Z " transform ="translate(94,205)" fill="#000000" />
  <path d="M0 0 C0.66 0.33 1.32 0.66 2 1 C1.69 1.61 1.37 2.23 1.05 2.86 C0.62 3.67 0.19 4.48 -0.25 5.31 C-0.88 6.51 -0.88 6.51 -1.52 7.74 C-2.01 8.48 -2.5 9.23 -3 10 C-3.72 10.59 -4.43 11.18 -5.17 11.79 C-5.78 12.19 -6.38 12.59 -7 13 C-6.72 12.44 -6.45 11.88 -6.16 11.3 C-5.59 10.16 -5.59 10.16 -5 9 C-4.57 8.22 -4.15 7.44 -3.71 6.64 C-3.27 5.85 -2.83 5.06 -2.38 4.25 C-1.93 3.45 -1.48 2.65 -1.02 1.83 C-0.69 1.22 -0.35 0.62 0 0 Z " transform ="translate(66,183)" fill="#000000" />
  <path d="M0 0 C0.83 0.76 1.65 1.53 2.5 2.31 C2.96 2.74 3.43 3.17 3.91 3.61 C4.27 4.07 4.63 4.53 5 5 C5 5.99 5 6.98 5 8 C4.64 7.59 4.28 7.18 3.91 6.76 C3.44 6.22 2.98 5.68 2.5 5.12 C2.04 4.59 1.57 4.06 1.09 3.51 C0.73 3.01 0.37 2.51 0 2 C0 1.34 0 0.68 0 0 Z " transform ="translate(74,185)" fill="#000000" />
  <path d="M0 0 C1.98 0.99 1.98 0.99 4 2 C3.01 2 2.02 2 1 2 C0.67 1.34 0.34 0.68 0 0 Z " transform ="translate(85,198)" fill="#000000" />
  <path d="M0 0 C1.98 0.99 1.98 0.99 4 2 C3.01 2 2.02 2 1 2 C0.67 1.34 0.34 0.68 0 0 Z " transform ="translate(89,201)" fill="#000000" />
  <path d="M0 0 C0.99 0.99 1.98 1.98 3 3 C2.01 2.67 1.02 2.34 0 2 C0 1.34 0 0.68 0 0 Z " transform ="translate(80,193)" fill="#000000" />
  <path d="M0 0 C3 1 3 1 3 1 Z " transform ="translate(54,213)" fill="#000000" />
  <path d="M0 0 C3 1 3 1 3 1 Z " transform ="translate(51,212)" fill="#000000" />
  <path d="M0 0 C0.97 0.29 1.94 0.58 2.94 0.88 C4.45 1.43 4.45 1.43 6 2 C6.33 2.66 6.66 3.32 7 4 C6.03 3.71 5.06 3.42 4.06 3.12 C3.05 2.75 2.04 2.38 1 2 C0.67 1.34 0.34 0.68 0 0 Z " transform ="translate(57,214)" fill="#000000" />
  <path d="M0 0 C0.66 0.33 1.32 0.66 2 1 C1.34 1.66 0.68 2.32 0 3 C1.32 3.66 2.64 4.32 4 5 C1.36 5.33 -1.28 5.66 -4 6 C-2.68 4.02 -1.36 2.04 0 0 Z " transform ="translate(47,207)" fill="#000000" />
  <path d="M0 0 C0.66 0.33 1.32 0.66 2 1 C0.35 1.66 -1.3 2.32 -3 3 C-2.01 2.01 -1.02 1.02 0 0 Z " transform ="translate(41,213)" fill="#000000" />
  <path d="M0 0 C0 0.99 0 1.98 0 3 C-0.66 3.56 -1.32 4.11 -2 4.69 C-2.66 5.12 -3.32 5.55 -4 6 C-3.71 5.38 -3.42 4.76 -3.12 4.12 C-2.75 3.42 -2.38 2.72 -2 2 C-1.34 1.34 -0.68 0.68 0 0 Z " transform ="translate(55,199)" fill="#000000" />
  <path d="M0 0 C1.98 0.99 1.98 0.99 4 2 C3.01 2 2.02 2 1 2 C0.67 1.34 0.34 0.68 0 0 Z " transform ="translate(66,219)" fill="#000000" />
  <path d="M0 0 C2 1 2 1 2 1 Z " transform ="translate(64,218)" fill="#000000" />
  <path d="M0 0 C2 1 2 1 2 1 Z " transform ="translate(70,222)" fill="#000000" />
  <path d="M0 0 C0.99 0.33 1.98 0.66 3 1 C2.01 1 1.02 1 0 1 C0 0.67 0 0.34 0 0 Z " transform ="translate(72,223)" fill="#000000" />
  <path d="M0 0 C2 1 2 1 2 1 Z " transform ="translate(87,231)" fill="#000000" />
  <path d="M0 0 C2.47 0.5 2.47 0.5 5 1 C3.68 1.33 2.36 1.66 1 2 C0.67 1.34 0.34 0.68 0 0 Z " transform ="translate(89,232)" fill="#000000" />
  <path d="M0 0 C2 1 2 1 2 1 Z " transform ="translate(85,230)" fill="#000000" />
  <path d="M0 0 C1.98 0.66 3.96 1.32 6 2 C5.01 2.33 4.02 2.66 3 3 C2.01 2.01 1.02 1.02 0 0 Z " transform ="translate(79,227)" fill="#000000" />
  <path d="M0 0 C2 1 2 1 2 1 Z " transform ="translate(77,226)" fill="#000000" />
  <path d="M0 0 C2 1 2 1 2 1 Z " transform ="translate(75,225)" fill="#000000" />
  <path d="M0 0 C2.31 0.33 4.62 0.66 7 1 C6.4 1.21 5.8 1.41 5.19 1.62 C4.47 1.75 3.74 1.87 3 2 C2.42 1.69 1.84 1.38 1.25 1.06 C0.84 0.71 0.43 0.36 0 0 Z " transform ="translate(209,215)" fill="#000000" />
  <path d="M0 0 C3 1 3 1 3 1 Z " transform ="translate(206,214)" fill="#000000" />
  <path d="M0 0 C2.97 0.5 2.97 0.5 6 1 C5.38 1.21 4.76 1.41 4.12 1.62 C3.42 1.75 2.72 1.87 2 2 C1.34 1.34 0.68 0.68 0 0 Z " transform ="translate(216,217)" fill="#000000" />
  <path d="M0 0 C2.47 0.5 2.47 0.5 5 1 C4.01 1.33 3.02 1.66 2 2 C1.34 1.34 0.68 0.68 0 0 Z " transform ="translate(222,219)" fill="#000000" />
  <path d="M0 0 C2 1 2 1 2 1 Z " transform ="translate(230,222)" fill="#000000" />
  <path d="M0 0 C3 1 3 1 3 1 Z " transform ="translate(227,221)" fill="#000000" />
  <path d="M0 0 C1.98 0.99 1.98 0.99 4 2 C2.68 1.67 1.36 1.34 0 1 C0 0.67 0 0.34 0 0 Z " transform ="translate(233,223)" fill="#000000" />
  <path d="M0 0 C2.47 0.5 2.47 0.5 5 1 C4.01 1.33 3.02 1.66 2 2 C1.34 1.34 0.68 0.68 0 0 Z " transform ="translate(239,226)" fill="#000000" />
  <path d="M0 0 C2 1 2 1 2 1 Z " transform ="translate(237,225)" fill="#000000" />
  <path d="M0 0 C2.47 0.5 2.47 0.5 5 1 C4.01 1.33 3.02 1.66 2 2 C1.34 1.34 0.68 0.68 0 0 Z " transform ="translate(244,228)" fill="#000000" />
  <path d="M0 0 C0.61 0.53 1.23 1.07 1.86 1.62 C2.57 2.4 3.27 3.19 4 4 C4.42 4.97 4.84 5.94 5.27 6.95 C5.59 7.99 5.92 9.04 6.25 10.12 C6.75 11.71 6.75 11.71 7.27 13.32 C7.63 14.65 7.63 14.65 8 16 C8 16.66 8 17.32 8 18 C10.47 18.99 10.47 18.99 13 20 C13 20.99 13 21.98 13 23 C13 23.99 13 24.98 13 26 C12.55 25.51 12.11 25.03 11.64 24.52 C11.04 23.81 10.44 23.11 9.81 22.38 C9.18 21.57 8.54 20.76 7.89 19.92 C7.26 18.96 6.64 17.99 6 17 C5.73 16.42 5.47 15.84 5.19 15.25 C4.95 14.64 4.71 14.02 4.46 13.39 C4.23 12.77 4 12.15 3.77 11.51 C3.56 10.89 3.34 10.26 3.12 9.62 C2.92 9.02 2.72 8.41 2.51 7.79 C2.32 7.21 2.14 6.63 1.95 6.04 C1.63 5.04 1.32 4.03 1 3 C0.67 2.01 0.34 1.02 0 0 Z " transform ="translate(193,193)" fill="#000000" />
  <path d="M0 0 C0.35 0.62 0.7 1.24 1.06 1.88 C1.37 2.58 1.68 3.28 2 4 C1.67 4.66 1.34 5.32 1 6 C0.67 5.67 0.34 5.34 0 5 C-0.02 4.15 -0.04 3.31 -0.06 2.44 C-0.04 1.63 -0.02 0.83 0 0 Z " transform ="translate(187,192)" fill="#000000" />
  <path d="M0 0 C0 0.99 0 1.98 0 3 C-0.33 3.45 -0.67 3.89 -1.01 4.35 C-1.47 4.8 -1.93 5.24 -2.41 5.7 C-2.9 6.19 -3.4 6.67 -3.91 7.17 C-4.43 7.67 -4.96 8.17 -5.5 8.69 C-6.02 9.2 -6.55 9.71 -7.09 10.24 C-7.59 10.72 -8.08 11.2 -8.59 11.7 C-9.78 12.84 -9.78 12.84 -11 14 C-11.66 13.67 -12.32 13.34 -13 13 C-8.71 8.71 -4.42 4.42 0 0 Z " transform ="translate(177,190)" fill="#000000" />
  <path d="M0 0 C0.33 0 0.66 0 1 0 C1.01 0.75 1.01 0.75 1.02 1.51 C1.02 2.21 1.03 2.9 1.04 3.62 C1.04 4.39 1.05 5.15 1.05 5.94 C1.06 7.18 1.06 7.18 1.06 8.44 C1.07 9.68 1.07 9.68 1.07 10.94 C1.07 11.76 1.07 12.58 1.07 13.42 C1.06 14.22 1.05 15.02 1.05 15.84 C1.03 16.55 1.02 17.26 1 18 C0.93 18.97 0.85 19.95 0.78 20.95 C0.69 21.69 0.59 22.43 0.5 23.19 C0.36 24.17 0.36 24.17 0.21 25.17 C0.14 25.78 0.07 26.38 0 27 C0 28 0 28 0 29.02 C0.03 29.97 0.03 29.97 0.06 30.94 C0.04 31.95 0.02 32.96 0 34 C-0.66 34.66 -1.32 35.32 -2 36 C-2.04 36.6 -2.08 37.19 -2.12 37.8 C-2.08 38.49 -2.04 39.17 -2 39.88 C-1.99 40.59 -1.97 41.31 -1.96 42.04 C-1.98 43.01 -1.98 43.01 -2 44 C-2.23 44.72 -2.45 45.44 -2.69 46.19 C-3.12 46.79 -3.55 47.38 -4 48 C-5.06 49.07 -5.06 49.07 -6.14 50.16 C-6.59 50.6 -7.03 51.04 -7.49 51.5 C-7.99 51.99 -8.49 52.49 -9 53 C-9.82 53.84 -9.82 53.84 -10.66 54.7 C-11.52 55.6 -11.52 55.6 -12.41 56.52 C-13.01 57.13 -13.61 57.74 -14.22 58.37 C-14.83 58.99 -15.44 59.61 -16.06 60.25 C-16.67 60.89 -17.29 61.52 -17.92 62.18 C-18.51 62.79 -19.11 63.39 -19.72 64.02 C-20.26 64.57 -20.79 65.11 -21.34 65.68 C-21.89 66.12 -22.44 66.55 -23 67 C-23.73 67.23 -24.46 67.45 -25.2 67.69 C-25.8 67.79 -26.39 67.89 -27 68 C-27.66 67.01 -28.32 66.02 -29 65 C-28.12 64.94 -27.25 64.88 -26.34 64.82 C-25.24 64.55 -24.14 64.28 -23 64 C-22.53 63.67 -22.06 63.35 -21.57 63.02 C-21.12 62.61 -20.68 62.2 -20.22 61.78 C-19.77 61.33 -19.33 60.87 -18.86 60.41 C-18.41 59.92 -17.96 59.44 -17.5 58.94 C-17.03 58.44 -16.55 57.93 -16.06 57.42 C-15.59 56.91 -15.12 56.41 -14.63 55.89 C-14.18 55.39 -13.73 54.89 -13.26 54.38 C-12.85 53.92 -12.43 53.47 -12 53 C-11.34 52.35 -10.67 51.69 -9.99 51.02 C-9.19 50.14 -9.19 50.14 -8.38 49.25 C-7.7 48.33 -7.7 48.33 -7.02 47.39 C-6.68 46.6 -6.35 45.81 -6 45 C-5.89 44.41 -5.78 43.81 -5.67 43.2 C-5.59 42.53 -5.5 41.86 -5.42 41.17 C-5.36 40.49 -5.3 39.8 -5.24 39.1 C-5.21 38.4 -5.17 37.71 -5.12 37 C-5.1 36.32 -5.07 35.63 -5.05 34.93 C-5.03 34.29 -5.02 33.66 -5.01 33 C-5.01 32.01 -5 31.02 -5 30 C-6.65 31.32 -8.3 32.64 -10 34 C-9.73 33.45 -9.46 32.89 -9.19 32.32 C-8.8 31.55 -8.4 30.79 -8 30 C-7.53 29.21 -7.05 28.43 -6.56 27.62 C-6.05 26.71 -5.53 25.81 -5 24.88 C-4.73 24.38 -4.46 23.88 -4.19 23.36 C-3.93 22.82 -3.67 22.28 -3.4 21.73 C-3.15 21.15 -2.91 20.56 -2.65 19.97 C-2.44 19.32 -2.22 18.67 -2 18 C-1.84 17.24 -1.69 16.47 -1.53 15.68 C-1.41 14.87 -1.29 14.05 -1.16 13.21 C-1.07 12.39 -0.97 11.57 -0.87 10.73 C-0.79 9.91 -0.71 9.09 -0.62 8.25 C-0.55 7.44 -0.48 6.63 -0.41 5.79 C-0.35 5.04 -0.29 4.29 -0.23 3.52 C-0.18 2.84 -0.14 2.16 -0.09 1.46 C-0.06 0.98 -0.03 0.5 0 0 Z " transform ="translate(188,156)" fill="#000000" />
  <path d="M0 0 C2 1 2 1 2 1 Z " transform ="translate(193,247)" fill="#000000" />
  <path d="M0 0 C2 1 2 1 2 1 Z " transform ="translate(191,246)" fill="#000000" />
  <path d="M0 0 C1.32 0.99 2.64 1.98 4 3 C3.67 3.66 3.34 4.32 3 5 C2.26 4.32 2.26 4.32 1.5 3.62 C1 3.09 0.51 2.55 0 2 C0 1.34 0 0.68 0 0 Z " transform ="translate(184,238)" fill="#000000" />
  <path d="M0 0 C1.32 0.99 2.64 1.98 4 3 C3.67 3.66 3.34 4.32 3 5 C2.26 4.32 2.26 4.32 1.5 3.62 C1 3.09 0.51 2.55 0 2 C0 1.34 0 0.68 0 0 Z " transform ="translate(180,233)" fill="#000000" />
  <path d="M0 0 C1.65 0 3.3 0 5 0 C5 0.33 5 0.66 5 1 C3.35 1 1.7 1 0 1 C0 0.67 0 0.34 0 0 Z " transform ="translate(164,225)" fill="#000000" />
  <path d="M0 0 C1.65 0 3.3 0 5 0 C5 0.33 5 0.66 5 1 C3.35 1 1.7 1 0 1 C0 0.67 0 0.34 0 0 Z " transform ="translate(159,226)" fill="#000000" />
  <path d="M0 0 C0.74 0.08 1.49 0.16 2.25 0.25 C3.61 0.62 3.61 0.62 5 1 C5.76 1.68 6.53 2.36 7.31 3.06 C8.15 4.02 8.15 4.02 9 5 C8.26 4.73 7.51 4.46 6.75 4.19 C5.39 3.6 5.39 3.6 4 3 C3.24 2.46 2.47 1.93 1.69 1.38 C1.13 0.92 0.57 0.47 0 0 Z " transform ="translate(169,226)" fill="#000000" />
  <path d="M0 0 C3 1 3 1 3 1 Z " transform ="translate(156,227)" fill="#000000" />
  <path d="M0 0 C3 1 3 1 3 1 Z " transform ="translate(153,228)" fill="#000000" />
  <path d="M0 0 C0.7 -0.02 1.4 -0.04 2.12 -0.06 C3.05 -0.03 3.05 -0.03 4 0 C3.67 0.66 3.34 1.32 3 2 C2.39 2.21 1.78 2.42 1.15 2.63 C0.42 2.8 -0.31 2.96 -1.06 3.12 C-2.16 3.38 -2.16 3.38 -3.29 3.63 C-3.85 3.75 -4.42 3.88 -5 4 C-4.55 3.53 -4.09 3.05 -3.62 2.56 C-3.09 2.05 -2.55 1.53 -2 1 C-1.34 0.67 -0.68 0.34 0 0 Z " transform ="translate(148,227)" fill="#000000" />
  <path d="M0 0 C0.66 0.33 1.32 0.66 2 1 C1.07 1.99 1.07 1.99 0.12 3 C-0.58 3.66 -1.28 4.32 -2 5 C-2.66 5 -3.32 5 -4 5 C-4 5.66 -4 6.32 -4 7 C-4.66 7.54 -5.32 8.07 -6 8.62 C-6.66 9.08 -7.32 9.53 -8 10 C-8.66 9.67 -9.32 9.34 -10 9 C-9.55 8.5 -9.09 8.01 -8.62 7.5 C-8.09 7 -7.55 6.51 -7 6 C-6.34 6 -5.68 6 -5 6 C-4.92 5.38 -4.84 4.76 -4.75 4.12 C-4.5 3.42 -4.25 2.72 -4 2 C-3.04 1.35 -3.04 1.35 -2.06 0.69 C-1.38 0.46 -0.7 0.23 0 0 Z " transform ="translate(141,231)" fill="#000000" />
  <path d="M0 0 C0.66 0.33 1.32 0.66 2 1 C1.01 1 0.02 1 -1 1 C-0.67 0.67 -0.34 0.34 0 0 Z " transform ="translate(156,209)" fill="#000000" />
  <path d="M0 0 C2 1 2 1 2 1 Z " transform ="translate(159,207)" fill="#000000" />
  <path d="M0 0 C2 1 2 1 2 1 Z " transform ="translate(153,211)" fill="#000000" />
  <path d="M0 0 C2 1 2 1 2 1 Z " transform ="translate(150,212)" fill="#000000" />
  <path d="M0 0 C1.15 0.22 1.15 0.22 2.33 0.44 C2.88 0.63 3.43 0.81 4 1 C3.36 1.33 2.72 1.66 2.06 2 C0.55 2.5 0.55 2.5 -1 3 C-2.16 3.07 -2.16 3.07 -3.34 3.13 C-4.15 3.13 -4.97 3.13 -5.81 3.12 C-6.6 3.11 -7.39 3.09 -8.21 3.07 C-8.8 3.05 -9.39 3.02 -10 3 C-10 2.67 -10 2.34 -10 2 C-9.32 1.84 -8.65 1.69 -7.95 1.53 C-7.06 1.33 -6.17 1.14 -5.25 0.94 C-4.37 0.74 -3.49 0.54 -2.58 0.34 C-1.3 0.17 -1.3 0.17 0 0 Z " transform ="translate(146,213)" fill="#000000" />
  <path d="M0 0 C0.6 0.12 1.21 0.24 1.83 0.37 C3.03 0.62 3.03 0.62 4.25 0.88 C5.04 1.04 5.83 1.2 6.64 1.37 C7.81 1.68 7.81 1.68 9 2 C10.14 2.53 10.14 2.53 11.3 3.07 C11.86 3.38 12.42 3.68 13 4 C12.48 3.95 11.96 3.9 11.43 3.85 C10.73 3.78 10.03 3.7 9.31 3.62 C8.59 3.54 7.86 3.45 7.11 3.36 C6.42 3.24 5.72 3.12 5 3 C4.01 2.65 3.02 2.3 2 1.94 C1.34 1.63 0.68 1.32 0 1 C0 0.67 0 0.34 0 0 Z " transform ="translate(146,217)" fill="#000000" />
  <path d="M0 0 C2.97 0 5.94 0 9 0 C9 0.33 9 0.66 9 1 C6.03 1 3.06 1 0 1 C0 0.67 0 0.34 0 0 Z " transform ="translate(127,216)" fill="#000000" />
</svg>