<?xml version="1.0" encoding="UTF-8"?>
<!-- Generator: visioncortex VTracer 0.6.4 -->
<svg version="1.1" xmlns="http://www.w3.org/2000/svg" width="250" height="250">
<path d="M0 0 C82.5 0 165 0 250 0 C250 82.5 250 165 250 250 C167.5 250 85 250 0 250 C0 167.5 0 85 0 0 Z " fill="#FDFDFD" transform="translate(0,0)"/>
<path d="M0 0 C3.79 0.54 5.55 2.12 8 5 C8 5.66 8 6.32 8 7 C8.96 7.4 8.96 7.4 9.94 7.81 C12 9 12 9 13 12 C14.13 11.89 14.13 11.89 15.28 11.78 C18 12 18 12 19.88 13.5 C27.93 23.35 38.29 39.68 37 53 C36.34 53 35.68 53 35 53 C35 51.68 35 50.36 35 49 C34.34 49 33.68 49 33 49 C32.81 48.36 32.61 47.72 32.41 47.07 C32.15 46.24 31.89 45.41 31.62 44.56 C31.37 43.74 31.11 42.92 30.85 42.07 C30.19 39.82 30.19 39.82 28 39 C28.19 39.91 28.37 40.81 28.56 41.75 C29 45 29 45 28.53 46.84 C27.87 49.53 27.9 51.99 27.94 54.75 C27.95 55.73 27.96 56.72 27.96 57.73 C27.98 58.48 27.99 59.23 28 60 C29.65 60.33 31.3 60.66 33 61 C33.33 62.65 33.66 64.3 34 66 C34.99 66 35.98 66 37 66 C37.3 72.04 36.53 76.37 34.25 81.94 C33.98 82.63 33.71 83.33 33.43 84.05 C31.96 87.78 30.38 91.43 28.69 95.06 C26.99 98.73 26.34 101.98 26 106 C27.95 103.08 28.45 101.37 29 98 C29.66 98.33 30.32 98.66 31 99 C30.71 100.56 30.42 102.13 30.12 103.69 C29.88 104.99 29.88 104.99 29.63 106.32 C29 109 29 109 28.04 111.3 C27.16 113.59 26.6 115.61 26.11 118 C25.95 118.72 25.8 119.44 25.65 120.19 C25.34 121.68 25.05 123.18 24.76 124.67 C23.6 130.1 21.73 132.92 18 137 C17.67 137.99 17.34 138.98 17 140 C16.53 140.43 16.05 140.86 15.56 141.3 C13.36 143.7 12.87 146.13 12 149.25 C9.92 156.44 9.92 156.44 8.31 159.88 C5.76 165.96 5.63 170.43 7.88 176.52 C9.04 179.09 10.47 181.11 12.1 183.39 C16.06 189.9 15.64 196.01 15.31 203.44 C15.24 205.94 15.17 208.43 15.11 210.93 C15.08 212.14 15.05 213.34 15.01 214.59 C15 217.64 15.17 220.56 15.48 223.6 C16.07 229.71 16 235.86 16 242 C-45.38 242 -106.76 242 -170 242 C-170 231.77 -170 221.54 -170 211 C-166.04 210.01 -162.08 209.02 -158 208 C-154.24 206.56 -154.24 206.56 -150.51 205.04 C-146.94 203.56 -143.29 202.3 -139.64 201.03 C-133.98 198.83 -128.81 195.8 -123.62 192.69 C-122.97 192.29 -122.31 191.9 -121.63 191.49 C-117.35 188.9 -113.3 186.16 -109.42 183 C-108 182 -108 182 -106 182 C-105.5 178.04 -105.5 178.04 -105 174 C-104.01 173.67 -103.02 173.34 -102 173 C-102.27 171.97 -102.53 170.95 -102.8 169.89 C-108 149.59 -108 149.59 -108 142 C-109.11 141.72 -109.11 141.72 -110.24 141.43 C-113.96 139.5 -115.28 136.71 -117.12 133.12 C-119.57 128.35 -119.57 128.35 -122.74 124.07 C-125.02 120.31 -124.11 115.73 -123.88 111.46 C-123.71 106.12 -124.66 102.8 -127 98 C-127.6 93.77 -126.53 91.41 -124 88 C-123.34 88 -122.68 88 -122 88 C-122.33 88.7 -122.66 89.4 -123 90.12 C-124.09 93.26 -124.15 95.71 -124 99 C-123.5 97.02 -123.5 97.02 -123 95 C-122.34 95 -121.68 95 -121 95 C-120.96 95.59 -120.93 96.18 -120.89 96.79 C-120.49 101.61 -119.96 105.01 -117 109 C-116.34 107.68 -115.68 106.36 -115 105 C-114.8 106.93 -114.8 106.93 -114.6 108.9 C-114.42 110.58 -114.24 112.26 -114.06 113.94 C-113.93 115.21 -113.93 115.21 -113.8 116.51 C-113.67 117.73 -113.67 117.73 -113.54 118.96 C-113.46 119.71 -113.38 120.46 -113.3 121.23 C-113.17 123.02 -113.17 123.02 -112 124 C-112.5 120.53 -112.5 120.53 -113 117 C-112.34 117 -111.68 117 -111 117 C-111.16 116.32 -111.33 115.63 -111.5 114.93 C-112.06 111.63 -112.1 108.53 -112.06 105.19 C-112.05 104.03 -112.04 102.86 -112.04 101.67 C-112.02 100.79 -112.01 99.91 -112 99 C-112.62 98.9 -113.24 98.8 -113.88 98.7 C-116 98 -116 98 -118 94.88 C-122.3 85.42 -124.25 74.95 -125.51 64.71 C-125.98 62.09 -126.8 60.35 -128 58 C-128.08 55.67 -128.09 53.33 -128 51 C-127.34 51 -126.68 51 -126 51 C-126.08 49.95 -126.16 48.9 -126.25 47.81 C-125.96 43.34 -124.87 42.3 -122 39 C-121.33 37 -120.66 35 -120 33 C-118.92 30.77 -117.8 28.56 -116.62 26.38 C-116.04 25.27 -115.45 24.16 -114.85 23.02 C-113.11 20.19 -111.57 18.1 -109 16 C-108.01 16 -107.02 16 -106 16 C-106.06 15.05 -106.12 14.1 -106.19 13.12 C-106.09 11.58 -106.09 11.58 -106 10 C-103 8 -103 8 -99 8 C-99 8.66 -99 9.32 -99 10 C-98.3 9.51 -97.6 9.01 -96.88 8.5 C-92.62 6.28 -89.89 6.44 -85.31 7.8 C-77.75 10.41 -77.75 10.41 -74.93 12.62 C-71.72 14.91 -68.85 14.19 -65 14 C-71.57 9.75 -78.42 8.41 -86 7 C-86 6.34 -86 5.68 -86 5 C-78.42 4.58 -71.41 5.73 -65 10 C-63.34 10.38 -61.68 10.73 -60 11 C-60.66 11.33 -61.32 11.66 -62 12 C-61.5 13.98 -61.5 13.98 -61 16 C-64.77 17.75 -67.67 18.22 -71.81 18.12 C-73.28 18.1 -73.28 18.1 -74.77 18.07 C-75.51 18.05 -76.24 18.02 -77 18 C-77 18.66 -77 19.32 -77 20 C-83.52 18.52 -83.52 18.52 -85.94 15.88 C-86.29 15.26 -86.64 14.64 -87 14 C-86.01 13.67 -85.02 13.34 -84 13 C-88.49 11.5 -91.44 10.64 -96 12 C-97.94 13.12 -99.83 14.31 -101.69 15.56 C-106.8 19 -106.8 19 -109 19 C-109 19.99 -109 20.98 -109 22 C-109.99 22.66 -110.98 23.32 -112 24 C-113.62 26.64 -114 27.84 -114 31 C-113.38 30.17 -112.76 29.35 -112.12 28.5 C-111.07 27.26 -111.07 27.26 -110 26 C-109.34 26 -108.68 26 -108 26 C-107.5 24.52 -107.5 24.52 -107 23 C-100.63 18.8 -94.56 17.84 -87 19 C-84.14 20.4 -84.14 20.4 -82 22 C-82 22.66 -82 23.32 -82 24 C-82.66 23.86 -83.33 23.71 -84.01 23.56 C-84.89 23.38 -85.78 23.19 -86.69 23 C-87.56 22.81 -88.43 22.63 -89.32 22.44 C-91.97 22 -94.32 21.78 -97 22 C-99.28 23.82 -99.28 23.82 -99.06 26.44 C-99.04 27.28 -99.02 28.13 -99 29 C-99.5 30.48 -99.5 30.48 -100 32 C-99.96 33.07 -99.92 34.15 -99.88 35.25 C-100.02 39.66 -101.08 42.08 -103 46 C-104.65 46 -106.3 46 -108 46 C-108.14 46.62 -108.29 47.24 -108.44 47.88 C-109 50 -109 50 -110 52 C-110.66 52 -111.32 52 -112 52 C-111.67 50.02 -111.34 48.04 -111 46 C-111.6 46.83 -112.2 47.65 -112.81 48.5 C-113.53 49.33 -114.26 50.15 -115 51 C-115.99 51 -116.98 51 -118 51 C-118 51.66 -118 52.32 -118 53 C-118.66 53 -119.32 53 -120 53 C-120 51.68 -120 50.36 -120 49 C-119.01 49 -118.02 49 -117 49 C-116.91 47.95 -116.91 47.95 -116.81 46.88 C-115.69 42.91 -113.84 40.98 -111 38 C-110.34 38 -109.68 38 -109 38 C-108.9 37.48 -108.79 36.97 -108.69 36.44 C-107.76 33.14 -106.39 30.13 -105 27 C-106.95 27.19 -106.95 27.19 -109 28 C-109.29 28.58 -109.58 29.16 -109.88 29.75 C-111 32 -111 32 -113.81 34.19 C-118.73 38.07 -121.72 43.92 -123 50 C-123.66 50 -124.32 50 -125 50 C-124.8 50.81 -124.59 51.62 -124.38 52.46 C-122.79 58.98 -121.62 65.25 -121.21 71.95 C-121.22 73.99 -121.22 73.99 -120 75 C-119.7 76.33 -119.44 77.66 -119.19 79 C-117.97 84.74 -115.61 89.78 -113 95 C-113 89.72 -113 84.44 -113 79 C-112.34 79 -111.68 79 -111 79 C-111 77.35 -111 75.7 -111 74 C-108.05 76.95 -108 78.78 -107.93 82.94 C-107.95 84.6 -107.98 86.26 -108.01 87.93 C-108.03 89.76 -108.05 91.6 -108.07 93.44 C-108.08 94.4 -108.09 95.36 -108.1 96.35 C-108.33 119.13 -108.33 119.13 -105.44 141.7 C-104.97 144.13 -104.6 146.58 -104.23 149.03 C-101.48 165.84 -93.5 176.77 -81 188 C-80.26 188.69 -79.52 189.38 -78.76 190.09 C-69.8 197.83 -59.74 199.33 -48.25 199.44 C-46.94 199.45 -46.94 199.45 -45.6 199.47 C-32.12 199.29 -23.25 192.84 -13.25 184.5 C-12.71 184.05 -12.16 183.6 -11.6 183.13 C-6.49 178.78 -2.36 174.11 0.81 168.12 C1.23 167.34 1.65 166.56 2.08 165.76 C2.38 165.18 2.69 164.6 3 164 C3.66 164 4.32 164 5 164 C5.12 162.93 5.25 161.85 5.38 160.75 C5.84 157.09 6.37 153.45 6.94 149.81 C7.09 148.83 7.24 147.85 7.4 146.83 C8 144 8 144 9.08 141.67 C10.39 137.87 10 134.41 9.81 130.44 C9.61 122.27 11.07 116.25 15 109 C16.73 105.61 18.03 102.88 19 99.19 C19.33 98.14 19.66 97.08 20 96 C20.99 95.67 21.98 95.34 23 95 C23.67 93.06 23.67 93.06 24 91 C24.33 90.34 24.66 89.68 25 89 C25.66 89 26.32 89 27 89 C27 87.02 27 85.04 27 83 C27.99 83 28.98 83 30 83 C30.33 81.68 30.66 80.36 31 79 C29.68 78.67 28.36 78.34 27 78 C27 78.66 27 79.32 27 80 C25.68 80 24.36 80 23 80 C22.67 83.3 22.34 86.6 22 90 C21.01 90 20.02 90 19 90 C17.22 86.94 16.76 84.76 16.8 81.23 C16.81 79.9 16.81 79.9 16.82 78.54 C16.85 77.16 16.85 77.16 16.88 75.75 C16.88 74.81 16.89 73.88 16.9 72.91 C16.93 70.61 16.96 68.3 17 66 C17.33 66.99 17.66 67.98 18 69 C18.66 69 19.32 69 20 69 C19.86 68.3 19.72 67.59 19.57 66.86 C17.38 55.91 15.19 44.95 13 34 C12.15 33.79 11.31 33.59 10.44 33.38 C7.22 32.09 6.07 31.25 3.69 28.94 C-0.31 25.3 -3.77 25.2 -9 25 C-10.95 24.66 -10.95 24.66 -12.94 24.31 C-13.95 24.21 -14.96 24.11 -16 24 C-16.66 24.66 -17.32 25.32 -18 26 C-20.62 26.12 -20.62 26.12 -23 26 C-23.99 24.02 -23.99 24.02 -25 22 C-24.15 22.01 -24.15 22.01 -23.28 22.03 C-18.24 21.83 -15.54 21.09 -11.94 17.44 C-10.94 16.31 -9.95 15.17 -9 14 C-8.01 14.33 -7.02 14.66 -6 15 C-7.53 16.24 -9.06 17.47 -10.59 18.71 C-12.13 19.97 -12.13 19.97 -13 22 C-7.55 20.97 -2.88 19.75 2 17 C1.86 15.1 1.71 13.21 1.56 11.31 C1.48 10.26 1.4 9.2 1.32 8.11 C1.04 5.35 0.6 2.71 0 0 Z " fill="#A4A4A4" transform="translate(170,8)"/>
<path d="M0 0 C3.89 1.39 6.97 3.22 10.31 5.62 C11.2 6.26 12.08 6.89 12.99 7.54 C13.65 8.02 14.32 8.5 15 9 C15 8.34 15 7.68 15 7 C18.92 7.77 22.83 8.54 26.75 9.31 C27.84 9.53 28.93 9.74 30.06 9.96 C50.52 14.02 50.52 14.02 55 17 C60.61 17.66 66.22 18.32 72 19 C72 34.84 72 50.68 72 67 C50.88 67 29.76 67 8 67 C6.77 52.24 5.7 38.6 6.43 24.02 C6.61 16.61 5.72 12.14 1.3 6.1 C0 4 0 4 0 0 Z " fill="#FEFEFE" transform="translate(178,183)"/>
<path d="M0 0 C0.99 0.5 0.99 0.5 2 1 C2.26 3.57 2.42 6.05 2.5 8.62 C2.76 17.07 4.47 23.67 8.88 31 C9.56 32.17 10.24 33.33 10.93 34.5 C11.27 35.08 11.62 35.65 11.98 36.25 C12.99 37.98 13.94 39.75 14.89 41.52 C17.08 45.37 19.89 48.44 22.94 51.62 C23.71 52.44 23.71 52.44 24.49 53.28 C27.6 56.58 30.78 59.81 34 63 C35.32 64.32 36.64 65.64 38 67 C3.02 67 -31.96 67 -68 67 C-68 57.43 -68 47.86 -68 38 C-64.53 37.5 -64.53 37.5 -61 37 C-59.14 36.31 -57.27 35.62 -55.43 34.88 C-52.35 33.77 -49.22 32.96 -46.06 32.12 C-40.08 30.44 -35.25 28.26 -30 25 C-28.02 23.87 -26.04 22.75 -24.06 21.62 C-19.17 18.78 -14.59 15.67 -10.06 12.29 C-8 11 -8 11 -5 11 C-5.16 21.77 -6.55 31.72 -9.27 42.16 C-10.8 48.22 -11.29 53.75 -11 60 C-10.81 58.75 -10.61 57.49 -10.41 56.2 C-10.15 54.55 -9.89 52.9 -9.62 51.25 C-9.5 50.43 -9.37 49.6 -9.24 48.75 C-9.11 47.95 -8.98 47.15 -8.85 46.33 C-8.74 45.59 -8.62 44.86 -8.5 44.11 C-7.96 41.84 -7.06 40.06 -6 38 C-5.59 35.95 -5.24 33.88 -4.94 31.81 C-4.1 26.1 -4.1 26.1 -3 25 C-2.79 23.49 -2.63 21.97 -2.5 20.45 C-2.42 19.52 -2.33 18.6 -2.25 17.64 C-2.17 16.67 -2.08 15.69 -2 14.69 C-1.84 12.77 -1.67 10.86 -1.5 8.95 C-1.43 8.1 -1.36 7.24 -1.28 6.37 C-1.02 4.17 -0.59 2.13 0 0 Z " fill="#FDFDFD" transform="translate(68,183)"/>
<path d="M0 0 C0.99 0.5 0.99 0.5 2 1 C2 1.99 2 2.98 2 4 C2.56 4.21 3.11 4.41 3.69 4.62 C6.21 6.12 7.52 7.88 9.32 10.15 C13.06 14.26 17.65 17.56 22 21 C22.86 21.72 23.71 22.43 24.6 23.17 C26.74 24.8 28.42 25.8 30.94 26.69 C31.57 26.92 32.19 27.15 32.84 27.39 C38.98 29.13 45.04 29.21 51.38 29.25 C52.74 29.28 52.74 29.28 54.12 29.31 C67.02 29.39 77.2 23.03 86.41 14.32 C88 13 88 13 90 13 C88.12 25.64 86.47 35.17 78 45 C76.18 47.41 74.38 49.83 72.58 52.25 C71 54 71 54 68 55 C68 55.66 68 56.32 68 57 C64.51 60.22 60.73 63.07 57 66 C56.05 66.85 55.1 67.69 54.12 68.56 C48.86 70.98 43.67 70.9 38 70 C34.74 68.53 32.51 66.51 30 64 C29.28 63.35 28.57 62.69 27.83 62.02 C18.69 53.38 11.49 43.29 6 32 C5.61 31.24 5.22 30.47 4.82 29.69 C0.67 20.7 -0.23 9.81 0 0 Z " fill="#FDFDFD" transform="translate(71,180)"/>
<path d="M0 0 C3.79 0.54 5.55 2.12 8 5 C8 5.66 8 6.32 8 7 C8.96 7.4 8.96 7.4 9.94 7.81 C12 9 12 9 13 12 C14.13 11.89 14.13 11.89 15.28 11.78 C18 12 18 12 19.88 13.5 C27.93 23.35 38.29 39.68 37 53 C36.34 53 35.68 53 35 53 C35 51.68 35 50.36 35 49 C34.34 49 33.68 49 33 49 C32.81 48.36 32.61 47.72 32.41 47.07 C32.15 46.24 31.89 45.41 31.62 44.56 C31.24 43.33 31.24 43.33 30.85 42.07 C30.19 39.82 30.19 39.82 28 39 C28.19 39.91 28.37 40.81 28.56 41.75 C29 45 29 45 28.53 46.84 C27.87 49.53 27.9 51.99 27.94 54.75 C27.95 55.73 27.96 56.72 27.96 57.73 C27.98 58.48 27.99 59.23 28 60 C29.65 60.33 31.3 60.66 33 61 C33.5 63.47 33.5 63.47 34 66 C34.99 66 35.98 66 37 66 C37.3 72.04 36.53 76.37 34.25 81.94 C33.84 82.99 33.84 82.99 33.42 84.06 C31.71 88.38 29.87 92.64 27.93 96.87 C26.45 100.25 25.25 103.73 24.02 107.2 C22.45 111.51 20.73 115.76 19 120 C18.34 120 17.68 120 17 120 C17.6 114.35 19.08 109.34 21 104 C18 109.23 15.26 114.41 13 120 C11.66 116.94 12.06 115.84 13.25 112.62 C14.3 110.38 15.42 108.2 16.56 106 C18.14 102.94 18.14 102.94 19 99.19 C19.5 97.61 19.5 97.61 20 96 C20.99 95.67 21.98 95.34 23 95 C23.67 93.06 23.67 93.06 24 91 C24.33 90.34 24.66 89.68 25 89 C25.66 89 26.32 89 27 89 C27 87.02 27 85.04 27 83 C27.99 83 28.98 83 30 83 C30.5 81.02 30.5 81.02 31 79 C29.68 78.67 28.36 78.34 27 78 C27 78.66 27 79.32 27 80 C25.68 80 24.36 80 23 80 C22.67 83.3 22.34 86.6 22 90 C21.01 90 20.02 90 19 90 C17.22 86.94 16.76 84.76 16.8 81.23 C16.81 80.34 16.82 79.46 16.82 78.54 C16.84 77.62 16.86 76.7 16.88 75.75 C16.88 74.81 16.89 73.88 16.9 72.91 C16.93 70.61 16.96 68.3 17 66 C17.33 66.99 17.66 67.98 18 69 C18.66 69 19.32 69 20 69 C19.86 68.3 19.72 67.59 19.57 66.86 C17.38 55.91 15.19 44.95 13 34 C12.15 33.79 11.31 33.59 10.44 33.38 C7.22 32.09 6.07 31.25 3.69 28.94 C-0.31 25.3 -3.77 25.2 -9 25 C-10.3 24.77 -11.6 24.55 -12.94 24.31 C-13.95 24.21 -14.96 24.11 -16 24 C-16.66 24.66 -17.32 25.32 -18 26 C-20.62 26.12 -20.62 26.12 -23 26 C-23.66 24.68 -24.32 23.36 -25 22 C-24.15 22.01 -24.15 22.01 -23.28 22.03 C-18.24 21.83 -15.54 21.09 -11.94 17.44 C-10.94 16.31 -9.95 15.17 -9 14 C-8.01 14.33 -7.02 14.66 -6 15 C-7.53 16.24 -9.06 17.47 -10.59 18.71 C-12.13 19.97 -12.13 19.97 -13 22 C-7.55 20.97 -2.88 19.75 2 17 C1.86 15.1 1.71 13.21 1.56 11.31 C1.48 10.26 1.4 9.2 1.32 8.11 C1.04 5.35 0.6 2.71 0 0 Z " fill="#A0A0A0" transform="translate(170,8)"/>
<path d="M0 0 C0.66 0 1.32 0 2 0 C2.24 0.63 2.48 1.26 2.73 1.91 C3.07 2.76 3.4 3.62 3.75 4.5 C4.24 5.75 4.24 5.75 4.73 7.03 C5.84 9.84 5.84 9.84 7.03 11.64 C10.95 18.16 10.42 24.58 10.19 32 C9.84 41.18 9.84 41.18 10.48 50.31 C11.08 54.58 11.11 58.7 11.06 63 C11.04 65.64 11.02 68.28 11 71 C3.41 71 -4.18 71 -12 71 C-15.19 64.56 -15.19 64.56 -16.16 62.53 C-17.59 59.77 -18.55 58.21 -21.41 56.9 C-24.77 57.03 -26.42 58.12 -29.19 60 C-31.79 61.75 -31.79 61.75 -34 63 C-34.66 62.67 -35.32 62.34 -36 62 C-35.29 61.3 -34.58 60.6 -33.85 59.88 C-32.47 58.52 -32.47 58.52 -31.06 57.12 C-29.69 55.77 -29.69 55.77 -28.29 54.38 C-25.99 52.22 -25.99 52.22 -25 50 C-24.34 50 -23.68 50 -23 50 C-23 49.34 -23 48.68 -23 48 C-20.03 47.5 -20.03 47.5 -17 47 C-17.12 46.04 -17.12 46.04 -17.25 45.06 C-17 42.03 -16.44 40.61 -15.12 37.94 C-13.41 34.31 -12.53 31.04 -11.94 27.06 C-10.31 16.23 -7.47 8.34 0 0 Z " fill="#FDFDFD" transform="translate(172,179)"/>
<path d="M0 0 C7.58 -0.42 14.59 0.73 21 5 C22.66 5.38 24.32 5.73 26 6 C25.34 6.33 24.68 6.66 24 7 C24.5 8.98 24.5 8.98 25 11 C21.23 12.75 18.33 13.22 14.19 13.12 C12.72 13.1 12.72 13.1 11.23 13.07 C10.49 13.05 9.76 13.02 9 13 C9 13.66 9 14.32 9 15 C2.48 13.52 2.48 13.52 0.06 10.88 C-0.29 10.26 -0.64 9.64 -1 9 C-0.01 8.67 0.98 8.34 2 8 C-2.49 6.5 -5.44 5.64 -10 7 C-11.94 8.12 -13.83 9.31 -15.69 10.56 C-20.8 14 -20.8 14 -23 14 C-23 14.99 -23 15.98 -23 17 C-23.99 17.66 -24.98 18.32 -26 19 C-27.62 21.64 -28 22.84 -28 26 C-27.07 24.76 -27.07 24.76 -26.12 23.5 C-25.42 22.67 -24.72 21.85 -24 21 C-23.34 21 -22.68 21 -22 21 C-21.67 20.01 -21.34 19.02 -21 18 C-14.63 13.8 -8.56 12.84 -1 14 C1.86 15.4 1.86 15.4 4 17 C4 17.66 4 18.32 4 19 C3.34 18.86 2.67 18.71 1.99 18.56 C1.11 18.38 0.22 18.19 -0.69 18 C-1.56 17.81 -2.43 17.63 -3.32 17.44 C-5.97 17 -8.32 16.78 -11 17 C-13.28 18.82 -13.28 18.82 -13.06 21.44 C-13.04 22.28 -13.02 23.13 -13 24 C-13.33 24.99 -13.66 25.98 -14 27 C-13.96 28.07 -13.92 29.14 -13.88 30.25 C-14.02 34.66 -15.08 37.08 -17 41 C-18.65 41 -20.3 41 -22 41 C-22.22 41.93 -22.22 41.93 -22.44 42.88 C-23 45 -23 45 -24 47 C-24.66 47 -25.32 47 -26 47 C-25.67 45.02 -25.34 43.04 -25 41 C-25.6 41.83 -26.2 42.65 -26.81 43.5 C-27.53 44.33 -28.26 45.15 -29 46 C-29.99 46 -30.98 46 -32 46 C-32 46.66 -32 47.32 -32 48 C-32.66 48 -33.32 48 -34 48 C-34 46.68 -34 45.36 -34 44 C-33.01 44 -32.02 44 -31 44 C-30.94 43.3 -30.88 42.6 -30.81 41.88 C-29.69 37.91 -27.84 35.98 -25 33 C-24.34 33 -23.68 33 -23 33 C-22.9 32.48 -22.79 31.97 -22.69 31.44 C-21.76 28.14 -20.39 25.13 -19 22 C-20.95 22.19 -20.95 22.19 -23 23 C-23.29 23.58 -23.58 24.16 -23.88 24.75 C-25 27 -25 27 -27.81 29.19 C-32.73 33.07 -35.72 38.92 -37 45 C-37.66 45 -38.32 45 -39 45 C-38.8 45.81 -38.59 46.62 -38.38 47.46 C-36.79 53.98 -35.62 60.25 -35.21 66.95 C-35.22 68.99 -35.22 68.99 -34 70 C-33.7 71.33 -33.44 72.66 -33.19 74 C-31.97 79.74 -29.61 84.78 -27 90 C-27 84.72 -27 79.44 -27 74 C-26.34 74 -25.68 74 -25 74 C-25 72.35 -25 70.7 -25 69 C-22.79 71.21 -22.07 72.77 -21.89 75.9 C-21.89 76.61 -21.9 77.33 -21.9 78.07 C-21.91 78.88 -21.91 79.7 -21.91 80.54 C-21.92 81.42 -21.93 82.3 -21.94 83.21 C-21.94 84.12 -21.95 85.04 -21.95 85.99 C-21.97 89.9 -21.99 93.82 -22.02 97.74 C-22.09 108.88 -22.06 119.9 -21 131 C-21.66 131.33 -22.32 131.66 -23 132 C-23.03 131.37 -23.05 130.75 -23.08 130.1 C-23.13 129.28 -23.19 128.47 -23.25 127.62 C-23.32 126.41 -23.32 126.41 -23.39 125.16 C-23.78 122.83 -23.78 122.83 -25.92 121.84 C-26.61 121.56 -27.29 121.28 -28 121 C-30.66 118.34 -30.23 116.9 -30.31 113.19 C-30.6 107.9 -30.6 107.9 -33.56 103.75 C-34.37 103.17 -35.17 102.59 -36 102 C-36.29 113.74 -33.19 120.41 -27 130 C-26.63 130.75 -26.25 131.5 -25.87 132.27 C-25.02 134.19 -25.02 134.19 -23 136 C-24.75 135.93 -24.75 135.93 -27 135 C-28.53 132.74 -29.81 130.59 -31.06 128.19 C-33.54 123.38 -33.54 123.38 -36.75 119.07 C-39.02 115.31 -38.11 110.72 -37.88 106.46 C-37.71 101.12 -38.66 97.8 -41 93 C-41.6 88.77 -40.53 86.41 -38 83 C-37.34 83 -36.68 83 -36 83 C-36.33 83.7 -36.66 84.4 -37 85.12 C-38.09 88.26 -38.15 90.71 -38 94 C-37.67 92.68 -37.34 91.36 -37 90 C-36.34 90 -35.68 90 -35 90 C-34.96 90.59 -34.93 91.18 -34.89 91.79 C-34.49 96.61 -33.96 100.01 -31 104 C-30.34 102.68 -29.68 101.36 -29 100 C-28.8 101.93 -28.8 101.93 -28.6 103.9 C-28.42 105.58 -28.24 107.26 -28.06 108.94 C-27.98 109.79 -27.89 110.64 -27.8 111.51 C-27.71 112.32 -27.62 113.13 -27.54 113.96 C-27.46 114.71 -27.38 115.46 -27.3 116.23 C-27.17 118.02 -27.17 118.02 -26 119 C-26.33 116.69 -26.66 114.38 -27 112 C-26.34 112 -25.68 112 -25 112 C-25.16 111.32 -25.33 110.63 -25.5 109.93 C-26.06 106.63 -26.1 103.53 -26.06 100.19 C-26.05 99.03 -26.04 97.86 -26.04 96.67 C-26.02 95.79 -26.01 94.91 -26 94 C-26.62 93.9 -27.24 93.8 -27.88 93.7 C-30 93 -30 93 -32 89.88 C-36.3 80.42 -38.25 69.95 -39.51 59.71 C-39.98 57.09 -40.8 55.35 -42 53 C-42.08 50.67 -42.09 48.33 -42 46 C-41.34 46 -40.68 46 -40 46 C-40.08 44.95 -40.16 43.9 -40.25 42.81 C-39.96 38.34 -38.87 37.3 -36 34 C-35.33 32 -34.66 30 -34 28 C-32.92 25.77 -31.8 23.56 -30.62 21.38 C-30.04 20.27 -29.45 19.16 -28.85 18.02 C-27.11 15.19 -25.57 13.1 -23 11 C-22.01 11 -21.02 11 -20 11 C-20.06 10.05 -20.12 9.1 -20.19 8.12 C-20.09 6.58 -20.09 6.58 -20 5 C-17 3 -17 3 -13 3 C-13 3.66 -13 4.32 -13 5 C-12.3 4.5 -11.6 4.01 -10.88 3.5 C-6.62 1.28 -3.89 1.44 0.69 2.8 C8.25 5.41 8.25 5.41 11.07 7.62 C14.28 9.91 17.15 9.19 21 9 C14.43 4.75 7.58 3.41 0 2 C0 1.34 0 0.68 0 0 Z " fill="#969696" transform="translate(84,13)"/>
<path d="M0 0 C3.48 1.16 4.2 1.88 6 5 C6.34 7.88 6.34 7.88 6.38 11 C6.47 15.75 6.47 15.75 9.44 19.25 C10.71 20.12 10.71 20.12 12 21 C13.03 23.66 13.48 26.17 14 29 C14.66 29 15.32 29 16 29 C16.19 30.19 16.39 31.39 16.59 32.62 C17.24 36.67 17.93 40.7 18.63 44.74 C18.89 46.33 19.12 47.93 19.33 49.53 C21 62.1 32.05 72.96 41 81 C41.74 81.69 42.48 82.38 43.24 83.09 C53.19 91.69 65.15 92.6 77.81 92.25 C79.73 92.22 79.73 92.22 81.68 92.2 C84.79 92.15 87.89 92.08 91 92 C86.74 96.26 80.46 95.18 74.81 95.19 C73.45 95.21 73.45 95.21 72.06 95.22 C57.76 95.26 48.94 91.24 38.61 81.44 C36.05 78.98 36.05 78.98 33.3 76.86 C30.78 74.82 29 72.55 27 70 C26.34 69.67 25.68 69.34 25 69 C24.67 68.01 24.34 67.02 24 66 C25.02 91.86 34.77 109.88 53 128 C55.57 130.17 58.19 132.16 61 134 C60.01 134.33 59.02 134.66 58 135 C53.06 132.06 49.55 128.62 45.88 124.22 C44.57 122.67 43.2 121.16 41.8 119.68 C36.07 113.63 31.9 107.36 28 100 C27.5 99.07 27 98.15 26.49 97.19 C22.89 90.26 21.86 84.41 21.44 76.69 C21.39 75.95 21.35 75.21 21.31 74.44 C21.2 72.63 21.1 70.81 21 69 C20.09 71.72 19.76 73.81 19.54 76.64 C19.46 77.55 19.38 78.45 19.3 79.39 C19.14 81.28 18.99 83.17 18.84 85.07 C18.38 90.31 17.62 95 16 100 C15.52 101.9 15.04 103.8 14.57 105.7 C14.14 107.43 13.69 109.17 13.24 110.89 C12.05 115.49 10.91 119.96 10.44 124.69 C10.29 125.78 10.15 126.87 10 128 C9.34 128.33 8.68 128.66 8 129 C7.69 121.38 8.47 114.74 10.38 107.38 C12.68 97.94 14.14 88.66 15 79 C7.28 82.97 7.28 82.97 0.19 87.94 C-4.42 91.58 -9.66 93.96 -14.93 96.48 C-18.06 97.95 -18.06 97.95 -21 100 C-22.88 100.53 -24.78 101.01 -26.69 101.44 C-30.36 102.31 -33.83 103.24 -37.31 104.69 C-41.32 106.11 -43.82 106.26 -48 106 C-48 105.34 -48 104.68 -48 104 C-47.25 103.83 -46.5 103.66 -45.73 103.48 C-39.77 102.07 -34.15 100.42 -28.51 98.04 C-24.94 96.56 -21.29 95.3 -17.64 94.03 C-11.98 91.83 -6.81 88.8 -1.62 85.69 C-0.97 85.29 -0.31 84.9 0.37 84.49 C4.65 81.9 8.7 79.16 12.58 76 C14 75 14 75 16 75 C16.33 72.36 16.66 69.72 17 67 C17.99 66.67 18.98 66.34 20 66 C19.73 64.97 19.47 63.95 19.2 62.89 C14 42.59 14 42.59 14 35 C13.01 34.5 13.01 34.5 12 34 C10.8 32.19 9.62 30.36 8.51 28.49 C7.44 26.72 6.3 24.99 5.12 23.29 C-0.09 15.42 -0.87 9.33 0 0 Z " fill="#8C8C8C" transform="translate(48,115)"/>
<path d="M0 0 C0.66 0 1.32 0 2 0 C1.09 2.53 0.32 4.63 -1.45 6.68 C-3.56 9.83 -4.24 13.16 -5.06 16.81 C-5.39 18.19 -5.71 19.58 -6.04 20.96 C-6.19 21.64 -6.35 22.31 -6.52 23.01 C-7.82 28.39 -9.49 33.66 -11.12 38.94 C-11.48 40.08 -11.83 41.22 -12.2 42.4 C-12.46 43.26 -12.73 44.12 -13 45 C-15.97 45.5 -15.97 45.5 -19 46 C-19 46.66 -19 47.32 -19 48 C-19.66 48 -20.32 48 -21 48 C-21.24 48.57 -21.49 49.14 -21.74 49.73 C-23.21 52.38 -24.95 54.15 -27.12 56.25 C-27.85 56.96 -28.57 57.66 -29.32 58.39 C-29.87 58.92 -30.43 59.45 -31 60 C-30.26 59.56 -29.53 59.11 -28.77 58.65 C-27.79 58.09 -26.82 57.52 -25.81 56.94 C-24.85 56.37 -23.89 55.8 -22.89 55.21 C-20 54 -20 54 -17.34 54.02 C-14.21 55.33 -13.39 56.87 -11.75 59.81 C-11.25 60.69 -10.75 61.56 -10.23 62.46 C-9 65 -9 65 -8 69 C-20.54 69 -33.08 69 -46 69 C-43.27 66.27 -40.99 64.14 -37.94 61.94 C-35.92 60.48 -34.11 59.11 -32.38 57.32 C-31 56 -31 56 -29 56 C-29 55.34 -29 54.68 -29 54 C-28.26 53.42 -27.51 52.84 -26.75 52.25 C-23.69 49.75 -22.13 47.33 -20 44 C-19.47 43.38 -18.93 42.77 -18.38 42.13 C-13.22 36.15 -11.26 30.57 -9.56 22.94 C-9.31 21.88 -9.05 20.82 -8.79 19.74 C-8.17 17.16 -7.58 14.58 -7 12 C-7.65 12.54 -8.31 13.09 -8.98 13.64 C-24.84 26.7 -24.84 26.7 -30.25 27.21 C-32.19 26.94 -32.19 26.94 -35 26 C-35 25.67 -35 25.34 -35 25 C-33.87 24.79 -32.73 24.59 -31.56 24.38 C-23.54 22.31 -17.48 16.69 -11.25 11.5 C-10.71 11.05 -10.16 10.6 -9.6 10.14 C-6.87 7.81 -4.48 5.46 -2.23 2.66 C-1.5 1.78 -0.76 0.9 0 0 Z " fill="#9D9D9D" transform="translate(168,181)"/>
<path d="M0 0 C0.66 0 1.32 0 2 0 C3.98 4.89 4.41 9.5 4.75 14.71 C4.75 16.96 4.75 16.96 6 18 C6.3 19.33 6.56 20.66 6.81 22 C8.03 27.74 10.39 32.78 13 38 C13 32.72 13 27.44 13 22 C13.66 22 14.32 22 15 22 C15 20.35 15 18.7 15 17 C17.21 19.21 17.93 20.77 18.11 23.9 C18.11 24.61 18.1 25.33 18.1 26.07 C18.09 26.88 18.09 27.7 18.09 28.54 C18.08 29.42 18.07 30.3 18.06 31.21 C18.06 32.12 18.05 33.04 18.05 33.99 C18.03 37.9 18.01 41.82 17.98 45.74 C17.91 56.88 17.94 67.9 19 79 C18.01 79.5 18.01 79.5 17 80 C16.97 79.37 16.95 78.75 16.92 78.1 C16.87 77.28 16.81 76.47 16.75 75.62 C16.68 74.41 16.68 74.41 16.61 73.16 C16.22 70.83 16.22 70.83 14.08 69.84 C13.39 69.56 12.71 69.28 12 69 C9.34 66.34 9.77 64.9 9.69 61.19 C9.4 55.9 9.4 55.9 6.44 51.75 C5.63 51.17 4.83 50.59 4 50 C3.71 61.74 6.81 68.41 13 78 C13.37 78.75 13.75 79.5 14.13 80.27 C14.98 82.19 14.98 82.19 17 84 C15.25 83.93 15.25 83.93 13 83 C11.47 80.74 10.19 78.59 8.94 76.19 C6.46 71.38 6.46 71.38 3.25 67.07 C0.98 63.31 1.89 58.72 2.12 54.46 C2.29 49.12 1.34 45.8 -1 41 C-1.6 36.77 -0.53 34.41 2 31 C2.66 31 3.32 31 4 31 C3.67 31.7 3.34 32.4 3 33.12 C1.91 36.26 1.85 38.71 2 42 C2.33 40.68 2.66 39.36 3 38 C3.66 38 4.32 38 5 38 C5.04 38.59 5.07 39.18 5.11 39.79 C5.51 44.61 6.04 48.01 9 52 C9.66 50.68 10.32 49.36 11 48 C11.13 49.29 11.27 50.58 11.4 51.9 C11.58 53.58 11.76 55.26 11.94 56.94 C12.02 57.79 12.11 58.64 12.2 59.51 C12.33 60.73 12.33 60.73 12.46 61.96 C12.54 62.71 12.62 63.46 12.7 64.23 C12.83 66.02 12.83 66.02 14 67 C13.67 64.69 13.34 62.38 13 60 C13.66 60 14.32 60 15 60 C14.75 58.97 14.75 58.97 14.5 57.93 C13.94 54.63 13.9 51.53 13.94 48.19 C13.95 47.03 13.96 45.86 13.96 44.67 C13.98 43.79 13.99 42.91 14 42 C13.38 41.9 12.76 41.8 12.12 41.7 C10 41 10 41 8 37.88 C2.87 26.58 -0.27 12.39 0 0 Z " fill="#737373" transform="translate(44,65)"/>
<path d="M0 0 C5.07 0.86 7.05 4.04 10 8 C11.75 10.62 13.41 13.28 15 16 C14.67 14.35 14.34 12.7 14 11 C15.86 11.19 15.86 11.19 18 12 C19.23 14.21 19.23 14.21 20.19 16.94 C20.51 17.83 20.83 18.73 21.17 19.65 C21.44 20.43 21.72 21.2 22 22 C22.33 22.66 22.66 23.32 23 24 C23.04 26 23.04 28 23 30 C22.01 30.33 21.02 30.66 20 31 C20.66 31.33 21.32 31.66 22 32 C22 32.99 22 33.98 22 35 C20.02 35.49 20.02 35.49 18 36 C18.33 38.64 18.66 41.28 19 44 C17 43 17 43 15.75 39.76 C15.3 38.41 14.87 37.05 14.44 35.69 C14.22 35.01 14 34.33 13.77 33.63 C12.74 30.45 11.75 27.27 11 24 C9.67 24.12 9.67 24.12 8.3 24.25 C4.22 23.94 3.03 22.81 0.12 20 C-0.66 19.26 -1.44 18.52 -2.24 17.75 C-3.11 16.88 -3.11 16.88 -4 16 C-3.34 14.68 -2.68 13.36 -2 12 C-1.34 12 -0.68 12 0 12 C1.08 5.94 1.08 5.94 0 0 Z " fill="#F3F3F3" transform="translate(174,15)"/>
<path d="M0 0 C0 0.66 0 1.32 0 2 C1.09 1.81 2.19 1.63 3.31 1.44 C7 1 7 1 10 2 C12.31 2.1 14.62 2.18 16.94 2.25 C24.36 2.58 30.35 4.64 37 8 C36.67 8.66 36.34 9.32 36 10 C35.08 9.99 34.17 9.98 33.23 9.96 C32.04 9.96 30.85 9.95 29.62 9.94 C28.44 9.93 27.26 9.91 26.04 9.9 C23.08 9.79 23.08 9.79 21 11 C22.98 11 24.96 11 27 11 C23.87 14.42 21.72 14.96 17.02 15.24 C15.43 15.27 13.84 15.29 12.25 15.31 C11.46 15.34 10.68 15.37 9.87 15.4 C4.08 15.46 0.75 14.35 -4 11 C-4.33 10.34 -4.66 9.68 -5 9 C-6.11 8.53 -7.23 8.05 -8.38 7.56 C-11.56 6.19 -12.79 5.44 -15 3 C-13.97 2.93 -13.97 2.93 -12.92 2.85 C-11.57 2.74 -11.57 2.74 -10.19 2.62 C-9.29 2.56 -8.4 2.49 -7.48 2.41 C-4.52 1.92 -2.96 0 0 0 Z " fill="#6B6B6B" transform="translate(109,158)"/>
<path d="M0 0 C0.69 -0.02 1.39 -0.03 2.11 -0.05 C6.86 -0.05 10.05 0.89 14.12 3.31 C14.12 3.97 14.12 4.63 14.12 5.31 C14.91 5.56 15.69 5.81 16.5 6.06 C19.45 7.47 20.03 8.32 21.12 11.31 C21.78 11.31 22.44 11.31 23.12 11.31 C26.12 17.94 26.12 17.94 26.12 21.31 C26.78 21.31 27.44 21.31 28.12 21.31 C28.08 20.22 28.04 19.13 28 18 C28.12 14.31 28.12 14.31 30.12 11.31 C30.78 11.31 31.44 11.31 32.12 11.31 C32.12 14.61 32.12 17.91 32.12 21.31 C34.1 21.31 36.09 21.31 38.12 21.31 C38.12 22.3 38.12 23.29 38.12 24.31 C36.3 24.28 36.3 24.28 34.44 24.25 C31.21 24.24 28.28 24.52 25.12 25.31 C24.47 23.99 23.81 22.67 23.12 21.31 C20.48 21.31 17.84 21.31 15.12 21.31 C15.12 20.65 15.12 19.99 15.12 19.31 C16.11 19.31 17.11 19.31 18.12 19.31 C16.54 15.9 15.56 14.52 12.12 12.87 C10.95 12.5 9.77 12.13 8.56 11.75 C6.7 11.14 6.7 11.14 4.8 10.52 C3.59 10.12 2.37 9.72 1.12 9.31 C-2.23 8.03 -5.55 6.68 -8.88 5.31 C-8.88 4.65 -8.88 3.99 -8.88 3.31 C-9.86 2.98 -10.86 2.65 -11.88 2.31 C-8.12 -0.13 -4.33 -0.02 0 0 Z " fill="#626262" transform="translate(94.875,2.6875)"/>
<path d="M0 0 C0.33 0.66 0.66 1.32 1 2 C3.08 2.44 5.16 2.88 7.25 3.3 C12.38 4.61 17.18 6.83 22 9 C22.75 9.33 23.5 9.65 24.28 9.99 C26.77 11.45 27.16 13.32 28 16 C27.01 16 26.02 16 25 16 C25 16.66 25 17.32 25 18 C26.32 18.33 27.64 18.66 29 19 C25.79 20.61 22.56 20.06 19 20 C19.66 19.57 20.32 19.13 21 18.69 C21.66 18.13 22.32 17.57 23 17 C23 16.01 23 15.02 23 14 C15.47 9.45 7.56 8.37 -1 7 C-1 7.66 -1 8.32 -1 9 C0.05 9.11 1.1 9.22 2.18 9.33 C3.55 9.49 4.93 9.65 6.31 9.81 C7 9.88 7.69 9.95 8.4 10.03 C13.57 10.65 13.57 10.65 15.84 12.5 C16.23 12.99 16.61 13.49 17 14 C19.1 15.18 19.1 15.18 21 16 C21 16.33 21 16.66 21 17 C14.52 17.52 11.37 16.92 6 13 C1.12 10.89 -3.63 9.35 -9 10 C-9.66 10.66 -10.32 11.32 -11 12 C-11.99 12 -12.98 12 -14 12 C-14 11.34 -14 10.68 -14 10 C-16.31 10.66 -18.62 11.32 -21 12 C-21 13.98 -21 15.96 -21 18 C-21.99 17.67 -22.98 17.34 -24 17 C-23.34 17 -22.68 17 -22 17 C-22 14.69 -22 12.38 -22 10 C-21.34 10 -20.68 10 -20 10 C-19.67 9.01 -19.34 8.02 -19 7 C-17.08 6.47 -15.15 5.95 -13.2 5.54 C-11.06 5.01 -9.24 4.3 -7.25 3.38 C-4 2 -4 2 0 2 C0 1.34 0 0.68 0 0 Z " fill="#DEDEDE" transform="translate(85,6)"/>
<path d="M0 0 C1.69 -0.03 1.69 -0.03 3.41 -0.05 C6.38 0.31 6.38 0.31 8.27 1.83 C8.64 2.32 9 2.81 9.38 3.31 C8.19 3.51 7.01 3.7 5.8 3.9 C4.24 4.16 2.68 4.42 1.12 4.69 C-0.04 4.88 -0.04 4.88 -1.23 5.07 C-6.66 5.99 -6.66 5.99 -11.62 8.31 C-11.62 9.63 -11.62 10.95 -11.62 12.31 C-9.65 12.31 -7.66 12.31 -5.62 12.31 C-5.58 11.69 -5.54 11.08 -5.5 10.44 C-4.62 8.31 -4.62 8.31 -2 7.06 C6.11 5.26 11.46 6.94 18.38 11.31 C18.87 12.3 18.87 12.3 19.38 13.31 C18.76 13.22 18.15 13.12 17.51 13.02 C16.7 12.91 15.9 12.8 15.06 12.69 C14.26 12.57 13.46 12.46 12.64 12.34 C10.09 12.1 10.09 12.1 7.38 14.31 C2.71 14.82 0.19 14 -3.62 11.31 C-3.62 12.3 -3.62 13.29 -3.62 14.31 C-9.25 15.44 -9.25 15.44 -12.62 14.31 C-12.96 17.94 -13.28 21.57 -13.62 25.31 C-14.28 25.31 -14.94 25.31 -15.62 25.31 C-16.17 11.84 -16.17 11.84 -12.62 5.31 C-12.29 4.32 -11.97 3.33 -11.62 2.31 C-7.78 0.22 -4.32 0.01 0 0 Z " fill="#CDCDCD" transform="translate(146.625,94.6875)"/>
<path d="M0 0 C1 1.98 2 3.96 3 5.94 C3.56 7.04 4.11 8.14 4.69 9.28 C6 12 6 12 6 13 C-3.24 13 -12.48 13 -22 13 C-18.28 9.28 -15.63 6.91 -11.31 4.25 C-10.36 3.66 -9.41 3.06 -8.43 2.45 C-4.97 0.38 -4.24 0 0 0 Z " fill="#FAFAFA" transform="translate(152,237)"/>
<path d="M0 0 C3.79 0.54 5.55 2.12 8 5 C8 5.66 8 6.32 8 7 C8.64 7.25 9.28 7.5 9.94 7.75 C12 9 12 9 12.75 11.12 C12.83 11.74 12.91 12.36 13 13 C11.5 11.7 10.01 10.4 8.51 9.09 C7.04 7.8 7.04 7.8 5 8 C5.27 9.22 5.54 10.43 5.81 11.69 C6.11 13.89 6.11 13.89 6 16 C3.56 19 3.56 19 1 21 C2.57 25.23 5.38 27.43 9 30 C12.22 30.87 12.22 30.87 15 31 C14.67 31.66 14.34 32.32 14 33 C13.01 32.51 13.01 32.51 12 32 C11.5 32.99 11.5 32.99 11 34 C9.73 33.23 8.46 32.46 7.19 31.69 C6.48 31.26 5.77 30.83 5.04 30.39 C3 29 3 29 1.5 27.37 C-0.44 25.6 -1.66 25.55 -4.25 25.38 C-7.22 25.15 -9.99 24.83 -12.94 24.31 C-13.95 24.21 -14.96 24.11 -16 24 C-16.66 24.66 -17.32 25.32 -18 26 C-20.62 26.12 -20.62 26.12 -23 26 C-23.66 24.68 -24.32 23.36 -25 22 C-24.15 22.01 -24.15 22.01 -23.28 22.03 C-18.24 21.83 -15.54 21.09 -11.94 17.44 C-10.94 16.31 -9.95 15.17 -9 14 C-8.01 14.33 -7.02 14.66 -6 15 C-7.53 16.24 -9.06 17.47 -10.59 18.71 C-12.13 19.97 -12.13 19.97 -13 22 C-7.55 20.97 -2.88 19.75 2 17 C1.86 15.1 1.71 13.21 1.56 11.31 C1.48 10.26 1.4 9.2 1.32 8.11 C1.04 5.35 0.6 2.71 0 0 Z " fill="#888888" transform="translate(170,8)"/>
<path d="M0 0 C3.01 -0.29 4.47 -0.42 6.88 1.5 C14.93 11.35 25.29 27.68 24 41 C23.34 41 22.68 41 22 41 C22 39.68 22 38.36 22 37 C21.34 37 20.68 37 20 37 C19.81 36.36 19.61 35.72 19.41 35.07 C19.15 34.24 18.89 33.41 18.62 32.56 C18.37 31.74 18.11 30.92 17.85 30.07 C17.19 27.82 17.19 27.82 15 27 C15.34 28.39 15.34 28.39 15.69 29.81 C16 33 16 33 14.56 34.88 C14.05 35.25 13.53 35.62 13 36 C12.67 34.68 12.34 33.36 12 32 C11.34 32 10.68 32 10 32 C10 33.65 10 35.3 10 37 C8.94 35.19 8.94 35.19 8 33 C8.33 32.01 8.66 31.02 9 30 C10.32 30 11.64 30 13 30 C13 29.01 13 28.02 13 27 C12.01 26.67 11.02 26.34 10 26 C11.32 25.67 12.64 25.34 14 25 C13.01 20.75 11.95 16.69 10.38 12.62 C9 9 9 9 9 7 C7.68 6.67 6.36 6.34 5 6 C5.99 8.31 6.98 10.62 8 13 C7.34 13 6.68 13 6 13 C4.49 10.92 4.49 10.92 2.88 8.19 C2.34 7.29 1.8 6.4 1.24 5.48 C0 3 0 3 0 0 Z " fill="#A6A6A6" transform="translate(183,20)"/>
<path d="M0 0 C1.32 0.17 1.32 0.17 2.67 0.34 C15.81 2.2 15.81 2.2 21.25 5.62 C21.94 6.95 22.61 8.28 23.25 9.62 C24.24 9.95 25.23 10.28 26.25 10.62 C29.18 14.42 29.59 17.21 29.44 21.94 C29.4 23.54 29.4 23.54 29.36 25.18 C29.32 25.98 29.29 26.79 29.25 27.62 C27.31 24.11 27.07 21.65 27.25 17.62 C26.59 17.62 25.93 17.62 25.25 17.62 C25.25 16.97 25.25 16.31 25.25 15.62 C24.59 15.62 23.93 15.62 23.25 15.62 C21.58 13.96 19.92 12.29 18.25 10.62 C13.58 7 9.69 5.76 4 4.88 C3.28 4.75 2.56 4.62 1.82 4.5 C-1.94 3.84 -1.94 3.84 -5.75 3.62 C-5.75 4.28 -5.75 4.94 -5.75 5.62 C-6.82 5.54 -7.89 5.46 -9 5.38 C-12.78 5.25 -12.78 5.25 -15.06 7.62 C-15.62 8.28 -16.18 8.94 -16.75 9.62 C-17.41 9.62 -18.07 9.62 -18.75 9.62 C-14.78 0.84 -9.19 -1.41 0 0 Z " fill="#ABABAB" transform="translate(85.75,89.375)"/>
<path d="M0 0 C0.5 0.31 0.99 0.62 1.5 0.94 C0.51 1.6 -0.48 2.26 -1.5 2.94 C-0.72 3.39 0.07 3.84 0.88 4.31 C3.5 5.94 3.5 5.94 5.5 7.94 C-1.12 7.19 -1.12 7.19 -4.5 4.94 C-4.5 5.6 -4.5 6.26 -4.5 6.94 C-5.44 6.98 -5.44 6.98 -6.41 7.02 C-12.45 7.42 -17.45 8.44 -22.5 11.94 C-22.83 12.6 -23.16 13.26 -23.5 13.94 C-24.16 13.94 -24.82 13.94 -25.5 13.94 C-25.77 14.56 -26.04 15.17 -26.31 15.81 C-27.5 17.94 -27.5 17.94 -30.5 19.94 C-29.94 16 -28.82 13.19 -26.5 9.94 C-25.84 9.94 -25.18 9.94 -24.5 9.94 C-24.5 8.95 -24.5 7.96 -24.5 6.94 C-22.36 5.17 -20.31 3.69 -18 2.19 C-17.1 1.55 -17.1 1.55 -16.18 0.9 C-10.58 -2.76 -6.25 -2.65 0 0 Z " fill="#F2F2F2" transform="translate(85.5,20.0625)"/>
<path d="M0 0 C0.27 0.85 0.54 1.69 0.81 2.56 C2.06 6.18 3.32 9.56 5 13 C5.99 13.33 6.98 13.66 8 14 C8.33 19.94 8.66 25.88 9 32 C8.34 32 7.68 32 7 32 C7.66 32.99 8.32 33.98 9 35 C9.12 37.69 9.12 37.69 9 40 C6 38 6 38 5.41 35.1 C5.18 32.79 4.95 30.48 4.72 28.16 C3.89 24.54 2.77 23.38 0 21 C-1.2 18.59 -1.1 17.05 -1.06 14.38 C-1.05 13.56 -1.04 12.74 -1.04 11.9 C-1.02 11.27 -1.01 10.65 -1 10 C-1.66 10 -2.32 10 -3 10 C-3 11.98 -3 13.96 -3 16 C-5 14 -5 14 -5.31 11.19 C-4.97 7.68 -4.01 5.85 -2 3 C-2.66 3 -3.32 3 -4 3 C-4 2.34 -4 1.68 -4 1 C-1 0 -1 0 0 0 Z " fill="#ECECEC" transform="translate(50,93)"/>
<path d="M0 0 C3.28 1.64 3.75 4.69 5 8 C5 8.99 5 9.98 5 11 C5.99 10.67 6.98 10.34 8 10 C10.27 13.21 12.14 16.14 13.56 19.81 C14.04 20.86 14.51 21.92 15 23 C15.99 23.33 16.98 23.66 18 24 C17.12 28.88 17.12 28.88 16 30 C14.32 30.23 12.63 30.41 10.94 30.56 C8.49 30.78 8.49 30.78 6 31 C6 26.38 6 21.76 6 17 C5.34 17 4.68 17 4 17 C3.33 14.54 2.66 12.08 2 9.62 C1.81 8.93 1.62 8.23 1.42 7.51 C0 2.23 0 2.23 0 0 Z " fill="#E0E0E0" transform="translate(187,54)"/>
<path d="M0 0 C7.58 -0.42 14.59 0.73 21 5 C22.66 5.38 24.32 5.73 26 6 C25.01 6.5 25.01 6.5 24 7 C24.33 8.32 24.66 9.64 25 11 C21.23 12.75 18.33 13.22 14.19 13.12 C12.72 13.1 12.72 13.1 11.23 13.07 C10.49 13.05 9.76 13.02 9 13 C9 13.66 9 14.32 9 15 C2.48 13.52 2.48 13.52 0.06 10.88 C-0.29 10.26 -0.64 9.64 -1 9 C-0.01 8.67 0.98 8.34 2 8 C0.68 7.34 -0.64 6.68 -2 6 C-2 5.34 -2 4.68 -2 4 C2.7 4.21 6.09 4.39 10.06 7.06 C14.02 9.67 16.34 9.32 21 9 C14.43 4.75 7.58 3.41 0 2 C0 1.34 0 0.68 0 0 Z " fill="#727272" transform="translate(84,13)"/>
<path d="M0 0 C2 3 2 3 1.88 5.56 C0.91 9.34 -0.46 12.76 -1.96 16.35 C-3.29 19.73 -4.27 23.17 -5.27 26.66 C-6.28 29.9 -7.59 32.92 -9 36 C-9.66 36 -10.32 36 -11 36 C-10.4 30.35 -8.92 25.34 -7 20 C-10 25.23 -12.74 30.41 -15 36 C-16.34 32.94 -15.94 31.84 -14.75 28.62 C-13.7 26.38 -12.58 24.2 -11.44 22 C-9.86 18.94 -9.86 18.94 -9 15.19 C-8.67 14.14 -8.34 13.08 -8 12 C-7.01 11.67 -6.02 11.34 -5 11 C-4.33 9.06 -4.33 9.06 -4 7 C-3.67 6.34 -3.34 5.68 -3 5 C-2.34 5 -1.68 5 -1 5 C-0.67 3.35 -0.34 1.7 0 0 Z " fill="#606060" transform="translate(198,92)"/>
<path d="M0 0 C3 1 3 1 4.19 3.31 C5 6 5 6 5 10 C5.66 10 6.32 10 7 10 C7 11.32 7 12.64 7 14 C7.99 13.67 8.98 13.34 10 13 C10.92 15.77 11.16 17.57 11.19 20.44 C11.2 21.2 11.22 21.96 11.23 22.75 C10.98 25.23 10.24 26.85 9 29 C9 28.34 9 27.68 9 27 C8.01 27 7.02 27 6 27 C5.67 25.35 5.34 23.7 5 22 C3.35 21.67 1.7 21.34 0 21 C-0.19 18.73 -0.38 16.46 -0.56 14.19 C-0.67 12.92 -0.77 11.66 -0.88 10.36 C-1 7 -1 7 0 4 C0 2.68 0 1.36 0 0 Z " fill="#EFEFEF" transform="translate(198,47)"/>
<path d="M0 0 C0.66 0 1.32 0 2 0 C3.98 4.89 4.41 9.5 4.75 14.71 C4.75 16.96 4.75 16.96 6 18 C6.3 19.33 6.56 20.66 6.81 22 C8.03 27.74 10.39 32.78 13 38 C13.05 37.15 13.1 36.29 13.15 35.41 C13.22 34.31 13.3 33.2 13.38 32.06 C13.44 30.96 13.51 29.86 13.59 28.72 C13.72 27.82 13.86 26.93 14 26 C14.66 25.67 15.32 25.34 16 25 C16.8 29.93 17.14 34.62 17.12 39.62 C17.13 41.53 17.13 41.53 17.13 43.48 C17.02 46.46 16.7 49.1 16 52 C15.67 52 15.34 52 15 52 C14.96 51.06 14.96 51.06 14.92 50.1 C14.87 49.28 14.81 48.47 14.75 47.62 C14.7 46.81 14.66 46 14.61 45.16 C14.23 42.83 14.23 42.83 12.08 41.91 C11.39 41.61 10.71 41.31 10 41 C2.96 29.77 -0.29 13.15 0 0 Z " fill="#797979" transform="translate(44,65)"/>
<path d="M0 0 C0.33 0 0.66 0 1 0 C1 2.31 1 4.62 1 7 C2.65 5.35 4.3 3.7 6 2 C6.35 7.65 5.43 11.03 3 16 C1.35 16 -0.3 16 -2 16 C-2.14 16.62 -2.29 17.24 -2.44 17.88 C-3 20 -3 20 -4 22 C-4.66 22 -5.32 22 -6 22 C-5.67 20.02 -5.34 18.04 -5 16 C-5.6 16.83 -6.2 17.65 -6.81 18.5 C-7.9 19.74 -7.9 19.74 -9 21 C-9.99 21 -10.98 21 -12 21 C-12 21.66 -12 22.32 -12 23 C-12.66 23 -13.32 23 -14 23 C-14 21.68 -14 20.36 -14 19 C-13.01 19 -12.02 19 -11 19 C-10.94 18.3 -10.88 17.6 -10.81 16.88 C-9.69 12.91 -7.84 10.98 -5 8 C-4.34 8 -3.68 8 -3 8 C-2.88 7.42 -2.75 6.84 -2.62 6.25 C-1.99 3.98 -1.11 2.07 0 0 Z " fill="#939393" transform="translate(64,38)"/>
<path d="M0 0 C3.48 1.16 4.2 1.88 6 5 C6.34 7.88 6.34 7.88 6.38 11 C6.5 14.18 6.5 14.18 7 17 C8.65 18.35 10.32 19.69 12 21 C13.06 24.96 13.57 28.93 14 33 C12.22 32.89 12.22 32.89 10 32 C8.18 29.23 8.18 29.23 6.44 25.75 C4.07 21.02 4.07 21.02 1.3 16.54 C-0.44 13.13 -0.29 10.48 -0.19 6.69 C-0.15 4.81 -0.15 4.81 -0.11 2.89 C-0.07 1.93 -0.04 0.98 0 0 Z " fill="#F0F0F0" transform="translate(48,115)"/>
<path d="M0 0 C8.78 -0.5 16.98 0.28 24 6 C21.03 5.67 18.06 5.34 15 5 C14.34 6.32 13.68 7.64 13 9 C10.12 9.12 10.12 9.12 7 9 C6.34 8.34 5.68 7.68 5 7 C1.52 6.72 -1.61 7.22 -5 8 C-4.67 7.34 -4.34 6.68 -4 6 C-4.66 5.67 -5.32 5.34 -6 5 C-5.67 3.68 -5.34 2.36 -5 1 C-3.35 1.33 -1.7 1.66 0 2 C0 1.34 0 0.68 0 0 Z " fill="#838383" transform="translate(80,99)"/>
<path d="M0 0 C1.2 3.6 0.74 4.1 -0.88 7.38 C-2.4 10.59 -3.54 13.44 -4 17 C-3.34 17 -2.68 17 -2 17 C-1.67 15.35 -1.34 13.7 -1 12 C-0.01 11.67 0.98 11.34 2 11 C0.4 26.18 0.4 26.18 -4 32 C-5.31 33.03 -6.64 34.04 -8 35 C-8.03 33.21 -8.05 31.42 -8.06 29.62 C-8.07 28.63 -8.09 27.63 -8.1 26.6 C-8 24 -8 24 -7 22 C-6.92 20.17 -6.86 18.33 -6.81 16.5 C-6.34 9.8 -3.88 5.37 0 0 Z " fill="#F3F3F3" transform="translate(191,111)"/>
<path d="M0 0 C2.54 0.92 4.65 1.72 6.75 3.44 C12.55 7.47 19.64 8.35 26.48 9.41 C35.26 10.89 44.33 12.51 52.69 15.62 C58.82 17.88 65.54 18.28 72 19 C72 19.66 72 20.32 72 21 C69.29 20.91 66.58 20.81 63.88 20.69 C63.11 20.66 62.35 20.64 61.57 20.62 C56.57 20.38 53.5 19.31 49 17 C45.29 15.97 41.52 15.21 37.75 14.44 C36.76 14.23 35.78 14.02 34.76 13.81 C28.52 12.49 22.26 11.24 16 10 C16.33 10.66 16.66 11.32 17 12 C12.66 10.53 9.28 8.2 5.69 5.44 C5.14 5.03 4.59 4.61 4.02 4.19 C2.66 3.16 1.33 2.08 0 1 C0 0.67 0 0.34 0 0 Z " fill="#989898" transform="translate(178,181)"/>
<path d="M0 0 C0.33 0 0.66 0 1 0 C1.33 2.97 1.66 5.94 2 9 C6.15 10.04 9.75 10.52 14 10 C16.46 8.66 16.46 8.66 18 7 C17.31 9.44 17.31 9.44 16 12 C13.38 12.81 13.38 12.81 11 13 C11 13.99 11 14.98 11 16 C19.65 13.16 19.65 13.16 27 8 C27.98 5.15 28 3.07 28 0 C28.66 0.33 29.32 0.66 30 1 C30.08 2.44 30.14 3.87 30.19 5.31 C30.24 6.51 30.24 6.51 30.29 7.74 C30 10 30 10 28.79 11.66 C24.36 14.99 18.94 16.61 13.56 17.69 C7.94 16.6 3.51 13.45 -1 10 C-2.38 7.24 -2.19 5.05 -2 2 C-1.34 1.34 -0.68 0.68 0 0 Z " fill="#999999" transform="translate(109,136)"/>
<path d="M0 0 C1.65 0.33 3.3 0.66 5 1 C4.67 3.31 4.34 5.62 4 8 C3.67 7.01 3.34 6.02 3 5 C2.01 5 1.02 5 0 5 C0 6.98 0 8.96 0 11 C-0.66 11 -1.32 11 -2 11 C-2.27 11.95 -2.54 12.9 -2.81 13.88 C-4 17 -4 17 -7 19 C-7.73 22.07 -7.73 22.07 -8 25 C-8.33 25 -8.66 25 -9 25 C-11.21 17.95 -11.2 11.35 -11 4 C-9.62 6.66 -8.63 9.06 -8 12 C-7.01 12 -6.02 12 -5 12 C-5.02 10.91 -5.04 9.81 -5.06 8.69 C-5 5 -5 5 -4 2 C-2.68 2 -1.36 2 0 2 C0 1.34 0 0.68 0 0 Z " fill="#F9F9F9" transform="translate(197,86)"/>
<path d="M0 0 C-0.68 5.86 -2.26 9.31 -6.5 13.44 C-9.12 16.12 -10.49 18.59 -12 22 C-12.99 22 -13.98 22 -15 22 C-15.33 23.32 -15.66 24.64 -16 26 C-18 23 -18 23 -17.94 19.75 C-16.22 12.86 -12.08 8.73 -6.65 4.36 C-4.95 3.01 -4.95 3.01 -3.41 1.33 C-2 0 -2 0 0 0 Z " fill="#F4F4F4" transform="translate(65,35)"/>
<path d="M0 0 C4.75 0.95 9.58 1.01 14.4 1.28 C17.86 1.56 20.53 2.47 23.8 3.56 C18.68 6.65 14.67 7.05 8.86 7 C8.09 7.02 7.32 7.04 6.52 7.06 C0.83 7.05 -2.48 5.73 -7.2 2.56 C-7.2 1.9 -7.2 1.24 -7.2 0.56 C-4.6 -0.11 -2.65 -0.53 0 0 Z " fill="#B4B4B4" transform="translate(112.19921875,166.44140625)"/>
<path d="M0 0 C0.33 0 0.66 0 1 0 C0.99 1.23 0.99 1.23 0.98 2.49 C0.97 5.59 0.95 8.69 0.95 11.79 C0.94 13.77 0.92 15.75 0.91 17.72 C0.9 24.42 1.08 30.97 1.78 37.63 C2.08 40.82 2.1 43.98 2.06 47.19 C2.05 48.29 2.04 49.4 2.04 50.54 C2.02 51.35 2.01 52.16 2 53 C1.01 53 0.02 53 -1 53 C-2.57 36.62 -3.29 20.45 -3 4 C-2.34 5.32 -1.68 6.64 -1 8 C-0.67 5.36 -0.34 2.72 0 0 Z " fill="#C7C7C7" transform="translate(184,197)"/>
<path d="M0 0 C3.74 3.74 3.16 8.07 3.17 13.04 C3.17 13.83 3.17 14.62 3.18 15.44 C3.18 17.12 3.19 18.8 3.19 20.49 C3.19 23.03 3.21 25.57 3.22 28.12 C3.25 36.34 3.08 43.98 1 52 C0.34 51.67 -0.32 51.34 -1 51 C-0.98 50.24 -0.96 49.47 -0.94 48.69 C-0.87 45.9 -0.87 45.9 -2 43 C-1.34 43 -0.68 43 0 43 C-0.16 42.31 -0.33 41.61 -0.5 40.89 C-1.04 37.76 -1.1 34.86 -1.06 31.69 C-1.05 30.62 -1.04 29.55 -1.04 28.45 C-1.02 27.64 -1.01 26.83 -1 26 C-0.34 27.32 0.32 28.64 1 30 C1.03 27.62 1.05 25.25 1.06 22.88 C1.07 22.21 1.08 21.54 1.09 20.86 C1.11 16.79 0.79 12.99 0 9 C-0.33 11.97 -0.66 14.94 -1 18 C-1.33 18 -1.66 18 -2 18 C-2 13.71 -2 9.42 -2 5 C-1.34 5 -0.68 5 0 5 C0 3.35 0 1.7 0 0 Z " fill="#929292" transform="translate(59,82)"/>
<path d="M0 0 C0.93 3.08 1.03 5.54 0.73 8.74 C0.65 9.64 0.56 10.54 0.47 11.47 C0.33 12.88 0.33 12.88 0.19 14.31 C0.1 15.24 0.02 16.16 -0.06 17.12 C-0.57 22.32 -1.4 27.03 -3 32 C-3.48 33.9 -3.96 35.8 -4.43 37.7 C-4.86 39.43 -5.31 41.17 -5.76 42.89 C-6.95 47.49 -8.09 51.96 -8.56 56.69 C-8.71 57.78 -8.85 58.87 -9 60 C-9.99 60.5 -9.99 60.5 -11 61 C-11.33 53.22 -10.48 46.4 -8.56 38.88 C-6.91 32.23 -5.61 25.83 -5 19 C-4.67 19 -4.34 19 -4 19 C-3.67 20.65 -3.34 22.3 -3 24 C-2.94 23.38 -2.89 22.76 -2.83 22.12 C-2.58 19.31 -2.32 16.5 -2.06 13.69 C-1.93 12.22 -1.93 12.22 -1.8 10.73 C-1.67 9.32 -1.67 9.32 -1.54 7.89 C-1.46 7.02 -1.38 6.16 -1.3 5.27 C-1 3 -1 3 0 0 Z " fill="#C0C0C0" transform="translate(67,183)"/>
<path d="M0 0 C0.33 0.66 0.66 1.32 1 2 C0.08 1.86 0.08 1.86 -0.86 1.71 C-2.08 1.54 -2.08 1.54 -3.31 1.38 C-4.11 1.26 -4.91 1.14 -5.74 1.02 C-8.29 0.78 -8.29 0.78 -11 3 C-15.67 3.51 -18.19 2.69 -22 0 C-22 0.99 -22 1.98 -22 3 C-23.32 3.33 -24.64 3.66 -26 4 C-26 3.01 -26 2.02 -26 1 C-25.34 1 -24.68 1 -24 1 C-23.96 0.38 -23.92 -0.24 -23.88 -0.88 C-23 -3 -23 -3 -20.38 -4.25 C-12.27 -6.05 -6.92 -4.37 0 0 Z " fill="#505050" transform="translate(165,106)"/>
<path d="M0 0 C0.66 0.33 1.32 0.66 2 1 C1.71 2.56 1.42 4.13 1.12 5.69 C0.96 6.56 0.8 7.43 0.63 8.32 C0 11 0 11 -0.95 13.29 C-2.67 17.72 -3.51 22.38 -4.5 27.03 C-5.79 32.79 -5.79 32.79 -8 35 C-8.99 34.67 -9.98 34.34 -11 34 C-10.54 33.21 -10.54 33.21 -10.07 32.41 C-8.74 29.42 -8.3 26.61 -7.81 23.38 C-7.63 22.23 -7.45 21.08 -7.27 19.9 C-6.75 17.06 -6.75 17.06 -8 15 C-7.44 12.62 -7.44 12.62 -6.56 9.88 C-6.28 8.96 -5.99 8.05 -5.69 7.12 C-5.46 6.42 -5.24 5.72 -5 5 C-4.01 6.48 -4.01 6.48 -3 8 C-1.05 5.08 -0.55 3.37 0 0 Z " fill="#CECECE" transform="translate(199,106)"/>
<path d="M0 0 C0.66 0.33 1.32 0.66 2 1 C4.04 0.99 6.08 0.95 8.12 0.88 C13.88 0.81 17.82 1.56 23 4 C20.09 4.83 17.5 5.13 14.47 5.13 C13.17 5.14 13.17 5.14 11.84 5.14 C10.92 5.13 10.01 5.13 9.06 5.12 C7.66 5.12 7.66 5.12 6.23 5.11 C-14.04 4.96 -14.04 4.96 -17 2 C-16.06 1.91 -16.06 1.91 -15.1 1.82 C-13.88 1.69 -13.88 1.69 -12.62 1.56 C-11.81 1.48 -11 1.4 -10.16 1.32 C-0.9 -0.04 -0.9 -0.04 0 0 Z " fill="#EFEFEF" transform="translate(117,161)"/>
<path d="M0 0 C5.37 5.37 6.54 12.71 7 20 C6.34 20 5.68 20 5 20 C5 18.68 5 17.36 5 16 C4.34 16 3.68 16 3 16 C2.81 15.36 2.61 14.72 2.41 14.07 C2.15 13.24 1.89 12.41 1.62 11.56 C1.37 10.74 1.11 9.92 0.85 9.07 C0.19 6.82 0.19 6.82 -2 6 C-1.66 7.39 -1.66 7.39 -1.31 8.81 C-1 12 -1 12 -2.44 13.88 C-2.95 14.25 -3.47 14.62 -4 15 C-4.33 13.68 -4.66 12.36 -5 11 C-5.66 11 -6.32 11 -7 11 C-7 12.65 -7 14.3 -7 16 C-8.06 14.19 -8.06 14.19 -9 12 C-8.67 11.01 -8.34 10.02 -8 9 C-6.68 9 -5.36 9 -4 9 C-4 8.01 -4 7.02 -4 6 C-4.99 5.67 -5.98 5.34 -7 5 C-6.36 4.9 -5.72 4.79 -5.06 4.69 C-4.38 4.46 -3.7 4.23 -3 4 C-2.67 3.01 -2.34 2.02 -2 1 C-1.67 2.32 -1.34 3.64 -1 5 C-0.34 5 0.32 5 1 5 C0.67 3.35 0.34 1.7 0 0 Z " fill="#A7A7A7" transform="translate(200,41)"/>
<path d="M0 0 C0.9 0.4 0.9 0.4 1.81 0.81 C2.14 1.8 2.47 2.79 2.81 3.81 C4.49 3.98 4.49 3.98 6.21 4.14 C7.68 4.3 9.15 4.46 10.62 4.62 C11.73 4.73 11.73 4.73 12.86 4.84 C18.37 5.46 18.37 5.46 20.69 7.31 C21.06 7.81 21.43 8.3 21.81 8.81 C23.91 9.99 23.91 9.99 25.81 10.81 C25.81 11.14 25.81 11.47 25.81 11.81 C19.33 12.33 16.18 11.73 10.81 7.81 C4.45 5.06 -1.4 3.72 -8.19 5.81 C-8.19 5.15 -8.19 4.49 -8.19 3.81 C-7.53 3.81 -6.87 3.81 -6.19 3.81 C-6.19 3.15 -6.19 2.49 -6.19 1.81 C-3.94 0.45 -2.66 -0.23 0 0 Z " fill="#DEDEDE" transform="translate(80.1875,11.1875)"/>
<path d="M0 0 C1.45 0.03 1.45 0.03 2.94 0.06 C-3.03 6.03 -11.21 8.66 -19.27 10.41 C-21.78 11 -24 11.76 -26.38 12.75 C-30.38 14.18 -32.89 14.32 -37.06 14.06 C-37.06 13.4 -37.06 12.74 -37.06 12.06 C-36.31 11.89 -35.56 11.72 -34.79 11.55 C-28.84 10.14 -23.23 8.49 -17.59 6.11 C-13.85 4.56 -10.03 3.24 -6.21 1.89 C-1.39 0.03 -1.39 0.03 0 0 Z " fill="#B0B0B0" transform="translate(37.0625,206.9375)"/>
<path d="M0 0 C1.04 -0.03 2.08 -0.05 3.14 -0.08 C6.58 0.29 8.45 1.17 11.19 3.25 C11.19 3.91 11.19 4.57 11.19 5.25 C10.52 5.11 9.86 4.96 9.18 4.81 C8.29 4.63 7.41 4.44 6.5 4.25 C5.63 4.06 4.76 3.88 3.86 3.69 C1.21 3.25 -1.14 3.03 -3.81 3.25 C-4.47 3.91 -5.13 4.57 -5.81 5.25 C-5.75 6.3 -5.75 6.3 -5.69 7.38 C-5.87 11.48 -7.42 14.91 -9.81 18.25 C-11.95 19.49 -11.95 19.49 -13.81 20.25 C-10.82 5.96 -10.82 5.96 -7.81 1.25 C-5.14 -0.09 -2.99 0.04 0 0 Z " fill="#7F7F7F" transform="translate(76.8125,26.75)"/>
<path d="M0 0 C0.99 0.49 0.99 0.49 2 1 C2.59 2.95 2.59 2.95 3.07 5.47 C3.24 6.37 3.42 7.27 3.6 8.2 C3.77 9.14 3.95 10.09 4.12 11.06 C4.31 12.01 4.49 12.96 4.68 13.94 C5.12 16.29 5.57 18.65 6 21 C6.66 21 7.32 21 8 21 C8 25.62 8 30.24 8 35 C7.67 34.34 7.34 33.68 7 33 C3.83 34.83 3.83 34.83 2 38 C2 33.38 2 28.76 2 24 C2.33 24.99 2.66 25.98 3 27 C3.66 27 4.32 27 5 27 C4.85 26.25 4.7 25.51 4.54 24.74 C3.86 21.37 3.18 18 2.5 14.62 C2.26 13.45 2.02 12.27 1.78 11.06 C1.55 9.94 1.33 8.82 1.09 7.66 C0.88 6.63 0.67 5.59 0.46 4.52 C0 2 0 2 0 0 Z " fill="#A8A8A8" transform="translate(185,50)"/>
<path d="M0 0 C0.33 0 0.66 0 1 0 C1.12 7.75 1.12 7.75 0 10 C-0.07 11.71 -0.08 13.42 -0.06 15.12 C-0.05 16.49 -0.05 16.49 -0.04 17.88 C-0.02 18.58 -0.01 19.28 0 20 C0.65 19.01 0.65 19.01 1.31 18 C1.87 17.34 2.43 16.68 3 16 C3.99 16 4.98 16 6 16 C5.69 16.6 5.38 17.2 5.06 17.81 C3.9 20.09 3.9 20.09 3 23 C1.62 24.69 1.62 24.69 0 26 C-0.99 26 -1.98 26 -3 26 C-3.23 22.4 -3.43 18.79 -3.62 15.19 C-3.69 14.16 -3.75 13.14 -3.82 12.08 C-3.87 11.1 -3.92 10.12 -3.98 9.11 C-4.06 7.75 -4.06 7.75 -4.14 6.36 C-4 4 -4 4 -2 1 C-1.67 1.33 -1.34 1.66 -1 2 C-0.67 1.34 -0.34 0.68 0 0 Z " fill="#878787" transform="translate(184,125)"/>
<path d="M0 0 C9.7 -0.65 16.35 0.95 24.06 6.94 C26.44 9.09 26.94 9.6 27.44 12.88 C27.29 13.58 27.15 14.28 27 15 C26.34 14.67 25.68 14.34 25 14 C24.67 13.01 24.34 12.02 24 11 C16.54 6.62 8.39 3.92 0 2 C0 1.34 0 0.68 0 0 Z " fill="#E8E8E8" transform="translate(89,5)"/>
<path d="M0 0 C0 0.66 0 1.32 0 2 C-4.62 2 -9.24 2 -14 2 C-14 2.66 -14 3.32 -14 4 C-15.07 3.92 -16.14 3.83 -17.25 3.75 C-21.03 3.62 -21.03 3.62 -23.31 6 C-23.87 6.66 -24.43 7.32 -25 8 C-25.66 8 -26.32 8 -27 8 C-21.05 -4.62 -12.06 -2.12 0 0 Z " fill="#ABABAB" transform="translate(94,91)"/>
<path d="M0 0 C0.33 0 0.66 0 1 0 C1.35 5.65 0.43 9.03 -2 14 C-3.65 14 -5.3 14 -7 14 C-7.22 14.93 -7.22 14.93 -7.44 15.88 C-8 18 -8 18 -9 20 C-9.66 20 -10.32 20 -11 20 C-10.41 11.29 -7.1 8.1 -1 2 C-0.67 1.34 -0.34 0.68 0 0 Z " fill="#A5A5A5" transform="translate(69,40)"/>
<path d="M0 0 C0.7 0.21 1.39 0.43 2.11 0.65 C10.44 3 18.12 3.36 26.75 3.19 C28.67 3.17 28.67 3.17 30.63 3.15 C33.76 3.11 36.88 3.06 40 3 C35.74 7.26 29.46 6.18 23.81 6.19 C22.9 6.2 22 6.21 21.06 6.22 C13.29 6.24 6.13 5.22 -1 2 C-0.67 1.34 -0.34 0.68 0 0 Z " fill="#8B8B8B" transform="translate(99,204)"/>
<path d="M0 0 C2 3 2 3 1.88 5.56 C-1.05 17.05 -1.05 17.05 -5 21 C-5 19.35 -5 17.7 -5 16 C-5.99 16 -6.98 16 -8 16 C-8 15.34 -8 14.68 -8 14 C-7.34 14 -6.68 14 -6 14 C-5.69 12.89 -5.38 11.77 -5.06 10.62 C-4 7 -4 7 -3 5 C-2.34 5 -1.68 5 -1 5 C-0.67 3.35 -0.34 1.7 0 0 Z " fill="#535353" transform="translate(198,92)"/>
<path d="M0 0 C0.66 0 1.32 0 2 0 C2 0.66 2 1.32 2 2 C3.65 2 5.3 2 7 2 C7 2.99 7 3.98 7 5 C5.68 5 4.36 5 3 5 C2.67 8.3 2.34 11.6 2 15 C1.01 15 0.02 15 -1 15 C-2.84 11.89 -3.2 9.95 -2.75 6.38 C-2.66 5.6 -2.57 4.82 -2.48 4.02 C-2 2 -2 2 0 0 Z " fill="#666666" transform="translate(190,83)"/>
<path d="M0 0 C0.33 0.66 0.66 1.32 1 2 C3.87 2.48 6.67 2.84 9.56 3.12 C10.77 3.25 10.77 3.25 12.01 3.39 C14 3.6 16 3.8 18 4 C17.01 5.48 17.01 5.48 16 7 C12.92 7.33 12.92 7.33 9.19 7.25 C7.96 7.23 6.74 7.22 5.48 7.2 C2.54 7.03 -0.14 6.68 -3 6 C-3 5.01 -3 4.02 -3 3 C-3.99 3 -4.98 3 -6 3 C-5.67 2.34 -5.34 1.68 -5 1 C-2.44 0.38 -2.44 0.38 0 0 Z " fill="#B6B6B6" transform="translate(80,105)"/>
<path d="M0 0 C0.99 0 1.98 0 3 0 C3.34 6.26 2.37 10.73 0 16.5 C-0.29 17.23 -0.57 17.95 -0.87 18.7 C-1.57 20.47 -2.28 22.24 -3 24 C-5 22.19 -5 22.19 -7 20 C-7 19.01 -7 18.02 -7 17 C-6.01 17 -5.02 17 -4 17 C-3.67 15.68 -3.34 14.36 -3 13 C-5.47 12.01 -5.47 12.01 -8 11 C-8 10.67 -8 10.34 -8 10 C-4.53 9.5 -4.53 9.5 -1 9 C-0.34 7.35 0.32 5.7 1 4 C-0.32 3.67 -1.64 3.34 -3 3 C-2.67 2.34 -2.34 1.68 -2 1 C-1.01 1.66 -0.02 2.32 1 3 C0.67 2.01 0.34 1.02 0 0 Z " fill="#A6A6A6" transform="translate(204,74)"/>
<path d="M0 0 C3 1 3 1 3.98 2.93 C4.24 3.71 4.49 4.5 4.75 5.31 C5.01 6.09 5.28 6.87 5.55 7.68 C6.04 10.22 5.82 11.57 5 14 C4.67 14.99 4.34 15.98 4 17 C2.68 17 1.36 17 0 17 C-0.2 15.4 -0.38 13.79 -0.56 12.19 C-0.72 10.85 -0.72 10.85 -0.88 9.48 C-1 7 -1 7 0 4 C0 2.68 0 1.36 0 0 Z " fill="#F5F5F5" transform="translate(198,47)"/>
<path d="M0 0 C0.62 2.37 0.62 2.37 1 5 C0.34 5.66 -0.32 6.32 -1 7 C-1.66 6.01 -2.32 5.02 -3 4 C-5.31 4.33 -7.62 4.66 -10 5 C-10 5.66 -10 6.32 -10 7 C-10.66 7 -11.32 7 -12 7 C-12 7.66 -12 8.32 -12 9 C-11.34 9.33 -10.68 9.66 -10 10 C-10.99 10 -11.98 10 -13 10 C-13 9.34 -13 8.68 -13 8 C-15.31 8.66 -17.62 9.32 -20 10 C-20 11.98 -20 13.96 -20 16 C-20.99 15.67 -21.98 15.34 -23 15 C-22.34 15 -21.68 15 -21 15 C-21 12.69 -21 10.38 -21 8 C-20.34 8 -19.68 8 -19 8 C-18.67 7.01 -18.34 6.02 -18 5 C-16.08 4.47 -14.15 3.95 -12.2 3.54 C-10.05 3.01 -8.2 2.29 -6.19 1.38 C-3 0 -3 0 0 0 Z " fill="#D5D5D5" transform="translate(84,8)"/>
<path d="M0 0 C3.13 1.32 3.95 2.86 5.59 5.8 C6.34 7.11 6.34 7.11 7.11 8.45 C8.18 10.66 8.87 12.58 9.34 14.99 C6.34 13.99 6.34 13.99 4.95 11.77 C4.52 10.87 4.09 9.98 3.65 9.05 C3.22 8.15 2.78 7.26 2.33 6.34 C1.34 3.99 1.34 3.99 1.34 1.99 C-5.85 4.36 -11.37 7.7 -17.31 12.38 C-19.66 13.99 -19.66 13.99 -22.66 13.99 C-8.17 -0.04 -8.17 -0.04 0 0 Z " fill="#8B8B8B" transform="translate(150.66015625,235.01171875)"/>
<path d="M0 0 C0.99 0.33 1.98 0.66 3 1 C3.36 2.33 3.69 3.66 4 5 C4.48 5.63 4.95 6.27 5.45 6.92 C12.78 16.82 10.02 29.4 9 41 C8.67 41 8.34 41 8 41 C8.01 40.38 8.01 39.75 8.02 39.11 C8.06 27.04 7.91 17.1 1.5 6.64 C0 4 0 4 0 0 Z " fill="#AAAAAA" transform="translate(174,179)"/>
<path d="M0 0 C2.44 0.81 2.44 0.81 5 2 C5.33 2.99 5.66 3.98 6 5 C6.99 5.33 7.98 5.66 9 6 C8.67 5.01 8.34 4.02 8 3 C9.32 3 10.64 3 12 3 C11.12 7.88 11.12 7.88 10 9 C8.32 9.23 6.63 9.41 4.94 9.56 C2.49 9.78 2.49 9.78 0 10 C0 6.7 0 3.4 0 0 Z " fill="#F7F7F7" transform="translate(193,75)"/>
<path d="M0 0 C0.69 -0.02 1.39 -0.03 2.11 -0.05 C6.86 -0.05 10.05 0.89 14.12 3.31 C11.12 5.31 11.12 5.31 8.5 5 C6.12 4.31 6.12 4.31 5.12 3.31 C3.28 3.08 1.42 2.9 -0.44 2.75 C-1.45 2.67 -2.46 2.58 -3.5 2.5 C-4.68 2.41 -4.68 2.41 -5.88 2.31 C-5.88 2.97 -5.88 3.63 -5.88 4.31 C-4.56 4.64 -3.23 4.97 -1.88 5.31 C-6.62 6.44 -6.62 6.44 -8.88 5.31 C-8.88 4.65 -8.88 3.99 -8.88 3.31 C-9.86 2.98 -10.86 2.65 -11.88 2.31 C-8.12 -0.13 -4.33 -0.02 0 0 Z " fill="#929292" transform="translate(94.875,2.6875)"/>
<path d="M0 0 C1.32 0 2.64 0 4 0 C2.92 7.17 1.02 14.05 -1 21 C-1.38 22.31 -1.75 23.62 -2.12 24.94 C-2.41 25.95 -2.7 26.96 -3 28 C-3.33 28 -3.66 28 -4 28 C-4.52 20.61 -2.94 14.38 -0.88 7.36 C0.17 3.93 0.17 3.93 0 0 Z " fill="#ABABAB" transform="translate(160,192)"/>
<path d="M0 0 C3.38 1.13 3.71 1.68 5.62 4.5 C11.09 12.04 17.77 18.1 25.25 23.59 C27 25 27 25 28 27 C23.8 25.61 21.21 23.64 18 20.62 C15.49 18.28 13.01 16.01 10.32 13.88 C7.79 11.83 6 9.55 4 7 C3.34 6.67 2.68 6.34 2 6 C1.27 4.02 0.6 2.02 0 0 Z " fill="#7B7B7B" transform="translate(71,178)"/>
<path d="M0 0 C2.38 -0.29 2.38 -0.29 5.12 -0.19 C6.04 -0.16 6.95 -0.13 7.88 -0.11 C8.58 -0.07 9.28 -0.04 10 0 C10 0.66 10 1.32 10 2 C9.34 2 8.68 2 8 2 C7.67 2.99 7.34 3.98 7 5 C4.44 6.19 4.44 6.19 2 7 C2 6.67 2 6.34 2 6 C1.26 5.95 0.53 5.9 -0.23 5.85 C-1.21 5.78 -2.18 5.7 -3.19 5.62 C-4.15 5.56 -5.11 5.49 -6.11 5.41 C-9.02 5 -11.33 4.2 -14 3 C-14 2.34 -14 1.68 -14 1 C-9.12 1.88 -9.12 1.88 -8 3 C-5.04 3.33 -5.04 3.33 -2 3 C-1.34 2.01 -0.68 1.02 0 0 Z " fill="#F3F3F3" transform="translate(95,104)"/>
<path d="M0 0 C0 0.33 0 0.66 0 1 C-1.16 1.2 -1.16 1.2 -2.34 1.4 C-3.34 1.58 -4.34 1.76 -5.38 1.94 C-6.87 2.2 -6.87 2.2 -8.4 2.46 C-10.97 2.88 -10.97 2.88 -13 4 C-13.33 4.99 -13.66 5.98 -14 7 C-15.94 7.75 -15.94 7.75 -18 8 C-18.66 7.67 -19.32 7.34 -20 7 C-20 3 -20 3 -18.38 1.31 C-12.47 -1.95 -6.42 -0.82 0 0 Z " fill="#F6F6F6" transform="translate(155,100)"/>
<path d="M0 0 C1.69 -0.03 1.69 -0.03 3.41 -0.05 C6.38 0.31 6.38 0.31 8.27 1.83 C8.64 2.32 9 2.81 9.38 3.31 C-5.22 5.61 -5.22 5.61 -12.62 5.31 C-11.62 2.31 -11.62 2.31 -9.48 1.14 C-6.21 0.19 -3.4 0.01 0 0 Z " fill="#A9A9A9" transform="translate(146.625,94.6875)"/>
<path d="M0 0 C0.66 0.33 1.32 0.66 2 1 C2.08 2.44 2.14 3.87 2.19 5.31 C2.24 6.51 2.24 6.51 2.29 7.74 C2 10 2 10 0.79 11.66 C-3.64 14.99 -9.45 17.2 -15 17.44 C-15.99 17.29 -16.98 17.15 -18 17 C-18.66 16.01 -19.32 15.02 -20 14 C-19.09 14.31 -18.19 14.62 -17.25 14.94 C-11.96 15.7 -7.84 12.82 -3.49 10.12 C-0.85 7.87 -0.15 6.95 0.25 3.56 C0.13 1.8 0.13 1.8 0 0 Z " fill="#676767" transform="translate(137,136)"/>
<path d="M0 0 C3.15 0.7 6.03 1.76 9 3 C8.67 4.32 8.34 5.64 8 7 C12.29 6.34 16.58 5.68 21 5 C20.67 5.66 20.34 6.32 20 7 C16.68 8.11 14.06 8.2 10.56 8.25 C9.43 8.28 8.3 8.3 7.13 8.33 C3.68 7.97 2.52 7.28 0 5 C-0.99 4.34 -1.98 3.68 -3 3 C-2.01 3 -1.02 3 0 3 C0 2.01 0 1.02 0 0 Z " fill="#BABABA" transform="translate(143,106)"/>
<path d="M0 0 C0.66 0 1.32 0 2 0 C2 3.3 2 6.6 2 10 C3.98 10 5.96 10 8 10 C8 10.99 8 11.98 8 13 C4.37 13 0.74 13 -3 13 C-2.25 3.38 -2.25 3.38 0 0 Z " fill="#AAAAAA" transform="translate(125,14)"/>
<path d="M0 0 C7.58 -0.42 14.59 0.73 21 5 C22.66 5.38 24.32 5.73 26 6 C25.01 6.5 25.01 6.5 24 7 C23.67 7.66 23.34 8.32 23 9 C23 8.34 23 7.68 23 7 C22.24 7.23 21.47 7.45 20.69 7.69 C19.8 7.79 18.91 7.89 18 8 C17.61 7.55 17.22 7.09 16.81 6.62 C14.07 4.17 10.83 3.91 7.31 3.31 C6.26 3.12 6.26 3.12 5.19 2.92 C3.46 2.6 1.73 2.3 0 2 C0 1.34 0 0.68 0 0 Z " fill="#757575" transform="translate(84,13)"/>
<path d="M0 0 C1.38 2.66 2.37 5.06 3 8 C3.99 8 4.98 8 6 8 C6.33 9.65 6.66 11.3 7 13 C6.01 13.66 5.02 14.32 4 15 C3.27 18.07 3.27 18.07 3 21 C2.67 21 2.34 21 2 21 C-0.21 13.95 -0.2 7.35 0 0 Z " fill="#DADADA" transform="translate(186,90)"/>
<path d="M0 0 C0.84 0.71 0.84 0.71 1.69 1.44 C-1.28 1.11 -4.25 0.78 -7.31 0.44 C-7.97 1.76 -8.63 3.08 -9.31 4.44 C-11.29 4.44 -13.27 4.44 -15.31 4.44 C-15.31 2.79 -15.31 1.14 -15.31 -0.56 C-13.98 -0.9 -12.65 -1.23 -11.31 -1.56 C-10.67 -1.77 -10.03 -1.97 -9.38 -2.19 C-5.66 -2.86 -3.1 -2.09 0 0 Z " fill="#646464" transform="translate(102.3125,103.5625)"/>
<path d="M0 0 C-1.12 2.97 -2.22 5.33 -4 8 C-4 7.34 -4 6.68 -4 6 C-5.95 6.19 -5.95 6.19 -8 7 C-9.05 8.85 -9.05 8.85 -10 11 C-12 13.25 -12 13.25 -14 15 C-14.66 15 -15.32 15 -16 15 C-15.67 13.02 -15.34 11.04 -15 9 C-14.01 9 -13.02 9 -12 9 C-10.97 7.69 -9.97 6.35 -9 5 C-8.34 5 -7.68 5 -7 5 C-6.67 4.01 -6.34 3.02 -6 2 C-3 0 -3 0 0 0 Z " fill="#929292" transform="translate(69,29)"/>
<path d="M0 0 C0.33 0 0.66 0 1 0 C1.8 4.93 2.14 9.62 2.12 14.62 C2.13 15.9 2.13 17.17 2.13 18.48 C2.02 21.46 1.7 24.1 1 27 C0.67 27 0.34 27 0 27 C-0.88 20.98 -1.11 15.07 -1.12 9 C-1.13 8.23 -1.13 7.47 -1.14 6.68 C-1.12 1.12 -1.12 1.12 0 0 Z " fill="#383838" transform="translate(59,90)"/>
<path d="M0 0 C0.33 0.66 0.66 1.32 1 2 C2.95 2.58 2.95 2.58 5.25 2.94 C9.02 3.7 11.86 4.67 15 7 C15 7.33 15 7.66 15 8 C9 8.22 3.81 7.51 -2 6 C-1.34 4.02 -0.68 2.04 0 0 Z " fill="#EDEDED" transform="translate(85,6)"/>
<path d="M0 0 C0 0.66 0 1.32 0 2 C1.09 1.79 2.19 1.59 3.31 1.38 C7 1 7 1 10 3 C7.3 4.35 4.99 4 2 4 C1.01 4.5 1.01 4.5 0 5 C-1.7 5.23 -3.41 5.41 -5.12 5.56 C-6.04 5.65 -6.95 5.73 -7.88 5.82 C-8.93 5.91 -8.93 5.91 -10 6 C-10 5.34 -10 4.68 -10 4 C-11.32 4.33 -12.64 4.66 -14 5 C-14.33 4.34 -14.66 3.68 -15 3 C-13.97 2.93 -13.97 2.93 -12.92 2.85 C-11.57 2.74 -11.57 2.74 -10.19 2.62 C-9.29 2.56 -8.4 2.49 -7.48 2.41 C-4.52 1.92 -2.96 0 0 0 Z " fill="#AEAEAE" transform="translate(109,158)"/>
<path d="M0 0 C1.81 0.56 1.81 0.56 4 2 C7.12 7.98 8.93 14.6 11 21 C10.01 21 9.02 21 8 21 C7.76 20.38 7.52 19.77 7.27 19.13 C5.22 13.96 3.08 8.86 0.73 3.81 C0 2 0 2 0 0 Z " fill="#6D6D6D" transform="translate(182,40)"/>
<path d="M0 0 C0.99 0.33 1.98 0.66 3 1 C-3.09 6.43 -10.36 11.99 -18 15 C-18.99 14.67 -19.98 14.34 -21 14 C-19.93 13.34 -18.85 12.68 -17.75 12 C-8.39 6.61 -8.39 6.61 0 0 Z " fill="#8F8F8F" transform="translate(59,192)"/>
<path d="M0 0 C0.33 0.66 0.66 1.32 1 2 C-2.41 1.21 -5.69 0.13 -9 -1 C-9 -1.66 -9 -2.32 -9 -3 C-9.52 -2.67 -10.03 -2.34 -10.56 -2 C-13.78 -0.68 -16.56 -0.87 -20 -1 C-20.33 -1.99 -20.66 -2.98 -21 -4 C-13 -6.56 -6.84 -4.33 0 0 Z " fill="#393939" transform="translate(165,106)"/>
<path d="M0 0 C0.33 0 0.66 0 1 0 C2.95 7.73 3.22 15.05 3 23 C2.01 23 1.02 23 0 23 C0 15.41 0 7.82 0 0 Z " fill="#A1A1A1" transform="translate(183,227)"/>
<path d="M0 0 C0.66 0 1.32 0 2 0 C3.71 4.52 4.35 8.56 4.62 13.38 C4.7 14.62 4.77 15.87 4.85 17.15 C4.9 18.09 4.95 19.03 5 20 C4.34 20 3.68 20 3 20 C0.98 15.78 0.59 11.79 0.38 7.19 C0.34 6.49 0.3 5.8 0.26 5.09 C0.16 3.39 0.08 1.7 0 0 Z " fill="#585858" transform="translate(44,65)"/>
<path d="M0 0 C0.99 0.33 1.98 0.66 3 1 C1.47 2.24 -0.06 3.47 -1.59 4.71 C-3.13 5.97 -3.13 5.97 -4 8 C-3.01 8.33 -2.02 8.66 -1 9 C-2.13 9.31 -3.27 9.62 -4.44 9.94 C-7.79 10.63 -7.79 10.63 -9 12 C-10.67 12.04 -12.33 12.04 -14 12 C-14.66 10.68 -15.32 9.36 -16 8 C-15.43 8.01 -14.86 8.02 -14.28 8.03 C-9.24 7.83 -6.54 7.09 -2.94 3.44 C-1.94 2.31 -0.95 1.17 0 0 Z " fill="#939393" transform="translate(161,22)"/>
<path d="M0 0 C0.99 1.32 1.98 2.64 3 4 C2.01 4.49 2.01 4.49 1 5 C1.34 6.39 1.34 6.39 1.69 7.81 C2 11 2 11 0.56 12.88 C0.05 13.25 -0.47 13.62 -1 14 C-1.33 12.68 -1.66 11.36 -2 10 C-2.66 10 -3.32 10 -4 10 C-4 11.65 -4 13.3 -4 15 C-5.06 13.19 -5.06 13.19 -6 11 C-5.67 10.01 -5.34 9.02 -5 8 C-3.68 8 -2.36 8 -1 8 C-1 7.01 -1 6.02 -1 5 C-1.99 4.67 -2.98 4.34 -4 4 C-2.68 3.67 -1.36 3.34 0 3 C0 2.01 0 1.02 0 0 Z " fill="#C5C5C5" transform="translate(197,42)"/>
<path d="M0 0 C1.6 0.48 3.21 0.96 4.81 1.44 C6.15 1.84 6.15 1.84 7.52 2.25 C9.35 2.8 11.18 3.39 13 4 C13 4.66 13 5.32 13 6 C9.62 6.62 9.62 6.62 6 7 C5.34 6.34 4.68 5.68 4 5 C1.8 4.32 1.8 4.32 -0.62 3.88 C-1.85 3.62 -1.85 3.62 -3.1 3.37 C-3.73 3.25 -4.35 3.12 -5 3 C-5 2.67 -5 2.34 -5 2 C-3.35 2 -1.7 2 0 2 C0 1.34 0 0.68 0 0 Z " fill="#C3C3C3" transform="translate(94,91)"/>
<path d="M0 0 C0.66 0.66 1.32 1.32 2 2 C1.62 5.62 1.62 5.62 1 9 C0.34 9 -0.32 9 -1 9 C-0.67 11.31 -0.34 13.62 0 16 C-0.66 16 -1.32 16 -2 16 C-2.33 16.99 -2.66 17.98 -3 19 C-4.48 16.04 -4.06 13.26 -4 10 C-3.34 10 -2.68 10 -2 10 C-2.04 8.91 -2.08 7.81 -2.12 6.69 C-2 3 -2 3 0 0 Z " fill="#8D8D8D" transform="translate(46,49)"/>
<path d="M0 0 C6.67 0.17 11.88 1.52 17 6 C17 6.66 17 7.32 17 8 C14.03 7.5 14.03 7.5 11 7 C11 6.34 11 5.68 11 5 C9.39 4.81 9.39 4.81 7.75 4.62 C4.62 4.1 2.67 3.6 0 2 C0 1.34 0 0.68 0 0 Z " fill="#3F3F3F" transform="translate(82,17)"/>
<path d="M0 0 C1.23 3.7 0.59 4.85 -0.75 8.44 C-1.1 9.38 -1.44 10.33 -1.8 11.31 C-2.95 13.9 -4.11 15.89 -6 18 C-6.66 18 -7.32 18 -8 18 C-6.84 10.68 -4.44 5.91 0 0 Z " fill="#616161" transform="translate(55,33)"/>
<path d="M0 0 C2.92 0.31 5.83 0.62 8.75 0.94 C9.57 1.02 10.4 1.11 11.25 1.2 C12.05 1.29 12.85 1.38 13.67 1.46 C14.41 1.54 15.14 1.62 15.89 1.7 C17.98 2 19.97 2.45 22 3 C22 3.66 22 4.32 22 5 C19.27 4.94 16.54 4.85 13.81 4.75 C13.04 4.74 12.27 4.72 11.48 4.71 C6.42 4.49 3.73 3.73 0 0 Z " fill="#8A8A8A" transform="translate(228,197)"/>
<path d="M0 0 C6 2 12 4 18 6 C18 6.66 18 7.32 18 8 C16.3 7.54 16.3 7.54 14.56 7.06 C11.44 6.26 8.46 5.82 5.25 5.56 C1.7 5.23 -0.4 4.6 -3 2 C-1.68 2 -0.36 2 1 2 C0.67 1.34 0.34 0.68 0 0 Z " fill="#A5A5A5" transform="translate(159,93)"/>
<path d="M0 0 C0.66 0 1.32 0 2 0 C4 3 4 3 4 7 C5.65 7.33 7.3 7.66 9 8 C9.66 10.64 10.32 13.28 11 16 C5.7 14.11 3.79 9.46 1.25 4.75 C0 2 0 2 0 0 Z " fill="#767676" transform="translate(194,61)"/>
<path d="M0 0 C1.45 0.03 1.45 0.03 2.94 0.06 C2.94 0.72 2.94 1.38 2.94 2.06 C-3.45 4.77 -9.08 6.35 -16.06 6.06 C-16.06 5.4 -16.06 4.74 -16.06 4.06 C-15.21 3.86 -14.35 3.65 -13.47 3.44 C-12.37 3.17 -11.26 2.9 -10.12 2.62 C-8.47 2.22 -8.47 2.22 -6.79 1.82 C-0.24 0 -0.24 0 0 0 Z " fill="#9D9D9D" transform="translate(16.0625,214.9375)"/>
<path d="M0 0 C1.21 2.33 2.17 4.5 3 7 C3.66 7 4.32 7 5 7 C5 5.02 5 3.04 5 1 C7.86 3.86 7.41 6.15 7.62 10.12 C7.7 11.41 7.77 12.69 7.85 14.01 C7.93 15.49 7.93 15.49 8 17 C7.34 17.33 6.68 17.66 6 18 C5.97 17.37 5.95 16.75 5.92 16.1 C5.87 15.28 5.81 14.47 5.75 13.62 C5.7 12.81 5.66 12 5.61 11.16 C5.21 8.82 5.21 8.82 3.02 7.77 C2.35 7.52 1.69 7.26 1 7 C0 6 0 6 -0.06 2.94 C-0.04 1.97 -0.02 1 0 0 Z " fill="#6C6C6C" transform="translate(55,127)"/>
<path d="M0 0 C0.33 0 0.66 0 1 0 C1.25 7.62 1.25 7.62 -1 11 C-1.39 12.99 -1.73 14.99 -2 17 C-2.33 17 -2.66 17 -3 17 C-3.22 14.9 -3.43 12.79 -3.62 10.69 C-3.74 9.52 -3.86 8.34 -3.98 7.14 C-4 4 -4 4 -2 1 C-1.67 1.33 -1.34 1.66 -1 2 C-0.67 1.34 -0.34 0.68 0 0 Z " fill="#AAAAAA" transform="translate(184,125)"/>
<path d="M0 0 C0.66 0 1.32 0 2 0 C0.26 4.93 -1.68 9.87 -6.56 12.25 C-7.37 12.5 -8.17 12.75 -9 13 C-10.49 13.99 -10.49 13.99 -12 15 C-12 12 -12 12 -9.88 9.84 C-8.97 9.07 -8.06 8.3 -7.12 7.5 C-4.26 5.05 -2.1 3.14 0 0 Z " fill="#9C9C9C" transform="translate(168,181)"/>
<path d="M0 0 C0.33 0.99 0.66 1.98 1 3 C2.32 2.34 3.64 1.68 5 1 C5.29 7.05 5.29 7.05 5 9 C3.51 9.99 3.51 9.99 2 11 C1.34 11.99 0.68 12.98 0 14 C0 9.38 0 4.76 0 0 Z " fill="#808080" transform="translate(187,74)"/>
<path d="M0 0 C0.33 0 0.66 0 1 0 C1.29 6.41 0.59 12.78 -1 19 C-1.66 19.33 -2.32 19.66 -3 20 C-3.37 12.69 -2.82 6.79 0 0 Z " fill="#9E9E9E" transform="translate(59,224)"/>
<path d="M0 0 C0.66 0 1.32 0 2 0 C2.19 0.55 2.39 1.11 2.59 1.68 C2.85 2.4 3.11 3.13 3.38 3.88 C3.63 4.59 3.89 5.31 4.15 6.05 C4.94 8.18 4.94 8.18 7 10 C5.02 10.99 5.02 10.99 3 12 C1.29 10.38 -0.37 8.71 -2 7 C-2 6.34 -2 5.68 -2 5 C-1.34 5 -0.68 5 0 5 C0 3.35 0 1.7 0 0 Z " fill="#494949" transform="translate(117,16)"/>
<path d="M0 0 C-0.75 1.94 -0.75 1.94 -2 4 C-4.12 4.75 -4.12 4.75 -6 5 C-6 5.99 -6 6.98 -6 8 C-6.99 8.66 -7.98 9.32 -9 10 C-9.66 10.99 -10.32 11.98 -11 13 C-11.67 11.23 -11.67 11.23 -12 9 C-10.93 7.15 -10.93 7.15 -9.31 5.38 C-8.79 4.78 -8.27 4.19 -7.74 3.59 C-5.37 1.42 -3.26 0 0 0 Z " fill="#767676" transform="translate(67,22)"/>
<path d="M0 0 C2.47 2.47 2.62 3.54 3 7 C2.79 9.7 2.41 12.32 2 15 C1.67 15 1.34 15 1 15 C0.67 13.02 0.34 11.04 0 9 C-0.33 11.97 -0.66 14.94 -1 18 C-1.33 18 -1.66 18 -2 18 C-2 13.71 -2 9.42 -2 5 C-1.34 5 -0.68 5 0 5 C0 3.35 0 1.7 0 0 Z " fill="#838383" transform="translate(59,82)"/>
<path d="M0 0 C0.66 0 1.32 0 2 0 C1.72 2.13 1.42 4.25 1.12 6.38 C0.96 7.56 0.8 8.74 0.63 9.96 C0 13 0 13 -2 15 C-2.99 14.67 -3.98 14.34 -5 14 C-4.71 13.48 -4.42 12.97 -4.12 12.44 C-2.71 9.37 -1.89 6.25 -1 3 C-0.67 2.01 -0.34 1.02 0 0 Z " fill="#A0A0A0" transform="translate(193,126)"/>
<path d="M0 0 C1 2 2 4 3 6 C3.33 6 3.66 6 4 6 C4 8.31 4 10.62 4 13 C3.01 13 2.02 13 1 13 C-0.91 9.83 -1.16 7.89 -0.62 4.25 C-0.51 3.45 -0.4 2.65 -0.29 1.83 C-0.19 1.22 -0.1 0.62 0 0 Z " fill="#7A7A7A" transform="translate(188,85)"/>
<path d="M0 0 C4.44 0.82 7.82 2.82 11 6 C4.38 5.25 4.38 5.25 1 3 C1 3.66 1 4.32 1 5 C-1.97 5 -4.94 5 -8 5 C-7.67 4.34 -7.34 3.68 -7 3 C-4.03 3.5 -4.03 3.5 -1 4 C-0.67 2.68 -0.34 1.36 0 0 Z " fill="#C4C4C4" transform="translate(80,22)"/>
<path d="M0 0 C1.24 0.28 2.47 0.57 3.75 0.86 C4.99 1.13 6.22 1.41 7.5 1.69 C10.75 2.61 10.75 2.61 13.75 4.61 C11.22 5.87 10.33 5.46 7.62 4.83 C6.81 4.65 6.01 4.46 5.18 4.28 C4.33 4.08 3.49 3.88 2.62 3.67 C1.78 3.48 0.93 3.28 0.05 3.08 C-2.05 2.6 -4.15 2.1 -6.25 1.61 C-3.25 -0.39 -3.25 -0.39 0 0 Z " fill="#B1B1B1" transform="translate(215.25,192.390625)"/>
<path d="M0 0 C2.76 1.38 3.49 3.37 5 6 C5.33 6.33 5.66 6.66 6 7 C6.04 8.67 6.04 10.33 6 12 C1.12 9.25 1.12 9.25 0 7 C-0.04 4.67 -0.04 2.33 0 0 Z " fill="#F3F3F3" transform="translate(194,64)"/>
<path d="M0 0 C0.66 0.33 1.32 0.66 2 1 C0.9 7.31 -0.58 13.06 -3 19 C-3.66 19 -4.32 19 -5 19 C-4.55 16.96 -4.09 14.92 -3.62 12.88 C-3.37 11.74 -3.11 10.6 -2.85 9.43 C-2.05 6.22 -1.09 3.12 0 0 Z " fill="#898989" transform="translate(199,106)"/>
<path d="M0 0 C0.66 0.33 1.32 0.66 2 1 C-4.9 7.86 -4.9 7.86 -9.5 8.44 C-10.33 8.29 -11.15 8.15 -12 8 C-8.71 4.16 -4.75 1.68 0 0 Z " fill="#BFBFBF" transform="translate(134,242)"/>
<path d="M0 0 C0.33 0.66 0.66 1.32 1 2 C-0.25 4 -0.25 4 -2 6 C-3.32 6 -4.64 6 -6 6 C-6.33 6.66 -6.66 7.32 -7 8 C-9.87 7.43 -10.86 7.14 -13 5 C-11.97 4.84 -11.97 4.84 -10.92 4.67 C-10.02 4.51 -9.12 4.35 -8.19 4.19 C-6.85 3.96 -6.85 3.96 -5.48 3.73 C-2.82 2.95 -1.74 2.11 0 0 Z " fill="#A6A6A6" transform="translate(126,143)"/>
<path d="M0 0 C1.2 3.6 0.74 4.1 -0.88 7.38 C-2.4 10.59 -3.54 13.44 -4 17 C-6 14 -6 14 -5.79 11.61 C-4.96 8.87 -3.88 6.66 -2.44 4.19 C-1.98 3.4 -1.53 2.61 -1.06 1.79 C-0.53 0.91 -0.53 0.91 0 0 Z " fill="#CDCDCD" transform="translate(191,111)"/>
<path d="M0 0 C0.66 0 1.32 0 2 0 C1.46 5.28 0.23 9.26 -2 14 C-2.66 14 -3.32 14 -4 14 C-3.46 8.72 -2.23 4.74 0 0 Z " fill="#343434" transform="translate(191,114)"/>
<path d="M0 0 C0.66 0 1.32 0 2 0 C2.83 5.72 3.12 11.22 3 17 C2.67 17 2.34 17 2 17 C0.81 13.12 0 10.08 0 6 C-0.66 5.67 -1.32 5.34 -2 5 C-1.34 3.35 -0.68 1.7 0 0 Z " fill="#787878" transform="translate(62,144)"/>
<path d="M0 0 C0 0.66 0 1.32 0 2 C-2.31 2.33 -4.62 2.66 -7 3 C-7 4.32 -7 5.64 -7 7 C-9.47 6.01 -9.47 6.01 -12 5 C-11 2 -11 2 -9.38 0.81 C-6.2 -0.27 -3.33 -0.13 0 0 Z " fill="#272727" transform="translate(95,100)"/>
<path d="M0 0 C1.65 0.33 3.3 0.66 5 1 C4.67 3.31 4.34 5.62 4 8 C3.67 7.01 3.34 6.02 3 5 C2.01 5 1.02 5 0 5 C0 6.98 0 8.96 0 11 C-0.33 11 -0.66 11 -1 11 C-1.03 9.54 -1.05 8.08 -1.06 6.62 C-1.07 5.81 -1.09 5 -1.1 4.16 C-1 2 -1 2 0 0 Z " fill="#D4D4D4" transform="translate(197,86)"/>
<path d="M0 0 C13.71 11.71 13.71 11.71 17 15 C10.01 13.93 5.72 8.86 1.32 3.8 C0 2 0 2 0 0 Z " fill="#707070" transform="translate(92,235)"/>
<path d="M0 0 C0 0.66 0 1.32 0 2 C-4.62 2 -9.24 2 -14 2 C-14 1.34 -14 0.68 -14 0 C-9.72 -2.14 -4.51 -1.09 0 0 Z " fill="#8C8C8C" transform="translate(94,91)"/>
<path d="M0 0 C3.71 1.62 6.57 3.94 9.69 6.5 C10.66 7.29 11.63 8.09 12.64 8.91 C15 11 15 11 16 13 C11.46 11.55 8.66 9.16 5.19 5.94 C4.69 5.48 4.18 5.02 3.67 4.54 C2.42 3.39 1.21 2.2 0 1 C0 0.67 0 0.34 0 0 Z " fill="#717171" transform="translate(83,192)"/>
<path d="M0 0 C0.99 0.33 1.98 0.66 3 1 C3.56 2.8 3.56 2.8 4 5 C4.65 6.39 5.34 7.77 6.06 9.12 C8 12.78 8 12.78 8 15 C7.34 15 6.68 15 6 15 C4.99 13.26 3.99 11.5 3 9.75 C2.16 8.29 2.16 8.29 1.31 6.8 C0 4 0 4 0 0 Z " fill="#959595" transform="translate(174,179)"/>
<path d="M0 0 C0 0.66 0 1.32 0 2 C1.65 2 3.3 2 5 2 C1.6 3.76 -1.09 5 -5 5 C-7.19 4 -7.19 4 -9 3 C-9 2.67 -9 2.34 -9 2 C-3.38 0 -3.38 0 0 0 Z " fill="#A1A1A1" transform="translate(156,103)"/>
<path d="M0 0 C0.33 0 0.66 0 1 0 C1.51 2.81 1.33 4.49 -0.23 6.89 C-1.75 8.74 -3.17 10.45 -5 12 C-5.99 12 -6.98 12 -8 12 C-8.33 11.01 -8.66 10.02 -9 9 C-8.03 8.57 -7.06 8.13 -6.06 7.69 C-2.72 6.3 -2.72 6.3 -2 3 C-1.34 3 -0.68 3 0 3 C0 2.01 0 1.02 0 0 Z " fill="#9B9B9B" transform="translate(175,19)"/>
<path d="M0 0 C1.5 1.37 1.5 1.37 3 3 C3 3.66 3 4.32 3 5 C2.01 5 1.02 5 0 5 C0 5.66 0 6.32 0 7 C1.32 7.33 2.64 7.66 4 8 C0.79 9.61 -2.44 9.06 -6 9 C-5.34 8.57 -4.68 8.13 -4 7.69 C-3.01 6.85 -3.01 6.85 -2 6 C-2 5.01 -2 4.02 -2 3 C-1.34 3 -0.68 3 0 3 C0 2.01 0 1.02 0 0 Z " fill="#AFAFAF" transform="translate(110,17)"/>
<path d="M0 0 C0.66 0.33 1.32 0.66 2 1 C2.05 2.46 2.09 3.92 2.12 5.38 C2.15 6.19 2.17 7 2.2 7.84 C2 10 2 10 0 12 C-1.32 12 -2.64 12 -4 12 C-4 11.34 -4 10.68 -4 10 C-3.01 9.34 -2.02 8.68 -1 8 C-0.42 6.04 -0.42 6.04 -0.31 3.88 C-0.21 2.6 -0.11 1.32 0 0 Z " fill="#464646" transform="translate(137,136)"/>
<path d="M0 0 C0.64 1.84 0.64 1.84 1 4 C-1.64 7.16 -4.17 9.44 -8 11 C-6.53 5.99 -3.72 3.48 0 0 Z " fill="#A8A8A8" transform="translate(105,139)"/>
<path d="M0 0 C0.66 0 1.32 0 2 0 C0.51 4.97 -1.6 9.42 -4 14 C-5.46 9.55 -4.04 7.15 -2 3 C-1.34 2.01 -0.68 1.02 0 0 Z " fill="#565656" transform="translate(187,114)"/>
<path d="M0 0 C2.26 0.35 3.95 0.98 6 2 C6 2.66 6 3.32 6 4 C6.66 4 7.32 4 8 4 C7.67 4.99 7.34 5.98 7 7 C3.54 5.75 0.85 4.32 -2 2 C-1.34 1.34 -0.68 0.68 0 0 Z " fill="#9B9B9B" transform="translate(161,101)"/>
<path d="M0 0 C1.94 -0.08 3.87 -0.14 5.81 -0.19 C6.89 -0.22 7.97 -0.26 9.08 -0.29 C12 0 12 0 13.89 1.51 C14.25 2 14.62 2.49 15 3 C8.77 4.2 5.63 3.93 0 1 C0 0.67 0 0.34 0 0 Z " fill="#808080" transform="translate(141,95)"/>
<path d="M0 0 C0.62 2.38 0.62 2.38 1 5 C0.34 5.66 -0.32 6.32 -1 7 C-1.66 6.01 -2.32 5.02 -3 4 C-5.76 4.52 -8.33 5.11 -11 6 C-10.67 5.01 -10.34 4.02 -10 3 C-6.51 1.25 -3.93 0 0 0 Z " fill="#A1A1A1" transform="translate(84,8)"/>
<path d="M0 0 C0.99 0 1.98 0 3 0 C3.66 3.96 4.32 7.92 5 12 C4.01 12.33 3.02 12.66 2 13 C0.55 8.46 -0.24 4.82 0 0 Z " fill="#A7A7A7" transform="translate(63,156)"/>
<path d="M0 0 C0.66 0 1.32 0 2 0 C3.31 2.62 2.9 4.23 2.56 7.12 C2.46 8.04 2.36 8.95 2.25 9.88 C2.13 10.93 2.13 10.93 2 12 C1.34 12 0.68 12 0 12 C0 8.04 0 4.08 0 0 Z " fill="#D7D7D7" transform="translate(115,124)"/>
<path d="M0 0 C0 0.66 0 1.32 0 2 C-6.62 5 -6.62 5 -10 5 C-10 4.34 -10 3.68 -10 3 C-9.34 3 -8.68 3 -8 3 C-8 2.34 -8 1.68 -8 1 C-4.93 -0.86 -3.4 -1.22 0 0 Z " fill="#F3F3F3" transform="translate(82,12)"/>
<path d="M0 0 C2.31 -0.4 2.31 -0.4 5 -0.38 C6.33 -0.39 6.33 -0.39 7.69 -0.4 C8.83 -0.2 8.83 -0.2 10 0 C10.66 0.99 11.32 1.98 12 3 C7.38 3 2.76 3 -2 3 C-1.34 2.01 -0.68 1.02 0 0 Z " fill="#E1E1E1" transform="translate(120,168)"/>
<path d="M0 0 C2.81 1.38 2.81 1.38 5 3 C5 3.66 5 4.32 5 5 C0.71 4.01 -3.58 3.02 -8 2 C-4.72 -0.19 -3.8 -0.45 0 0 Z " fill="#797979" transform="translate(83,27)"/>
<path d="M0 0 C0.66 0.66 1.32 1.32 2 2 C0.91 5.78 0.09 8.47 -3 11 C-3.33 6.33 -2.71 3.83 0 0 Z " fill="#EBEBEB" transform="translate(198,104)"/>
<path d="M0 0 C3.16 3.16 3.39 3.56 3.69 7.69 C3.75 8.5 3.82 9.3 3.89 10.14 C3.92 10.75 3.96 11.37 4 12 C3.01 12 2.02 12 1 12 C0.67 8.04 0.34 4.08 0 0 Z " fill="#595959" transform="translate(171,10)"/>
<path d="M0 0 C-1.95 1.95 -3.51 2.94 -5.94 4.19 C-6.63 4.55 -7.32 4.92 -8.03 5.29 C-10 6 -10 6 -13 5 C-8.69 1.43 -5.86 -0.71 0 0 Z " fill="#A0A0A0" transform="translate(40,207)"/>
<path d="M0 0 C0.33 1.32 0.66 2.64 1 4 C1.66 4 2.32 4 3 4 C2.25 9.75 2.25 9.75 0 12 C0 10.35 0 8.7 0 7 C-0.99 7 -1.98 7 -3 7 C-3 6.34 -3 5.68 -3 5 C-2.34 5 -1.68 5 -1 5 C-0.67 3.35 -0.34 1.7 0 0 Z " fill="#2B2B2B" transform="translate(193,101)"/>
<path d="M0 0 C-0.88 4.75 -0.88 4.75 -2 7 C-3.32 7 -4.64 7 -6 7 C-6.33 6.01 -6.66 5.02 -7 4 C-6.01 4 -5.02 4 -4 4 C-4 3.01 -4 2.02 -4 1 C-2 0 -2 0 0 0 Z " fill="#C9C9C9" transform="translate(69,47)"/>
<path d="M0 0 C0 0.66 0 1.32 0 2 C0.99 2.33 1.98 2.66 3 3 C-3.44 3.49 -3.44 3.49 -10 4 C-10 3.34 -10 2.68 -10 2 C-3.38 0 -3.38 0 0 0 Z " fill="#696969" transform="translate(167,29)"/>
<path d="M0 0 C2.88 -0.12 2.88 -0.12 6 0 C6.66 0.66 7.32 1.32 8 2 C7.34 2 6.68 2 6 2 C6 2.66 6 3.32 6 4 C3.36 4 0.72 4 -2 4 C-1.34 2.68 -0.68 1.36 0 0 Z " fill="#8C8C8C" transform="translate(76,15)"/>
<path d="M0 0 C0.33 0 0.66 0 1 0 C0.67 2.64 0.34 5.28 0 8 C-1.32 8.33 -2.64 8.66 -4 9 C-3.47 5.2 -2.56 2.88 0 0 Z " fill="#888888" transform="translate(155,216)"/>
<path d="M0 0 C0.99 0.33 1.98 0.66 3 1 C-0.9 4.53 -3.8 6.64 -9 8 C-2.92 1.75 -2.92 1.75 0 0 Z " fill="#818181" transform="translate(59,192)"/>
<path d="M0 0 C0 0.66 0 1.32 0 2 C0.66 2.33 1.32 2.66 2 3 C-2.45 3.5 -2.45 3.5 -7 4 C-7 3.34 -7 2.68 -7 2 C-8.32 2.33 -9.64 2.66 -11 3 C-11.33 2.34 -11.66 1.68 -12 1 C-10.38 0.83 -8.75 0.67 -7.12 0.5 C-6.22 0.41 -5.32 0.31 -4.38 0.22 C-2 0 -2 0 0 0 Z " fill="#9A9A9A" transform="translate(106,160)"/>
<path d="M0 0 C0.33 1.32 0.66 2.64 1 4 C1.66 4 2.32 4 3 4 C2.67 5.65 2.34 7.3 2 9 C1.67 8.34 1.34 7.68 1 7 C0.34 7 -0.32 7 -1 7 C-1 8.65 -1 10.3 -1 12 C-1.33 12 -1.66 12 -2 12 C-2.18 7.45 -2 4.12 0 0 Z " fill="#C1C1C1" transform="translate(180,147)"/>
<path d="M0 0 C4 2 4 2 5.25 5.12 C5.5 6.07 5.75 7.02 6 8 C5.34 8 4.68 8 4 8 C3.67 8.66 3.34 9.32 3 10 C2.01 6.7 1.02 3.4 0 0 Z " fill="#5B5B5B" transform="translate(182,40)"/>
<path d="M0 0 C0.66 0 1.32 0 2 0 C2.67 1.62 3.34 3.25 4 4.88 C4.37 5.78 4.74 6.68 5.12 7.62 C6 10 6 10 6 12 C5.34 12 4.68 12 4 12 C3.33 10.57 2.66 9.13 2 7.69 C1.63 6.89 1.26 6.09 0.88 5.26 C0 3 0 3 0 0 Z " fill="#5F5F5F" transform="translate(195,34)"/>
<path d="M0 0 C-0.99 0.66 -1.98 1.32 -3 2 C-4.23 2.87 -5.46 3.75 -6.69 4.62 C-7.31 5.07 -7.93 5.52 -8.57 5.98 C-9.04 6.31 -9.52 6.65 -10 7 C-9.62 4.06 -9.62 4.06 -9 1 C-6.04 -0.48 -3.26 -0.06 0 0 Z " fill="#474747" transform="translate(78,27)"/>
<path d="M0 0 C4.38 0.5 6.8 1.98 10 5 C10 5.66 10 6.32 10 7 C10.66 7.33 11.32 7.66 12 8 C8.11 7.42 5.99 5.45 3 3 C2.01 2.67 1.02 2.34 0 2 C0 1.34 0 0.68 0 0 Z " fill="#7C7C7C" transform="translate(106,7)"/>
<path d="M0 0 C0.33 0 0.66 0 1 0 C1.33 5.28 1.66 10.56 2 16 C-0.09 13.21 -1.58 11.07 -3 8 C-2.34 8 -1.68 8 -1 8 C-0.67 5.36 -0.34 2.72 0 0 Z " fill="#DEDEDE" transform="translate(56,89)"/>
<path d="M0 0 C0.99 0 1.98 0 3 0 C3.33 2.31 3.66 4.62 4 7 C3.34 7 2.68 7 2 7 C1.67 6.01 1.34 5.02 1 4 C0.67 4.99 0.34 5.98 0 7 C-0.66 6.67 -1.32 6.34 -2 6 C-1.34 4.02 -0.68 2.04 0 0 Z " fill="#C6C6C6" transform="translate(59,80)"/>
<path d="M0 0 C3.22 0.93 4.66 1.41 6.38 4.38 C7.02 7.08 6.95 8.42 6 11 C5.34 8.69 4.68 6.38 4 4 C3.34 4 2.68 4 2 4 C1.67 4.66 1.34 5.32 1 6 C0.67 4.02 0.34 2.04 0 0 Z " fill="#BBBBBB" transform="translate(193,30)"/>
<path d="M0 0 C4.17 0.47 6.93 1.05 10 4 C10 4.66 10 5.32 10 6 C3.48 4.52 3.48 4.52 1.06 1.88 C0.71 1.26 0.36 0.64 0 0 Z " fill="#6F6F6F" transform="translate(83,22)"/>
<path d="M0 0 C0.99 0 1.98 0 3 0 C4.82 1.97 4.82 1.97 6.69 4.5 C7.31 5.34 7.93 6.17 8.57 7.03 C9.04 7.68 9.52 8.33 10 9 C9.01 9 8.02 9 7 9 C6.67 8.01 6.34 7.02 6 6 C5.34 6 4.68 6 4 6 C4 5.34 4 4.68 4 4 C3.34 4 2.68 4 2 4 C1.34 2.68 0.68 1.36 0 0 Z " fill="#939393" transform="translate(186,21)"/>
<path d="M0 0 C0.33 0.66 0.66 1.32 1 2 C3.12 2.69 3.12 2.69 5.56 3.12 C6.8 3.38 6.8 3.38 8.07 3.63 C8.7 3.75 9.34 3.88 10 4 C10 4.33 10 4.66 10 5 C4.06 5.5 4.06 5.5 -2 6 C-1.34 4.02 -0.68 2.04 0 0 Z " fill="#CCCCCC" transform="translate(85,6)"/>
<path d="M0 0 C2.23 2.23 2.69 3.66 3.62 6.62 C3.89 7.44 4.15 8.26 4.41 9.1 C4.7 10.04 4.7 10.04 5 11 C3.05 10.29 3.05 10.29 1 9 C0.39 6.84 0.39 6.84 0.25 4.38 C0.19 3.56 0.14 2.74 0.08 1.9 C0.05 1.27 0.03 0.65 0 0 Z " fill="#6F6F6F" transform="translate(66,166)"/>
<path d="M0 0 C2.03 3.31 2.13 5.43 1.62 9.25 C1.51 10.14 1.4 11.03 1.29 11.95 C1.19 12.63 1.1 13.3 1 14 C0.34 13.67 -0.32 13.34 -1 13 C-0.98 12.24 -0.96 11.47 -0.94 10.69 C-0.87 7.9 -0.87 7.9 -2 5 C-1.34 5 -0.68 5 0 5 C0 3.35 0 1.7 0 0 Z " fill="#9A9A9A" transform="translate(59,120)"/>
<path d="M0 0 C0.66 0 1.32 0 2 0 C5 5.75 5 5.75 5 8 C3.68 7.67 2.36 7.34 1 7 C0.67 4.69 0.34 2.38 0 0 Z " fill="#5F5F5F" transform="translate(53,99)"/>
<path d="M0 0 C0.33 0.99 0.66 1.98 1 3 C-0.14 3.4 -0.14 3.4 -1.31 3.81 C-3.9 4.96 -5.09 6 -7 8 C-7.66 8 -8.32 8 -9 8 C-7.27 3.44 -4.18 2.09 0 0 Z " fill="#A2A2A2" transform="translate(76,91)"/>
<path d="M0 0 C0.33 0 0.66 0 1 0 C1.29 7.43 1.29 7.43 -1 11 C-1 10.34 -1 9.68 -1 9 C-1.99 9 -2.98 9 -4 9 C-4 8.34 -4 7.68 -4 7 C-3.34 6.67 -2.68 6.34 -2 6 C-1.27 4.02 -0.6 2.02 0 0 Z " fill="#D1D1D1" transform="translate(208,65)"/>
<path d="M0 0 C2.01 0.29 4.01 0.62 6 1 C6 1.66 6 2.32 6 3 C8.31 3.33 10.62 3.66 13 4 C8.99 5.61 5.95 4.37 2 3 C1.01 2.34 0.02 1.68 -1 1 C-0.67 0.67 -0.34 0.34 0 0 Z " fill="#A3A3A3" transform="translate(87,21)"/>
<path d="M0 0 C1.23 0.15 1.23 0.15 2.48 0.31 C3.42 0.43 3.42 0.43 4.38 0.56 C4.38 1.22 4.38 1.88 4.38 2.56 C-3.05 2.85 -3.05 2.85 -6.62 0.56 C-4.1 -0.7 -2.77 -0.36 0 0 Z " fill="#9E9E9E" transform="translate(245.625,199.4375)"/>
<path d="M0 0 C4.71 0.48 8.67 0.97 13 3 C9.18 4.37 5.93 3.68 2 3 C2 2.34 2 1.68 2 1 C1.34 0.67 0.68 0.34 0 0 Z " fill="#E1E1E1" transform="translate(127,162)"/>
<path d="M0 0 C2 1 4 2 6 3 C6 3.66 6 4.32 6 5 C2.37 4.34 -1.26 3.68 -5 3 C-5 2.67 -5 2.34 -5 2 C-3.35 2 -1.7 2 0 2 C0 1.34 0 0.68 0 0 Z " fill="#A9A9A9" transform="translate(94,91)"/>
<path d="M0 0 C-1.12 2.97 -2.22 5.33 -4 8 C-4.12 7.36 -4.25 6.72 -4.38 6.06 C-4.68 5.04 -4.68 5.04 -5 4 C-5.66 3.67 -6.32 3.34 -7 3 C-3.38 0 -3.38 0 0 0 Z " fill="#BEBEBE" transform="translate(69,29)"/>
<path d="M0 0 C4.88 -0.35 7.77 0.58 12 3 C9 5 9 5 6.31 4.62 C5.55 4.42 4.79 4.21 4 4 C4.33 3.01 4.66 2.02 5 1 C3.35 1 1.7 1 0 1 C0 0.67 0 0.34 0 0 Z " fill="#B4B4B4" transform="translate(97,3)"/>
<path d="M0 0 C3 0 3 0 5 1 C1.53 3.97 1.53 3.97 -2 7 C-2.33 6.34 -2.66 5.68 -3 5 C-1.75 2.38 -1.75 2.38 0 0 Z " fill="#E1E1E1" transform="translate(96,148)"/>
<path d="M0 0 C2.57 3.85 2.55 6.43 3 11 C0 9 0 9 -0.75 5.5 C-1 2 -1 2 0 0 Z " fill="#CCCCCC" transform="translate(56,122)"/>
<path d="M0 0 C3.57 7.13 3.57 7.13 2 12 C1.34 12 0.68 12 0 12 C0 8.04 0 4.08 0 0 Z " fill="#C7C7C7" transform="translate(186,90)"/>
<path d="M0 0 C1.46 2.65 2 3.89 2 7 C0.68 6.67 -0.64 6.34 -2 6 C-2 5.01 -2 4.02 -2 3 C-2.66 2.67 -3.32 2.34 -4 2 C-2.68 1.34 -1.36 0.68 0 0 Z " fill="#E3E3E3" transform="translate(200,74)"/>
<path d="M0 0 C3.28 1.64 3.75 4.69 5 8 C5 8.99 5 9.98 5 11 C4.01 11 3.02 11 2 11 C1.34 7.37 0.68 3.74 0 0 Z " fill="#D2D2D2" transform="translate(187,54)"/>
<path d="M0 0 C0.66 0 1.32 0 2 0 C3.43 2.35 4.09 3.48 3.62 6.25 C3.42 6.83 3.21 7.41 3 8 C2.34 8 1.68 8 1 8 C-0.35 5.29 -0.07 2.99 0 0 Z " fill="#535353" transform="translate(193,52)"/>
<path d="M0 0 C2.97 0.33 5.94 0.66 9 1 C7.52 2.48 7.52 2.48 6 4 C4.02 3.34 2.04 2.68 0 2 C0 1.34 0 0.68 0 0 Z " fill="#5A5A5A" transform="translate(82,17)"/>
<path d="M0 0 C0.33 0.66 0.66 1.32 1 2 C1.66 2 2.32 2 3 2 C3 5.3 3 8.6 3 12 C0.5 9.5 0.64 8.33 0.38 4.88 C0.3 3.96 0.23 3.05 0.15 2.12 C0.1 1.42 0.05 0.72 0 0 Z " fill="#ACACAC" transform="translate(70,195)"/>
<path d="M0 0 C0.66 1.32 1.32 2.64 2 4 C1.24 4.29 0.47 4.58 -0.31 4.88 C-3.15 5.96 -3.15 5.96 -6 8 C-6 5 -6 5 -4.69 3.61 C-3.12 2.41 -1.56 1.2 0 0 Z " fill="#A6A6A6" transform="translate(162,188)"/>
<path d="M0 0 C0.33 0.66 0.66 1.32 1 2 C0.34 2 -0.32 2 -1 2 C-1.33 2.99 -1.66 3.98 -2 5 C-4.56 6.19 -4.56 6.19 -7 7 C-7.33 6.01 -7.66 5.02 -8 4 C-5.36 2.68 -2.72 1.36 0 0 Z " fill="#C8C8C8" transform="translate(104,104)"/>
<path d="M0 0 C2.31 0.33 4.62 0.66 7 1 C6.01 2.32 5.02 3.64 4 5 C2.68 4.67 1.36 4.34 0 4 C0 2.67 0 1.33 0 0 Z " fill="#414141" transform="translate(75,102)"/>
<path d="M0 0 C2.4 2.4 2.34 3.33 2.62 6.62 C2.7 7.44 2.77 8.26 2.85 9.1 C2.9 9.73 2.95 10.35 3 11 C2.34 11 1.68 11 1 11 C-0.2 8.59 -0.1 7.05 -0.06 4.38 C-0.05 3.56 -0.04 2.74 -0.04 1.9 C-0.02 1.27 -0.01 0.65 0 0 Z " fill="#333333" transform="translate(46,74)"/>
<path d="M0 0 C0.66 0.66 1.32 1.32 2 2 C1.62 5.62 1.62 5.62 1 9 C0.67 8.34 0.34 7.68 0 7 C-0.66 7 -1.32 7 -2 7 C-1.12 2.25 -1.12 2.25 0 0 Z " fill="#B1B1B1" transform="translate(46,49)"/>
<path d="M0 0 C0.99 1.32 1.98 2.64 3 4 C2.01 4.49 2.01 4.49 1 5 C0.67 5.99 0.34 6.98 0 8 C-0.33 7.01 -0.66 6.02 -1 5 C-1.99 4.67 -2.98 4.34 -4 4 C-2.68 3.67 -1.36 3.34 0 3 C0 2.01 0 1.02 0 0 Z " fill="#B7B7B7" transform="translate(197,42)"/>
<path d="M0 0 C0 0.66 0 1.32 0 2 C-1.65 2.66 -3.3 3.32 -5 4 C-5 5.98 -5 7.96 -5 10 C-5.99 9.67 -6.98 9.34 -8 9 C-7.34 9 -6.68 9 -6 9 C-6 6.69 -6 4.38 -6 2 C-2.25 0 -2.25 0 0 0 Z " fill="#C1C1C1" transform="translate(69,14)"/>
<path d="M0 0 C0.99 0 1.98 0 3 0 C3.26 3.15 3.25 4.62 1.5 7.31 C0.76 8.15 0.76 8.15 0 9 C0 6.03 0 3.06 0 0 Z " fill="#AAAAAA" transform="translate(187,79)"/>
<path d="M0 0 C1.32 0.66 2.64 1.32 4 2 C3.25 4.38 3.25 4.38 2 7 C0.02 7.99 0.02 7.99 -2 9 C-1.34 6.03 -0.68 3.06 0 0 Z " fill="#4D4D4D" transform="translate(65,38)"/>
<path d="M0 0 C0.33 0.66 0.66 1.32 1 2 C2.32 1.67 3.64 1.34 5 1 C5 1.66 5 2.32 5 3 C4.03 3.12 3.06 3.25 2.06 3.38 C1.05 3.58 0.04 3.79 -1 4 C-1.33 4.66 -1.66 5.32 -2 6 C-2.66 5.34 -3.32 4.68 -4 4 C-2.68 2.68 -1.36 1.36 0 0 Z " fill="#BCBCBC" transform="translate(150,223)"/>
<path d="M0 0 C0.66 0 1.32 0 2 0 C3.07 1.96 4.07 3.97 5 6 C4 8 4 8 2 9 C1.34 6.03 0.68 3.06 0 0 Z " fill="#969696" transform="translate(72,202)"/>
<path d="M0 0 C0.33 0 0.66 0 1 0 C1 1.65 1 3.3 1 5 C0.34 5 -0.32 5 -1 5 C-1.33 6.32 -1.66 7.64 -2 9 C-2.66 9 -3.32 9 -4 9 C-3.34 7.02 -2.68 5.04 -2 3 C-1.34 3 -0.68 3 0 3 C0 2.01 0 1.02 0 0 Z " fill="#A5A5A5" transform="translate(68,178)"/>
<path d="M0 0 C0 1.32 0 2.64 0 4 C-2.67 3.33 -5.33 2.67 -8 2 C-4.77 -0.15 -3.72 -0.2 0 0 Z " fill="#F1F1F1" transform="translate(137,167)"/>
<path d="M0 0 C0.66 0 1.32 0 2 0 C2 2.97 2 5.94 2 9 C1.34 9 0.68 9 0 9 C-1.16 5.52 -0.71 3.54 0 0 Z " fill="#909090" transform="translate(47,103)"/>
<path d="M0 0 C0.66 0 1.32 0 2 0 C1.55 1.48 1.09 2.96 0.62 4.44 C0.37 5.26 0.11 6.08 -0.15 6.93 C-1 9 -1 9 -3 10 C-3.36 5.76 -2.54 3.42 0 0 Z " fill="#8E8E8E" transform="translate(46,96)"/>
<path d="M0 0 C3.3 0.33 6.6 0.66 10 1 C10 1.33 10 1.66 10 2 C6.37 2.33 2.74 2.66 -1 3 C-0.67 2.01 -0.34 1.02 0 0 Z " fill="#E7E7E7" transform="translate(145,99)"/>
<path d="M0 0 C2 3 2 3 1.62 6.19 C1.42 7.12 1.21 8.04 1 9 C0.34 8.67 -0.32 8.34 -1 8 C-1.12 2.25 -1.12 2.25 0 0 Z " fill="#414141" transform="translate(198,92)"/>
<path d="M0 0 C0.99 0.33 1.98 0.66 3 1 C3.33 2.98 3.66 4.96 4 7 C2.68 6.34 1.36 5.68 0 5 C0 3.35 0 1.7 0 0 Z " fill="#6C6C6C" transform="translate(201,70)"/>
<path d="M0 0 C0.99 0.33 1.98 0.66 3 1 C1.52 4.47 1.52 4.47 0 8 C-1.12 6.25 -1.12 6.25 -2 4 C-1.12 1.75 -1.12 1.75 0 0 Z " fill="#E6E6E6" transform="translate(53,30)"/>
<path d="M0 0 C0.99 0.33 1.98 0.66 3 1 C3 1.66 3 2.32 3 3 C2.01 3.66 1.02 4.32 0 5 C-0.66 5.99 -1.32 6.98 -2 8 C-2.69 6.25 -2.69 6.25 -3 4 C-1.56 1.75 -1.56 1.75 0 0 Z " fill="#9C9C9C" transform="translate(58,27)"/>
<path d="M0 0 C0.66 0.66 1.32 1.32 2 2 C-1.45 4.05 -3.32 5.06 -7.38 4.69 C-8.24 4.46 -9.11 4.23 -10 4 C-10 3.67 -10 3.34 -10 3 C-6.97 2.27 -6.97 2.27 -3.95 1.54 C-1.94 1.05 -1.94 1.05 0 0 Z " fill="#A5A5A5" transform="translate(143,203)"/>
<path d="M0 0 C1.32 0 2.64 0 4 0 C3.67 1.98 3.34 3.96 3 6 C2.01 6.33 1.02 6.66 0 7 C0 4.69 0 2.38 0 0 Z " fill="#C9C9C9" transform="translate(160,192)"/>
<path d="M0 0 C0.66 0.33 1.32 0.66 2 1 C1.34 4.3 0.68 7.6 0 11 C-2 8 -2 8 -1.76 5.96 C-1.17 3.97 -0.59 1.99 0 0 Z " fill="#9A9A9A" transform="translate(199,106)"/>
<path d="M0 0 C0.66 0 1.32 0 2 0 C2 0.66 2 1.32 2 2 C2.99 2.33 3.98 2.66 5 3 C5.33 3.66 5.66 4.32 6 5 C4.02 5 2.04 5 0 5 C0 3.35 0 1.7 0 0 Z " fill="#A2A2A2" transform="translate(87,103)"/>
<path d="M0 0 C1.65 0 3.3 0 5 0 C5 1.32 5 2.64 5 4 C3.35 3.67 1.7 3.34 0 3 C0 2.01 0 1.02 0 0 Z " fill="#C5C5C5" transform="translate(198,65)"/>
<path d="M0 0 C0.99 0.33 1.98 0.66 3 1 C1.5 2.24 0.01 3.47 -1.49 4.71 C-2.71 5.75 -3.87 6.87 -5 8 C-5 5 -5 5 -2.5 2.31 C-1.68 1.55 -0.85 0.79 0 0 Z " fill="#A7A7A7" transform="translate(161,22)"/>
<path d="M0 0 C7.43 -0.29 7.43 -0.29 11 2 C6.71 3.26 4.12 2.63 0 1 C0 0.67 0 0.34 0 0 Z " fill="#737373" transform="translate(89,8)"/>
<path d="M0 0 C3.12 -0.19 3.12 -0.19 6 0 C6 0.66 6 1.32 6 2 C3.36 2.33 0.72 2.66 -2 3 C-1.34 2.01 -0.68 1.02 0 0 Z " fill="#969696" transform="translate(13,215)"/>
<path d="M0 0 C3.96 1.98 3.96 1.98 8 4 C8 4.33 8 4.66 8 5 C5.69 4.67 3.38 4.34 1 4 C0.67 2.68 0.34 1.36 0 0 Z " fill="#4D4D4D" transform="translate(108,143)"/>
<path d="M0 0 C0.25 0.58 0.49 1.16 0.75 1.75 C2.17 4.3 3.88 6.02 6 8 C5.67 8.66 5.34 9.32 5 10 C2.5 8.38 2.5 8.38 0 6 C-0.31 2.75 -0.31 2.75 0 0 Z " fill="#3F3F3F" transform="translate(55,127)"/>
<path d="M0 0 C2.47 0.5 2.47 0.5 5 1 C4.67 1.99 4.34 2.98 4 4 C2.68 3.67 1.36 3.34 0 3 C0 2.01 0 1.02 0 0 Z " fill="#F1F1F1" transform="translate(197,86)"/>
<path d="M0 0 C0.33 1.32 0.66 2.64 1 4 C1.99 3.67 2.98 3.34 4 3 C4 4.65 4 6.3 4 8 C3.01 7.67 2.02 7.34 1 7 C0.67 4.69 0.34 2.38 0 0 Z " fill="#D1D1D1" transform="translate(204,57)"/>
<path d="M0 0 C0.33 0 0.66 0 1 0 C1 2.31 1 4.62 1 7 C-0.32 7.33 -1.64 7.66 -3 8 C-2.37 5.07 -1.41 2.64 0 0 Z " fill="#ADADAD" transform="translate(64,38)"/>
<path d="M0 0 C2.92 1.07 4.78 1.78 7 4 C6.67 4.99 6.34 5.98 6 7 C4.02 4.69 2.04 2.38 0 0 Z " fill="#878787" transform="translate(176,14)"/>
</svg>
